G75*
%MOIN*%
%OFA0B0*%
%FSLAX25Y25*%
%IPPOS*%
%LPD*%
%AMOC8*
5,1,8,0,0,1.08239X$1,22.5*
%
%ADD10C,0.00000*%
%ADD11C,0.12998*%
%ADD12R,0.06699X0.04731*%
%ADD13R,0.04731X0.04337*%
%ADD14R,0.04731X0.06699*%
%ADD15R,0.04337X0.04731*%
%ADD16C,0.08650*%
%ADD17R,0.07093X0.07093*%
%ADD18R,0.09061X0.07487*%
%ADD19R,0.05124X0.05124*%
%ADD20C,0.07800*%
%ADD21R,0.08274X0.14180*%
%ADD22R,0.06306X0.06306*%
%ADD23C,0.06306*%
%ADD24C,0.00504*%
%ADD25C,0.00366*%
%ADD26C,0.00671*%
%ADD27R,0.09061X0.02762*%
%ADD28R,0.02762X0.09061*%
%ADD29C,0.00039*%
%ADD30C,0.03353*%
D10*
X0001600Y0003690D02*
X0001600Y0193690D01*
X0276600Y0193690D01*
X0276600Y0003690D01*
X0001600Y0003690D01*
X0010301Y0018690D02*
X0010303Y0018848D01*
X0010309Y0019006D01*
X0010319Y0019164D01*
X0010333Y0019322D01*
X0010351Y0019479D01*
X0010372Y0019636D01*
X0010398Y0019792D01*
X0010428Y0019948D01*
X0010461Y0020103D01*
X0010499Y0020256D01*
X0010540Y0020409D01*
X0010585Y0020561D01*
X0010634Y0020712D01*
X0010687Y0020861D01*
X0010743Y0021009D01*
X0010803Y0021155D01*
X0010867Y0021300D01*
X0010935Y0021443D01*
X0011006Y0021585D01*
X0011080Y0021725D01*
X0011158Y0021862D01*
X0011240Y0021998D01*
X0011324Y0022132D01*
X0011413Y0022263D01*
X0011504Y0022392D01*
X0011599Y0022519D01*
X0011696Y0022644D01*
X0011797Y0022766D01*
X0011901Y0022885D01*
X0012008Y0023002D01*
X0012118Y0023116D01*
X0012231Y0023227D01*
X0012346Y0023336D01*
X0012464Y0023441D01*
X0012585Y0023543D01*
X0012708Y0023643D01*
X0012834Y0023739D01*
X0012962Y0023832D01*
X0013092Y0023922D01*
X0013225Y0024008D01*
X0013360Y0024092D01*
X0013496Y0024171D01*
X0013635Y0024248D01*
X0013776Y0024320D01*
X0013918Y0024390D01*
X0014062Y0024455D01*
X0014208Y0024517D01*
X0014355Y0024575D01*
X0014504Y0024630D01*
X0014654Y0024681D01*
X0014805Y0024728D01*
X0014957Y0024771D01*
X0015110Y0024810D01*
X0015265Y0024846D01*
X0015420Y0024877D01*
X0015576Y0024905D01*
X0015732Y0024929D01*
X0015889Y0024949D01*
X0016047Y0024965D01*
X0016204Y0024977D01*
X0016363Y0024985D01*
X0016521Y0024989D01*
X0016679Y0024989D01*
X0016837Y0024985D01*
X0016996Y0024977D01*
X0017153Y0024965D01*
X0017311Y0024949D01*
X0017468Y0024929D01*
X0017624Y0024905D01*
X0017780Y0024877D01*
X0017935Y0024846D01*
X0018090Y0024810D01*
X0018243Y0024771D01*
X0018395Y0024728D01*
X0018546Y0024681D01*
X0018696Y0024630D01*
X0018845Y0024575D01*
X0018992Y0024517D01*
X0019138Y0024455D01*
X0019282Y0024390D01*
X0019424Y0024320D01*
X0019565Y0024248D01*
X0019704Y0024171D01*
X0019840Y0024092D01*
X0019975Y0024008D01*
X0020108Y0023922D01*
X0020238Y0023832D01*
X0020366Y0023739D01*
X0020492Y0023643D01*
X0020615Y0023543D01*
X0020736Y0023441D01*
X0020854Y0023336D01*
X0020969Y0023227D01*
X0021082Y0023116D01*
X0021192Y0023002D01*
X0021299Y0022885D01*
X0021403Y0022766D01*
X0021504Y0022644D01*
X0021601Y0022519D01*
X0021696Y0022392D01*
X0021787Y0022263D01*
X0021876Y0022132D01*
X0021960Y0021998D01*
X0022042Y0021862D01*
X0022120Y0021725D01*
X0022194Y0021585D01*
X0022265Y0021443D01*
X0022333Y0021300D01*
X0022397Y0021155D01*
X0022457Y0021009D01*
X0022513Y0020861D01*
X0022566Y0020712D01*
X0022615Y0020561D01*
X0022660Y0020409D01*
X0022701Y0020256D01*
X0022739Y0020103D01*
X0022772Y0019948D01*
X0022802Y0019792D01*
X0022828Y0019636D01*
X0022849Y0019479D01*
X0022867Y0019322D01*
X0022881Y0019164D01*
X0022891Y0019006D01*
X0022897Y0018848D01*
X0022899Y0018690D01*
X0022897Y0018532D01*
X0022891Y0018374D01*
X0022881Y0018216D01*
X0022867Y0018058D01*
X0022849Y0017901D01*
X0022828Y0017744D01*
X0022802Y0017588D01*
X0022772Y0017432D01*
X0022739Y0017277D01*
X0022701Y0017124D01*
X0022660Y0016971D01*
X0022615Y0016819D01*
X0022566Y0016668D01*
X0022513Y0016519D01*
X0022457Y0016371D01*
X0022397Y0016225D01*
X0022333Y0016080D01*
X0022265Y0015937D01*
X0022194Y0015795D01*
X0022120Y0015655D01*
X0022042Y0015518D01*
X0021960Y0015382D01*
X0021876Y0015248D01*
X0021787Y0015117D01*
X0021696Y0014988D01*
X0021601Y0014861D01*
X0021504Y0014736D01*
X0021403Y0014614D01*
X0021299Y0014495D01*
X0021192Y0014378D01*
X0021082Y0014264D01*
X0020969Y0014153D01*
X0020854Y0014044D01*
X0020736Y0013939D01*
X0020615Y0013837D01*
X0020492Y0013737D01*
X0020366Y0013641D01*
X0020238Y0013548D01*
X0020108Y0013458D01*
X0019975Y0013372D01*
X0019840Y0013288D01*
X0019704Y0013209D01*
X0019565Y0013132D01*
X0019424Y0013060D01*
X0019282Y0012990D01*
X0019138Y0012925D01*
X0018992Y0012863D01*
X0018845Y0012805D01*
X0018696Y0012750D01*
X0018546Y0012699D01*
X0018395Y0012652D01*
X0018243Y0012609D01*
X0018090Y0012570D01*
X0017935Y0012534D01*
X0017780Y0012503D01*
X0017624Y0012475D01*
X0017468Y0012451D01*
X0017311Y0012431D01*
X0017153Y0012415D01*
X0016996Y0012403D01*
X0016837Y0012395D01*
X0016679Y0012391D01*
X0016521Y0012391D01*
X0016363Y0012395D01*
X0016204Y0012403D01*
X0016047Y0012415D01*
X0015889Y0012431D01*
X0015732Y0012451D01*
X0015576Y0012475D01*
X0015420Y0012503D01*
X0015265Y0012534D01*
X0015110Y0012570D01*
X0014957Y0012609D01*
X0014805Y0012652D01*
X0014654Y0012699D01*
X0014504Y0012750D01*
X0014355Y0012805D01*
X0014208Y0012863D01*
X0014062Y0012925D01*
X0013918Y0012990D01*
X0013776Y0013060D01*
X0013635Y0013132D01*
X0013496Y0013209D01*
X0013360Y0013288D01*
X0013225Y0013372D01*
X0013092Y0013458D01*
X0012962Y0013548D01*
X0012834Y0013641D01*
X0012708Y0013737D01*
X0012585Y0013837D01*
X0012464Y0013939D01*
X0012346Y0014044D01*
X0012231Y0014153D01*
X0012118Y0014264D01*
X0012008Y0014378D01*
X0011901Y0014495D01*
X0011797Y0014614D01*
X0011696Y0014736D01*
X0011599Y0014861D01*
X0011504Y0014988D01*
X0011413Y0015117D01*
X0011324Y0015248D01*
X0011240Y0015382D01*
X0011158Y0015518D01*
X0011080Y0015655D01*
X0011006Y0015795D01*
X0010935Y0015937D01*
X0010867Y0016080D01*
X0010803Y0016225D01*
X0010743Y0016371D01*
X0010687Y0016519D01*
X0010634Y0016668D01*
X0010585Y0016819D01*
X0010540Y0016971D01*
X0010499Y0017124D01*
X0010461Y0017277D01*
X0010428Y0017432D01*
X0010398Y0017588D01*
X0010372Y0017744D01*
X0010351Y0017901D01*
X0010333Y0018058D01*
X0010319Y0018216D01*
X0010309Y0018374D01*
X0010303Y0018532D01*
X0010301Y0018690D01*
X0010301Y0178690D02*
X0010303Y0178848D01*
X0010309Y0179006D01*
X0010319Y0179164D01*
X0010333Y0179322D01*
X0010351Y0179479D01*
X0010372Y0179636D01*
X0010398Y0179792D01*
X0010428Y0179948D01*
X0010461Y0180103D01*
X0010499Y0180256D01*
X0010540Y0180409D01*
X0010585Y0180561D01*
X0010634Y0180712D01*
X0010687Y0180861D01*
X0010743Y0181009D01*
X0010803Y0181155D01*
X0010867Y0181300D01*
X0010935Y0181443D01*
X0011006Y0181585D01*
X0011080Y0181725D01*
X0011158Y0181862D01*
X0011240Y0181998D01*
X0011324Y0182132D01*
X0011413Y0182263D01*
X0011504Y0182392D01*
X0011599Y0182519D01*
X0011696Y0182644D01*
X0011797Y0182766D01*
X0011901Y0182885D01*
X0012008Y0183002D01*
X0012118Y0183116D01*
X0012231Y0183227D01*
X0012346Y0183336D01*
X0012464Y0183441D01*
X0012585Y0183543D01*
X0012708Y0183643D01*
X0012834Y0183739D01*
X0012962Y0183832D01*
X0013092Y0183922D01*
X0013225Y0184008D01*
X0013360Y0184092D01*
X0013496Y0184171D01*
X0013635Y0184248D01*
X0013776Y0184320D01*
X0013918Y0184390D01*
X0014062Y0184455D01*
X0014208Y0184517D01*
X0014355Y0184575D01*
X0014504Y0184630D01*
X0014654Y0184681D01*
X0014805Y0184728D01*
X0014957Y0184771D01*
X0015110Y0184810D01*
X0015265Y0184846D01*
X0015420Y0184877D01*
X0015576Y0184905D01*
X0015732Y0184929D01*
X0015889Y0184949D01*
X0016047Y0184965D01*
X0016204Y0184977D01*
X0016363Y0184985D01*
X0016521Y0184989D01*
X0016679Y0184989D01*
X0016837Y0184985D01*
X0016996Y0184977D01*
X0017153Y0184965D01*
X0017311Y0184949D01*
X0017468Y0184929D01*
X0017624Y0184905D01*
X0017780Y0184877D01*
X0017935Y0184846D01*
X0018090Y0184810D01*
X0018243Y0184771D01*
X0018395Y0184728D01*
X0018546Y0184681D01*
X0018696Y0184630D01*
X0018845Y0184575D01*
X0018992Y0184517D01*
X0019138Y0184455D01*
X0019282Y0184390D01*
X0019424Y0184320D01*
X0019565Y0184248D01*
X0019704Y0184171D01*
X0019840Y0184092D01*
X0019975Y0184008D01*
X0020108Y0183922D01*
X0020238Y0183832D01*
X0020366Y0183739D01*
X0020492Y0183643D01*
X0020615Y0183543D01*
X0020736Y0183441D01*
X0020854Y0183336D01*
X0020969Y0183227D01*
X0021082Y0183116D01*
X0021192Y0183002D01*
X0021299Y0182885D01*
X0021403Y0182766D01*
X0021504Y0182644D01*
X0021601Y0182519D01*
X0021696Y0182392D01*
X0021787Y0182263D01*
X0021876Y0182132D01*
X0021960Y0181998D01*
X0022042Y0181862D01*
X0022120Y0181725D01*
X0022194Y0181585D01*
X0022265Y0181443D01*
X0022333Y0181300D01*
X0022397Y0181155D01*
X0022457Y0181009D01*
X0022513Y0180861D01*
X0022566Y0180712D01*
X0022615Y0180561D01*
X0022660Y0180409D01*
X0022701Y0180256D01*
X0022739Y0180103D01*
X0022772Y0179948D01*
X0022802Y0179792D01*
X0022828Y0179636D01*
X0022849Y0179479D01*
X0022867Y0179322D01*
X0022881Y0179164D01*
X0022891Y0179006D01*
X0022897Y0178848D01*
X0022899Y0178690D01*
X0022897Y0178532D01*
X0022891Y0178374D01*
X0022881Y0178216D01*
X0022867Y0178058D01*
X0022849Y0177901D01*
X0022828Y0177744D01*
X0022802Y0177588D01*
X0022772Y0177432D01*
X0022739Y0177277D01*
X0022701Y0177124D01*
X0022660Y0176971D01*
X0022615Y0176819D01*
X0022566Y0176668D01*
X0022513Y0176519D01*
X0022457Y0176371D01*
X0022397Y0176225D01*
X0022333Y0176080D01*
X0022265Y0175937D01*
X0022194Y0175795D01*
X0022120Y0175655D01*
X0022042Y0175518D01*
X0021960Y0175382D01*
X0021876Y0175248D01*
X0021787Y0175117D01*
X0021696Y0174988D01*
X0021601Y0174861D01*
X0021504Y0174736D01*
X0021403Y0174614D01*
X0021299Y0174495D01*
X0021192Y0174378D01*
X0021082Y0174264D01*
X0020969Y0174153D01*
X0020854Y0174044D01*
X0020736Y0173939D01*
X0020615Y0173837D01*
X0020492Y0173737D01*
X0020366Y0173641D01*
X0020238Y0173548D01*
X0020108Y0173458D01*
X0019975Y0173372D01*
X0019840Y0173288D01*
X0019704Y0173209D01*
X0019565Y0173132D01*
X0019424Y0173060D01*
X0019282Y0172990D01*
X0019138Y0172925D01*
X0018992Y0172863D01*
X0018845Y0172805D01*
X0018696Y0172750D01*
X0018546Y0172699D01*
X0018395Y0172652D01*
X0018243Y0172609D01*
X0018090Y0172570D01*
X0017935Y0172534D01*
X0017780Y0172503D01*
X0017624Y0172475D01*
X0017468Y0172451D01*
X0017311Y0172431D01*
X0017153Y0172415D01*
X0016996Y0172403D01*
X0016837Y0172395D01*
X0016679Y0172391D01*
X0016521Y0172391D01*
X0016363Y0172395D01*
X0016204Y0172403D01*
X0016047Y0172415D01*
X0015889Y0172431D01*
X0015732Y0172451D01*
X0015576Y0172475D01*
X0015420Y0172503D01*
X0015265Y0172534D01*
X0015110Y0172570D01*
X0014957Y0172609D01*
X0014805Y0172652D01*
X0014654Y0172699D01*
X0014504Y0172750D01*
X0014355Y0172805D01*
X0014208Y0172863D01*
X0014062Y0172925D01*
X0013918Y0172990D01*
X0013776Y0173060D01*
X0013635Y0173132D01*
X0013496Y0173209D01*
X0013360Y0173288D01*
X0013225Y0173372D01*
X0013092Y0173458D01*
X0012962Y0173548D01*
X0012834Y0173641D01*
X0012708Y0173737D01*
X0012585Y0173837D01*
X0012464Y0173939D01*
X0012346Y0174044D01*
X0012231Y0174153D01*
X0012118Y0174264D01*
X0012008Y0174378D01*
X0011901Y0174495D01*
X0011797Y0174614D01*
X0011696Y0174736D01*
X0011599Y0174861D01*
X0011504Y0174988D01*
X0011413Y0175117D01*
X0011324Y0175248D01*
X0011240Y0175382D01*
X0011158Y0175518D01*
X0011080Y0175655D01*
X0011006Y0175795D01*
X0010935Y0175937D01*
X0010867Y0176080D01*
X0010803Y0176225D01*
X0010743Y0176371D01*
X0010687Y0176519D01*
X0010634Y0176668D01*
X0010585Y0176819D01*
X0010540Y0176971D01*
X0010499Y0177124D01*
X0010461Y0177277D01*
X0010428Y0177432D01*
X0010398Y0177588D01*
X0010372Y0177744D01*
X0010351Y0177901D01*
X0010333Y0178058D01*
X0010319Y0178216D01*
X0010309Y0178374D01*
X0010303Y0178532D01*
X0010301Y0178690D01*
X0255301Y0178690D02*
X0255303Y0178848D01*
X0255309Y0179006D01*
X0255319Y0179164D01*
X0255333Y0179322D01*
X0255351Y0179479D01*
X0255372Y0179636D01*
X0255398Y0179792D01*
X0255428Y0179948D01*
X0255461Y0180103D01*
X0255499Y0180256D01*
X0255540Y0180409D01*
X0255585Y0180561D01*
X0255634Y0180712D01*
X0255687Y0180861D01*
X0255743Y0181009D01*
X0255803Y0181155D01*
X0255867Y0181300D01*
X0255935Y0181443D01*
X0256006Y0181585D01*
X0256080Y0181725D01*
X0256158Y0181862D01*
X0256240Y0181998D01*
X0256324Y0182132D01*
X0256413Y0182263D01*
X0256504Y0182392D01*
X0256599Y0182519D01*
X0256696Y0182644D01*
X0256797Y0182766D01*
X0256901Y0182885D01*
X0257008Y0183002D01*
X0257118Y0183116D01*
X0257231Y0183227D01*
X0257346Y0183336D01*
X0257464Y0183441D01*
X0257585Y0183543D01*
X0257708Y0183643D01*
X0257834Y0183739D01*
X0257962Y0183832D01*
X0258092Y0183922D01*
X0258225Y0184008D01*
X0258360Y0184092D01*
X0258496Y0184171D01*
X0258635Y0184248D01*
X0258776Y0184320D01*
X0258918Y0184390D01*
X0259062Y0184455D01*
X0259208Y0184517D01*
X0259355Y0184575D01*
X0259504Y0184630D01*
X0259654Y0184681D01*
X0259805Y0184728D01*
X0259957Y0184771D01*
X0260110Y0184810D01*
X0260265Y0184846D01*
X0260420Y0184877D01*
X0260576Y0184905D01*
X0260732Y0184929D01*
X0260889Y0184949D01*
X0261047Y0184965D01*
X0261204Y0184977D01*
X0261363Y0184985D01*
X0261521Y0184989D01*
X0261679Y0184989D01*
X0261837Y0184985D01*
X0261996Y0184977D01*
X0262153Y0184965D01*
X0262311Y0184949D01*
X0262468Y0184929D01*
X0262624Y0184905D01*
X0262780Y0184877D01*
X0262935Y0184846D01*
X0263090Y0184810D01*
X0263243Y0184771D01*
X0263395Y0184728D01*
X0263546Y0184681D01*
X0263696Y0184630D01*
X0263845Y0184575D01*
X0263992Y0184517D01*
X0264138Y0184455D01*
X0264282Y0184390D01*
X0264424Y0184320D01*
X0264565Y0184248D01*
X0264704Y0184171D01*
X0264840Y0184092D01*
X0264975Y0184008D01*
X0265108Y0183922D01*
X0265238Y0183832D01*
X0265366Y0183739D01*
X0265492Y0183643D01*
X0265615Y0183543D01*
X0265736Y0183441D01*
X0265854Y0183336D01*
X0265969Y0183227D01*
X0266082Y0183116D01*
X0266192Y0183002D01*
X0266299Y0182885D01*
X0266403Y0182766D01*
X0266504Y0182644D01*
X0266601Y0182519D01*
X0266696Y0182392D01*
X0266787Y0182263D01*
X0266876Y0182132D01*
X0266960Y0181998D01*
X0267042Y0181862D01*
X0267120Y0181725D01*
X0267194Y0181585D01*
X0267265Y0181443D01*
X0267333Y0181300D01*
X0267397Y0181155D01*
X0267457Y0181009D01*
X0267513Y0180861D01*
X0267566Y0180712D01*
X0267615Y0180561D01*
X0267660Y0180409D01*
X0267701Y0180256D01*
X0267739Y0180103D01*
X0267772Y0179948D01*
X0267802Y0179792D01*
X0267828Y0179636D01*
X0267849Y0179479D01*
X0267867Y0179322D01*
X0267881Y0179164D01*
X0267891Y0179006D01*
X0267897Y0178848D01*
X0267899Y0178690D01*
X0267897Y0178532D01*
X0267891Y0178374D01*
X0267881Y0178216D01*
X0267867Y0178058D01*
X0267849Y0177901D01*
X0267828Y0177744D01*
X0267802Y0177588D01*
X0267772Y0177432D01*
X0267739Y0177277D01*
X0267701Y0177124D01*
X0267660Y0176971D01*
X0267615Y0176819D01*
X0267566Y0176668D01*
X0267513Y0176519D01*
X0267457Y0176371D01*
X0267397Y0176225D01*
X0267333Y0176080D01*
X0267265Y0175937D01*
X0267194Y0175795D01*
X0267120Y0175655D01*
X0267042Y0175518D01*
X0266960Y0175382D01*
X0266876Y0175248D01*
X0266787Y0175117D01*
X0266696Y0174988D01*
X0266601Y0174861D01*
X0266504Y0174736D01*
X0266403Y0174614D01*
X0266299Y0174495D01*
X0266192Y0174378D01*
X0266082Y0174264D01*
X0265969Y0174153D01*
X0265854Y0174044D01*
X0265736Y0173939D01*
X0265615Y0173837D01*
X0265492Y0173737D01*
X0265366Y0173641D01*
X0265238Y0173548D01*
X0265108Y0173458D01*
X0264975Y0173372D01*
X0264840Y0173288D01*
X0264704Y0173209D01*
X0264565Y0173132D01*
X0264424Y0173060D01*
X0264282Y0172990D01*
X0264138Y0172925D01*
X0263992Y0172863D01*
X0263845Y0172805D01*
X0263696Y0172750D01*
X0263546Y0172699D01*
X0263395Y0172652D01*
X0263243Y0172609D01*
X0263090Y0172570D01*
X0262935Y0172534D01*
X0262780Y0172503D01*
X0262624Y0172475D01*
X0262468Y0172451D01*
X0262311Y0172431D01*
X0262153Y0172415D01*
X0261996Y0172403D01*
X0261837Y0172395D01*
X0261679Y0172391D01*
X0261521Y0172391D01*
X0261363Y0172395D01*
X0261204Y0172403D01*
X0261047Y0172415D01*
X0260889Y0172431D01*
X0260732Y0172451D01*
X0260576Y0172475D01*
X0260420Y0172503D01*
X0260265Y0172534D01*
X0260110Y0172570D01*
X0259957Y0172609D01*
X0259805Y0172652D01*
X0259654Y0172699D01*
X0259504Y0172750D01*
X0259355Y0172805D01*
X0259208Y0172863D01*
X0259062Y0172925D01*
X0258918Y0172990D01*
X0258776Y0173060D01*
X0258635Y0173132D01*
X0258496Y0173209D01*
X0258360Y0173288D01*
X0258225Y0173372D01*
X0258092Y0173458D01*
X0257962Y0173548D01*
X0257834Y0173641D01*
X0257708Y0173737D01*
X0257585Y0173837D01*
X0257464Y0173939D01*
X0257346Y0174044D01*
X0257231Y0174153D01*
X0257118Y0174264D01*
X0257008Y0174378D01*
X0256901Y0174495D01*
X0256797Y0174614D01*
X0256696Y0174736D01*
X0256599Y0174861D01*
X0256504Y0174988D01*
X0256413Y0175117D01*
X0256324Y0175248D01*
X0256240Y0175382D01*
X0256158Y0175518D01*
X0256080Y0175655D01*
X0256006Y0175795D01*
X0255935Y0175937D01*
X0255867Y0176080D01*
X0255803Y0176225D01*
X0255743Y0176371D01*
X0255687Y0176519D01*
X0255634Y0176668D01*
X0255585Y0176819D01*
X0255540Y0176971D01*
X0255499Y0177124D01*
X0255461Y0177277D01*
X0255428Y0177432D01*
X0255398Y0177588D01*
X0255372Y0177744D01*
X0255351Y0177901D01*
X0255333Y0178058D01*
X0255319Y0178216D01*
X0255309Y0178374D01*
X0255303Y0178532D01*
X0255301Y0178690D01*
X0255301Y0018690D02*
X0255303Y0018848D01*
X0255309Y0019006D01*
X0255319Y0019164D01*
X0255333Y0019322D01*
X0255351Y0019479D01*
X0255372Y0019636D01*
X0255398Y0019792D01*
X0255428Y0019948D01*
X0255461Y0020103D01*
X0255499Y0020256D01*
X0255540Y0020409D01*
X0255585Y0020561D01*
X0255634Y0020712D01*
X0255687Y0020861D01*
X0255743Y0021009D01*
X0255803Y0021155D01*
X0255867Y0021300D01*
X0255935Y0021443D01*
X0256006Y0021585D01*
X0256080Y0021725D01*
X0256158Y0021862D01*
X0256240Y0021998D01*
X0256324Y0022132D01*
X0256413Y0022263D01*
X0256504Y0022392D01*
X0256599Y0022519D01*
X0256696Y0022644D01*
X0256797Y0022766D01*
X0256901Y0022885D01*
X0257008Y0023002D01*
X0257118Y0023116D01*
X0257231Y0023227D01*
X0257346Y0023336D01*
X0257464Y0023441D01*
X0257585Y0023543D01*
X0257708Y0023643D01*
X0257834Y0023739D01*
X0257962Y0023832D01*
X0258092Y0023922D01*
X0258225Y0024008D01*
X0258360Y0024092D01*
X0258496Y0024171D01*
X0258635Y0024248D01*
X0258776Y0024320D01*
X0258918Y0024390D01*
X0259062Y0024455D01*
X0259208Y0024517D01*
X0259355Y0024575D01*
X0259504Y0024630D01*
X0259654Y0024681D01*
X0259805Y0024728D01*
X0259957Y0024771D01*
X0260110Y0024810D01*
X0260265Y0024846D01*
X0260420Y0024877D01*
X0260576Y0024905D01*
X0260732Y0024929D01*
X0260889Y0024949D01*
X0261047Y0024965D01*
X0261204Y0024977D01*
X0261363Y0024985D01*
X0261521Y0024989D01*
X0261679Y0024989D01*
X0261837Y0024985D01*
X0261996Y0024977D01*
X0262153Y0024965D01*
X0262311Y0024949D01*
X0262468Y0024929D01*
X0262624Y0024905D01*
X0262780Y0024877D01*
X0262935Y0024846D01*
X0263090Y0024810D01*
X0263243Y0024771D01*
X0263395Y0024728D01*
X0263546Y0024681D01*
X0263696Y0024630D01*
X0263845Y0024575D01*
X0263992Y0024517D01*
X0264138Y0024455D01*
X0264282Y0024390D01*
X0264424Y0024320D01*
X0264565Y0024248D01*
X0264704Y0024171D01*
X0264840Y0024092D01*
X0264975Y0024008D01*
X0265108Y0023922D01*
X0265238Y0023832D01*
X0265366Y0023739D01*
X0265492Y0023643D01*
X0265615Y0023543D01*
X0265736Y0023441D01*
X0265854Y0023336D01*
X0265969Y0023227D01*
X0266082Y0023116D01*
X0266192Y0023002D01*
X0266299Y0022885D01*
X0266403Y0022766D01*
X0266504Y0022644D01*
X0266601Y0022519D01*
X0266696Y0022392D01*
X0266787Y0022263D01*
X0266876Y0022132D01*
X0266960Y0021998D01*
X0267042Y0021862D01*
X0267120Y0021725D01*
X0267194Y0021585D01*
X0267265Y0021443D01*
X0267333Y0021300D01*
X0267397Y0021155D01*
X0267457Y0021009D01*
X0267513Y0020861D01*
X0267566Y0020712D01*
X0267615Y0020561D01*
X0267660Y0020409D01*
X0267701Y0020256D01*
X0267739Y0020103D01*
X0267772Y0019948D01*
X0267802Y0019792D01*
X0267828Y0019636D01*
X0267849Y0019479D01*
X0267867Y0019322D01*
X0267881Y0019164D01*
X0267891Y0019006D01*
X0267897Y0018848D01*
X0267899Y0018690D01*
X0267897Y0018532D01*
X0267891Y0018374D01*
X0267881Y0018216D01*
X0267867Y0018058D01*
X0267849Y0017901D01*
X0267828Y0017744D01*
X0267802Y0017588D01*
X0267772Y0017432D01*
X0267739Y0017277D01*
X0267701Y0017124D01*
X0267660Y0016971D01*
X0267615Y0016819D01*
X0267566Y0016668D01*
X0267513Y0016519D01*
X0267457Y0016371D01*
X0267397Y0016225D01*
X0267333Y0016080D01*
X0267265Y0015937D01*
X0267194Y0015795D01*
X0267120Y0015655D01*
X0267042Y0015518D01*
X0266960Y0015382D01*
X0266876Y0015248D01*
X0266787Y0015117D01*
X0266696Y0014988D01*
X0266601Y0014861D01*
X0266504Y0014736D01*
X0266403Y0014614D01*
X0266299Y0014495D01*
X0266192Y0014378D01*
X0266082Y0014264D01*
X0265969Y0014153D01*
X0265854Y0014044D01*
X0265736Y0013939D01*
X0265615Y0013837D01*
X0265492Y0013737D01*
X0265366Y0013641D01*
X0265238Y0013548D01*
X0265108Y0013458D01*
X0264975Y0013372D01*
X0264840Y0013288D01*
X0264704Y0013209D01*
X0264565Y0013132D01*
X0264424Y0013060D01*
X0264282Y0012990D01*
X0264138Y0012925D01*
X0263992Y0012863D01*
X0263845Y0012805D01*
X0263696Y0012750D01*
X0263546Y0012699D01*
X0263395Y0012652D01*
X0263243Y0012609D01*
X0263090Y0012570D01*
X0262935Y0012534D01*
X0262780Y0012503D01*
X0262624Y0012475D01*
X0262468Y0012451D01*
X0262311Y0012431D01*
X0262153Y0012415D01*
X0261996Y0012403D01*
X0261837Y0012395D01*
X0261679Y0012391D01*
X0261521Y0012391D01*
X0261363Y0012395D01*
X0261204Y0012403D01*
X0261047Y0012415D01*
X0260889Y0012431D01*
X0260732Y0012451D01*
X0260576Y0012475D01*
X0260420Y0012503D01*
X0260265Y0012534D01*
X0260110Y0012570D01*
X0259957Y0012609D01*
X0259805Y0012652D01*
X0259654Y0012699D01*
X0259504Y0012750D01*
X0259355Y0012805D01*
X0259208Y0012863D01*
X0259062Y0012925D01*
X0258918Y0012990D01*
X0258776Y0013060D01*
X0258635Y0013132D01*
X0258496Y0013209D01*
X0258360Y0013288D01*
X0258225Y0013372D01*
X0258092Y0013458D01*
X0257962Y0013548D01*
X0257834Y0013641D01*
X0257708Y0013737D01*
X0257585Y0013837D01*
X0257464Y0013939D01*
X0257346Y0014044D01*
X0257231Y0014153D01*
X0257118Y0014264D01*
X0257008Y0014378D01*
X0256901Y0014495D01*
X0256797Y0014614D01*
X0256696Y0014736D01*
X0256599Y0014861D01*
X0256504Y0014988D01*
X0256413Y0015117D01*
X0256324Y0015248D01*
X0256240Y0015382D01*
X0256158Y0015518D01*
X0256080Y0015655D01*
X0256006Y0015795D01*
X0255935Y0015937D01*
X0255867Y0016080D01*
X0255803Y0016225D01*
X0255743Y0016371D01*
X0255687Y0016519D01*
X0255634Y0016668D01*
X0255585Y0016819D01*
X0255540Y0016971D01*
X0255499Y0017124D01*
X0255461Y0017277D01*
X0255428Y0017432D01*
X0255398Y0017588D01*
X0255372Y0017744D01*
X0255351Y0017901D01*
X0255333Y0018058D01*
X0255319Y0018216D01*
X0255309Y0018374D01*
X0255303Y0018532D01*
X0255301Y0018690D01*
D11*
X0261600Y0018690D03*
X0261600Y0178690D03*
X0016600Y0178690D03*
X0016600Y0018690D03*
D12*
X0066600Y0059950D03*
X0066600Y0067430D03*
X0146600Y0119753D03*
X0146600Y0127627D03*
X0186600Y0127627D03*
X0186600Y0119753D03*
X0211600Y0047430D03*
X0211600Y0039950D03*
D13*
X0174946Y0033690D03*
X0168254Y0033690D03*
X0144946Y0058690D03*
X0138254Y0058690D03*
X0124946Y0083690D03*
X0118254Y0083690D03*
X0158254Y0083690D03*
X0164946Y0083690D03*
X0218254Y0083690D03*
X0224946Y0083690D03*
X0129946Y0018690D03*
X0123254Y0018690D03*
X0109946Y0033690D03*
X0103254Y0033690D03*
X0089946Y0018690D03*
X0083254Y0018690D03*
X0059946Y0083690D03*
X0053254Y0083690D03*
D14*
X0082663Y0078690D03*
X0090537Y0078690D03*
X0060340Y0128690D03*
X0052860Y0128690D03*
X0105163Y0138690D03*
X0113037Y0138690D03*
X0187663Y0078690D03*
X0195537Y0078690D03*
X0217860Y0128690D03*
X0225340Y0128690D03*
D15*
X0166600Y0057037D03*
X0166600Y0050344D03*
X0129100Y0032037D03*
X0129100Y0025344D03*
X0111600Y0050344D03*
X0111600Y0057037D03*
X0084100Y0032037D03*
X0084100Y0025344D03*
X0096600Y0155344D03*
X0096600Y0162037D03*
D16*
X0066600Y0157815D02*
X0066600Y0149565D01*
X0046600Y0149565D02*
X0046600Y0157815D01*
X0129100Y0157815D02*
X0129100Y0149565D01*
X0149100Y0149565D02*
X0149100Y0157815D01*
X0211600Y0157815D02*
X0211600Y0149565D01*
X0231600Y0149565D02*
X0231600Y0157815D01*
X0232475Y0063690D02*
X0240725Y0063690D01*
X0240725Y0043690D02*
X0232475Y0043690D01*
X0045725Y0043690D02*
X0037475Y0043690D01*
X0037475Y0063690D02*
X0045725Y0063690D01*
D17*
X0169100Y0146604D03*
X0169100Y0160777D03*
D18*
X0184100Y0163730D03*
X0184100Y0143651D03*
D19*
X0096600Y0169556D03*
X0096600Y0177824D03*
D20*
X0211600Y0068690D03*
X0211600Y0058690D03*
X0066600Y0048690D03*
X0066600Y0038690D03*
D21*
X0161285Y0123690D03*
X0171915Y0123690D03*
D22*
X0126600Y0122549D03*
D23*
X0116600Y0122549D03*
X0106600Y0122549D03*
D24*
X0157263Y0025612D02*
X0163339Y0025612D01*
X0157263Y0025612D02*
X0157263Y0027122D01*
X0163339Y0027122D01*
X0163339Y0025612D01*
X0163339Y0026115D02*
X0157263Y0026115D01*
X0157263Y0026618D02*
X0163339Y0026618D01*
X0163339Y0027121D02*
X0157263Y0027121D01*
X0157263Y0023053D02*
X0163339Y0023053D01*
X0157263Y0023053D02*
X0157263Y0024563D01*
X0163339Y0024563D01*
X0163339Y0023053D01*
X0163339Y0023556D02*
X0157263Y0023556D01*
X0157263Y0024059D02*
X0163339Y0024059D01*
X0163339Y0024562D02*
X0157263Y0024562D01*
X0157263Y0020494D02*
X0163339Y0020494D01*
X0157263Y0020494D02*
X0157263Y0022004D01*
X0163339Y0022004D01*
X0163339Y0020494D01*
X0163339Y0020997D02*
X0157263Y0020997D01*
X0157263Y0021500D02*
X0163339Y0021500D01*
X0163339Y0022003D02*
X0157263Y0022003D01*
X0157263Y0017935D02*
X0163339Y0017935D01*
X0157263Y0017935D02*
X0157263Y0019445D01*
X0163339Y0019445D01*
X0163339Y0017935D01*
X0163339Y0018438D02*
X0157263Y0018438D01*
X0157263Y0018941D02*
X0163339Y0018941D01*
X0163339Y0019444D02*
X0157263Y0019444D01*
X0157263Y0015376D02*
X0163339Y0015376D01*
X0157263Y0015376D02*
X0157263Y0016886D01*
X0163339Y0016886D01*
X0163339Y0015376D01*
X0163339Y0015879D02*
X0157263Y0015879D01*
X0157263Y0016382D02*
X0163339Y0016382D01*
X0163339Y0016885D02*
X0157263Y0016885D01*
X0157263Y0012817D02*
X0163339Y0012817D01*
X0157263Y0012817D02*
X0157263Y0014327D01*
X0163339Y0014327D01*
X0163339Y0012817D01*
X0163339Y0013320D02*
X0157263Y0013320D01*
X0157263Y0013823D02*
X0163339Y0013823D01*
X0163339Y0014326D02*
X0157263Y0014326D01*
X0157263Y0010258D02*
X0163339Y0010258D01*
X0157263Y0010258D02*
X0157263Y0011768D01*
X0163339Y0011768D01*
X0163339Y0010258D01*
X0163339Y0010761D02*
X0157263Y0010761D01*
X0157263Y0011264D02*
X0163339Y0011264D01*
X0163339Y0011767D02*
X0157263Y0011767D01*
X0179861Y0010258D02*
X0185937Y0010258D01*
X0179861Y0010258D02*
X0179861Y0011768D01*
X0185937Y0011768D01*
X0185937Y0010258D01*
X0185937Y0010761D02*
X0179861Y0010761D01*
X0179861Y0011264D02*
X0185937Y0011264D01*
X0185937Y0011767D02*
X0179861Y0011767D01*
X0179861Y0012817D02*
X0185937Y0012817D01*
X0179861Y0012817D02*
X0179861Y0014327D01*
X0185937Y0014327D01*
X0185937Y0012817D01*
X0185937Y0013320D02*
X0179861Y0013320D01*
X0179861Y0013823D02*
X0185937Y0013823D01*
X0185937Y0014326D02*
X0179861Y0014326D01*
X0179861Y0015376D02*
X0185937Y0015376D01*
X0179861Y0015376D02*
X0179861Y0016886D01*
X0185937Y0016886D01*
X0185937Y0015376D01*
X0185937Y0015879D02*
X0179861Y0015879D01*
X0179861Y0016382D02*
X0185937Y0016382D01*
X0185937Y0016885D02*
X0179861Y0016885D01*
X0179861Y0017935D02*
X0185937Y0017935D01*
X0179861Y0017935D02*
X0179861Y0019445D01*
X0185937Y0019445D01*
X0185937Y0017935D01*
X0185937Y0018438D02*
X0179861Y0018438D01*
X0179861Y0018941D02*
X0185937Y0018941D01*
X0185937Y0019444D02*
X0179861Y0019444D01*
X0179861Y0020494D02*
X0185937Y0020494D01*
X0179861Y0020494D02*
X0179861Y0022004D01*
X0185937Y0022004D01*
X0185937Y0020494D01*
X0185937Y0020997D02*
X0179861Y0020997D01*
X0179861Y0021500D02*
X0185937Y0021500D01*
X0185937Y0022003D02*
X0179861Y0022003D01*
X0179861Y0023053D02*
X0185937Y0023053D01*
X0179861Y0023053D02*
X0179861Y0024563D01*
X0185937Y0024563D01*
X0185937Y0023053D01*
X0185937Y0023556D02*
X0179861Y0023556D01*
X0179861Y0024059D02*
X0185937Y0024059D01*
X0185937Y0024562D02*
X0179861Y0024562D01*
X0179861Y0025612D02*
X0185937Y0025612D01*
X0179861Y0025612D02*
X0179861Y0027122D01*
X0185937Y0027122D01*
X0185937Y0025612D01*
X0185937Y0026115D02*
X0179861Y0026115D01*
X0179861Y0026618D02*
X0185937Y0026618D01*
X0185937Y0027121D02*
X0179861Y0027121D01*
D25*
X0149352Y0045190D02*
X0144910Y0045190D01*
X0144910Y0046286D01*
X0149352Y0046286D01*
X0149352Y0045190D01*
X0149352Y0045555D02*
X0144910Y0045555D01*
X0144910Y0045920D02*
X0149352Y0045920D01*
X0149352Y0046285D02*
X0144910Y0046285D01*
X0144910Y0047158D02*
X0149352Y0047158D01*
X0144910Y0047158D02*
X0144910Y0048254D01*
X0149352Y0048254D01*
X0149352Y0047158D01*
X0149352Y0047523D02*
X0144910Y0047523D01*
X0144910Y0047888D02*
X0149352Y0047888D01*
X0149352Y0048253D02*
X0144910Y0048253D01*
X0144910Y0049127D02*
X0149352Y0049127D01*
X0144910Y0049127D02*
X0144910Y0050223D01*
X0149352Y0050223D01*
X0149352Y0049127D01*
X0149352Y0049492D02*
X0144910Y0049492D01*
X0144910Y0049857D02*
X0149352Y0049857D01*
X0149352Y0050222D02*
X0144910Y0050222D01*
X0144910Y0051095D02*
X0149352Y0051095D01*
X0144910Y0051095D02*
X0144910Y0052191D01*
X0149352Y0052191D01*
X0149352Y0051095D01*
X0149352Y0051460D02*
X0144910Y0051460D01*
X0144910Y0051825D02*
X0149352Y0051825D01*
X0149352Y0052190D02*
X0144910Y0052190D01*
X0138290Y0051095D02*
X0133848Y0051095D01*
X0133848Y0052191D01*
X0138290Y0052191D01*
X0138290Y0051095D01*
X0138290Y0051460D02*
X0133848Y0051460D01*
X0133848Y0051825D02*
X0138290Y0051825D01*
X0138290Y0052190D02*
X0133848Y0052190D01*
X0133848Y0049127D02*
X0138290Y0049127D01*
X0133848Y0049127D02*
X0133848Y0050223D01*
X0138290Y0050223D01*
X0138290Y0049127D01*
X0138290Y0049492D02*
X0133848Y0049492D01*
X0133848Y0049857D02*
X0138290Y0049857D01*
X0138290Y0050222D02*
X0133848Y0050222D01*
X0133848Y0047158D02*
X0138290Y0047158D01*
X0133848Y0047158D02*
X0133848Y0048254D01*
X0138290Y0048254D01*
X0138290Y0047158D01*
X0138290Y0047523D02*
X0133848Y0047523D01*
X0133848Y0047888D02*
X0138290Y0047888D01*
X0138290Y0048253D02*
X0133848Y0048253D01*
X0133848Y0045190D02*
X0138290Y0045190D01*
X0133848Y0045190D02*
X0133848Y0046286D01*
X0138290Y0046286D01*
X0138290Y0045190D01*
X0138290Y0045555D02*
X0133848Y0045555D01*
X0133848Y0045920D02*
X0138290Y0045920D01*
X0138290Y0046285D02*
X0133848Y0046285D01*
D26*
X0128788Y0068944D02*
X0124294Y0068944D01*
X0124294Y0070956D01*
X0128788Y0070956D01*
X0128788Y0068944D01*
X0128788Y0069614D02*
X0124294Y0069614D01*
X0124294Y0070284D02*
X0128788Y0070284D01*
X0128788Y0070954D02*
X0124294Y0070954D01*
X0124294Y0072684D02*
X0128788Y0072684D01*
X0124294Y0072684D02*
X0124294Y0074696D01*
X0128788Y0074696D01*
X0128788Y0072684D01*
X0128788Y0073354D02*
X0124294Y0073354D01*
X0124294Y0074024D02*
X0128788Y0074024D01*
X0128788Y0074694D02*
X0124294Y0074694D01*
X0124294Y0076424D02*
X0128788Y0076424D01*
X0124294Y0076424D02*
X0124294Y0078436D01*
X0128788Y0078436D01*
X0128788Y0076424D01*
X0128788Y0077094D02*
X0124294Y0077094D01*
X0124294Y0077764D02*
X0128788Y0077764D01*
X0128788Y0078434D02*
X0124294Y0078434D01*
X0118906Y0076424D02*
X0114412Y0076424D01*
X0114412Y0078436D01*
X0118906Y0078436D01*
X0118906Y0076424D01*
X0118906Y0077094D02*
X0114412Y0077094D01*
X0114412Y0077764D02*
X0118906Y0077764D01*
X0118906Y0078434D02*
X0114412Y0078434D01*
X0114412Y0072684D02*
X0118906Y0072684D01*
X0114412Y0072684D02*
X0114412Y0074696D01*
X0118906Y0074696D01*
X0118906Y0072684D01*
X0118906Y0073354D02*
X0114412Y0073354D01*
X0114412Y0074024D02*
X0118906Y0074024D01*
X0118906Y0074694D02*
X0114412Y0074694D01*
X0114412Y0068944D02*
X0118906Y0068944D01*
X0114412Y0068944D02*
X0114412Y0070956D01*
X0118906Y0070956D01*
X0118906Y0068944D01*
X0118906Y0069614D02*
X0114412Y0069614D01*
X0114412Y0070284D02*
X0118906Y0070284D01*
X0118906Y0070954D02*
X0114412Y0070954D01*
X0154412Y0068944D02*
X0158906Y0068944D01*
X0154412Y0068944D02*
X0154412Y0070956D01*
X0158906Y0070956D01*
X0158906Y0068944D01*
X0158906Y0069614D02*
X0154412Y0069614D01*
X0154412Y0070284D02*
X0158906Y0070284D01*
X0158906Y0070954D02*
X0154412Y0070954D01*
X0154412Y0072684D02*
X0158906Y0072684D01*
X0154412Y0072684D02*
X0154412Y0074696D01*
X0158906Y0074696D01*
X0158906Y0072684D01*
X0158906Y0073354D02*
X0154412Y0073354D01*
X0154412Y0074024D02*
X0158906Y0074024D01*
X0158906Y0074694D02*
X0154412Y0074694D01*
X0154412Y0076424D02*
X0158906Y0076424D01*
X0154412Y0076424D02*
X0154412Y0078436D01*
X0158906Y0078436D01*
X0158906Y0076424D01*
X0158906Y0077094D02*
X0154412Y0077094D01*
X0154412Y0077764D02*
X0158906Y0077764D01*
X0158906Y0078434D02*
X0154412Y0078434D01*
X0164294Y0076424D02*
X0168788Y0076424D01*
X0164294Y0076424D02*
X0164294Y0078436D01*
X0168788Y0078436D01*
X0168788Y0076424D01*
X0168788Y0077094D02*
X0164294Y0077094D01*
X0164294Y0077764D02*
X0168788Y0077764D01*
X0168788Y0078434D02*
X0164294Y0078434D01*
X0164294Y0072684D02*
X0168788Y0072684D01*
X0164294Y0072684D02*
X0164294Y0074696D01*
X0168788Y0074696D01*
X0168788Y0072684D01*
X0168788Y0073354D02*
X0164294Y0073354D01*
X0164294Y0074024D02*
X0168788Y0074024D01*
X0168788Y0074694D02*
X0164294Y0074694D01*
X0164294Y0068944D02*
X0168788Y0068944D01*
X0164294Y0068944D02*
X0164294Y0070956D01*
X0168788Y0070956D01*
X0168788Y0068944D01*
X0168788Y0069614D02*
X0164294Y0069614D01*
X0164294Y0070284D02*
X0168788Y0070284D01*
X0168788Y0070954D02*
X0164294Y0070954D01*
D27*
X0176364Y0061190D03*
X0176364Y0056190D03*
X0176364Y0051190D03*
X0176364Y0046190D03*
X0196836Y0046190D03*
X0196836Y0051190D03*
X0196836Y0056190D03*
X0196836Y0061190D03*
X0101836Y0061190D03*
X0101836Y0056190D03*
X0101836Y0051190D03*
X0101836Y0046190D03*
X0081364Y0046190D03*
X0081364Y0051190D03*
X0081364Y0056190D03*
X0081364Y0061190D03*
D28*
X0064100Y0093454D03*
X0059100Y0093454D03*
X0054100Y0093454D03*
X0049100Y0093454D03*
X0049100Y0113927D03*
X0054100Y0113927D03*
X0059100Y0113927D03*
X0064100Y0113927D03*
X0214100Y0113927D03*
X0219100Y0113927D03*
X0224100Y0113927D03*
X0229100Y0113927D03*
X0229100Y0093454D03*
X0224100Y0093454D03*
X0219100Y0093454D03*
X0214100Y0093454D03*
D29*
X0116431Y0028397D02*
X0116327Y0028502D01*
X0116195Y0028569D01*
X0116049Y0028592D01*
X0112112Y0028592D01*
X0111966Y0028569D01*
X0111834Y0028502D01*
X0111730Y0028397D01*
X0111662Y0028265D01*
X0111639Y0028119D01*
X0111639Y0026938D01*
X0111662Y0026792D01*
X0111730Y0026661D01*
X0111834Y0026556D01*
X0111966Y0026489D01*
X0112112Y0026466D01*
X0116049Y0026466D01*
X0116195Y0026489D01*
X0116327Y0026556D01*
X0116431Y0026661D01*
X0116498Y0026792D01*
X0116521Y0026938D01*
X0116521Y0028119D01*
X0116498Y0028265D01*
X0116431Y0028397D01*
X0116435Y0028389D02*
X0111725Y0028389D01*
X0111706Y0028351D02*
X0116454Y0028351D01*
X0116474Y0028313D02*
X0111687Y0028313D01*
X0111668Y0028275D02*
X0116493Y0028275D01*
X0116503Y0028237D02*
X0111658Y0028237D01*
X0111652Y0028200D02*
X0116509Y0028200D01*
X0116515Y0028162D02*
X0111646Y0028162D01*
X0111640Y0028124D02*
X0116521Y0028124D01*
X0116521Y0028086D02*
X0111639Y0028086D01*
X0111639Y0028048D02*
X0116521Y0028048D01*
X0116521Y0028010D02*
X0111639Y0028010D01*
X0111639Y0027972D02*
X0116521Y0027972D01*
X0116521Y0027934D02*
X0111639Y0027934D01*
X0111639Y0027896D02*
X0116521Y0027896D01*
X0116521Y0027859D02*
X0111639Y0027859D01*
X0111639Y0027821D02*
X0116521Y0027821D01*
X0116521Y0027783D02*
X0111639Y0027783D01*
X0111639Y0027745D02*
X0116521Y0027745D01*
X0116521Y0027707D02*
X0111639Y0027707D01*
X0111639Y0027669D02*
X0116521Y0027669D01*
X0116521Y0027631D02*
X0111639Y0027631D01*
X0111639Y0027593D02*
X0116521Y0027593D01*
X0116521Y0027556D02*
X0111639Y0027556D01*
X0111639Y0027518D02*
X0116521Y0027518D01*
X0116521Y0027480D02*
X0111639Y0027480D01*
X0111639Y0027442D02*
X0116521Y0027442D01*
X0116521Y0027404D02*
X0111639Y0027404D01*
X0111639Y0027366D02*
X0116521Y0027366D01*
X0116521Y0027328D02*
X0111639Y0027328D01*
X0111639Y0027290D02*
X0116521Y0027290D01*
X0116521Y0027253D02*
X0111639Y0027253D01*
X0111639Y0027215D02*
X0116521Y0027215D01*
X0116521Y0027177D02*
X0111639Y0027177D01*
X0111639Y0027139D02*
X0116521Y0027139D01*
X0116521Y0027101D02*
X0111639Y0027101D01*
X0111639Y0027063D02*
X0116521Y0027063D01*
X0116521Y0027025D02*
X0111639Y0027025D01*
X0111639Y0026987D02*
X0116521Y0026987D01*
X0116521Y0026949D02*
X0111639Y0026949D01*
X0111644Y0026912D02*
X0116517Y0026912D01*
X0116511Y0026874D02*
X0111650Y0026874D01*
X0111656Y0026836D02*
X0116505Y0026836D01*
X0116499Y0026798D02*
X0111662Y0026798D01*
X0111679Y0026760D02*
X0116482Y0026760D01*
X0116462Y0026722D02*
X0111698Y0026722D01*
X0111718Y0026684D02*
X0116443Y0026684D01*
X0116417Y0026646D02*
X0111744Y0026646D01*
X0111782Y0026609D02*
X0116379Y0026609D01*
X0116341Y0026571D02*
X0111820Y0026571D01*
X0111880Y0026533D02*
X0116281Y0026533D01*
X0116206Y0026495D02*
X0111954Y0026495D01*
X0111966Y0026010D02*
X0111834Y0025943D01*
X0111730Y0025838D01*
X0111662Y0025706D01*
X0111639Y0025560D01*
X0111639Y0024379D01*
X0111662Y0024233D01*
X0111730Y0024102D01*
X0111834Y0023997D01*
X0111966Y0023930D01*
X0112112Y0023907D01*
X0116049Y0023907D01*
X0116195Y0023930D01*
X0116327Y0023997D01*
X0116431Y0024102D01*
X0116498Y0024233D01*
X0116521Y0024379D01*
X0116521Y0025560D01*
X0116498Y0025706D01*
X0116431Y0025838D01*
X0116327Y0025943D01*
X0116195Y0026010D01*
X0116049Y0026033D01*
X0112112Y0026033D01*
X0111966Y0026010D01*
X0111952Y0026002D02*
X0116209Y0026002D01*
X0116283Y0025965D02*
X0111877Y0025965D01*
X0111818Y0025927D02*
X0116342Y0025927D01*
X0116380Y0025889D02*
X0111780Y0025889D01*
X0111742Y0025851D02*
X0116418Y0025851D01*
X0116444Y0025813D02*
X0111717Y0025813D01*
X0111698Y0025775D02*
X0116463Y0025775D01*
X0116482Y0025737D02*
X0111678Y0025737D01*
X0111661Y0025699D02*
X0116499Y0025699D01*
X0116505Y0025661D02*
X0111655Y0025661D01*
X0111649Y0025624D02*
X0116511Y0025624D01*
X0116517Y0025586D02*
X0111643Y0025586D01*
X0111639Y0025548D02*
X0116521Y0025548D01*
X0116521Y0025510D02*
X0111639Y0025510D01*
X0111639Y0025472D02*
X0116521Y0025472D01*
X0116521Y0025434D02*
X0111639Y0025434D01*
X0111639Y0025396D02*
X0116521Y0025396D01*
X0116521Y0025358D02*
X0111639Y0025358D01*
X0111639Y0025321D02*
X0116521Y0025321D01*
X0116521Y0025283D02*
X0111639Y0025283D01*
X0111639Y0025245D02*
X0116521Y0025245D01*
X0116521Y0025207D02*
X0111639Y0025207D01*
X0111639Y0025169D02*
X0116521Y0025169D01*
X0116521Y0025131D02*
X0111639Y0025131D01*
X0111639Y0025093D02*
X0116521Y0025093D01*
X0116521Y0025055D02*
X0111639Y0025055D01*
X0111639Y0025018D02*
X0116521Y0025018D01*
X0116521Y0024980D02*
X0111639Y0024980D01*
X0111639Y0024942D02*
X0116521Y0024942D01*
X0116521Y0024904D02*
X0111639Y0024904D01*
X0111639Y0024866D02*
X0116521Y0024866D01*
X0116521Y0024828D02*
X0111639Y0024828D01*
X0111639Y0024790D02*
X0116521Y0024790D01*
X0116521Y0024752D02*
X0111639Y0024752D01*
X0111639Y0024714D02*
X0116521Y0024714D01*
X0116521Y0024677D02*
X0111639Y0024677D01*
X0111639Y0024639D02*
X0116521Y0024639D01*
X0116521Y0024601D02*
X0111639Y0024601D01*
X0111639Y0024563D02*
X0116521Y0024563D01*
X0116521Y0024525D02*
X0111639Y0024525D01*
X0111639Y0024487D02*
X0116521Y0024487D01*
X0116521Y0024449D02*
X0111639Y0024449D01*
X0111639Y0024411D02*
X0116521Y0024411D01*
X0116520Y0024374D02*
X0111640Y0024374D01*
X0111646Y0024336D02*
X0116514Y0024336D01*
X0116508Y0024298D02*
X0111652Y0024298D01*
X0111658Y0024260D02*
X0116502Y0024260D01*
X0116492Y0024222D02*
X0111668Y0024222D01*
X0111688Y0024184D02*
X0116473Y0024184D01*
X0116454Y0024146D02*
X0111707Y0024146D01*
X0111726Y0024108D02*
X0116434Y0024108D01*
X0116400Y0024070D02*
X0111761Y0024070D01*
X0111799Y0024033D02*
X0116362Y0024033D01*
X0116322Y0023995D02*
X0111839Y0023995D01*
X0111913Y0023957D02*
X0116248Y0023957D01*
X0116125Y0023919D02*
X0112035Y0023919D01*
X0112112Y0023474D02*
X0111966Y0023451D01*
X0111834Y0023384D01*
X0111730Y0023279D01*
X0111662Y0023147D01*
X0111639Y0023001D01*
X0111639Y0021820D01*
X0111662Y0021674D01*
X0111730Y0021543D01*
X0111834Y0021438D01*
X0111966Y0021371D01*
X0112112Y0021348D01*
X0116049Y0021348D01*
X0116195Y0021371D01*
X0116327Y0021438D01*
X0116431Y0021543D01*
X0116498Y0021674D01*
X0116521Y0021820D01*
X0116521Y0023001D01*
X0116498Y0023147D01*
X0116431Y0023279D01*
X0116327Y0023384D01*
X0116195Y0023451D01*
X0116049Y0023474D01*
X0112112Y0023474D01*
X0112053Y0023464D02*
X0116108Y0023464D01*
X0116242Y0023426D02*
X0111918Y0023426D01*
X0111844Y0023389D02*
X0116317Y0023389D01*
X0116359Y0023351D02*
X0111801Y0023351D01*
X0111763Y0023313D02*
X0116397Y0023313D01*
X0116433Y0023275D02*
X0111728Y0023275D01*
X0111708Y0023237D02*
X0116452Y0023237D01*
X0116472Y0023199D02*
X0111689Y0023199D01*
X0111670Y0023161D02*
X0116491Y0023161D01*
X0116502Y0023123D02*
X0111659Y0023123D01*
X0111653Y0023086D02*
X0116508Y0023086D01*
X0116514Y0023048D02*
X0111647Y0023048D01*
X0111641Y0023010D02*
X0116520Y0023010D01*
X0116521Y0022972D02*
X0111639Y0022972D01*
X0111639Y0022934D02*
X0116521Y0022934D01*
X0116521Y0022896D02*
X0111639Y0022896D01*
X0111639Y0022858D02*
X0116521Y0022858D01*
X0116521Y0022820D02*
X0111639Y0022820D01*
X0111639Y0022783D02*
X0116521Y0022783D01*
X0116521Y0022745D02*
X0111639Y0022745D01*
X0111639Y0022707D02*
X0116521Y0022707D01*
X0116521Y0022669D02*
X0111639Y0022669D01*
X0111639Y0022631D02*
X0116521Y0022631D01*
X0116521Y0022593D02*
X0111639Y0022593D01*
X0111639Y0022555D02*
X0116521Y0022555D01*
X0116521Y0022517D02*
X0111639Y0022517D01*
X0111639Y0022479D02*
X0116521Y0022479D01*
X0116521Y0022442D02*
X0111639Y0022442D01*
X0111639Y0022404D02*
X0116521Y0022404D01*
X0116521Y0022366D02*
X0111639Y0022366D01*
X0111639Y0022328D02*
X0116521Y0022328D01*
X0116521Y0022290D02*
X0111639Y0022290D01*
X0111639Y0022252D02*
X0116521Y0022252D01*
X0116521Y0022214D02*
X0111639Y0022214D01*
X0111639Y0022176D02*
X0116521Y0022176D01*
X0116521Y0022139D02*
X0111639Y0022139D01*
X0111639Y0022101D02*
X0116521Y0022101D01*
X0116521Y0022063D02*
X0111639Y0022063D01*
X0111639Y0022025D02*
X0116521Y0022025D01*
X0116521Y0021987D02*
X0111639Y0021987D01*
X0111639Y0021949D02*
X0116521Y0021949D01*
X0116521Y0021911D02*
X0111639Y0021911D01*
X0111639Y0021873D02*
X0116521Y0021873D01*
X0116521Y0021835D02*
X0111639Y0021835D01*
X0111643Y0021798D02*
X0116518Y0021798D01*
X0116512Y0021760D02*
X0111649Y0021760D01*
X0111655Y0021722D02*
X0116506Y0021722D01*
X0116500Y0021684D02*
X0111661Y0021684D01*
X0111677Y0021646D02*
X0116484Y0021646D01*
X0116464Y0021608D02*
X0111696Y0021608D01*
X0111715Y0021570D02*
X0116445Y0021570D01*
X0116421Y0021532D02*
X0111740Y0021532D01*
X0111778Y0021495D02*
X0116383Y0021495D01*
X0116345Y0021457D02*
X0111815Y0021457D01*
X0111872Y0021419D02*
X0116289Y0021419D01*
X0116214Y0021381D02*
X0111946Y0021381D01*
X0111966Y0020892D02*
X0111834Y0020824D01*
X0111730Y0020720D01*
X0111662Y0020588D01*
X0111639Y0020442D01*
X0111639Y0019261D01*
X0111662Y0019115D01*
X0111730Y0018983D01*
X0111834Y0018879D01*
X0111966Y0018812D01*
X0112112Y0018789D01*
X0116049Y0018789D01*
X0116195Y0018812D01*
X0116327Y0018879D01*
X0116431Y0018983D01*
X0116498Y0019115D01*
X0116521Y0019261D01*
X0116521Y0020442D01*
X0116498Y0020588D01*
X0116431Y0020720D01*
X0116327Y0020824D01*
X0116195Y0020892D01*
X0116049Y0020915D01*
X0112112Y0020915D01*
X0111966Y0020892D01*
X0111960Y0020888D02*
X0116201Y0020888D01*
X0116275Y0020851D02*
X0111885Y0020851D01*
X0111822Y0020813D02*
X0116338Y0020813D01*
X0116376Y0020775D02*
X0111784Y0020775D01*
X0111747Y0020737D02*
X0116414Y0020737D01*
X0116442Y0020699D02*
X0111719Y0020699D01*
X0111700Y0020661D02*
X0116461Y0020661D01*
X0116480Y0020623D02*
X0111680Y0020623D01*
X0111662Y0020585D02*
X0116499Y0020585D01*
X0116505Y0020548D02*
X0111656Y0020548D01*
X0111650Y0020510D02*
X0116511Y0020510D01*
X0116517Y0020472D02*
X0111644Y0020472D01*
X0111639Y0020434D02*
X0116521Y0020434D01*
X0116521Y0020396D02*
X0111639Y0020396D01*
X0111639Y0020358D02*
X0116521Y0020358D01*
X0116521Y0020320D02*
X0111639Y0020320D01*
X0111639Y0020282D02*
X0116521Y0020282D01*
X0116521Y0020244D02*
X0111639Y0020244D01*
X0111639Y0020207D02*
X0116521Y0020207D01*
X0116521Y0020169D02*
X0111639Y0020169D01*
X0111639Y0020131D02*
X0116521Y0020131D01*
X0116521Y0020093D02*
X0111639Y0020093D01*
X0111639Y0020055D02*
X0116521Y0020055D01*
X0116521Y0020017D02*
X0111639Y0020017D01*
X0111639Y0019979D02*
X0116521Y0019979D01*
X0116521Y0019941D02*
X0111639Y0019941D01*
X0111639Y0019904D02*
X0116521Y0019904D01*
X0116521Y0019866D02*
X0111639Y0019866D01*
X0111639Y0019828D02*
X0116521Y0019828D01*
X0116521Y0019790D02*
X0111639Y0019790D01*
X0111639Y0019752D02*
X0116521Y0019752D01*
X0116521Y0019714D02*
X0111639Y0019714D01*
X0111639Y0019676D02*
X0116521Y0019676D01*
X0116521Y0019638D02*
X0111639Y0019638D01*
X0111639Y0019600D02*
X0116521Y0019600D01*
X0116521Y0019563D02*
X0111639Y0019563D01*
X0111639Y0019525D02*
X0116521Y0019525D01*
X0116521Y0019487D02*
X0111639Y0019487D01*
X0111639Y0019449D02*
X0116521Y0019449D01*
X0116521Y0019411D02*
X0111639Y0019411D01*
X0111639Y0019373D02*
X0116521Y0019373D01*
X0116521Y0019335D02*
X0111639Y0019335D01*
X0111639Y0019297D02*
X0116521Y0019297D01*
X0116521Y0019260D02*
X0111640Y0019260D01*
X0111646Y0019222D02*
X0116515Y0019222D01*
X0116509Y0019184D02*
X0111652Y0019184D01*
X0111658Y0019146D02*
X0116503Y0019146D01*
X0116494Y0019108D02*
X0111666Y0019108D01*
X0111685Y0019070D02*
X0116475Y0019070D01*
X0116456Y0019032D02*
X0111705Y0019032D01*
X0111724Y0018994D02*
X0116437Y0018994D01*
X0116404Y0018956D02*
X0111757Y0018956D01*
X0111794Y0018919D02*
X0116366Y0018919D01*
X0116328Y0018881D02*
X0111832Y0018881D01*
X0111905Y0018843D02*
X0116256Y0018843D01*
X0116151Y0018805D02*
X0112009Y0018805D01*
X0101561Y0019261D02*
X0101561Y0020442D01*
X0101538Y0020588D01*
X0101470Y0020720D01*
X0101366Y0020824D01*
X0101234Y0020892D01*
X0101088Y0020915D01*
X0097151Y0020915D01*
X0097005Y0020892D01*
X0096873Y0020824D01*
X0096769Y0020720D01*
X0096702Y0020588D01*
X0096679Y0020442D01*
X0096679Y0019261D01*
X0096702Y0019115D01*
X0096769Y0018983D01*
X0096873Y0018879D01*
X0097005Y0018812D01*
X0097151Y0018789D01*
X0101088Y0018789D01*
X0101234Y0018812D01*
X0101366Y0018879D01*
X0101470Y0018983D01*
X0101538Y0019115D01*
X0101561Y0019261D01*
X0101560Y0019260D02*
X0096679Y0019260D01*
X0096679Y0019297D02*
X0101561Y0019297D01*
X0101561Y0019335D02*
X0096679Y0019335D01*
X0096679Y0019373D02*
X0101561Y0019373D01*
X0101561Y0019411D02*
X0096679Y0019411D01*
X0096679Y0019449D02*
X0101561Y0019449D01*
X0101561Y0019487D02*
X0096679Y0019487D01*
X0096679Y0019525D02*
X0101561Y0019525D01*
X0101561Y0019563D02*
X0096679Y0019563D01*
X0096679Y0019600D02*
X0101561Y0019600D01*
X0101561Y0019638D02*
X0096679Y0019638D01*
X0096679Y0019676D02*
X0101561Y0019676D01*
X0101561Y0019714D02*
X0096679Y0019714D01*
X0096679Y0019752D02*
X0101561Y0019752D01*
X0101561Y0019790D02*
X0096679Y0019790D01*
X0096679Y0019828D02*
X0101561Y0019828D01*
X0101561Y0019866D02*
X0096679Y0019866D01*
X0096679Y0019904D02*
X0101561Y0019904D01*
X0101561Y0019941D02*
X0096679Y0019941D01*
X0096679Y0019979D02*
X0101561Y0019979D01*
X0101561Y0020017D02*
X0096679Y0020017D01*
X0096679Y0020055D02*
X0101561Y0020055D01*
X0101561Y0020093D02*
X0096679Y0020093D01*
X0096679Y0020131D02*
X0101561Y0020131D01*
X0101561Y0020169D02*
X0096679Y0020169D01*
X0096679Y0020207D02*
X0101561Y0020207D01*
X0101561Y0020244D02*
X0096679Y0020244D01*
X0096679Y0020282D02*
X0101561Y0020282D01*
X0101561Y0020320D02*
X0096679Y0020320D01*
X0096679Y0020358D02*
X0101561Y0020358D01*
X0101561Y0020396D02*
X0096679Y0020396D01*
X0096679Y0020434D02*
X0101561Y0020434D01*
X0101556Y0020472D02*
X0096683Y0020472D01*
X0096689Y0020510D02*
X0101550Y0020510D01*
X0101544Y0020548D02*
X0096695Y0020548D01*
X0096701Y0020585D02*
X0101538Y0020585D01*
X0101520Y0020623D02*
X0096720Y0020623D01*
X0096739Y0020661D02*
X0101500Y0020661D01*
X0101481Y0020699D02*
X0096758Y0020699D01*
X0096786Y0020737D02*
X0101453Y0020737D01*
X0101416Y0020775D02*
X0096824Y0020775D01*
X0096862Y0020813D02*
X0101378Y0020813D01*
X0101315Y0020851D02*
X0096925Y0020851D01*
X0096999Y0020888D02*
X0101240Y0020888D01*
X0101234Y0021371D02*
X0101366Y0021438D01*
X0101470Y0021543D01*
X0101538Y0021674D01*
X0101561Y0021820D01*
X0101561Y0023001D01*
X0101538Y0023147D01*
X0101470Y0023279D01*
X0101366Y0023384D01*
X0101234Y0023451D01*
X0101088Y0023474D01*
X0097151Y0023474D01*
X0097005Y0023451D01*
X0096873Y0023384D01*
X0096769Y0023279D01*
X0096702Y0023147D01*
X0096679Y0023001D01*
X0096679Y0021820D01*
X0096702Y0021674D01*
X0096769Y0021543D01*
X0096873Y0021438D01*
X0097005Y0021371D01*
X0097151Y0021348D01*
X0101088Y0021348D01*
X0101234Y0021371D01*
X0101254Y0021381D02*
X0096986Y0021381D01*
X0096911Y0021419D02*
X0101328Y0021419D01*
X0101385Y0021457D02*
X0096855Y0021457D01*
X0096817Y0021495D02*
X0101422Y0021495D01*
X0101460Y0021532D02*
X0096779Y0021532D01*
X0096755Y0021570D02*
X0101485Y0021570D01*
X0101504Y0021608D02*
X0096735Y0021608D01*
X0096716Y0021646D02*
X0101523Y0021646D01*
X0101539Y0021684D02*
X0096700Y0021684D01*
X0096694Y0021722D02*
X0101545Y0021722D01*
X0101551Y0021760D02*
X0096688Y0021760D01*
X0096682Y0021798D02*
X0101557Y0021798D01*
X0101561Y0021835D02*
X0096679Y0021835D01*
X0096679Y0021873D02*
X0101561Y0021873D01*
X0101561Y0021911D02*
X0096679Y0021911D01*
X0096679Y0021949D02*
X0101561Y0021949D01*
X0101561Y0021987D02*
X0096679Y0021987D01*
X0096679Y0022025D02*
X0101561Y0022025D01*
X0101561Y0022063D02*
X0096679Y0022063D01*
X0096679Y0022101D02*
X0101561Y0022101D01*
X0101561Y0022139D02*
X0096679Y0022139D01*
X0096679Y0022176D02*
X0101561Y0022176D01*
X0101561Y0022214D02*
X0096679Y0022214D01*
X0096679Y0022252D02*
X0101561Y0022252D01*
X0101561Y0022290D02*
X0096679Y0022290D01*
X0096679Y0022328D02*
X0101561Y0022328D01*
X0101561Y0022366D02*
X0096679Y0022366D01*
X0096679Y0022404D02*
X0101561Y0022404D01*
X0101561Y0022442D02*
X0096679Y0022442D01*
X0096679Y0022479D02*
X0101561Y0022479D01*
X0101561Y0022517D02*
X0096679Y0022517D01*
X0096679Y0022555D02*
X0101561Y0022555D01*
X0101561Y0022593D02*
X0096679Y0022593D01*
X0096679Y0022631D02*
X0101561Y0022631D01*
X0101561Y0022669D02*
X0096679Y0022669D01*
X0096679Y0022707D02*
X0101561Y0022707D01*
X0101561Y0022745D02*
X0096679Y0022745D01*
X0096679Y0022783D02*
X0101561Y0022783D01*
X0101561Y0022820D02*
X0096679Y0022820D01*
X0096679Y0022858D02*
X0101561Y0022858D01*
X0101561Y0022896D02*
X0096679Y0022896D01*
X0096679Y0022934D02*
X0101561Y0022934D01*
X0101561Y0022972D02*
X0096679Y0022972D01*
X0096680Y0023010D02*
X0101559Y0023010D01*
X0101553Y0023048D02*
X0096686Y0023048D01*
X0096692Y0023086D02*
X0101547Y0023086D01*
X0101541Y0023123D02*
X0096698Y0023123D01*
X0096709Y0023161D02*
X0101530Y0023161D01*
X0101511Y0023199D02*
X0096728Y0023199D01*
X0096748Y0023237D02*
X0101492Y0023237D01*
X0101472Y0023275D02*
X0096767Y0023275D01*
X0096803Y0023313D02*
X0101437Y0023313D01*
X0101399Y0023351D02*
X0096841Y0023351D01*
X0096883Y0023389D02*
X0101356Y0023389D01*
X0101282Y0023426D02*
X0096958Y0023426D01*
X0097092Y0023464D02*
X0101147Y0023464D01*
X0101088Y0023907D02*
X0101234Y0023930D01*
X0101366Y0023997D01*
X0101470Y0024102D01*
X0101538Y0024233D01*
X0101561Y0024379D01*
X0101561Y0025560D01*
X0101538Y0025706D01*
X0101470Y0025838D01*
X0101366Y0025943D01*
X0101234Y0026010D01*
X0101088Y0026033D01*
X0097151Y0026033D01*
X0097005Y0026010D01*
X0096873Y0025943D01*
X0096769Y0025838D01*
X0096702Y0025706D01*
X0096679Y0025560D01*
X0096679Y0024379D01*
X0096702Y0024233D01*
X0096769Y0024102D01*
X0096873Y0023997D01*
X0097005Y0023930D01*
X0097151Y0023907D01*
X0101088Y0023907D01*
X0101165Y0023919D02*
X0097075Y0023919D01*
X0096952Y0023957D02*
X0101287Y0023957D01*
X0101361Y0023995D02*
X0096878Y0023995D01*
X0096838Y0024033D02*
X0101401Y0024033D01*
X0101439Y0024070D02*
X0096800Y0024070D01*
X0096766Y0024108D02*
X0101474Y0024108D01*
X0101493Y0024146D02*
X0096746Y0024146D01*
X0096727Y0024184D02*
X0101512Y0024184D01*
X0101532Y0024222D02*
X0096708Y0024222D01*
X0096698Y0024260D02*
X0101542Y0024260D01*
X0101548Y0024298D02*
X0096692Y0024298D01*
X0096686Y0024336D02*
X0101554Y0024336D01*
X0101560Y0024374D02*
X0096680Y0024374D01*
X0096679Y0024411D02*
X0101561Y0024411D01*
X0101561Y0024449D02*
X0096679Y0024449D01*
X0096679Y0024487D02*
X0101561Y0024487D01*
X0101561Y0024525D02*
X0096679Y0024525D01*
X0096679Y0024563D02*
X0101561Y0024563D01*
X0101561Y0024601D02*
X0096679Y0024601D01*
X0096679Y0024639D02*
X0101561Y0024639D01*
X0101561Y0024677D02*
X0096679Y0024677D01*
X0096679Y0024714D02*
X0101561Y0024714D01*
X0101561Y0024752D02*
X0096679Y0024752D01*
X0096679Y0024790D02*
X0101561Y0024790D01*
X0101561Y0024828D02*
X0096679Y0024828D01*
X0096679Y0024866D02*
X0101561Y0024866D01*
X0101561Y0024904D02*
X0096679Y0024904D01*
X0096679Y0024942D02*
X0101561Y0024942D01*
X0101561Y0024980D02*
X0096679Y0024980D01*
X0096679Y0025018D02*
X0101561Y0025018D01*
X0101561Y0025055D02*
X0096679Y0025055D01*
X0096679Y0025093D02*
X0101561Y0025093D01*
X0101561Y0025131D02*
X0096679Y0025131D01*
X0096679Y0025169D02*
X0101561Y0025169D01*
X0101561Y0025207D02*
X0096679Y0025207D01*
X0096679Y0025245D02*
X0101561Y0025245D01*
X0101561Y0025283D02*
X0096679Y0025283D01*
X0096679Y0025321D02*
X0101561Y0025321D01*
X0101561Y0025358D02*
X0096679Y0025358D01*
X0096679Y0025396D02*
X0101561Y0025396D01*
X0101561Y0025434D02*
X0096679Y0025434D01*
X0096679Y0025472D02*
X0101561Y0025472D01*
X0101561Y0025510D02*
X0096679Y0025510D01*
X0096679Y0025548D02*
X0101561Y0025548D01*
X0101557Y0025586D02*
X0096683Y0025586D01*
X0096689Y0025624D02*
X0101551Y0025624D01*
X0101545Y0025661D02*
X0096695Y0025661D01*
X0096701Y0025699D02*
X0101539Y0025699D01*
X0101522Y0025737D02*
X0096718Y0025737D01*
X0096737Y0025775D02*
X0101502Y0025775D01*
X0101483Y0025813D02*
X0096756Y0025813D01*
X0096782Y0025851D02*
X0101458Y0025851D01*
X0101420Y0025889D02*
X0096820Y0025889D01*
X0096858Y0025927D02*
X0101382Y0025927D01*
X0101323Y0025965D02*
X0096917Y0025965D01*
X0096991Y0026002D02*
X0101248Y0026002D01*
X0101234Y0026489D02*
X0101366Y0026556D01*
X0101470Y0026661D01*
X0101538Y0026792D01*
X0101561Y0026938D01*
X0101561Y0028119D01*
X0101538Y0028265D01*
X0101470Y0028397D01*
X0101366Y0028502D01*
X0101234Y0028569D01*
X0101088Y0028592D01*
X0097151Y0028592D01*
X0097005Y0028569D01*
X0096873Y0028502D01*
X0096769Y0028397D01*
X0096702Y0028265D01*
X0096679Y0028119D01*
X0096679Y0026938D01*
X0096702Y0026792D01*
X0096769Y0026661D01*
X0096873Y0026556D01*
X0097005Y0026489D01*
X0097151Y0026466D01*
X0101088Y0026466D01*
X0101234Y0026489D01*
X0101246Y0026495D02*
X0096994Y0026495D01*
X0096919Y0026533D02*
X0101320Y0026533D01*
X0101380Y0026571D02*
X0096859Y0026571D01*
X0096821Y0026609D02*
X0101418Y0026609D01*
X0101456Y0026646D02*
X0096783Y0026646D01*
X0096757Y0026684D02*
X0101482Y0026684D01*
X0101502Y0026722D02*
X0096738Y0026722D01*
X0096718Y0026760D02*
X0101521Y0026760D01*
X0101538Y0026798D02*
X0096701Y0026798D01*
X0096695Y0026836D02*
X0101544Y0026836D01*
X0101550Y0026874D02*
X0096689Y0026874D01*
X0096683Y0026912D02*
X0101556Y0026912D01*
X0101561Y0026949D02*
X0096679Y0026949D01*
X0096679Y0026987D02*
X0101561Y0026987D01*
X0101561Y0027025D02*
X0096679Y0027025D01*
X0096679Y0027063D02*
X0101561Y0027063D01*
X0101561Y0027101D02*
X0096679Y0027101D01*
X0096679Y0027139D02*
X0101561Y0027139D01*
X0101561Y0027177D02*
X0096679Y0027177D01*
X0096679Y0027215D02*
X0101561Y0027215D01*
X0101561Y0027253D02*
X0096679Y0027253D01*
X0096679Y0027290D02*
X0101561Y0027290D01*
X0101561Y0027328D02*
X0096679Y0027328D01*
X0096679Y0027366D02*
X0101561Y0027366D01*
X0101561Y0027404D02*
X0096679Y0027404D01*
X0096679Y0027442D02*
X0101561Y0027442D01*
X0101561Y0027480D02*
X0096679Y0027480D01*
X0096679Y0027518D02*
X0101561Y0027518D01*
X0101561Y0027556D02*
X0096679Y0027556D01*
X0096679Y0027593D02*
X0101561Y0027593D01*
X0101561Y0027631D02*
X0096679Y0027631D01*
X0096679Y0027669D02*
X0101561Y0027669D01*
X0101561Y0027707D02*
X0096679Y0027707D01*
X0096679Y0027745D02*
X0101561Y0027745D01*
X0101561Y0027783D02*
X0096679Y0027783D01*
X0096679Y0027821D02*
X0101561Y0027821D01*
X0101561Y0027859D02*
X0096679Y0027859D01*
X0096679Y0027896D02*
X0101561Y0027896D01*
X0101561Y0027934D02*
X0096679Y0027934D01*
X0096679Y0027972D02*
X0101561Y0027972D01*
X0101561Y0028010D02*
X0096679Y0028010D01*
X0096679Y0028048D02*
X0101561Y0028048D01*
X0101561Y0028086D02*
X0096679Y0028086D01*
X0096679Y0028124D02*
X0101560Y0028124D01*
X0101554Y0028162D02*
X0096685Y0028162D01*
X0096691Y0028200D02*
X0101548Y0028200D01*
X0101542Y0028237D02*
X0096697Y0028237D01*
X0096707Y0028275D02*
X0101532Y0028275D01*
X0101513Y0028313D02*
X0096726Y0028313D01*
X0096746Y0028351D02*
X0101494Y0028351D01*
X0101475Y0028389D02*
X0096765Y0028389D01*
X0096799Y0028427D02*
X0101441Y0028427D01*
X0101403Y0028465D02*
X0096837Y0028465D01*
X0096875Y0028503D02*
X0101364Y0028503D01*
X0101290Y0028540D02*
X0096950Y0028540D01*
X0097066Y0028578D02*
X0101173Y0028578D01*
X0111759Y0028427D02*
X0116401Y0028427D01*
X0116363Y0028465D02*
X0111797Y0028465D01*
X0111836Y0028503D02*
X0116325Y0028503D01*
X0116250Y0028540D02*
X0111910Y0028540D01*
X0112027Y0028578D02*
X0116134Y0028578D01*
X0101554Y0019222D02*
X0096685Y0019222D01*
X0096691Y0019184D02*
X0101548Y0019184D01*
X0101542Y0019146D02*
X0096697Y0019146D01*
X0096705Y0019108D02*
X0101534Y0019108D01*
X0101515Y0019070D02*
X0096725Y0019070D01*
X0096744Y0019032D02*
X0101495Y0019032D01*
X0101476Y0018994D02*
X0096763Y0018994D01*
X0096796Y0018956D02*
X0101443Y0018956D01*
X0101406Y0018919D02*
X0096834Y0018919D01*
X0096872Y0018881D02*
X0101368Y0018881D01*
X0101295Y0018843D02*
X0096944Y0018843D01*
X0097049Y0018805D02*
X0101191Y0018805D01*
D30*
X0095350Y0014940D03*
X0074100Y0032440D03*
X0081600Y0042440D03*
X0097850Y0033690D03*
X0116600Y0049940D03*
X0121600Y0046190D03*
X0125350Y0039940D03*
X0129100Y0044940D03*
X0131600Y0058690D03*
X0131600Y0066190D03*
X0125350Y0064940D03*
X0121600Y0074940D03*
X0110350Y0073690D03*
X0105350Y0069940D03*
X0102850Y0077440D03*
X0095350Y0078690D03*
X0105350Y0087440D03*
X0111600Y0083690D03*
X0121600Y0089940D03*
X0146600Y0073690D03*
X0150350Y0069940D03*
X0161600Y0066190D03*
X0166600Y0064940D03*
X0161600Y0057440D03*
X0152850Y0046190D03*
X0162850Y0033690D03*
X0156600Y0029940D03*
X0142850Y0029940D03*
X0145350Y0021190D03*
X0151600Y0014940D03*
X0151600Y0011190D03*
X0145350Y0011190D03*
X0135350Y0012440D03*
X0122850Y0014315D03*
X0166600Y0011190D03*
X0176600Y0011190D03*
X0189100Y0016190D03*
X0190350Y0024940D03*
X0201600Y0016190D03*
X0209100Y0021190D03*
X0185350Y0039940D03*
X0185350Y0059940D03*
X0196600Y0066190D03*
X0181600Y0078690D03*
X0174100Y0078690D03*
X0161600Y0078690D03*
X0151600Y0083690D03*
X0149100Y0093690D03*
X0186600Y0113690D03*
X0209100Y0113690D03*
X0212850Y0083690D03*
X0146600Y0133690D03*
X0184100Y0171190D03*
X0096600Y0186190D03*
X0044100Y0113690D03*
X0060350Y0103690D03*
X0047850Y0083690D03*
X0089100Y0103690D03*
X0094100Y0068690D03*
X0093475Y0058690D03*
X0166600Y0019940D03*
M02*
