G75*
%MOIN*%
%OFA0B0*%
%FSLAX25Y25*%
%IPPOS*%
%LPD*%
%AMOC8*
5,1,8,0,0,1.08239X$1,22.5*
%
%ADD10C,0.00000*%
%ADD11R,0.06299X0.04331*%
%ADD12R,0.04331X0.03937*%
%ADD13R,0.04331X0.06299*%
%ADD14R,0.03937X0.04331*%
%ADD15C,0.08250*%
%ADD16R,0.06693X0.06693*%
%ADD17R,0.08661X0.07087*%
%ADD18R,0.04724X0.04724*%
%ADD19C,0.07400*%
%ADD20R,0.07874X0.13780*%
%ADD21R,0.05906X0.05906*%
%ADD22C,0.05906*%
%ADD23C,0.00404*%
%ADD24C,0.00266*%
%ADD25C,0.00571*%
%ADD26R,0.08661X0.02362*%
%ADD27R,0.02362X0.08661*%
%ADD28C,0.00039*%
%ADD29R,0.00394X0.00394*%
%ADD30C,0.02953*%
%ADD31C,0.04000*%
%ADD32C,0.01200*%
%ADD33C,0.02400*%
%ADD34C,0.01600*%
%ADD35C,0.00800*%
D10*
X0001600Y0003690D02*
X0001600Y0193690D01*
X0276600Y0193690D01*
X0276600Y0003690D01*
X0001600Y0003690D01*
X0010301Y0018690D02*
X0010303Y0018848D01*
X0010309Y0019006D01*
X0010319Y0019164D01*
X0010333Y0019322D01*
X0010351Y0019479D01*
X0010372Y0019636D01*
X0010398Y0019792D01*
X0010428Y0019948D01*
X0010461Y0020103D01*
X0010499Y0020256D01*
X0010540Y0020409D01*
X0010585Y0020561D01*
X0010634Y0020712D01*
X0010687Y0020861D01*
X0010743Y0021009D01*
X0010803Y0021155D01*
X0010867Y0021300D01*
X0010935Y0021443D01*
X0011006Y0021585D01*
X0011080Y0021725D01*
X0011158Y0021862D01*
X0011240Y0021998D01*
X0011324Y0022132D01*
X0011413Y0022263D01*
X0011504Y0022392D01*
X0011599Y0022519D01*
X0011696Y0022644D01*
X0011797Y0022766D01*
X0011901Y0022885D01*
X0012008Y0023002D01*
X0012118Y0023116D01*
X0012231Y0023227D01*
X0012346Y0023336D01*
X0012464Y0023441D01*
X0012585Y0023543D01*
X0012708Y0023643D01*
X0012834Y0023739D01*
X0012962Y0023832D01*
X0013092Y0023922D01*
X0013225Y0024008D01*
X0013360Y0024092D01*
X0013496Y0024171D01*
X0013635Y0024248D01*
X0013776Y0024320D01*
X0013918Y0024390D01*
X0014062Y0024455D01*
X0014208Y0024517D01*
X0014355Y0024575D01*
X0014504Y0024630D01*
X0014654Y0024681D01*
X0014805Y0024728D01*
X0014957Y0024771D01*
X0015110Y0024810D01*
X0015265Y0024846D01*
X0015420Y0024877D01*
X0015576Y0024905D01*
X0015732Y0024929D01*
X0015889Y0024949D01*
X0016047Y0024965D01*
X0016204Y0024977D01*
X0016363Y0024985D01*
X0016521Y0024989D01*
X0016679Y0024989D01*
X0016837Y0024985D01*
X0016996Y0024977D01*
X0017153Y0024965D01*
X0017311Y0024949D01*
X0017468Y0024929D01*
X0017624Y0024905D01*
X0017780Y0024877D01*
X0017935Y0024846D01*
X0018090Y0024810D01*
X0018243Y0024771D01*
X0018395Y0024728D01*
X0018546Y0024681D01*
X0018696Y0024630D01*
X0018845Y0024575D01*
X0018992Y0024517D01*
X0019138Y0024455D01*
X0019282Y0024390D01*
X0019424Y0024320D01*
X0019565Y0024248D01*
X0019704Y0024171D01*
X0019840Y0024092D01*
X0019975Y0024008D01*
X0020108Y0023922D01*
X0020238Y0023832D01*
X0020366Y0023739D01*
X0020492Y0023643D01*
X0020615Y0023543D01*
X0020736Y0023441D01*
X0020854Y0023336D01*
X0020969Y0023227D01*
X0021082Y0023116D01*
X0021192Y0023002D01*
X0021299Y0022885D01*
X0021403Y0022766D01*
X0021504Y0022644D01*
X0021601Y0022519D01*
X0021696Y0022392D01*
X0021787Y0022263D01*
X0021876Y0022132D01*
X0021960Y0021998D01*
X0022042Y0021862D01*
X0022120Y0021725D01*
X0022194Y0021585D01*
X0022265Y0021443D01*
X0022333Y0021300D01*
X0022397Y0021155D01*
X0022457Y0021009D01*
X0022513Y0020861D01*
X0022566Y0020712D01*
X0022615Y0020561D01*
X0022660Y0020409D01*
X0022701Y0020256D01*
X0022739Y0020103D01*
X0022772Y0019948D01*
X0022802Y0019792D01*
X0022828Y0019636D01*
X0022849Y0019479D01*
X0022867Y0019322D01*
X0022881Y0019164D01*
X0022891Y0019006D01*
X0022897Y0018848D01*
X0022899Y0018690D01*
X0022897Y0018532D01*
X0022891Y0018374D01*
X0022881Y0018216D01*
X0022867Y0018058D01*
X0022849Y0017901D01*
X0022828Y0017744D01*
X0022802Y0017588D01*
X0022772Y0017432D01*
X0022739Y0017277D01*
X0022701Y0017124D01*
X0022660Y0016971D01*
X0022615Y0016819D01*
X0022566Y0016668D01*
X0022513Y0016519D01*
X0022457Y0016371D01*
X0022397Y0016225D01*
X0022333Y0016080D01*
X0022265Y0015937D01*
X0022194Y0015795D01*
X0022120Y0015655D01*
X0022042Y0015518D01*
X0021960Y0015382D01*
X0021876Y0015248D01*
X0021787Y0015117D01*
X0021696Y0014988D01*
X0021601Y0014861D01*
X0021504Y0014736D01*
X0021403Y0014614D01*
X0021299Y0014495D01*
X0021192Y0014378D01*
X0021082Y0014264D01*
X0020969Y0014153D01*
X0020854Y0014044D01*
X0020736Y0013939D01*
X0020615Y0013837D01*
X0020492Y0013737D01*
X0020366Y0013641D01*
X0020238Y0013548D01*
X0020108Y0013458D01*
X0019975Y0013372D01*
X0019840Y0013288D01*
X0019704Y0013209D01*
X0019565Y0013132D01*
X0019424Y0013060D01*
X0019282Y0012990D01*
X0019138Y0012925D01*
X0018992Y0012863D01*
X0018845Y0012805D01*
X0018696Y0012750D01*
X0018546Y0012699D01*
X0018395Y0012652D01*
X0018243Y0012609D01*
X0018090Y0012570D01*
X0017935Y0012534D01*
X0017780Y0012503D01*
X0017624Y0012475D01*
X0017468Y0012451D01*
X0017311Y0012431D01*
X0017153Y0012415D01*
X0016996Y0012403D01*
X0016837Y0012395D01*
X0016679Y0012391D01*
X0016521Y0012391D01*
X0016363Y0012395D01*
X0016204Y0012403D01*
X0016047Y0012415D01*
X0015889Y0012431D01*
X0015732Y0012451D01*
X0015576Y0012475D01*
X0015420Y0012503D01*
X0015265Y0012534D01*
X0015110Y0012570D01*
X0014957Y0012609D01*
X0014805Y0012652D01*
X0014654Y0012699D01*
X0014504Y0012750D01*
X0014355Y0012805D01*
X0014208Y0012863D01*
X0014062Y0012925D01*
X0013918Y0012990D01*
X0013776Y0013060D01*
X0013635Y0013132D01*
X0013496Y0013209D01*
X0013360Y0013288D01*
X0013225Y0013372D01*
X0013092Y0013458D01*
X0012962Y0013548D01*
X0012834Y0013641D01*
X0012708Y0013737D01*
X0012585Y0013837D01*
X0012464Y0013939D01*
X0012346Y0014044D01*
X0012231Y0014153D01*
X0012118Y0014264D01*
X0012008Y0014378D01*
X0011901Y0014495D01*
X0011797Y0014614D01*
X0011696Y0014736D01*
X0011599Y0014861D01*
X0011504Y0014988D01*
X0011413Y0015117D01*
X0011324Y0015248D01*
X0011240Y0015382D01*
X0011158Y0015518D01*
X0011080Y0015655D01*
X0011006Y0015795D01*
X0010935Y0015937D01*
X0010867Y0016080D01*
X0010803Y0016225D01*
X0010743Y0016371D01*
X0010687Y0016519D01*
X0010634Y0016668D01*
X0010585Y0016819D01*
X0010540Y0016971D01*
X0010499Y0017124D01*
X0010461Y0017277D01*
X0010428Y0017432D01*
X0010398Y0017588D01*
X0010372Y0017744D01*
X0010351Y0017901D01*
X0010333Y0018058D01*
X0010319Y0018216D01*
X0010309Y0018374D01*
X0010303Y0018532D01*
X0010301Y0018690D01*
X0010301Y0178690D02*
X0010303Y0178848D01*
X0010309Y0179006D01*
X0010319Y0179164D01*
X0010333Y0179322D01*
X0010351Y0179479D01*
X0010372Y0179636D01*
X0010398Y0179792D01*
X0010428Y0179948D01*
X0010461Y0180103D01*
X0010499Y0180256D01*
X0010540Y0180409D01*
X0010585Y0180561D01*
X0010634Y0180712D01*
X0010687Y0180861D01*
X0010743Y0181009D01*
X0010803Y0181155D01*
X0010867Y0181300D01*
X0010935Y0181443D01*
X0011006Y0181585D01*
X0011080Y0181725D01*
X0011158Y0181862D01*
X0011240Y0181998D01*
X0011324Y0182132D01*
X0011413Y0182263D01*
X0011504Y0182392D01*
X0011599Y0182519D01*
X0011696Y0182644D01*
X0011797Y0182766D01*
X0011901Y0182885D01*
X0012008Y0183002D01*
X0012118Y0183116D01*
X0012231Y0183227D01*
X0012346Y0183336D01*
X0012464Y0183441D01*
X0012585Y0183543D01*
X0012708Y0183643D01*
X0012834Y0183739D01*
X0012962Y0183832D01*
X0013092Y0183922D01*
X0013225Y0184008D01*
X0013360Y0184092D01*
X0013496Y0184171D01*
X0013635Y0184248D01*
X0013776Y0184320D01*
X0013918Y0184390D01*
X0014062Y0184455D01*
X0014208Y0184517D01*
X0014355Y0184575D01*
X0014504Y0184630D01*
X0014654Y0184681D01*
X0014805Y0184728D01*
X0014957Y0184771D01*
X0015110Y0184810D01*
X0015265Y0184846D01*
X0015420Y0184877D01*
X0015576Y0184905D01*
X0015732Y0184929D01*
X0015889Y0184949D01*
X0016047Y0184965D01*
X0016204Y0184977D01*
X0016363Y0184985D01*
X0016521Y0184989D01*
X0016679Y0184989D01*
X0016837Y0184985D01*
X0016996Y0184977D01*
X0017153Y0184965D01*
X0017311Y0184949D01*
X0017468Y0184929D01*
X0017624Y0184905D01*
X0017780Y0184877D01*
X0017935Y0184846D01*
X0018090Y0184810D01*
X0018243Y0184771D01*
X0018395Y0184728D01*
X0018546Y0184681D01*
X0018696Y0184630D01*
X0018845Y0184575D01*
X0018992Y0184517D01*
X0019138Y0184455D01*
X0019282Y0184390D01*
X0019424Y0184320D01*
X0019565Y0184248D01*
X0019704Y0184171D01*
X0019840Y0184092D01*
X0019975Y0184008D01*
X0020108Y0183922D01*
X0020238Y0183832D01*
X0020366Y0183739D01*
X0020492Y0183643D01*
X0020615Y0183543D01*
X0020736Y0183441D01*
X0020854Y0183336D01*
X0020969Y0183227D01*
X0021082Y0183116D01*
X0021192Y0183002D01*
X0021299Y0182885D01*
X0021403Y0182766D01*
X0021504Y0182644D01*
X0021601Y0182519D01*
X0021696Y0182392D01*
X0021787Y0182263D01*
X0021876Y0182132D01*
X0021960Y0181998D01*
X0022042Y0181862D01*
X0022120Y0181725D01*
X0022194Y0181585D01*
X0022265Y0181443D01*
X0022333Y0181300D01*
X0022397Y0181155D01*
X0022457Y0181009D01*
X0022513Y0180861D01*
X0022566Y0180712D01*
X0022615Y0180561D01*
X0022660Y0180409D01*
X0022701Y0180256D01*
X0022739Y0180103D01*
X0022772Y0179948D01*
X0022802Y0179792D01*
X0022828Y0179636D01*
X0022849Y0179479D01*
X0022867Y0179322D01*
X0022881Y0179164D01*
X0022891Y0179006D01*
X0022897Y0178848D01*
X0022899Y0178690D01*
X0022897Y0178532D01*
X0022891Y0178374D01*
X0022881Y0178216D01*
X0022867Y0178058D01*
X0022849Y0177901D01*
X0022828Y0177744D01*
X0022802Y0177588D01*
X0022772Y0177432D01*
X0022739Y0177277D01*
X0022701Y0177124D01*
X0022660Y0176971D01*
X0022615Y0176819D01*
X0022566Y0176668D01*
X0022513Y0176519D01*
X0022457Y0176371D01*
X0022397Y0176225D01*
X0022333Y0176080D01*
X0022265Y0175937D01*
X0022194Y0175795D01*
X0022120Y0175655D01*
X0022042Y0175518D01*
X0021960Y0175382D01*
X0021876Y0175248D01*
X0021787Y0175117D01*
X0021696Y0174988D01*
X0021601Y0174861D01*
X0021504Y0174736D01*
X0021403Y0174614D01*
X0021299Y0174495D01*
X0021192Y0174378D01*
X0021082Y0174264D01*
X0020969Y0174153D01*
X0020854Y0174044D01*
X0020736Y0173939D01*
X0020615Y0173837D01*
X0020492Y0173737D01*
X0020366Y0173641D01*
X0020238Y0173548D01*
X0020108Y0173458D01*
X0019975Y0173372D01*
X0019840Y0173288D01*
X0019704Y0173209D01*
X0019565Y0173132D01*
X0019424Y0173060D01*
X0019282Y0172990D01*
X0019138Y0172925D01*
X0018992Y0172863D01*
X0018845Y0172805D01*
X0018696Y0172750D01*
X0018546Y0172699D01*
X0018395Y0172652D01*
X0018243Y0172609D01*
X0018090Y0172570D01*
X0017935Y0172534D01*
X0017780Y0172503D01*
X0017624Y0172475D01*
X0017468Y0172451D01*
X0017311Y0172431D01*
X0017153Y0172415D01*
X0016996Y0172403D01*
X0016837Y0172395D01*
X0016679Y0172391D01*
X0016521Y0172391D01*
X0016363Y0172395D01*
X0016204Y0172403D01*
X0016047Y0172415D01*
X0015889Y0172431D01*
X0015732Y0172451D01*
X0015576Y0172475D01*
X0015420Y0172503D01*
X0015265Y0172534D01*
X0015110Y0172570D01*
X0014957Y0172609D01*
X0014805Y0172652D01*
X0014654Y0172699D01*
X0014504Y0172750D01*
X0014355Y0172805D01*
X0014208Y0172863D01*
X0014062Y0172925D01*
X0013918Y0172990D01*
X0013776Y0173060D01*
X0013635Y0173132D01*
X0013496Y0173209D01*
X0013360Y0173288D01*
X0013225Y0173372D01*
X0013092Y0173458D01*
X0012962Y0173548D01*
X0012834Y0173641D01*
X0012708Y0173737D01*
X0012585Y0173837D01*
X0012464Y0173939D01*
X0012346Y0174044D01*
X0012231Y0174153D01*
X0012118Y0174264D01*
X0012008Y0174378D01*
X0011901Y0174495D01*
X0011797Y0174614D01*
X0011696Y0174736D01*
X0011599Y0174861D01*
X0011504Y0174988D01*
X0011413Y0175117D01*
X0011324Y0175248D01*
X0011240Y0175382D01*
X0011158Y0175518D01*
X0011080Y0175655D01*
X0011006Y0175795D01*
X0010935Y0175937D01*
X0010867Y0176080D01*
X0010803Y0176225D01*
X0010743Y0176371D01*
X0010687Y0176519D01*
X0010634Y0176668D01*
X0010585Y0176819D01*
X0010540Y0176971D01*
X0010499Y0177124D01*
X0010461Y0177277D01*
X0010428Y0177432D01*
X0010398Y0177588D01*
X0010372Y0177744D01*
X0010351Y0177901D01*
X0010333Y0178058D01*
X0010319Y0178216D01*
X0010309Y0178374D01*
X0010303Y0178532D01*
X0010301Y0178690D01*
X0255301Y0178690D02*
X0255303Y0178848D01*
X0255309Y0179006D01*
X0255319Y0179164D01*
X0255333Y0179322D01*
X0255351Y0179479D01*
X0255372Y0179636D01*
X0255398Y0179792D01*
X0255428Y0179948D01*
X0255461Y0180103D01*
X0255499Y0180256D01*
X0255540Y0180409D01*
X0255585Y0180561D01*
X0255634Y0180712D01*
X0255687Y0180861D01*
X0255743Y0181009D01*
X0255803Y0181155D01*
X0255867Y0181300D01*
X0255935Y0181443D01*
X0256006Y0181585D01*
X0256080Y0181725D01*
X0256158Y0181862D01*
X0256240Y0181998D01*
X0256324Y0182132D01*
X0256413Y0182263D01*
X0256504Y0182392D01*
X0256599Y0182519D01*
X0256696Y0182644D01*
X0256797Y0182766D01*
X0256901Y0182885D01*
X0257008Y0183002D01*
X0257118Y0183116D01*
X0257231Y0183227D01*
X0257346Y0183336D01*
X0257464Y0183441D01*
X0257585Y0183543D01*
X0257708Y0183643D01*
X0257834Y0183739D01*
X0257962Y0183832D01*
X0258092Y0183922D01*
X0258225Y0184008D01*
X0258360Y0184092D01*
X0258496Y0184171D01*
X0258635Y0184248D01*
X0258776Y0184320D01*
X0258918Y0184390D01*
X0259062Y0184455D01*
X0259208Y0184517D01*
X0259355Y0184575D01*
X0259504Y0184630D01*
X0259654Y0184681D01*
X0259805Y0184728D01*
X0259957Y0184771D01*
X0260110Y0184810D01*
X0260265Y0184846D01*
X0260420Y0184877D01*
X0260576Y0184905D01*
X0260732Y0184929D01*
X0260889Y0184949D01*
X0261047Y0184965D01*
X0261204Y0184977D01*
X0261363Y0184985D01*
X0261521Y0184989D01*
X0261679Y0184989D01*
X0261837Y0184985D01*
X0261996Y0184977D01*
X0262153Y0184965D01*
X0262311Y0184949D01*
X0262468Y0184929D01*
X0262624Y0184905D01*
X0262780Y0184877D01*
X0262935Y0184846D01*
X0263090Y0184810D01*
X0263243Y0184771D01*
X0263395Y0184728D01*
X0263546Y0184681D01*
X0263696Y0184630D01*
X0263845Y0184575D01*
X0263992Y0184517D01*
X0264138Y0184455D01*
X0264282Y0184390D01*
X0264424Y0184320D01*
X0264565Y0184248D01*
X0264704Y0184171D01*
X0264840Y0184092D01*
X0264975Y0184008D01*
X0265108Y0183922D01*
X0265238Y0183832D01*
X0265366Y0183739D01*
X0265492Y0183643D01*
X0265615Y0183543D01*
X0265736Y0183441D01*
X0265854Y0183336D01*
X0265969Y0183227D01*
X0266082Y0183116D01*
X0266192Y0183002D01*
X0266299Y0182885D01*
X0266403Y0182766D01*
X0266504Y0182644D01*
X0266601Y0182519D01*
X0266696Y0182392D01*
X0266787Y0182263D01*
X0266876Y0182132D01*
X0266960Y0181998D01*
X0267042Y0181862D01*
X0267120Y0181725D01*
X0267194Y0181585D01*
X0267265Y0181443D01*
X0267333Y0181300D01*
X0267397Y0181155D01*
X0267457Y0181009D01*
X0267513Y0180861D01*
X0267566Y0180712D01*
X0267615Y0180561D01*
X0267660Y0180409D01*
X0267701Y0180256D01*
X0267739Y0180103D01*
X0267772Y0179948D01*
X0267802Y0179792D01*
X0267828Y0179636D01*
X0267849Y0179479D01*
X0267867Y0179322D01*
X0267881Y0179164D01*
X0267891Y0179006D01*
X0267897Y0178848D01*
X0267899Y0178690D01*
X0267897Y0178532D01*
X0267891Y0178374D01*
X0267881Y0178216D01*
X0267867Y0178058D01*
X0267849Y0177901D01*
X0267828Y0177744D01*
X0267802Y0177588D01*
X0267772Y0177432D01*
X0267739Y0177277D01*
X0267701Y0177124D01*
X0267660Y0176971D01*
X0267615Y0176819D01*
X0267566Y0176668D01*
X0267513Y0176519D01*
X0267457Y0176371D01*
X0267397Y0176225D01*
X0267333Y0176080D01*
X0267265Y0175937D01*
X0267194Y0175795D01*
X0267120Y0175655D01*
X0267042Y0175518D01*
X0266960Y0175382D01*
X0266876Y0175248D01*
X0266787Y0175117D01*
X0266696Y0174988D01*
X0266601Y0174861D01*
X0266504Y0174736D01*
X0266403Y0174614D01*
X0266299Y0174495D01*
X0266192Y0174378D01*
X0266082Y0174264D01*
X0265969Y0174153D01*
X0265854Y0174044D01*
X0265736Y0173939D01*
X0265615Y0173837D01*
X0265492Y0173737D01*
X0265366Y0173641D01*
X0265238Y0173548D01*
X0265108Y0173458D01*
X0264975Y0173372D01*
X0264840Y0173288D01*
X0264704Y0173209D01*
X0264565Y0173132D01*
X0264424Y0173060D01*
X0264282Y0172990D01*
X0264138Y0172925D01*
X0263992Y0172863D01*
X0263845Y0172805D01*
X0263696Y0172750D01*
X0263546Y0172699D01*
X0263395Y0172652D01*
X0263243Y0172609D01*
X0263090Y0172570D01*
X0262935Y0172534D01*
X0262780Y0172503D01*
X0262624Y0172475D01*
X0262468Y0172451D01*
X0262311Y0172431D01*
X0262153Y0172415D01*
X0261996Y0172403D01*
X0261837Y0172395D01*
X0261679Y0172391D01*
X0261521Y0172391D01*
X0261363Y0172395D01*
X0261204Y0172403D01*
X0261047Y0172415D01*
X0260889Y0172431D01*
X0260732Y0172451D01*
X0260576Y0172475D01*
X0260420Y0172503D01*
X0260265Y0172534D01*
X0260110Y0172570D01*
X0259957Y0172609D01*
X0259805Y0172652D01*
X0259654Y0172699D01*
X0259504Y0172750D01*
X0259355Y0172805D01*
X0259208Y0172863D01*
X0259062Y0172925D01*
X0258918Y0172990D01*
X0258776Y0173060D01*
X0258635Y0173132D01*
X0258496Y0173209D01*
X0258360Y0173288D01*
X0258225Y0173372D01*
X0258092Y0173458D01*
X0257962Y0173548D01*
X0257834Y0173641D01*
X0257708Y0173737D01*
X0257585Y0173837D01*
X0257464Y0173939D01*
X0257346Y0174044D01*
X0257231Y0174153D01*
X0257118Y0174264D01*
X0257008Y0174378D01*
X0256901Y0174495D01*
X0256797Y0174614D01*
X0256696Y0174736D01*
X0256599Y0174861D01*
X0256504Y0174988D01*
X0256413Y0175117D01*
X0256324Y0175248D01*
X0256240Y0175382D01*
X0256158Y0175518D01*
X0256080Y0175655D01*
X0256006Y0175795D01*
X0255935Y0175937D01*
X0255867Y0176080D01*
X0255803Y0176225D01*
X0255743Y0176371D01*
X0255687Y0176519D01*
X0255634Y0176668D01*
X0255585Y0176819D01*
X0255540Y0176971D01*
X0255499Y0177124D01*
X0255461Y0177277D01*
X0255428Y0177432D01*
X0255398Y0177588D01*
X0255372Y0177744D01*
X0255351Y0177901D01*
X0255333Y0178058D01*
X0255319Y0178216D01*
X0255309Y0178374D01*
X0255303Y0178532D01*
X0255301Y0178690D01*
X0255301Y0018690D02*
X0255303Y0018848D01*
X0255309Y0019006D01*
X0255319Y0019164D01*
X0255333Y0019322D01*
X0255351Y0019479D01*
X0255372Y0019636D01*
X0255398Y0019792D01*
X0255428Y0019948D01*
X0255461Y0020103D01*
X0255499Y0020256D01*
X0255540Y0020409D01*
X0255585Y0020561D01*
X0255634Y0020712D01*
X0255687Y0020861D01*
X0255743Y0021009D01*
X0255803Y0021155D01*
X0255867Y0021300D01*
X0255935Y0021443D01*
X0256006Y0021585D01*
X0256080Y0021725D01*
X0256158Y0021862D01*
X0256240Y0021998D01*
X0256324Y0022132D01*
X0256413Y0022263D01*
X0256504Y0022392D01*
X0256599Y0022519D01*
X0256696Y0022644D01*
X0256797Y0022766D01*
X0256901Y0022885D01*
X0257008Y0023002D01*
X0257118Y0023116D01*
X0257231Y0023227D01*
X0257346Y0023336D01*
X0257464Y0023441D01*
X0257585Y0023543D01*
X0257708Y0023643D01*
X0257834Y0023739D01*
X0257962Y0023832D01*
X0258092Y0023922D01*
X0258225Y0024008D01*
X0258360Y0024092D01*
X0258496Y0024171D01*
X0258635Y0024248D01*
X0258776Y0024320D01*
X0258918Y0024390D01*
X0259062Y0024455D01*
X0259208Y0024517D01*
X0259355Y0024575D01*
X0259504Y0024630D01*
X0259654Y0024681D01*
X0259805Y0024728D01*
X0259957Y0024771D01*
X0260110Y0024810D01*
X0260265Y0024846D01*
X0260420Y0024877D01*
X0260576Y0024905D01*
X0260732Y0024929D01*
X0260889Y0024949D01*
X0261047Y0024965D01*
X0261204Y0024977D01*
X0261363Y0024985D01*
X0261521Y0024989D01*
X0261679Y0024989D01*
X0261837Y0024985D01*
X0261996Y0024977D01*
X0262153Y0024965D01*
X0262311Y0024949D01*
X0262468Y0024929D01*
X0262624Y0024905D01*
X0262780Y0024877D01*
X0262935Y0024846D01*
X0263090Y0024810D01*
X0263243Y0024771D01*
X0263395Y0024728D01*
X0263546Y0024681D01*
X0263696Y0024630D01*
X0263845Y0024575D01*
X0263992Y0024517D01*
X0264138Y0024455D01*
X0264282Y0024390D01*
X0264424Y0024320D01*
X0264565Y0024248D01*
X0264704Y0024171D01*
X0264840Y0024092D01*
X0264975Y0024008D01*
X0265108Y0023922D01*
X0265238Y0023832D01*
X0265366Y0023739D01*
X0265492Y0023643D01*
X0265615Y0023543D01*
X0265736Y0023441D01*
X0265854Y0023336D01*
X0265969Y0023227D01*
X0266082Y0023116D01*
X0266192Y0023002D01*
X0266299Y0022885D01*
X0266403Y0022766D01*
X0266504Y0022644D01*
X0266601Y0022519D01*
X0266696Y0022392D01*
X0266787Y0022263D01*
X0266876Y0022132D01*
X0266960Y0021998D01*
X0267042Y0021862D01*
X0267120Y0021725D01*
X0267194Y0021585D01*
X0267265Y0021443D01*
X0267333Y0021300D01*
X0267397Y0021155D01*
X0267457Y0021009D01*
X0267513Y0020861D01*
X0267566Y0020712D01*
X0267615Y0020561D01*
X0267660Y0020409D01*
X0267701Y0020256D01*
X0267739Y0020103D01*
X0267772Y0019948D01*
X0267802Y0019792D01*
X0267828Y0019636D01*
X0267849Y0019479D01*
X0267867Y0019322D01*
X0267881Y0019164D01*
X0267891Y0019006D01*
X0267897Y0018848D01*
X0267899Y0018690D01*
X0267897Y0018532D01*
X0267891Y0018374D01*
X0267881Y0018216D01*
X0267867Y0018058D01*
X0267849Y0017901D01*
X0267828Y0017744D01*
X0267802Y0017588D01*
X0267772Y0017432D01*
X0267739Y0017277D01*
X0267701Y0017124D01*
X0267660Y0016971D01*
X0267615Y0016819D01*
X0267566Y0016668D01*
X0267513Y0016519D01*
X0267457Y0016371D01*
X0267397Y0016225D01*
X0267333Y0016080D01*
X0267265Y0015937D01*
X0267194Y0015795D01*
X0267120Y0015655D01*
X0267042Y0015518D01*
X0266960Y0015382D01*
X0266876Y0015248D01*
X0266787Y0015117D01*
X0266696Y0014988D01*
X0266601Y0014861D01*
X0266504Y0014736D01*
X0266403Y0014614D01*
X0266299Y0014495D01*
X0266192Y0014378D01*
X0266082Y0014264D01*
X0265969Y0014153D01*
X0265854Y0014044D01*
X0265736Y0013939D01*
X0265615Y0013837D01*
X0265492Y0013737D01*
X0265366Y0013641D01*
X0265238Y0013548D01*
X0265108Y0013458D01*
X0264975Y0013372D01*
X0264840Y0013288D01*
X0264704Y0013209D01*
X0264565Y0013132D01*
X0264424Y0013060D01*
X0264282Y0012990D01*
X0264138Y0012925D01*
X0263992Y0012863D01*
X0263845Y0012805D01*
X0263696Y0012750D01*
X0263546Y0012699D01*
X0263395Y0012652D01*
X0263243Y0012609D01*
X0263090Y0012570D01*
X0262935Y0012534D01*
X0262780Y0012503D01*
X0262624Y0012475D01*
X0262468Y0012451D01*
X0262311Y0012431D01*
X0262153Y0012415D01*
X0261996Y0012403D01*
X0261837Y0012395D01*
X0261679Y0012391D01*
X0261521Y0012391D01*
X0261363Y0012395D01*
X0261204Y0012403D01*
X0261047Y0012415D01*
X0260889Y0012431D01*
X0260732Y0012451D01*
X0260576Y0012475D01*
X0260420Y0012503D01*
X0260265Y0012534D01*
X0260110Y0012570D01*
X0259957Y0012609D01*
X0259805Y0012652D01*
X0259654Y0012699D01*
X0259504Y0012750D01*
X0259355Y0012805D01*
X0259208Y0012863D01*
X0259062Y0012925D01*
X0258918Y0012990D01*
X0258776Y0013060D01*
X0258635Y0013132D01*
X0258496Y0013209D01*
X0258360Y0013288D01*
X0258225Y0013372D01*
X0258092Y0013458D01*
X0257962Y0013548D01*
X0257834Y0013641D01*
X0257708Y0013737D01*
X0257585Y0013837D01*
X0257464Y0013939D01*
X0257346Y0014044D01*
X0257231Y0014153D01*
X0257118Y0014264D01*
X0257008Y0014378D01*
X0256901Y0014495D01*
X0256797Y0014614D01*
X0256696Y0014736D01*
X0256599Y0014861D01*
X0256504Y0014988D01*
X0256413Y0015117D01*
X0256324Y0015248D01*
X0256240Y0015382D01*
X0256158Y0015518D01*
X0256080Y0015655D01*
X0256006Y0015795D01*
X0255935Y0015937D01*
X0255867Y0016080D01*
X0255803Y0016225D01*
X0255743Y0016371D01*
X0255687Y0016519D01*
X0255634Y0016668D01*
X0255585Y0016819D01*
X0255540Y0016971D01*
X0255499Y0017124D01*
X0255461Y0017277D01*
X0255428Y0017432D01*
X0255398Y0017588D01*
X0255372Y0017744D01*
X0255351Y0017901D01*
X0255333Y0018058D01*
X0255319Y0018216D01*
X0255309Y0018374D01*
X0255303Y0018532D01*
X0255301Y0018690D01*
D11*
X0211600Y0039950D03*
X0211600Y0047430D03*
X0186600Y0119753D03*
X0186600Y0127627D03*
X0146600Y0127627D03*
X0146600Y0119753D03*
X0066600Y0067430D03*
X0066600Y0059950D03*
D12*
X0059946Y0083690D03*
X0053254Y0083690D03*
X0118254Y0083690D03*
X0124946Y0083690D03*
X0138254Y0058690D03*
X0144946Y0058690D03*
X0158254Y0083690D03*
X0164946Y0083690D03*
X0218254Y0083690D03*
X0224946Y0083690D03*
X0174946Y0033690D03*
X0168254Y0033690D03*
X0129946Y0018690D03*
X0123254Y0018690D03*
X0109946Y0033690D03*
X0103254Y0033690D03*
X0089946Y0018690D03*
X0083254Y0018690D03*
D13*
X0082663Y0078690D03*
X0090537Y0078690D03*
X0060340Y0128690D03*
X0052860Y0128690D03*
X0105163Y0138690D03*
X0113037Y0138690D03*
X0187663Y0078690D03*
X0195537Y0078690D03*
X0217860Y0128690D03*
X0225340Y0128690D03*
D14*
X0166600Y0057037D03*
X0166600Y0050344D03*
X0129100Y0032037D03*
X0129100Y0025344D03*
X0111600Y0050344D03*
X0111600Y0057037D03*
X0084100Y0032037D03*
X0084100Y0025344D03*
X0096600Y0155344D03*
X0096600Y0162037D03*
D15*
X0066600Y0157815D02*
X0066600Y0149565D01*
X0046600Y0149565D02*
X0046600Y0157815D01*
X0129100Y0157815D02*
X0129100Y0149565D01*
X0149100Y0149565D02*
X0149100Y0157815D01*
X0211600Y0157815D02*
X0211600Y0149565D01*
X0231600Y0149565D02*
X0231600Y0157815D01*
X0232475Y0063690D02*
X0240725Y0063690D01*
X0240725Y0043690D02*
X0232475Y0043690D01*
X0045725Y0043690D02*
X0037475Y0043690D01*
X0037475Y0063690D02*
X0045725Y0063690D01*
D16*
X0169100Y0146604D03*
X0169100Y0160777D03*
D17*
X0184100Y0163730D03*
X0184100Y0143651D03*
D18*
X0096600Y0169556D03*
X0096600Y0177824D03*
D19*
X0211600Y0068690D03*
X0211600Y0058690D03*
X0066600Y0048690D03*
X0066600Y0038690D03*
D20*
X0161285Y0123690D03*
X0171915Y0123690D03*
D21*
X0126600Y0122549D03*
D22*
X0116600Y0122549D03*
X0106600Y0122549D03*
D23*
X0157413Y0025762D02*
X0163189Y0025762D01*
X0157413Y0025762D02*
X0157413Y0026972D01*
X0163189Y0026972D01*
X0163189Y0025762D01*
X0163189Y0026165D02*
X0157413Y0026165D01*
X0157413Y0026568D02*
X0163189Y0026568D01*
X0163189Y0026971D02*
X0157413Y0026971D01*
X0157413Y0023203D02*
X0163189Y0023203D01*
X0157413Y0023203D02*
X0157413Y0024413D01*
X0163189Y0024413D01*
X0163189Y0023203D01*
X0163189Y0023606D02*
X0157413Y0023606D01*
X0157413Y0024009D02*
X0163189Y0024009D01*
X0163189Y0024412D02*
X0157413Y0024412D01*
X0157413Y0020644D02*
X0163189Y0020644D01*
X0157413Y0020644D02*
X0157413Y0021854D01*
X0163189Y0021854D01*
X0163189Y0020644D01*
X0163189Y0021047D02*
X0157413Y0021047D01*
X0157413Y0021450D02*
X0163189Y0021450D01*
X0163189Y0021853D02*
X0157413Y0021853D01*
X0157413Y0018085D02*
X0163189Y0018085D01*
X0157413Y0018085D02*
X0157413Y0019295D01*
X0163189Y0019295D01*
X0163189Y0018085D01*
X0163189Y0018488D02*
X0157413Y0018488D01*
X0157413Y0018891D02*
X0163189Y0018891D01*
X0163189Y0019294D02*
X0157413Y0019294D01*
X0157413Y0015526D02*
X0163189Y0015526D01*
X0157413Y0015526D02*
X0157413Y0016736D01*
X0163189Y0016736D01*
X0163189Y0015526D01*
X0163189Y0015929D02*
X0157413Y0015929D01*
X0157413Y0016332D02*
X0163189Y0016332D01*
X0163189Y0016735D02*
X0157413Y0016735D01*
X0157413Y0012967D02*
X0163189Y0012967D01*
X0157413Y0012967D02*
X0157413Y0014177D01*
X0163189Y0014177D01*
X0163189Y0012967D01*
X0163189Y0013370D02*
X0157413Y0013370D01*
X0157413Y0013773D02*
X0163189Y0013773D01*
X0163189Y0014176D02*
X0157413Y0014176D01*
X0157413Y0010408D02*
X0163189Y0010408D01*
X0157413Y0010408D02*
X0157413Y0011618D01*
X0163189Y0011618D01*
X0163189Y0010408D01*
X0163189Y0010811D02*
X0157413Y0010811D01*
X0157413Y0011214D02*
X0163189Y0011214D01*
X0163189Y0011617D02*
X0157413Y0011617D01*
X0180011Y0010408D02*
X0185787Y0010408D01*
X0180011Y0010408D02*
X0180011Y0011618D01*
X0185787Y0011618D01*
X0185787Y0010408D01*
X0185787Y0010811D02*
X0180011Y0010811D01*
X0180011Y0011214D02*
X0185787Y0011214D01*
X0185787Y0011617D02*
X0180011Y0011617D01*
X0180011Y0012967D02*
X0185787Y0012967D01*
X0180011Y0012967D02*
X0180011Y0014177D01*
X0185787Y0014177D01*
X0185787Y0012967D01*
X0185787Y0013370D02*
X0180011Y0013370D01*
X0180011Y0013773D02*
X0185787Y0013773D01*
X0185787Y0014176D02*
X0180011Y0014176D01*
X0180011Y0015526D02*
X0185787Y0015526D01*
X0180011Y0015526D02*
X0180011Y0016736D01*
X0185787Y0016736D01*
X0185787Y0015526D01*
X0185787Y0015929D02*
X0180011Y0015929D01*
X0180011Y0016332D02*
X0185787Y0016332D01*
X0185787Y0016735D02*
X0180011Y0016735D01*
X0180011Y0018085D02*
X0185787Y0018085D01*
X0180011Y0018085D02*
X0180011Y0019295D01*
X0185787Y0019295D01*
X0185787Y0018085D01*
X0185787Y0018488D02*
X0180011Y0018488D01*
X0180011Y0018891D02*
X0185787Y0018891D01*
X0185787Y0019294D02*
X0180011Y0019294D01*
X0180011Y0020644D02*
X0185787Y0020644D01*
X0180011Y0020644D02*
X0180011Y0021854D01*
X0185787Y0021854D01*
X0185787Y0020644D01*
X0185787Y0021047D02*
X0180011Y0021047D01*
X0180011Y0021450D02*
X0185787Y0021450D01*
X0185787Y0021853D02*
X0180011Y0021853D01*
X0180011Y0023203D02*
X0185787Y0023203D01*
X0180011Y0023203D02*
X0180011Y0024413D01*
X0185787Y0024413D01*
X0185787Y0023203D01*
X0185787Y0023606D02*
X0180011Y0023606D01*
X0180011Y0024009D02*
X0185787Y0024009D01*
X0185787Y0024412D02*
X0180011Y0024412D01*
X0180011Y0025762D02*
X0185787Y0025762D01*
X0180011Y0025762D02*
X0180011Y0026972D01*
X0185787Y0026972D01*
X0185787Y0025762D01*
X0185787Y0026165D02*
X0180011Y0026165D01*
X0180011Y0026568D02*
X0185787Y0026568D01*
X0185787Y0026971D02*
X0180011Y0026971D01*
D24*
X0149202Y0045340D02*
X0145060Y0045340D01*
X0145060Y0046136D01*
X0149202Y0046136D01*
X0149202Y0045340D01*
X0149202Y0045605D02*
X0145060Y0045605D01*
X0145060Y0045870D02*
X0149202Y0045870D01*
X0149202Y0046135D02*
X0145060Y0046135D01*
X0145060Y0047308D02*
X0149202Y0047308D01*
X0145060Y0047308D02*
X0145060Y0048104D01*
X0149202Y0048104D01*
X0149202Y0047308D01*
X0149202Y0047573D02*
X0145060Y0047573D01*
X0145060Y0047838D02*
X0149202Y0047838D01*
X0149202Y0048103D02*
X0145060Y0048103D01*
X0145060Y0049277D02*
X0149202Y0049277D01*
X0145060Y0049277D02*
X0145060Y0050073D01*
X0149202Y0050073D01*
X0149202Y0049277D01*
X0149202Y0049542D02*
X0145060Y0049542D01*
X0145060Y0049807D02*
X0149202Y0049807D01*
X0149202Y0050072D02*
X0145060Y0050072D01*
X0145060Y0051245D02*
X0149202Y0051245D01*
X0145060Y0051245D02*
X0145060Y0052041D01*
X0149202Y0052041D01*
X0149202Y0051245D01*
X0149202Y0051510D02*
X0145060Y0051510D01*
X0145060Y0051775D02*
X0149202Y0051775D01*
X0149202Y0052040D02*
X0145060Y0052040D01*
X0138140Y0051245D02*
X0133998Y0051245D01*
X0133998Y0052041D01*
X0138140Y0052041D01*
X0138140Y0051245D01*
X0138140Y0051510D02*
X0133998Y0051510D01*
X0133998Y0051775D02*
X0138140Y0051775D01*
X0138140Y0052040D02*
X0133998Y0052040D01*
X0133998Y0049277D02*
X0138140Y0049277D01*
X0133998Y0049277D02*
X0133998Y0050073D01*
X0138140Y0050073D01*
X0138140Y0049277D01*
X0138140Y0049542D02*
X0133998Y0049542D01*
X0133998Y0049807D02*
X0138140Y0049807D01*
X0138140Y0050072D02*
X0133998Y0050072D01*
X0133998Y0047308D02*
X0138140Y0047308D01*
X0133998Y0047308D02*
X0133998Y0048104D01*
X0138140Y0048104D01*
X0138140Y0047308D01*
X0138140Y0047573D02*
X0133998Y0047573D01*
X0133998Y0047838D02*
X0138140Y0047838D01*
X0138140Y0048103D02*
X0133998Y0048103D01*
X0133998Y0045340D02*
X0138140Y0045340D01*
X0133998Y0045340D02*
X0133998Y0046136D01*
X0138140Y0046136D01*
X0138140Y0045340D01*
X0138140Y0045605D02*
X0133998Y0045605D01*
X0133998Y0045870D02*
X0138140Y0045870D01*
X0138140Y0046135D02*
X0133998Y0046135D01*
D25*
X0128638Y0069094D02*
X0124444Y0069094D01*
X0124444Y0070806D01*
X0128638Y0070806D01*
X0128638Y0069094D01*
X0128638Y0069664D02*
X0124444Y0069664D01*
X0124444Y0070234D02*
X0128638Y0070234D01*
X0128638Y0070804D02*
X0124444Y0070804D01*
X0124444Y0072834D02*
X0128638Y0072834D01*
X0124444Y0072834D02*
X0124444Y0074546D01*
X0128638Y0074546D01*
X0128638Y0072834D01*
X0128638Y0073404D02*
X0124444Y0073404D01*
X0124444Y0073974D02*
X0128638Y0073974D01*
X0128638Y0074544D02*
X0124444Y0074544D01*
X0124444Y0076574D02*
X0128638Y0076574D01*
X0124444Y0076574D02*
X0124444Y0078286D01*
X0128638Y0078286D01*
X0128638Y0076574D01*
X0128638Y0077144D02*
X0124444Y0077144D01*
X0124444Y0077714D02*
X0128638Y0077714D01*
X0128638Y0078284D02*
X0124444Y0078284D01*
X0118756Y0076574D02*
X0114562Y0076574D01*
X0114562Y0078286D01*
X0118756Y0078286D01*
X0118756Y0076574D01*
X0118756Y0077144D02*
X0114562Y0077144D01*
X0114562Y0077714D02*
X0118756Y0077714D01*
X0118756Y0078284D02*
X0114562Y0078284D01*
X0114562Y0072834D02*
X0118756Y0072834D01*
X0114562Y0072834D02*
X0114562Y0074546D01*
X0118756Y0074546D01*
X0118756Y0072834D01*
X0118756Y0073404D02*
X0114562Y0073404D01*
X0114562Y0073974D02*
X0118756Y0073974D01*
X0118756Y0074544D02*
X0114562Y0074544D01*
X0114562Y0069094D02*
X0118756Y0069094D01*
X0114562Y0069094D02*
X0114562Y0070806D01*
X0118756Y0070806D01*
X0118756Y0069094D01*
X0118756Y0069664D02*
X0114562Y0069664D01*
X0114562Y0070234D02*
X0118756Y0070234D01*
X0118756Y0070804D02*
X0114562Y0070804D01*
X0154562Y0069094D02*
X0158756Y0069094D01*
X0154562Y0069094D02*
X0154562Y0070806D01*
X0158756Y0070806D01*
X0158756Y0069094D01*
X0158756Y0069664D02*
X0154562Y0069664D01*
X0154562Y0070234D02*
X0158756Y0070234D01*
X0158756Y0070804D02*
X0154562Y0070804D01*
X0154562Y0072834D02*
X0158756Y0072834D01*
X0154562Y0072834D02*
X0154562Y0074546D01*
X0158756Y0074546D01*
X0158756Y0072834D01*
X0158756Y0073404D02*
X0154562Y0073404D01*
X0154562Y0073974D02*
X0158756Y0073974D01*
X0158756Y0074544D02*
X0154562Y0074544D01*
X0154562Y0076574D02*
X0158756Y0076574D01*
X0154562Y0076574D02*
X0154562Y0078286D01*
X0158756Y0078286D01*
X0158756Y0076574D01*
X0158756Y0077144D02*
X0154562Y0077144D01*
X0154562Y0077714D02*
X0158756Y0077714D01*
X0158756Y0078284D02*
X0154562Y0078284D01*
X0164444Y0076574D02*
X0168638Y0076574D01*
X0164444Y0076574D02*
X0164444Y0078286D01*
X0168638Y0078286D01*
X0168638Y0076574D01*
X0168638Y0077144D02*
X0164444Y0077144D01*
X0164444Y0077714D02*
X0168638Y0077714D01*
X0168638Y0078284D02*
X0164444Y0078284D01*
X0164444Y0072834D02*
X0168638Y0072834D01*
X0164444Y0072834D02*
X0164444Y0074546D01*
X0168638Y0074546D01*
X0168638Y0072834D01*
X0168638Y0073404D02*
X0164444Y0073404D01*
X0164444Y0073974D02*
X0168638Y0073974D01*
X0168638Y0074544D02*
X0164444Y0074544D01*
X0164444Y0069094D02*
X0168638Y0069094D01*
X0164444Y0069094D02*
X0164444Y0070806D01*
X0168638Y0070806D01*
X0168638Y0069094D01*
X0168638Y0069664D02*
X0164444Y0069664D01*
X0164444Y0070234D02*
X0168638Y0070234D01*
X0168638Y0070804D02*
X0164444Y0070804D01*
D26*
X0176364Y0061190D03*
X0176364Y0056190D03*
X0176364Y0051190D03*
X0176364Y0046190D03*
X0196836Y0046190D03*
X0196836Y0051190D03*
X0196836Y0056190D03*
X0196836Y0061190D03*
X0101836Y0061190D03*
X0101836Y0056190D03*
X0101836Y0051190D03*
X0101836Y0046190D03*
X0081364Y0046190D03*
X0081364Y0051190D03*
X0081364Y0056190D03*
X0081364Y0061190D03*
D27*
X0064100Y0093454D03*
X0059100Y0093454D03*
X0054100Y0093454D03*
X0049100Y0093454D03*
X0049100Y0113927D03*
X0054100Y0113927D03*
X0059100Y0113927D03*
X0064100Y0113927D03*
X0214100Y0113927D03*
X0219100Y0113927D03*
X0224100Y0113927D03*
X0229100Y0113927D03*
X0229100Y0093454D03*
X0224100Y0093454D03*
X0219100Y0093454D03*
X0214100Y0093454D03*
D28*
X0116231Y0028195D02*
X0116246Y0028119D01*
X0116246Y0026938D01*
X0116231Y0026863D01*
X0116188Y0026799D01*
X0116124Y0026756D01*
X0116049Y0026741D01*
X0112112Y0026741D01*
X0112036Y0026756D01*
X0111973Y0026799D01*
X0111930Y0026863D01*
X0111915Y0026938D01*
X0111915Y0028119D01*
X0111930Y0028195D01*
X0111973Y0028259D01*
X0112036Y0028301D01*
X0112112Y0028316D01*
X0116049Y0028316D01*
X0116124Y0028301D01*
X0116188Y0028259D01*
X0116231Y0028195D01*
X0116227Y0028200D02*
X0111933Y0028200D01*
X0111923Y0028162D02*
X0116237Y0028162D01*
X0116245Y0028124D02*
X0111916Y0028124D01*
X0111915Y0028086D02*
X0116246Y0028086D01*
X0116246Y0028048D02*
X0111915Y0028048D01*
X0111915Y0028010D02*
X0116246Y0028010D01*
X0116246Y0027972D02*
X0111915Y0027972D01*
X0111915Y0027934D02*
X0116246Y0027934D01*
X0116246Y0027896D02*
X0111915Y0027896D01*
X0111915Y0027859D02*
X0116246Y0027859D01*
X0116246Y0027821D02*
X0111915Y0027821D01*
X0111915Y0027783D02*
X0116246Y0027783D01*
X0116246Y0027745D02*
X0111915Y0027745D01*
X0111915Y0027707D02*
X0116246Y0027707D01*
X0116246Y0027669D02*
X0111915Y0027669D01*
X0111915Y0027631D02*
X0116246Y0027631D01*
X0116246Y0027593D02*
X0111915Y0027593D01*
X0111915Y0027556D02*
X0116246Y0027556D01*
X0116246Y0027518D02*
X0111915Y0027518D01*
X0111915Y0027480D02*
X0116246Y0027480D01*
X0116246Y0027442D02*
X0111915Y0027442D01*
X0111915Y0027404D02*
X0116246Y0027404D01*
X0116246Y0027366D02*
X0111915Y0027366D01*
X0111915Y0027328D02*
X0116246Y0027328D01*
X0116246Y0027290D02*
X0111915Y0027290D01*
X0111915Y0027253D02*
X0116246Y0027253D01*
X0116246Y0027215D02*
X0111915Y0027215D01*
X0111915Y0027177D02*
X0116246Y0027177D01*
X0116246Y0027139D02*
X0111915Y0027139D01*
X0111915Y0027101D02*
X0116246Y0027101D01*
X0116246Y0027063D02*
X0111915Y0027063D01*
X0111915Y0027025D02*
X0116246Y0027025D01*
X0116246Y0026987D02*
X0111915Y0026987D01*
X0111915Y0026949D02*
X0116246Y0026949D01*
X0116240Y0026912D02*
X0111920Y0026912D01*
X0111928Y0026874D02*
X0116233Y0026874D01*
X0116213Y0026836D02*
X0111948Y0026836D01*
X0111974Y0026798D02*
X0116186Y0026798D01*
X0116130Y0026760D02*
X0112031Y0026760D01*
X0112112Y0025757D02*
X0116049Y0025757D01*
X0116124Y0025742D01*
X0116188Y0025700D01*
X0116231Y0025636D01*
X0116246Y0025560D01*
X0116246Y0024379D01*
X0116231Y0024304D01*
X0116188Y0024240D01*
X0116124Y0024197D01*
X0116049Y0024182D01*
X0112112Y0024182D01*
X0112036Y0024197D01*
X0111973Y0024240D01*
X0111930Y0024304D01*
X0111915Y0024379D01*
X0111915Y0025560D01*
X0111930Y0025636D01*
X0111973Y0025700D01*
X0112036Y0025742D01*
X0112112Y0025757D01*
X0112029Y0025737D02*
X0116132Y0025737D01*
X0116188Y0025699D02*
X0111972Y0025699D01*
X0111947Y0025661D02*
X0116213Y0025661D01*
X0116233Y0025624D02*
X0111928Y0025624D01*
X0111920Y0025586D02*
X0116241Y0025586D01*
X0116246Y0025548D02*
X0111915Y0025548D01*
X0111915Y0025510D02*
X0116246Y0025510D01*
X0116246Y0025472D02*
X0111915Y0025472D01*
X0111915Y0025434D02*
X0116246Y0025434D01*
X0116246Y0025396D02*
X0111915Y0025396D01*
X0111915Y0025358D02*
X0116246Y0025358D01*
X0116246Y0025321D02*
X0111915Y0025321D01*
X0111915Y0025283D02*
X0116246Y0025283D01*
X0116246Y0025245D02*
X0111915Y0025245D01*
X0111915Y0025207D02*
X0116246Y0025207D01*
X0116246Y0025169D02*
X0111915Y0025169D01*
X0111915Y0025131D02*
X0116246Y0025131D01*
X0116246Y0025093D02*
X0111915Y0025093D01*
X0111915Y0025055D02*
X0116246Y0025055D01*
X0116246Y0025018D02*
X0111915Y0025018D01*
X0111915Y0024980D02*
X0116246Y0024980D01*
X0116246Y0024942D02*
X0111915Y0024942D01*
X0111915Y0024904D02*
X0116246Y0024904D01*
X0116246Y0024866D02*
X0111915Y0024866D01*
X0111915Y0024828D02*
X0116246Y0024828D01*
X0116246Y0024790D02*
X0111915Y0024790D01*
X0111915Y0024752D02*
X0116246Y0024752D01*
X0116246Y0024714D02*
X0111915Y0024714D01*
X0111915Y0024677D02*
X0116246Y0024677D01*
X0116246Y0024639D02*
X0111915Y0024639D01*
X0111915Y0024601D02*
X0116246Y0024601D01*
X0116246Y0024563D02*
X0111915Y0024563D01*
X0111915Y0024525D02*
X0116246Y0024525D01*
X0116246Y0024487D02*
X0111915Y0024487D01*
X0111915Y0024449D02*
X0116246Y0024449D01*
X0116246Y0024411D02*
X0111915Y0024411D01*
X0111916Y0024374D02*
X0116245Y0024374D01*
X0116237Y0024336D02*
X0111924Y0024336D01*
X0111934Y0024298D02*
X0116227Y0024298D01*
X0116201Y0024260D02*
X0111959Y0024260D01*
X0112000Y0024222D02*
X0116161Y0024222D01*
X0116057Y0024184D02*
X0112103Y0024184D01*
X0112112Y0023198D02*
X0116049Y0023198D01*
X0116124Y0023183D01*
X0116188Y0023141D01*
X0116231Y0023077D01*
X0116246Y0023001D01*
X0116246Y0021820D01*
X0116231Y0021745D01*
X0116188Y0021681D01*
X0116124Y0021638D01*
X0116049Y0021623D01*
X0112112Y0021623D01*
X0112036Y0021638D01*
X0111973Y0021681D01*
X0111930Y0021745D01*
X0111915Y0021820D01*
X0111915Y0023001D01*
X0111930Y0023077D01*
X0111973Y0023141D01*
X0112036Y0023183D01*
X0112112Y0023198D01*
X0112004Y0023161D02*
X0116157Y0023161D01*
X0116199Y0023123D02*
X0111961Y0023123D01*
X0111936Y0023086D02*
X0116225Y0023086D01*
X0116236Y0023048D02*
X0111924Y0023048D01*
X0111917Y0023010D02*
X0116244Y0023010D01*
X0116246Y0022972D02*
X0111915Y0022972D01*
X0111915Y0022934D02*
X0116246Y0022934D01*
X0116246Y0022896D02*
X0111915Y0022896D01*
X0111915Y0022858D02*
X0116246Y0022858D01*
X0116246Y0022820D02*
X0111915Y0022820D01*
X0111915Y0022783D02*
X0116246Y0022783D01*
X0116246Y0022745D02*
X0111915Y0022745D01*
X0111915Y0022707D02*
X0116246Y0022707D01*
X0116246Y0022669D02*
X0111915Y0022669D01*
X0111915Y0022631D02*
X0116246Y0022631D01*
X0116246Y0022593D02*
X0111915Y0022593D01*
X0111915Y0022555D02*
X0116246Y0022555D01*
X0116246Y0022517D02*
X0111915Y0022517D01*
X0111915Y0022479D02*
X0116246Y0022479D01*
X0116246Y0022442D02*
X0111915Y0022442D01*
X0111915Y0022404D02*
X0116246Y0022404D01*
X0116246Y0022366D02*
X0111915Y0022366D01*
X0111915Y0022328D02*
X0116246Y0022328D01*
X0116246Y0022290D02*
X0111915Y0022290D01*
X0111915Y0022252D02*
X0116246Y0022252D01*
X0116246Y0022214D02*
X0111915Y0022214D01*
X0111915Y0022176D02*
X0116246Y0022176D01*
X0116246Y0022139D02*
X0111915Y0022139D01*
X0111915Y0022101D02*
X0116246Y0022101D01*
X0116246Y0022063D02*
X0111915Y0022063D01*
X0111915Y0022025D02*
X0116246Y0022025D01*
X0116246Y0021987D02*
X0111915Y0021987D01*
X0111915Y0021949D02*
X0116246Y0021949D01*
X0116246Y0021911D02*
X0111915Y0021911D01*
X0111915Y0021873D02*
X0116246Y0021873D01*
X0116246Y0021835D02*
X0111915Y0021835D01*
X0111919Y0021798D02*
X0116241Y0021798D01*
X0116234Y0021760D02*
X0111927Y0021760D01*
X0111945Y0021722D02*
X0116215Y0021722D01*
X0116190Y0021684D02*
X0111971Y0021684D01*
X0112025Y0021646D02*
X0116136Y0021646D01*
X0116049Y0020639D02*
X0112112Y0020639D01*
X0112036Y0020624D01*
X0111973Y0020581D01*
X0111930Y0020518D01*
X0111915Y0020442D01*
X0111915Y0019261D01*
X0111930Y0019186D01*
X0111973Y0019122D01*
X0112036Y0019079D01*
X0112112Y0019064D01*
X0116049Y0019064D01*
X0116124Y0019079D01*
X0116188Y0019122D01*
X0116231Y0019186D01*
X0116246Y0019261D01*
X0116246Y0020442D01*
X0116231Y0020518D01*
X0116188Y0020581D01*
X0116124Y0020624D01*
X0116049Y0020639D01*
X0116125Y0020623D02*
X0112035Y0020623D01*
X0111978Y0020585D02*
X0116182Y0020585D01*
X0116211Y0020548D02*
X0111950Y0020548D01*
X0111928Y0020510D02*
X0116232Y0020510D01*
X0116240Y0020472D02*
X0111921Y0020472D01*
X0111915Y0020434D02*
X0116246Y0020434D01*
X0116246Y0020396D02*
X0111915Y0020396D01*
X0111915Y0020358D02*
X0116246Y0020358D01*
X0116246Y0020320D02*
X0111915Y0020320D01*
X0111915Y0020282D02*
X0116246Y0020282D01*
X0116246Y0020244D02*
X0111915Y0020244D01*
X0111915Y0020207D02*
X0116246Y0020207D01*
X0116246Y0020169D02*
X0111915Y0020169D01*
X0111915Y0020131D02*
X0116246Y0020131D01*
X0116246Y0020093D02*
X0111915Y0020093D01*
X0111915Y0020055D02*
X0116246Y0020055D01*
X0116246Y0020017D02*
X0111915Y0020017D01*
X0111915Y0019979D02*
X0116246Y0019979D01*
X0116246Y0019941D02*
X0111915Y0019941D01*
X0111915Y0019904D02*
X0116246Y0019904D01*
X0116246Y0019866D02*
X0111915Y0019866D01*
X0111915Y0019828D02*
X0116246Y0019828D01*
X0116246Y0019790D02*
X0111915Y0019790D01*
X0111915Y0019752D02*
X0116246Y0019752D01*
X0116246Y0019714D02*
X0111915Y0019714D01*
X0111915Y0019676D02*
X0116246Y0019676D01*
X0116246Y0019638D02*
X0111915Y0019638D01*
X0111915Y0019600D02*
X0116246Y0019600D01*
X0116246Y0019563D02*
X0111915Y0019563D01*
X0111915Y0019525D02*
X0116246Y0019525D01*
X0116246Y0019487D02*
X0111915Y0019487D01*
X0111915Y0019449D02*
X0116246Y0019449D01*
X0116246Y0019411D02*
X0111915Y0019411D01*
X0111915Y0019373D02*
X0116246Y0019373D01*
X0116246Y0019335D02*
X0111915Y0019335D01*
X0111915Y0019297D02*
X0116246Y0019297D01*
X0116245Y0019260D02*
X0111915Y0019260D01*
X0111923Y0019222D02*
X0116238Y0019222D01*
X0116229Y0019184D02*
X0111931Y0019184D01*
X0111957Y0019146D02*
X0116204Y0019146D01*
X0116167Y0019108D02*
X0111993Y0019108D01*
X0112083Y0019070D02*
X0116078Y0019070D01*
X0116202Y0028237D02*
X0111958Y0028237D01*
X0111998Y0028275D02*
X0116163Y0028275D01*
X0116064Y0028313D02*
X0112096Y0028313D01*
X0101285Y0028119D02*
X0101285Y0026938D01*
X0101270Y0026863D01*
X0101227Y0026799D01*
X0101164Y0026756D01*
X0101088Y0026741D01*
X0097151Y0026741D01*
X0097076Y0026756D01*
X0097012Y0026799D01*
X0096969Y0026863D01*
X0096954Y0026938D01*
X0096954Y0028119D01*
X0096969Y0028195D01*
X0097012Y0028259D01*
X0097076Y0028301D01*
X0097151Y0028316D01*
X0101088Y0028316D01*
X0101164Y0028301D01*
X0101227Y0028259D01*
X0101270Y0028195D01*
X0101285Y0028119D01*
X0101284Y0028124D02*
X0096955Y0028124D01*
X0096954Y0028086D02*
X0101285Y0028086D01*
X0101285Y0028048D02*
X0096954Y0028048D01*
X0096954Y0028010D02*
X0101285Y0028010D01*
X0101285Y0027972D02*
X0096954Y0027972D01*
X0096954Y0027934D02*
X0101285Y0027934D01*
X0101285Y0027896D02*
X0096954Y0027896D01*
X0096954Y0027859D02*
X0101285Y0027859D01*
X0101285Y0027821D02*
X0096954Y0027821D01*
X0096954Y0027783D02*
X0101285Y0027783D01*
X0101285Y0027745D02*
X0096954Y0027745D01*
X0096954Y0027707D02*
X0101285Y0027707D01*
X0101285Y0027669D02*
X0096954Y0027669D01*
X0096954Y0027631D02*
X0101285Y0027631D01*
X0101285Y0027593D02*
X0096954Y0027593D01*
X0096954Y0027556D02*
X0101285Y0027556D01*
X0101285Y0027518D02*
X0096954Y0027518D01*
X0096954Y0027480D02*
X0101285Y0027480D01*
X0101285Y0027442D02*
X0096954Y0027442D01*
X0096954Y0027404D02*
X0101285Y0027404D01*
X0101285Y0027366D02*
X0096954Y0027366D01*
X0096954Y0027328D02*
X0101285Y0027328D01*
X0101285Y0027290D02*
X0096954Y0027290D01*
X0096954Y0027253D02*
X0101285Y0027253D01*
X0101285Y0027215D02*
X0096954Y0027215D01*
X0096954Y0027177D02*
X0101285Y0027177D01*
X0101285Y0027139D02*
X0096954Y0027139D01*
X0096954Y0027101D02*
X0101285Y0027101D01*
X0101285Y0027063D02*
X0096954Y0027063D01*
X0096954Y0027025D02*
X0101285Y0027025D01*
X0101285Y0026987D02*
X0096954Y0026987D01*
X0096954Y0026949D02*
X0101285Y0026949D01*
X0101280Y0026912D02*
X0096960Y0026912D01*
X0096967Y0026874D02*
X0101272Y0026874D01*
X0101252Y0026836D02*
X0096987Y0026836D01*
X0097014Y0026798D02*
X0101226Y0026798D01*
X0101169Y0026760D02*
X0097070Y0026760D01*
X0097151Y0025757D02*
X0101088Y0025757D01*
X0101164Y0025742D01*
X0101227Y0025700D01*
X0101270Y0025636D01*
X0101285Y0025560D01*
X0101285Y0024379D01*
X0101270Y0024304D01*
X0101227Y0024240D01*
X0101164Y0024197D01*
X0101088Y0024182D01*
X0097151Y0024182D01*
X0097076Y0024197D01*
X0097012Y0024240D01*
X0096969Y0024304D01*
X0096954Y0024379D01*
X0096954Y0025560D01*
X0096969Y0025636D01*
X0097012Y0025700D01*
X0097076Y0025742D01*
X0097151Y0025757D01*
X0097068Y0025737D02*
X0101171Y0025737D01*
X0101228Y0025699D02*
X0097012Y0025699D01*
X0096987Y0025661D02*
X0101253Y0025661D01*
X0101272Y0025624D02*
X0096967Y0025624D01*
X0096959Y0025586D02*
X0101280Y0025586D01*
X0101285Y0025548D02*
X0096954Y0025548D01*
X0096954Y0025510D02*
X0101285Y0025510D01*
X0101285Y0025472D02*
X0096954Y0025472D01*
X0096954Y0025434D02*
X0101285Y0025434D01*
X0101285Y0025396D02*
X0096954Y0025396D01*
X0096954Y0025358D02*
X0101285Y0025358D01*
X0101285Y0025321D02*
X0096954Y0025321D01*
X0096954Y0025283D02*
X0101285Y0025283D01*
X0101285Y0025245D02*
X0096954Y0025245D01*
X0096954Y0025207D02*
X0101285Y0025207D01*
X0101285Y0025169D02*
X0096954Y0025169D01*
X0096954Y0025131D02*
X0101285Y0025131D01*
X0101285Y0025093D02*
X0096954Y0025093D01*
X0096954Y0025055D02*
X0101285Y0025055D01*
X0101285Y0025018D02*
X0096954Y0025018D01*
X0096954Y0024980D02*
X0101285Y0024980D01*
X0101285Y0024942D02*
X0096954Y0024942D01*
X0096954Y0024904D02*
X0101285Y0024904D01*
X0101285Y0024866D02*
X0096954Y0024866D01*
X0096954Y0024828D02*
X0101285Y0024828D01*
X0101285Y0024790D02*
X0096954Y0024790D01*
X0096954Y0024752D02*
X0101285Y0024752D01*
X0101285Y0024714D02*
X0096954Y0024714D01*
X0096954Y0024677D02*
X0101285Y0024677D01*
X0101285Y0024639D02*
X0096954Y0024639D01*
X0096954Y0024601D02*
X0101285Y0024601D01*
X0101285Y0024563D02*
X0096954Y0024563D01*
X0096954Y0024525D02*
X0101285Y0024525D01*
X0101285Y0024487D02*
X0096954Y0024487D01*
X0096954Y0024449D02*
X0101285Y0024449D01*
X0101285Y0024411D02*
X0096954Y0024411D01*
X0096955Y0024374D02*
X0101284Y0024374D01*
X0101276Y0024336D02*
X0096963Y0024336D01*
X0096973Y0024298D02*
X0101266Y0024298D01*
X0101241Y0024260D02*
X0096999Y0024260D01*
X0097039Y0024222D02*
X0101200Y0024222D01*
X0101097Y0024184D02*
X0097143Y0024184D01*
X0097151Y0023198D02*
X0101088Y0023198D01*
X0101164Y0023183D01*
X0101227Y0023141D01*
X0101270Y0023077D01*
X0101285Y0023001D01*
X0101285Y0021820D01*
X0101270Y0021745D01*
X0101227Y0021681D01*
X0101164Y0021638D01*
X0101088Y0021623D01*
X0097151Y0021623D01*
X0097076Y0021638D01*
X0097012Y0021681D01*
X0096969Y0021745D01*
X0096954Y0021820D01*
X0096954Y0023001D01*
X0096969Y0023077D01*
X0097012Y0023141D01*
X0097076Y0023183D01*
X0097151Y0023198D01*
X0097043Y0023161D02*
X0101196Y0023161D01*
X0101239Y0023123D02*
X0097001Y0023123D01*
X0096975Y0023086D02*
X0101264Y0023086D01*
X0101276Y0023048D02*
X0096964Y0023048D01*
X0096956Y0023010D02*
X0101283Y0023010D01*
X0101285Y0022972D02*
X0096954Y0022972D01*
X0096954Y0022934D02*
X0101285Y0022934D01*
X0101285Y0022896D02*
X0096954Y0022896D01*
X0096954Y0022858D02*
X0101285Y0022858D01*
X0101285Y0022820D02*
X0096954Y0022820D01*
X0096954Y0022783D02*
X0101285Y0022783D01*
X0101285Y0022745D02*
X0096954Y0022745D01*
X0096954Y0022707D02*
X0101285Y0022707D01*
X0101285Y0022669D02*
X0096954Y0022669D01*
X0096954Y0022631D02*
X0101285Y0022631D01*
X0101285Y0022593D02*
X0096954Y0022593D01*
X0096954Y0022555D02*
X0101285Y0022555D01*
X0101285Y0022517D02*
X0096954Y0022517D01*
X0096954Y0022479D02*
X0101285Y0022479D01*
X0101285Y0022442D02*
X0096954Y0022442D01*
X0096954Y0022404D02*
X0101285Y0022404D01*
X0101285Y0022366D02*
X0096954Y0022366D01*
X0096954Y0022328D02*
X0101285Y0022328D01*
X0101285Y0022290D02*
X0096954Y0022290D01*
X0096954Y0022252D02*
X0101285Y0022252D01*
X0101285Y0022214D02*
X0096954Y0022214D01*
X0096954Y0022176D02*
X0101285Y0022176D01*
X0101285Y0022139D02*
X0096954Y0022139D01*
X0096954Y0022101D02*
X0101285Y0022101D01*
X0101285Y0022063D02*
X0096954Y0022063D01*
X0096954Y0022025D02*
X0101285Y0022025D01*
X0101285Y0021987D02*
X0096954Y0021987D01*
X0096954Y0021949D02*
X0101285Y0021949D01*
X0101285Y0021911D02*
X0096954Y0021911D01*
X0096954Y0021873D02*
X0101285Y0021873D01*
X0101285Y0021835D02*
X0096954Y0021835D01*
X0096959Y0021798D02*
X0101281Y0021798D01*
X0101273Y0021760D02*
X0096966Y0021760D01*
X0096985Y0021722D02*
X0101255Y0021722D01*
X0101229Y0021684D02*
X0097010Y0021684D01*
X0097064Y0021646D02*
X0101175Y0021646D01*
X0101088Y0020639D02*
X0101164Y0020624D01*
X0101227Y0020581D01*
X0101270Y0020518D01*
X0101285Y0020442D01*
X0101285Y0019261D01*
X0101270Y0019186D01*
X0101227Y0019122D01*
X0101164Y0019079D01*
X0101088Y0019064D01*
X0097151Y0019064D01*
X0097076Y0019079D01*
X0097012Y0019122D01*
X0096969Y0019186D01*
X0096954Y0019261D01*
X0096954Y0020442D01*
X0096969Y0020518D01*
X0097012Y0020581D01*
X0097076Y0020624D01*
X0097151Y0020639D01*
X0101088Y0020639D01*
X0101165Y0020623D02*
X0097075Y0020623D01*
X0097018Y0020585D02*
X0101221Y0020585D01*
X0101250Y0020548D02*
X0096989Y0020548D01*
X0096968Y0020510D02*
X0101272Y0020510D01*
X0101279Y0020472D02*
X0096960Y0020472D01*
X0096954Y0020434D02*
X0101285Y0020434D01*
X0101285Y0020396D02*
X0096954Y0020396D01*
X0096954Y0020358D02*
X0101285Y0020358D01*
X0101285Y0020320D02*
X0096954Y0020320D01*
X0096954Y0020282D02*
X0101285Y0020282D01*
X0101285Y0020244D02*
X0096954Y0020244D01*
X0096954Y0020207D02*
X0101285Y0020207D01*
X0101285Y0020169D02*
X0096954Y0020169D01*
X0096954Y0020131D02*
X0101285Y0020131D01*
X0101285Y0020093D02*
X0096954Y0020093D01*
X0096954Y0020055D02*
X0101285Y0020055D01*
X0101285Y0020017D02*
X0096954Y0020017D01*
X0096954Y0019979D02*
X0101285Y0019979D01*
X0101285Y0019941D02*
X0096954Y0019941D01*
X0096954Y0019904D02*
X0101285Y0019904D01*
X0101285Y0019866D02*
X0096954Y0019866D01*
X0096954Y0019828D02*
X0101285Y0019828D01*
X0101285Y0019790D02*
X0096954Y0019790D01*
X0096954Y0019752D02*
X0101285Y0019752D01*
X0101285Y0019714D02*
X0096954Y0019714D01*
X0096954Y0019676D02*
X0101285Y0019676D01*
X0101285Y0019638D02*
X0096954Y0019638D01*
X0096954Y0019600D02*
X0101285Y0019600D01*
X0101285Y0019563D02*
X0096954Y0019563D01*
X0096954Y0019525D02*
X0101285Y0019525D01*
X0101285Y0019487D02*
X0096954Y0019487D01*
X0096954Y0019449D02*
X0101285Y0019449D01*
X0101285Y0019411D02*
X0096954Y0019411D01*
X0096954Y0019373D02*
X0101285Y0019373D01*
X0101285Y0019335D02*
X0096954Y0019335D01*
X0096954Y0019297D02*
X0101285Y0019297D01*
X0101285Y0019260D02*
X0096955Y0019260D01*
X0096962Y0019222D02*
X0101277Y0019222D01*
X0101269Y0019184D02*
X0096971Y0019184D01*
X0096996Y0019146D02*
X0101243Y0019146D01*
X0101207Y0019108D02*
X0097033Y0019108D01*
X0097122Y0019070D02*
X0101118Y0019070D01*
X0101277Y0028162D02*
X0096963Y0028162D01*
X0096973Y0028200D02*
X0101267Y0028200D01*
X0101242Y0028237D02*
X0096998Y0028237D01*
X0097037Y0028275D02*
X0101202Y0028275D01*
X0101104Y0028313D02*
X0097136Y0028313D01*
D29*
X0099120Y0027529D03*
X0099120Y0024970D03*
X0099120Y0022411D03*
X0099120Y0019852D03*
X0114080Y0019852D03*
X0114080Y0022411D03*
X0114080Y0024970D03*
X0114080Y0027529D03*
D30*
X0125350Y0039940D03*
X0129100Y0044940D03*
X0121600Y0046190D03*
X0116600Y0049940D03*
X0131600Y0058690D03*
X0131600Y0066190D03*
X0125350Y0064940D03*
X0121600Y0074940D03*
X0110350Y0073690D03*
X0105350Y0069940D03*
X0102850Y0077440D03*
X0095350Y0078690D03*
X0105350Y0087440D03*
X0111600Y0083690D03*
X0121600Y0089940D03*
X0146600Y0073690D03*
X0150350Y0069940D03*
X0161600Y0066190D03*
X0166600Y0064940D03*
X0161600Y0057440D03*
X0152850Y0046190D03*
X0162850Y0033690D03*
X0156600Y0029940D03*
X0142850Y0029940D03*
X0145350Y0021190D03*
X0151600Y0014940D03*
X0151600Y0011190D03*
X0145350Y0011190D03*
X0135350Y0012440D03*
X0122850Y0014315D03*
X0095350Y0014940D03*
X0074100Y0032440D03*
X0081600Y0042440D03*
X0097850Y0033690D03*
X0093475Y0058690D03*
X0094100Y0068690D03*
X0047850Y0083690D03*
X0060350Y0103690D03*
X0044100Y0113690D03*
X0089100Y0103690D03*
X0146600Y0133690D03*
X0186600Y0113690D03*
X0209100Y0113690D03*
X0212850Y0083690D03*
X0196600Y0066190D03*
X0185350Y0059940D03*
X0181600Y0078690D03*
X0174100Y0078690D03*
X0161600Y0078690D03*
X0151600Y0083690D03*
X0149100Y0093690D03*
X0185350Y0039940D03*
X0190350Y0024940D03*
X0189100Y0016190D03*
X0176600Y0011190D03*
X0166600Y0011190D03*
X0166600Y0019940D03*
X0201600Y0016190D03*
X0209100Y0021190D03*
X0184100Y0171190D03*
X0096600Y0186190D03*
D31*
X0113037Y0138690D02*
X0116600Y0135127D01*
X0116600Y0122549D01*
X0146600Y0127627D02*
X0146600Y0133690D01*
X0186600Y0119753D02*
X0186600Y0113690D01*
X0212850Y0083690D02*
X0218254Y0083690D01*
X0187663Y0078690D02*
X0181600Y0078690D01*
X0158254Y0083690D02*
X0151600Y0083690D01*
X0138254Y0058690D02*
X0131600Y0058690D01*
X0116600Y0049940D02*
X0112004Y0049940D01*
X0111600Y0050344D01*
X0103254Y0033690D02*
X0097850Y0033690D01*
X0095350Y0078690D02*
X0090537Y0078690D01*
X0111600Y0083690D02*
X0118254Y0083690D01*
X0161600Y0057440D02*
X0166196Y0057440D01*
X0166600Y0057037D01*
X0168254Y0033690D02*
X0162850Y0033690D01*
X0053254Y0083690D02*
X0047850Y0083690D01*
X0184100Y0163730D02*
X0184100Y0171190D01*
D32*
X0187379Y0172680D02*
X0248145Y0172680D01*
X0248756Y0171482D02*
X0187700Y0171482D01*
X0187700Y0171906D02*
X0187700Y0168873D01*
X0189093Y0168873D01*
X0190031Y0167936D01*
X0190031Y0159524D01*
X0189093Y0158586D01*
X0179107Y0158586D01*
X0178169Y0159524D01*
X0178169Y0167936D01*
X0179107Y0168873D01*
X0180500Y0168873D01*
X0180500Y0171906D01*
X0181048Y0173230D01*
X0182061Y0174242D01*
X0183384Y0174790D01*
X0184816Y0174790D01*
X0186139Y0174242D01*
X0187152Y0173230D01*
X0187700Y0171906D01*
X0187700Y0170283D02*
X0249367Y0170283D01*
X0249546Y0169932D02*
X0249546Y0169932D01*
X0252842Y0166636D01*
X0256996Y0164520D01*
X0261600Y0163790D01*
X0266204Y0164520D01*
X0270358Y0166636D01*
X0273654Y0169932D01*
X0273654Y0169932D01*
X0274819Y0172218D01*
X0274819Y0025163D01*
X0273654Y0027448D01*
X0273654Y0027448D01*
X0270358Y0030745D01*
X0266204Y0032861D01*
X0261600Y0033590D01*
X0256996Y0032861D01*
X0256996Y0032861D01*
X0252842Y0030745D01*
X0252842Y0030745D01*
X0252842Y0030745D01*
X0249546Y0027448D01*
X0247429Y0023295D01*
X0246700Y0018690D01*
X0247429Y0014086D01*
X0249546Y0009932D01*
X0252842Y0006636D01*
X0255128Y0005471D01*
X0194959Y0005471D01*
X0197350Y0007862D01*
X0197350Y0020769D01*
X0196178Y0021940D01*
X0193426Y0024692D01*
X0193426Y0025552D01*
X0192958Y0026683D01*
X0192093Y0027548D01*
X0190962Y0028017D01*
X0189738Y0028017D01*
X0188607Y0027548D01*
X0187742Y0026683D01*
X0187380Y0025808D01*
X0187377Y0025808D01*
X0187377Y0026367D01*
X0182899Y0026367D01*
X0178421Y0026367D01*
X0178421Y0025553D01*
X0178459Y0025411D01*
X0178209Y0025160D01*
X0178209Y0020690D01*
X0173272Y0020690D01*
X0172350Y0019769D01*
X0172350Y0022019D01*
X0171178Y0023190D01*
X0170001Y0024367D01*
X0170106Y0024367D01*
X0172428Y0026690D01*
X0173600Y0027862D01*
X0173600Y0030334D01*
X0174562Y0030334D01*
X0174562Y0033306D01*
X0175331Y0033306D01*
X0175331Y0034075D01*
X0174562Y0034075D01*
X0174562Y0037046D01*
X0173600Y0037046D01*
X0173600Y0043409D01*
X0181357Y0043409D01*
X0182138Y0044190D01*
X0183678Y0044190D01*
X0184850Y0045362D01*
X0190906Y0051417D01*
X0190906Y0049346D01*
X0191562Y0048690D01*
X0190906Y0048034D01*
X0190906Y0044346D01*
X0191843Y0043409D01*
X0201830Y0043409D01*
X0202767Y0044346D01*
X0202767Y0045672D01*
X0206850Y0041588D01*
X0206850Y0037122D01*
X0207788Y0036185D01*
X0215412Y0036185D01*
X0216350Y0037122D01*
X0216350Y0041490D01*
X0227190Y0041490D01*
X0227622Y0040447D01*
X0229232Y0038837D01*
X0231336Y0037965D01*
X0241864Y0037965D01*
X0243968Y0038837D01*
X0245578Y0040447D01*
X0246450Y0042552D01*
X0246450Y0044829D01*
X0245578Y0046933D01*
X0243968Y0048544D01*
X0241864Y0049415D01*
X0231336Y0049415D01*
X0229232Y0048544D01*
X0227622Y0046933D01*
X0227190Y0045890D01*
X0216350Y0045890D01*
X0216350Y0050259D01*
X0215412Y0051196D01*
X0213800Y0051196D01*
X0213800Y0053865D01*
X0214602Y0054197D01*
X0216093Y0055688D01*
X0216900Y0057636D01*
X0216900Y0059745D01*
X0216177Y0061490D01*
X0227190Y0061490D01*
X0227622Y0060447D01*
X0229232Y0058837D01*
X0231336Y0057965D01*
X0241864Y0057965D01*
X0243968Y0058837D01*
X0245578Y0060447D01*
X0246450Y0062552D01*
X0246450Y0064829D01*
X0245578Y0066933D01*
X0243968Y0068544D01*
X0241864Y0069415D01*
X0231336Y0069415D01*
X0229232Y0068544D01*
X0227622Y0066933D01*
X0227190Y0065890D01*
X0217511Y0065890D01*
X0216568Y0066834D01*
X0216900Y0067636D01*
X0216900Y0069745D01*
X0216093Y0071692D01*
X0214602Y0073183D01*
X0212654Y0073990D01*
X0210546Y0073990D01*
X0208598Y0073183D01*
X0207107Y0071692D01*
X0206300Y0069745D01*
X0206300Y0067636D01*
X0206632Y0066834D01*
X0203189Y0063390D01*
X0202767Y0062968D01*
X0202767Y0063034D01*
X0201830Y0063971D01*
X0198800Y0063971D01*
X0198800Y0064040D01*
X0199208Y0064448D01*
X0199676Y0065578D01*
X0199676Y0066802D01*
X0199208Y0067933D01*
X0198343Y0068798D01*
X0197212Y0069267D01*
X0195988Y0069267D01*
X0194857Y0068798D01*
X0193992Y0067933D01*
X0193524Y0066802D01*
X0193524Y0065578D01*
X0193992Y0064448D01*
X0194400Y0064040D01*
X0194400Y0063971D01*
X0191843Y0063971D01*
X0191100Y0063229D01*
X0191100Y0064519D01*
X0180277Y0075342D01*
X0180884Y0075090D01*
X0183898Y0075090D01*
X0183898Y0074878D01*
X0184835Y0073941D01*
X0190491Y0073941D01*
X0191428Y0074878D01*
X0191428Y0082503D01*
X0190491Y0083440D01*
X0184835Y0083440D01*
X0183898Y0082503D01*
X0183898Y0082290D01*
X0180884Y0082290D01*
X0179561Y0081742D01*
X0178548Y0080730D01*
X0178000Y0079406D01*
X0178000Y0077974D01*
X0178251Y0077367D01*
X0177176Y0078442D01*
X0177176Y0079302D01*
X0176708Y0080433D01*
X0175843Y0081298D01*
X0174712Y0081767D01*
X0173488Y0081767D01*
X0172357Y0081298D01*
X0171492Y0080433D01*
X0171024Y0079302D01*
X0171024Y0078078D01*
X0171492Y0076948D01*
X0172357Y0076082D01*
X0173488Y0075614D01*
X0174348Y0075614D01*
X0187100Y0062862D01*
X0187100Y0062541D01*
X0187093Y0062548D01*
X0185962Y0063017D01*
X0185102Y0063017D01*
X0184928Y0063190D01*
X0182138Y0063190D01*
X0181357Y0063971D01*
X0171370Y0063971D01*
X0170433Y0063034D01*
X0170433Y0059346D01*
X0170789Y0058990D01*
X0170168Y0058990D01*
X0170168Y0059865D01*
X0169231Y0060802D01*
X0167488Y0060802D01*
X0166913Y0061040D01*
X0160884Y0061040D01*
X0159561Y0060492D01*
X0158548Y0059480D01*
X0158000Y0058156D01*
X0158000Y0056724D01*
X0158548Y0055401D01*
X0159561Y0054388D01*
X0160884Y0053840D01*
X0163400Y0053840D01*
X0163700Y0053540D01*
X0163521Y0053361D01*
X0163339Y0053045D01*
X0163244Y0052692D01*
X0163244Y0050728D01*
X0166216Y0050728D01*
X0166216Y0049960D01*
X0163244Y0049960D01*
X0163244Y0047996D01*
X0163339Y0047643D01*
X0163521Y0047327D01*
X0163780Y0047068D01*
X0164096Y0046886D01*
X0164449Y0046791D01*
X0166216Y0046791D01*
X0166216Y0049959D01*
X0166984Y0049959D01*
X0166984Y0046791D01*
X0168751Y0046791D01*
X0169104Y0046886D01*
X0169420Y0047068D01*
X0169679Y0047327D01*
X0169861Y0047643D01*
X0169956Y0047996D01*
X0169956Y0049960D01*
X0166984Y0049960D01*
X0166984Y0050728D01*
X0169956Y0050728D01*
X0169956Y0052692D01*
X0169861Y0053045D01*
X0169679Y0053361D01*
X0169649Y0053390D01*
X0171090Y0053390D01*
X0170923Y0053223D01*
X0170740Y0052907D01*
X0170646Y0052554D01*
X0170646Y0051190D01*
X0170646Y0049827D01*
X0170740Y0049474D01*
X0170923Y0049157D01*
X0171181Y0048899D01*
X0171255Y0048856D01*
X0170433Y0048034D01*
X0170433Y0046602D01*
X0169600Y0045769D01*
X0169600Y0037259D01*
X0169046Y0037259D01*
X0168970Y0037290D01*
X0162134Y0037290D01*
X0160811Y0036742D01*
X0159798Y0035730D01*
X0159250Y0034406D01*
X0159250Y0032974D01*
X0159798Y0031651D01*
X0160811Y0030638D01*
X0162134Y0030090D01*
X0168970Y0030090D01*
X0169046Y0030122D01*
X0169600Y0030122D01*
X0169600Y0029519D01*
X0168449Y0028367D01*
X0164343Y0028367D01*
X0163936Y0028775D01*
X0159447Y0028775D01*
X0159676Y0029328D01*
X0159676Y0030552D01*
X0159208Y0031683D01*
X0158600Y0032291D01*
X0158600Y0048269D01*
X0156366Y0050503D01*
X0155194Y0051675D01*
X0150724Y0051675D01*
X0150724Y0052242D01*
X0150620Y0052628D01*
X0150420Y0052975D01*
X0150137Y0053258D01*
X0149790Y0053458D01*
X0149403Y0053562D01*
X0147132Y0053562D01*
X0147132Y0051806D01*
X0147131Y0051806D01*
X0147131Y0053562D01*
X0144859Y0053562D01*
X0144473Y0053458D01*
X0144126Y0053258D01*
X0143843Y0052975D01*
X0143643Y0052628D01*
X0143539Y0052242D01*
X0143539Y0051643D01*
X0143539Y0051044D01*
X0143548Y0051012D01*
X0143452Y0050916D01*
X0142694Y0051675D01*
X0139873Y0051675D01*
X0139873Y0052759D01*
X0138858Y0053775D01*
X0133279Y0053775D01*
X0133187Y0053682D01*
X0131778Y0055090D01*
X0138970Y0055090D01*
X0139046Y0055122D01*
X0141082Y0055122D01*
X0141750Y0055790D01*
X0141929Y0055612D01*
X0142246Y0055429D01*
X0142598Y0055334D01*
X0144562Y0055334D01*
X0144562Y0058306D01*
X0145331Y0058306D01*
X0145331Y0059075D01*
X0144562Y0059075D01*
X0144562Y0062046D01*
X0142598Y0062046D01*
X0142246Y0061952D01*
X0141929Y0061769D01*
X0141750Y0061590D01*
X0141082Y0062259D01*
X0139046Y0062259D01*
X0138970Y0062290D01*
X0130884Y0062290D01*
X0130277Y0062039D01*
X0131352Y0063114D01*
X0132212Y0063114D01*
X0133343Y0063582D01*
X0134208Y0064448D01*
X0134676Y0065578D01*
X0134676Y0066802D01*
X0134208Y0067933D01*
X0133343Y0068798D01*
X0132212Y0069267D01*
X0130988Y0069267D01*
X0130523Y0069074D01*
X0130523Y0071587D01*
X0130096Y0072014D01*
X0130196Y0072188D01*
X0130310Y0072614D01*
X0130310Y0073690D01*
X0126541Y0073690D01*
X0126541Y0073690D01*
X0130310Y0073690D01*
X0130310Y0074767D01*
X0130196Y0075192D01*
X0130096Y0075366D01*
X0130523Y0075793D01*
X0130523Y0079068D01*
X0129418Y0080172D01*
X0123664Y0080172D01*
X0123600Y0080109D01*
X0123600Y0080334D01*
X0124562Y0080334D01*
X0124562Y0083306D01*
X0125331Y0083306D01*
X0125331Y0084075D01*
X0124562Y0084075D01*
X0124562Y0087046D01*
X0123600Y0087046D01*
X0123600Y0087590D01*
X0124208Y0088198D01*
X0124676Y0089328D01*
X0124676Y0090552D01*
X0124208Y0091683D01*
X0123343Y0092548D01*
X0122212Y0093017D01*
X0120988Y0093017D01*
X0119857Y0092548D01*
X0118992Y0091683D01*
X0118524Y0090552D01*
X0118524Y0089328D01*
X0118992Y0088198D01*
X0119600Y0087590D01*
X0119600Y0087259D01*
X0119046Y0087259D01*
X0118970Y0087290D01*
X0110884Y0087290D01*
X0109561Y0086742D01*
X0108548Y0085730D01*
X0108000Y0084406D01*
X0108000Y0082974D01*
X0108548Y0081651D01*
X0109561Y0080638D01*
X0110884Y0080090D01*
X0113700Y0080090D01*
X0113050Y0079440D01*
X0105201Y0079440D01*
X0104593Y0080048D01*
X0103462Y0080517D01*
X0102238Y0080517D01*
X0101107Y0080048D01*
X0100242Y0079183D01*
X0099774Y0078052D01*
X0099774Y0076828D01*
X0100242Y0075698D01*
X0101107Y0074832D01*
X0102238Y0074364D01*
X0103462Y0074364D01*
X0104593Y0074832D01*
X0105201Y0075440D01*
X0107749Y0075440D01*
X0107742Y0075433D01*
X0107274Y0074302D01*
X0107274Y0073078D01*
X0107742Y0071948D01*
X0107749Y0071940D01*
X0107701Y0071940D01*
X0107093Y0072548D01*
X0105962Y0073017D01*
X0104738Y0073017D01*
X0103607Y0072548D01*
X0102742Y0071683D01*
X0102274Y0070552D01*
X0102274Y0069328D01*
X0102742Y0068198D01*
X0103607Y0067332D01*
X0104738Y0066864D01*
X0105962Y0066864D01*
X0107093Y0067332D01*
X0107701Y0067940D01*
X0113050Y0067940D01*
X0113782Y0067208D01*
X0114600Y0067208D01*
X0114600Y0061612D01*
X0115772Y0060440D01*
X0128281Y0047931D01*
X0127357Y0047548D01*
X0126492Y0046683D01*
X0126024Y0045552D01*
X0126024Y0044328D01*
X0126492Y0043198D01*
X0127357Y0042332D01*
X0128304Y0041940D01*
X0127701Y0041940D01*
X0127093Y0042548D01*
X0125962Y0043017D01*
X0124738Y0043017D01*
X0123607Y0042548D01*
X0122742Y0041683D01*
X0122274Y0040552D01*
X0122274Y0039328D01*
X0122742Y0038198D01*
X0123607Y0037332D01*
X0124738Y0036864D01*
X0125962Y0036864D01*
X0127093Y0037332D01*
X0127701Y0037940D01*
X0129522Y0037940D01*
X0132100Y0035362D01*
X0132100Y0035133D01*
X0131920Y0035312D01*
X0131604Y0035495D01*
X0131251Y0035589D01*
X0129484Y0035589D01*
X0129484Y0032421D01*
X0128716Y0032421D01*
X0128716Y0035589D01*
X0126949Y0035589D01*
X0126596Y0035495D01*
X0126280Y0035312D01*
X0126021Y0035054D01*
X0125839Y0034738D01*
X0125744Y0034385D01*
X0125744Y0032421D01*
X0128716Y0032421D01*
X0128716Y0031652D01*
X0125744Y0031652D01*
X0125744Y0029689D01*
X0125839Y0029336D01*
X0126021Y0029019D01*
X0126200Y0028841D01*
X0125531Y0028172D01*
X0125531Y0027344D01*
X0122425Y0027344D01*
X0121254Y0026172D01*
X0119492Y0024411D01*
X0117903Y0024411D01*
X0117965Y0024721D01*
X0117865Y0024871D01*
X0117865Y0025069D01*
X0117965Y0025218D01*
X0117882Y0025636D01*
X0117950Y0025978D01*
X0117865Y0026105D01*
X0117865Y0026231D01*
X0117738Y0026358D01*
X0117688Y0026610D01*
X0117654Y0026633D01*
X0117646Y0026674D01*
X0117640Y0026678D01*
X0117653Y0026727D01*
X0117653Y0027529D01*
X0117653Y0028331D01*
X0117543Y0028738D01*
X0117543Y0028739D01*
X0117332Y0029104D01*
X0117332Y0029104D01*
X0117034Y0029403D01*
X0117034Y0029403D01*
X0116888Y0029487D01*
X0116668Y0029614D01*
X0116668Y0029614D01*
X0116260Y0029723D01*
X0114080Y0029723D01*
X0111901Y0029723D01*
X0111493Y0029614D01*
X0111127Y0029403D01*
X0110828Y0029104D01*
X0110617Y0028739D01*
X0110617Y0028738D01*
X0110508Y0028331D01*
X0110508Y0027529D01*
X0114080Y0027529D01*
X0114080Y0027529D01*
X0114080Y0029723D01*
X0114080Y0027529D01*
X0114080Y0027529D01*
X0110508Y0027529D01*
X0110508Y0026970D01*
X0109551Y0026970D01*
X0108380Y0025798D01*
X0108272Y0025690D01*
X0107100Y0024519D01*
X0107100Y0021019D01*
X0106178Y0021940D01*
X0103708Y0024411D01*
X0102943Y0024411D01*
X0103004Y0024721D01*
X0102905Y0024871D01*
X0102905Y0025069D01*
X0103004Y0025218D01*
X0102943Y0025529D01*
X0106267Y0025529D01*
X0107428Y0026690D01*
X0108600Y0027862D01*
X0108600Y0030334D01*
X0109562Y0030334D01*
X0109562Y0033306D01*
X0110331Y0033306D01*
X0110331Y0034075D01*
X0109562Y0034075D01*
X0109562Y0037046D01*
X0108600Y0037046D01*
X0108600Y0037862D01*
X0111178Y0040440D01*
X0118678Y0040440D01*
X0121352Y0043114D01*
X0122212Y0043114D01*
X0123343Y0043582D01*
X0124208Y0044448D01*
X0124676Y0045578D01*
X0124676Y0046802D01*
X0124208Y0047933D01*
X0123343Y0048798D01*
X0122212Y0049267D01*
X0120988Y0049267D01*
X0120058Y0048881D01*
X0120200Y0049224D01*
X0120200Y0050656D01*
X0119652Y0051980D01*
X0118639Y0052992D01*
X0117316Y0053540D01*
X0114800Y0053540D01*
X0114500Y0053841D01*
X0114679Y0054019D01*
X0114861Y0054336D01*
X0114956Y0054689D01*
X0114956Y0056652D01*
X0111984Y0056652D01*
X0111984Y0057421D01*
X0111216Y0057421D01*
X0111216Y0060589D01*
X0109449Y0060589D01*
X0109096Y0060495D01*
X0108780Y0060312D01*
X0108521Y0060054D01*
X0108339Y0059738D01*
X0108244Y0059385D01*
X0108244Y0057421D01*
X0111216Y0057421D01*
X0111216Y0056652D01*
X0108244Y0056652D01*
X0108244Y0054689D01*
X0108339Y0054336D01*
X0108521Y0054019D01*
X0108551Y0053990D01*
X0107110Y0053990D01*
X0107277Y0054157D01*
X0107460Y0054474D01*
X0107554Y0054827D01*
X0107554Y0056190D01*
X0101836Y0056190D01*
X0096118Y0056190D01*
X0096118Y0054827D01*
X0096213Y0054474D01*
X0096395Y0054157D01*
X0096654Y0053899D01*
X0096728Y0053856D01*
X0095906Y0053034D01*
X0095906Y0049346D01*
X0096562Y0048690D01*
X0096062Y0048190D01*
X0091178Y0048190D01*
X0091100Y0048269D01*
X0091100Y0056715D01*
X0091732Y0056082D01*
X0092863Y0055614D01*
X0094087Y0055614D01*
X0095218Y0056082D01*
X0096083Y0056948D01*
X0096118Y0057032D01*
X0096118Y0056190D01*
X0101836Y0056190D01*
X0101836Y0056190D01*
X0101836Y0056190D01*
X0107554Y0056190D01*
X0107554Y0057554D01*
X0107460Y0057907D01*
X0107277Y0058223D01*
X0107019Y0058482D01*
X0106945Y0058524D01*
X0107767Y0059346D01*
X0107767Y0063034D01*
X0106830Y0063971D01*
X0096843Y0063971D01*
X0096062Y0063190D01*
X0095147Y0063190D01*
X0093723Y0061767D01*
X0092863Y0061767D01*
X0091732Y0061298D01*
X0091100Y0060666D01*
X0091100Y0062862D01*
X0093852Y0065614D01*
X0094712Y0065614D01*
X0095843Y0066082D01*
X0096708Y0066948D01*
X0097176Y0068078D01*
X0097176Y0069302D01*
X0096708Y0070433D01*
X0095843Y0071298D01*
X0094712Y0071767D01*
X0093488Y0071767D01*
X0092357Y0071298D01*
X0091492Y0070433D01*
X0091024Y0069302D01*
X0091024Y0068442D01*
X0087100Y0064519D01*
X0087100Y0063229D01*
X0086357Y0063971D01*
X0076370Y0063971D01*
X0075433Y0063034D01*
X0075433Y0061709D01*
X0071350Y0065792D01*
X0071350Y0070259D01*
X0070412Y0071196D01*
X0062788Y0071196D01*
X0061850Y0070259D01*
X0061850Y0065890D01*
X0051010Y0065890D01*
X0050578Y0066933D01*
X0048968Y0068544D01*
X0046864Y0069415D01*
X0036336Y0069415D01*
X0034232Y0068544D01*
X0032622Y0066933D01*
X0031750Y0064829D01*
X0031750Y0062552D01*
X0032622Y0060447D01*
X0034232Y0058837D01*
X0036336Y0057965D01*
X0046864Y0057965D01*
X0048968Y0058837D01*
X0050578Y0060447D01*
X0051010Y0061490D01*
X0061850Y0061490D01*
X0061850Y0057122D01*
X0062788Y0056185D01*
X0064400Y0056185D01*
X0064400Y0053516D01*
X0063598Y0053183D01*
X0062107Y0051692D01*
X0061300Y0049745D01*
X0061300Y0047636D01*
X0062023Y0045890D01*
X0051010Y0045890D01*
X0050578Y0046933D01*
X0048968Y0048544D01*
X0046864Y0049415D01*
X0036336Y0049415D01*
X0034232Y0048544D01*
X0032622Y0046933D01*
X0031750Y0044829D01*
X0031750Y0042552D01*
X0032622Y0040447D01*
X0034232Y0038837D01*
X0036336Y0037965D01*
X0046864Y0037965D01*
X0048968Y0038837D01*
X0050578Y0040447D01*
X0051010Y0041490D01*
X0060689Y0041490D01*
X0061632Y0040547D01*
X0061300Y0039745D01*
X0061300Y0037636D01*
X0062107Y0035688D01*
X0063598Y0034197D01*
X0065546Y0033390D01*
X0067654Y0033390D01*
X0069602Y0034197D01*
X0071093Y0035688D01*
X0071900Y0037636D01*
X0071900Y0039745D01*
X0071568Y0040547D01*
X0075433Y0044412D01*
X0075433Y0044346D01*
X0076370Y0043409D01*
X0078671Y0043409D01*
X0078524Y0043052D01*
X0078524Y0041828D01*
X0078992Y0040698D01*
X0079857Y0039832D01*
X0080988Y0039364D01*
X0082212Y0039364D01*
X0083343Y0039832D01*
X0084208Y0040698D01*
X0084676Y0041828D01*
X0084676Y0043052D01*
X0084528Y0043409D01*
X0086357Y0043409D01*
X0087294Y0044346D01*
X0087294Y0046417D01*
X0088272Y0045440D01*
X0089522Y0044190D01*
X0096062Y0044190D01*
X0096843Y0043409D01*
X0106830Y0043409D01*
X0107767Y0044346D01*
X0107767Y0048034D01*
X0107411Y0048390D01*
X0108031Y0048390D01*
X0108031Y0047516D01*
X0108969Y0046578D01*
X0110712Y0046578D01*
X0111287Y0046340D01*
X0117316Y0046340D01*
X0118543Y0046848D01*
X0118524Y0046802D01*
X0118524Y0045942D01*
X0117022Y0044440D01*
X0109522Y0044440D01*
X0108350Y0043269D01*
X0104600Y0039519D01*
X0104600Y0037259D01*
X0104046Y0037259D01*
X0103970Y0037290D01*
X0097134Y0037290D01*
X0095811Y0036742D01*
X0094798Y0035730D01*
X0094250Y0034406D01*
X0094250Y0032974D01*
X0094798Y0031651D01*
X0095811Y0030638D01*
X0097134Y0030090D01*
X0103970Y0030090D01*
X0104046Y0030122D01*
X0104600Y0030122D01*
X0104600Y0029529D01*
X0102327Y0029529D01*
X0102201Y0029716D01*
X0102161Y0029724D01*
X0102138Y0029759D01*
X0101886Y0029809D01*
X0101759Y0029936D01*
X0101632Y0029936D01*
X0101505Y0030021D01*
X0101163Y0029953D01*
X0100746Y0030036D01*
X0100597Y0029936D01*
X0097642Y0029936D01*
X0097493Y0030036D01*
X0097076Y0029953D01*
X0096734Y0030021D01*
X0096607Y0029936D01*
X0096480Y0029936D01*
X0096353Y0029809D01*
X0096102Y0029759D01*
X0096079Y0029724D01*
X0096038Y0029716D01*
X0095913Y0029529D01*
X0094610Y0029529D01*
X0093272Y0028190D01*
X0087650Y0028190D01*
X0087000Y0028841D01*
X0087179Y0029019D01*
X0087361Y0029336D01*
X0087456Y0029689D01*
X0087456Y0031652D01*
X0084484Y0031652D01*
X0084484Y0032421D01*
X0083716Y0032421D01*
X0083716Y0035589D01*
X0081949Y0035589D01*
X0081596Y0035495D01*
X0081280Y0035312D01*
X0081021Y0035054D01*
X0080839Y0034738D01*
X0080744Y0034385D01*
X0080744Y0032421D01*
X0083716Y0032421D01*
X0083716Y0031652D01*
X0080744Y0031652D01*
X0080744Y0029689D01*
X0080839Y0029336D01*
X0081021Y0029019D01*
X0081200Y0028841D01*
X0080531Y0028172D01*
X0080531Y0022516D01*
X0080788Y0022259D01*
X0080425Y0022259D01*
X0079488Y0021322D01*
X0079488Y0016059D01*
X0080425Y0015122D01*
X0086082Y0015122D01*
X0086600Y0015640D01*
X0087118Y0015122D01*
X0088307Y0015122D01*
X0089400Y0014029D01*
X0090689Y0012740D01*
X0093199Y0012740D01*
X0093607Y0012332D01*
X0094738Y0011864D01*
X0095962Y0011864D01*
X0097093Y0012332D01*
X0097958Y0013198D01*
X0098426Y0014328D01*
X0098426Y0014905D01*
X0100896Y0017375D01*
X0101163Y0017428D01*
X0101505Y0017360D01*
X0101632Y0017445D01*
X0101759Y0017445D01*
X0101886Y0017572D01*
X0102138Y0017622D01*
X0102161Y0017656D01*
X0102201Y0017664D01*
X0102395Y0017954D01*
X0102685Y0018148D01*
X0102693Y0018189D01*
X0102728Y0018212D01*
X0102778Y0018463D01*
X0102905Y0018590D01*
X0102905Y0018717D01*
X0102990Y0018844D01*
X0102921Y0019186D01*
X0102980Y0019482D01*
X0103350Y0019112D01*
X0103350Y0011612D01*
X0104522Y0010440D01*
X0106772Y0008190D01*
X0078678Y0008190D01*
X0076100Y0010769D01*
X0076100Y0030090D01*
X0076708Y0030698D01*
X0077176Y0031828D01*
X0077176Y0033052D01*
X0076708Y0034183D01*
X0075843Y0035048D01*
X0074712Y0035517D01*
X0073488Y0035517D01*
X0072357Y0035048D01*
X0071492Y0034183D01*
X0071024Y0033052D01*
X0071024Y0031828D01*
X0071492Y0030698D01*
X0072100Y0030090D01*
X0072100Y0009112D01*
X0073272Y0007940D01*
X0075740Y0005471D01*
X0023072Y0005471D01*
X0025358Y0006636D01*
X0028654Y0009932D01*
X0028654Y0009932D01*
X0030771Y0014086D01*
X0031500Y0018690D01*
X0030771Y0023295D01*
X0028654Y0027448D01*
X0028654Y0027448D01*
X0025358Y0030745D01*
X0021204Y0032861D01*
X0016600Y0033590D01*
X0011996Y0032861D01*
X0011996Y0032861D01*
X0007842Y0030745D01*
X0004546Y0027448D01*
X0003381Y0025163D01*
X0003381Y0172218D01*
X0004546Y0169932D01*
X0007842Y0166636D01*
X0011996Y0164520D01*
X0016600Y0163790D01*
X0021204Y0164520D01*
X0025358Y0166636D01*
X0028654Y0169932D01*
X0028654Y0169932D01*
X0030771Y0174086D01*
X0031500Y0178690D01*
X0030771Y0183295D01*
X0028654Y0187448D01*
X0028654Y0187448D01*
X0025358Y0190745D01*
X0023072Y0191909D01*
X0255128Y0191909D01*
X0252842Y0190745D01*
X0249546Y0187448D01*
X0247429Y0183295D01*
X0247429Y0183295D01*
X0246700Y0178690D01*
X0247429Y0174086D01*
X0247429Y0174086D01*
X0249546Y0169932D01*
X0250393Y0169085D02*
X0187700Y0169085D01*
X0190031Y0167886D02*
X0251592Y0167886D01*
X0252790Y0166688D02*
X0190031Y0166688D01*
X0190031Y0165489D02*
X0255092Y0165489D01*
X0256996Y0164520D02*
X0256996Y0164520D01*
X0258440Y0164291D02*
X0190031Y0164291D01*
X0190031Y0163092D02*
X0209380Y0163092D01*
X0208357Y0162669D02*
X0210461Y0163540D01*
X0212739Y0163540D01*
X0214843Y0162669D01*
X0216453Y0161058D01*
X0217325Y0158954D01*
X0217325Y0151077D01*
X0220060Y0148342D01*
X0220060Y0133440D01*
X0220688Y0133440D01*
X0221600Y0132528D01*
X0222512Y0133440D01*
X0223140Y0133440D01*
X0223140Y0148342D01*
X0225875Y0151077D01*
X0225875Y0158954D01*
X0226747Y0161058D01*
X0228357Y0162669D01*
X0230461Y0163540D01*
X0232739Y0163540D01*
X0234843Y0162669D01*
X0236453Y0161058D01*
X0237325Y0158954D01*
X0237325Y0148427D01*
X0236453Y0146322D01*
X0234843Y0144712D01*
X0232739Y0143840D01*
X0230461Y0143840D01*
X0228357Y0144712D01*
X0227540Y0145529D01*
X0227540Y0133440D01*
X0228168Y0133440D01*
X0229105Y0132503D01*
X0229105Y0124878D01*
X0228168Y0123941D01*
X0226300Y0123941D01*
X0226300Y0119501D01*
X0226600Y0119201D01*
X0227256Y0119857D01*
X0230944Y0119857D01*
X0231881Y0118920D01*
X0231881Y0108933D01*
X0230944Y0107996D01*
X0227256Y0107996D01*
X0226600Y0108652D01*
X0225944Y0107996D01*
X0222256Y0107996D01*
X0221600Y0108652D01*
X0220944Y0107996D01*
X0217256Y0107996D01*
X0216600Y0108652D01*
X0215944Y0107996D01*
X0212256Y0107996D01*
X0211319Y0108933D01*
X0211319Y0111490D01*
X0211251Y0111490D01*
X0210843Y0111082D01*
X0209712Y0110614D01*
X0208488Y0110614D01*
X0207357Y0111082D01*
X0206492Y0111948D01*
X0206024Y0113078D01*
X0206024Y0114302D01*
X0206492Y0115433D01*
X0207357Y0116298D01*
X0208488Y0116767D01*
X0209712Y0116767D01*
X0210843Y0116298D01*
X0211251Y0115890D01*
X0211319Y0115890D01*
X0211319Y0118920D01*
X0212256Y0119857D01*
X0215944Y0119857D01*
X0216600Y0119201D01*
X0216900Y0119501D01*
X0216900Y0123941D01*
X0215032Y0123941D01*
X0214094Y0124878D01*
X0214094Y0132503D01*
X0215032Y0133440D01*
X0215660Y0133440D01*
X0215660Y0145529D01*
X0214843Y0144712D01*
X0212739Y0143840D01*
X0210461Y0143840D01*
X0208357Y0144712D01*
X0206747Y0146322D01*
X0205875Y0148427D01*
X0205875Y0158954D01*
X0206747Y0161058D01*
X0208357Y0162669D01*
X0207582Y0161894D02*
X0190031Y0161894D01*
X0190031Y0160695D02*
X0206596Y0160695D01*
X0206100Y0159497D02*
X0190004Y0159497D01*
X0178196Y0159497D02*
X0174046Y0159497D01*
X0174046Y0160695D02*
X0178169Y0160695D01*
X0178169Y0161894D02*
X0174046Y0161894D01*
X0174046Y0163092D02*
X0178169Y0163092D01*
X0178169Y0164291D02*
X0174046Y0164291D01*
X0174046Y0164786D02*
X0173109Y0165723D01*
X0165091Y0165723D01*
X0164154Y0164786D01*
X0164154Y0163577D01*
X0155630Y0163577D01*
X0154601Y0163151D01*
X0153231Y0161781D01*
X0152343Y0162669D01*
X0150239Y0163540D01*
X0147961Y0163540D01*
X0145857Y0162669D01*
X0144247Y0161058D01*
X0143375Y0158954D01*
X0143375Y0148427D01*
X0144247Y0146322D01*
X0145857Y0144712D01*
X0147961Y0143840D01*
X0150239Y0143840D01*
X0152343Y0144712D01*
X0153953Y0146322D01*
X0154825Y0148427D01*
X0154825Y0155455D01*
X0157346Y0157977D01*
X0164154Y0157977D01*
X0164154Y0156768D01*
X0165091Y0155830D01*
X0173109Y0155830D01*
X0174046Y0156768D01*
X0174046Y0164786D01*
X0173343Y0165489D02*
X0178169Y0165489D01*
X0178169Y0166688D02*
X0100562Y0166688D01*
X0100562Y0166531D02*
X0100562Y0172581D01*
X0099625Y0173519D01*
X0093575Y0173519D01*
X0092638Y0172581D01*
X0092638Y0166531D01*
X0093575Y0165594D01*
X0093761Y0165594D01*
X0093031Y0164865D01*
X0093031Y0159209D01*
X0093700Y0158540D01*
X0093521Y0158361D01*
X0093339Y0158045D01*
X0093244Y0157692D01*
X0093244Y0155728D01*
X0096216Y0155728D01*
X0096216Y0154960D01*
X0093244Y0154960D01*
X0093244Y0152996D01*
X0093339Y0152643D01*
X0093521Y0152327D01*
X0093780Y0152068D01*
X0094096Y0151886D01*
X0094449Y0151791D01*
X0096216Y0151791D01*
X0096216Y0154959D01*
X0096984Y0154959D01*
X0096984Y0151791D01*
X0098751Y0151791D01*
X0099104Y0151886D01*
X0099420Y0152068D01*
X0099679Y0152327D01*
X0099861Y0152643D01*
X0099956Y0152996D01*
X0099956Y0154960D01*
X0096984Y0154960D01*
X0096984Y0155728D01*
X0099956Y0155728D01*
X0099956Y0157692D01*
X0099861Y0158045D01*
X0099679Y0158361D01*
X0099500Y0158540D01*
X0100168Y0159209D01*
X0100168Y0164865D01*
X0099439Y0165594D01*
X0099625Y0165594D01*
X0100562Y0166531D01*
X0100562Y0167886D02*
X0178169Y0167886D01*
X0180500Y0169085D02*
X0100562Y0169085D01*
X0100562Y0170283D02*
X0180500Y0170283D01*
X0180500Y0171482D02*
X0100562Y0171482D01*
X0100463Y0172680D02*
X0180821Y0172680D01*
X0181697Y0173879D02*
X0099642Y0173879D01*
X0099625Y0173862D02*
X0100562Y0174799D01*
X0100562Y0180849D01*
X0099625Y0181786D01*
X0098800Y0181786D01*
X0098800Y0184040D01*
X0099208Y0184448D01*
X0099676Y0185578D01*
X0099676Y0186802D01*
X0099208Y0187933D01*
X0098343Y0188798D01*
X0097212Y0189267D01*
X0095988Y0189267D01*
X0094857Y0188798D01*
X0093992Y0187933D01*
X0093524Y0186802D01*
X0093524Y0185578D01*
X0093992Y0184448D01*
X0094400Y0184040D01*
X0094400Y0181786D01*
X0093575Y0181786D01*
X0092638Y0180849D01*
X0092638Y0174799D01*
X0093575Y0173862D01*
X0099625Y0173862D01*
X0100562Y0175077D02*
X0247272Y0175077D01*
X0247082Y0176276D02*
X0100562Y0176276D01*
X0100562Y0177474D02*
X0246893Y0177474D01*
X0246703Y0178673D02*
X0100562Y0178673D01*
X0100562Y0179871D02*
X0246887Y0179871D01*
X0246700Y0178690D02*
X0246700Y0178690D01*
X0247077Y0181070D02*
X0100341Y0181070D01*
X0098800Y0182268D02*
X0247267Y0182268D01*
X0247517Y0183467D02*
X0098800Y0183467D01*
X0099298Y0184665D02*
X0248128Y0184665D01*
X0248738Y0185864D02*
X0099676Y0185864D01*
X0099569Y0187063D02*
X0249349Y0187063D01*
X0249546Y0187448D02*
X0249546Y0187448D01*
X0250358Y0188261D02*
X0098880Y0188261D01*
X0096600Y0186190D02*
X0096600Y0177824D01*
X0092638Y0177474D02*
X0031307Y0177474D01*
X0031118Y0176276D02*
X0092638Y0176276D01*
X0092638Y0175077D02*
X0030928Y0175077D01*
X0030771Y0174086D02*
X0030771Y0174086D01*
X0030665Y0173879D02*
X0093558Y0173879D01*
X0092737Y0172680D02*
X0030055Y0172680D01*
X0029444Y0171482D02*
X0092638Y0171482D01*
X0092638Y0170283D02*
X0028833Y0170283D01*
X0027807Y0169085D02*
X0092638Y0169085D01*
X0092638Y0167886D02*
X0026608Y0167886D01*
X0025410Y0166688D02*
X0092638Y0166688D01*
X0093656Y0165489D02*
X0023108Y0165489D01*
X0021204Y0164520D02*
X0021204Y0164520D01*
X0019760Y0164291D02*
X0093031Y0164291D01*
X0093031Y0163092D02*
X0068820Y0163092D01*
X0069843Y0162669D02*
X0067739Y0163540D01*
X0065461Y0163540D01*
X0063357Y0162669D01*
X0061747Y0161058D01*
X0060875Y0158954D01*
X0060875Y0151077D01*
X0058140Y0148342D01*
X0058140Y0133440D01*
X0057512Y0133440D01*
X0056600Y0132528D01*
X0055688Y0133440D01*
X0055060Y0133440D01*
X0055060Y0148342D01*
X0052325Y0151077D01*
X0052325Y0158954D01*
X0051453Y0161058D01*
X0049843Y0162669D01*
X0047739Y0163540D01*
X0045461Y0163540D01*
X0043357Y0162669D01*
X0041747Y0161058D01*
X0040875Y0158954D01*
X0040875Y0148427D01*
X0041747Y0146322D01*
X0043357Y0144712D01*
X0045461Y0143840D01*
X0047739Y0143840D01*
X0049843Y0144712D01*
X0050660Y0145529D01*
X0050660Y0133440D01*
X0050032Y0133440D01*
X0049094Y0132503D01*
X0049094Y0124878D01*
X0050032Y0123941D01*
X0051900Y0123941D01*
X0051900Y0119501D01*
X0051600Y0119201D01*
X0050944Y0119857D01*
X0047256Y0119857D01*
X0046319Y0118920D01*
X0046319Y0115890D01*
X0046251Y0115890D01*
X0045843Y0116298D01*
X0044712Y0116767D01*
X0043488Y0116767D01*
X0042357Y0116298D01*
X0041492Y0115433D01*
X0041024Y0114302D01*
X0041024Y0113078D01*
X0041492Y0111948D01*
X0042357Y0111082D01*
X0043488Y0110614D01*
X0044712Y0110614D01*
X0045843Y0111082D01*
X0046251Y0111490D01*
X0046319Y0111490D01*
X0046319Y0108933D01*
X0047256Y0107996D01*
X0050944Y0107996D01*
X0051600Y0108652D01*
X0052256Y0107996D01*
X0055944Y0107996D01*
X0056600Y0108652D01*
X0057256Y0107996D01*
X0060944Y0107996D01*
X0061600Y0108652D01*
X0062256Y0107996D01*
X0065944Y0107996D01*
X0066881Y0108933D01*
X0066881Y0118920D01*
X0065944Y0119857D01*
X0062256Y0119857D01*
X0061600Y0119201D01*
X0061300Y0119501D01*
X0061300Y0123941D01*
X0063168Y0123941D01*
X0064105Y0124878D01*
X0064105Y0132503D01*
X0063168Y0133440D01*
X0062540Y0133440D01*
X0062540Y0145529D01*
X0063357Y0144712D01*
X0065461Y0143840D01*
X0067739Y0143840D01*
X0069843Y0144712D01*
X0071453Y0146322D01*
X0072325Y0148427D01*
X0072325Y0158954D01*
X0071453Y0161058D01*
X0069843Y0162669D01*
X0070618Y0161894D02*
X0093031Y0161894D01*
X0093031Y0160695D02*
X0071604Y0160695D01*
X0072100Y0159497D02*
X0093031Y0159497D01*
X0093485Y0158298D02*
X0072325Y0158298D01*
X0072325Y0157100D02*
X0093244Y0157100D01*
X0093244Y0155901D02*
X0072325Y0155901D01*
X0072325Y0154703D02*
X0093244Y0154703D01*
X0093244Y0153504D02*
X0072325Y0153504D01*
X0072325Y0152306D02*
X0093542Y0152306D01*
X0096216Y0152306D02*
X0096984Y0152306D01*
X0096984Y0153504D02*
X0096216Y0153504D01*
X0096216Y0154703D02*
X0096984Y0154703D01*
X0099956Y0154703D02*
X0123375Y0154703D01*
X0123375Y0155901D02*
X0099956Y0155901D01*
X0099956Y0157100D02*
X0123375Y0157100D01*
X0123375Y0158298D02*
X0099715Y0158298D01*
X0100168Y0159497D02*
X0123600Y0159497D01*
X0123375Y0158954D02*
X0123375Y0148427D01*
X0124247Y0146322D01*
X0125857Y0144712D01*
X0127961Y0143840D01*
X0130239Y0143840D01*
X0132343Y0144712D01*
X0133953Y0146322D01*
X0134825Y0148427D01*
X0134825Y0158954D01*
X0133953Y0161058D01*
X0132343Y0162669D01*
X0130239Y0163540D01*
X0127961Y0163540D01*
X0125857Y0162669D01*
X0124247Y0161058D01*
X0123375Y0158954D01*
X0124096Y0160695D02*
X0100168Y0160695D01*
X0100168Y0161894D02*
X0125082Y0161894D01*
X0126880Y0163092D02*
X0100168Y0163092D01*
X0100168Y0164291D02*
X0164154Y0164291D01*
X0164857Y0165489D02*
X0099544Y0165489D01*
X0096600Y0162037D02*
X0096600Y0169556D01*
X0092638Y0178673D02*
X0031497Y0178673D01*
X0031313Y0179871D02*
X0092638Y0179871D01*
X0092859Y0181070D02*
X0031123Y0181070D01*
X0030933Y0182268D02*
X0094400Y0182268D01*
X0094400Y0183467D02*
X0030683Y0183467D01*
X0030771Y0183295D02*
X0030771Y0183295D01*
X0030072Y0184665D02*
X0093902Y0184665D01*
X0093524Y0185864D02*
X0029462Y0185864D01*
X0028851Y0187063D02*
X0093631Y0187063D01*
X0094320Y0188261D02*
X0027842Y0188261D01*
X0026643Y0189460D02*
X0251557Y0189460D01*
X0252755Y0190658D02*
X0025445Y0190658D01*
X0025358Y0190745D02*
X0025358Y0190745D01*
X0023176Y0191857D02*
X0255024Y0191857D01*
X0252842Y0190745D02*
X0252842Y0190745D01*
X0247535Y0173879D02*
X0186503Y0173879D01*
X0174046Y0158298D02*
X0205875Y0158298D01*
X0205875Y0157100D02*
X0174046Y0157100D01*
X0173180Y0155901D02*
X0205875Y0155901D01*
X0205875Y0154703D02*
X0154825Y0154703D01*
X0154825Y0153504D02*
X0205875Y0153504D01*
X0205875Y0152306D02*
X0154825Y0152306D01*
X0154825Y0151107D02*
X0164648Y0151107D01*
X0165091Y0151550D02*
X0164154Y0150613D01*
X0164154Y0142594D01*
X0165091Y0141657D01*
X0170087Y0141657D01*
X0170467Y0141277D01*
X0171496Y0140851D01*
X0178169Y0140851D01*
X0178169Y0139445D01*
X0179107Y0138508D01*
X0183800Y0138508D01*
X0183800Y0131393D01*
X0182788Y0131393D01*
X0181850Y0130455D01*
X0181850Y0130427D01*
X0177452Y0130427D01*
X0177452Y0131243D01*
X0176515Y0132180D01*
X0167315Y0132180D01*
X0166600Y0131465D01*
X0165885Y0132180D01*
X0156685Y0132180D01*
X0155748Y0131243D01*
X0155748Y0122553D01*
X0151350Y0122553D01*
X0151350Y0122581D01*
X0150412Y0123519D01*
X0142788Y0123519D01*
X0141850Y0122581D01*
X0141850Y0122553D01*
X0131153Y0122553D01*
X0131153Y0126164D01*
X0130215Y0127101D01*
X0122984Y0127101D01*
X0122047Y0126164D01*
X0122047Y0118933D01*
X0122984Y0117996D01*
X0127193Y0117996D01*
X0127809Y0117380D01*
X0128838Y0116953D01*
X0141850Y0116953D01*
X0141850Y0116925D01*
X0142788Y0115988D01*
X0150412Y0115988D01*
X0151350Y0116925D01*
X0151350Y0116953D01*
X0155748Y0116953D01*
X0155748Y0116138D01*
X0156685Y0115201D01*
X0165885Y0115201D01*
X0166600Y0115916D01*
X0167315Y0115201D01*
X0176515Y0115201D01*
X0177452Y0116138D01*
X0177452Y0124827D01*
X0181850Y0124827D01*
X0181850Y0124799D01*
X0182788Y0123862D01*
X0190412Y0123862D01*
X0191350Y0124799D01*
X0191350Y0130455D01*
X0190412Y0131393D01*
X0189400Y0131393D01*
X0189400Y0138814D01*
X0190031Y0139445D01*
X0190031Y0147857D01*
X0189093Y0148794D01*
X0179107Y0148794D01*
X0178169Y0147857D01*
X0178169Y0146451D01*
X0174046Y0146451D01*
X0174046Y0150613D01*
X0173109Y0151550D01*
X0165091Y0151550D01*
X0164154Y0149909D02*
X0154825Y0149909D01*
X0154825Y0148710D02*
X0164154Y0148710D01*
X0164154Y0147512D02*
X0154446Y0147512D01*
X0153944Y0146313D02*
X0164154Y0146313D01*
X0164154Y0145115D02*
X0152746Y0145115D01*
X0150422Y0143916D02*
X0164154Y0143916D01*
X0164154Y0142718D02*
X0116587Y0142718D01*
X0116802Y0142503D02*
X0115865Y0143440D01*
X0110209Y0143440D01*
X0109272Y0142503D01*
X0109272Y0134878D01*
X0110209Y0133941D01*
X0112695Y0133941D01*
X0113000Y0133636D01*
X0113000Y0125387D01*
X0112740Y0125127D01*
X0112047Y0123454D01*
X0112047Y0121643D01*
X0112740Y0119970D01*
X0114021Y0118689D01*
X0115694Y0117996D01*
X0117506Y0117996D01*
X0119179Y0118689D01*
X0120460Y0119970D01*
X0121153Y0121643D01*
X0121153Y0123454D01*
X0120460Y0125127D01*
X0120200Y0125387D01*
X0120200Y0135843D01*
X0119652Y0137167D01*
X0116802Y0140016D01*
X0116802Y0142503D01*
X0116802Y0141519D02*
X0170225Y0141519D01*
X0174046Y0147512D02*
X0178169Y0147512D01*
X0179022Y0148710D02*
X0174046Y0148710D01*
X0174046Y0149909D02*
X0205875Y0149909D01*
X0205875Y0151107D02*
X0173552Y0151107D01*
X0165020Y0155901D02*
X0155271Y0155901D01*
X0156469Y0157100D02*
X0164154Y0157100D01*
X0154542Y0163092D02*
X0151320Y0163092D01*
X0153118Y0161894D02*
X0153344Y0161894D01*
X0146880Y0163092D02*
X0131320Y0163092D01*
X0133118Y0161894D02*
X0145082Y0161894D01*
X0144096Y0160695D02*
X0134104Y0160695D01*
X0134600Y0159497D02*
X0143600Y0159497D01*
X0143375Y0158298D02*
X0134825Y0158298D01*
X0134825Y0157100D02*
X0143375Y0157100D01*
X0143375Y0155901D02*
X0134825Y0155901D01*
X0134825Y0154703D02*
X0143375Y0154703D01*
X0143375Y0153504D02*
X0134825Y0153504D01*
X0134825Y0152306D02*
X0143375Y0152306D01*
X0143375Y0151107D02*
X0134825Y0151107D01*
X0134825Y0149909D02*
X0143375Y0149909D01*
X0143375Y0148710D02*
X0134825Y0148710D01*
X0134446Y0147512D02*
X0143754Y0147512D01*
X0144256Y0146313D02*
X0133944Y0146313D01*
X0132746Y0145115D02*
X0145454Y0145115D01*
X0147778Y0143916D02*
X0130422Y0143916D01*
X0127778Y0143916D02*
X0067922Y0143916D01*
X0070246Y0145115D02*
X0125454Y0145115D01*
X0124256Y0146313D02*
X0071444Y0146313D01*
X0071946Y0147512D02*
X0123754Y0147512D01*
X0123375Y0148710D02*
X0072325Y0148710D01*
X0072325Y0149909D02*
X0123375Y0149909D01*
X0123375Y0151107D02*
X0072325Y0151107D01*
X0066600Y0153690D02*
X0060340Y0147430D01*
X0060340Y0128690D01*
X0059100Y0127450D01*
X0059100Y0113927D01*
X0054100Y0113927D02*
X0054100Y0127450D01*
X0052860Y0128690D01*
X0052860Y0147430D01*
X0046600Y0153690D01*
X0040875Y0153504D02*
X0003381Y0153504D01*
X0003381Y0152306D02*
X0040875Y0152306D01*
X0040875Y0151107D02*
X0003381Y0151107D01*
X0003381Y0149909D02*
X0040875Y0149909D01*
X0040875Y0148710D02*
X0003381Y0148710D01*
X0003381Y0147512D02*
X0041254Y0147512D01*
X0041756Y0146313D02*
X0003381Y0146313D01*
X0003381Y0145115D02*
X0042954Y0145115D01*
X0045278Y0143916D02*
X0003381Y0143916D01*
X0003381Y0142718D02*
X0050660Y0142718D01*
X0050660Y0143916D02*
X0047922Y0143916D01*
X0050246Y0145115D02*
X0050660Y0145115D01*
X0055060Y0145115D02*
X0058140Y0145115D01*
X0058140Y0146313D02*
X0055060Y0146313D01*
X0055060Y0147512D02*
X0058140Y0147512D01*
X0058509Y0148710D02*
X0054691Y0148710D01*
X0053493Y0149909D02*
X0059707Y0149909D01*
X0060875Y0151107D02*
X0052325Y0151107D01*
X0052325Y0152306D02*
X0060875Y0152306D01*
X0060875Y0153504D02*
X0052325Y0153504D01*
X0052325Y0154703D02*
X0060875Y0154703D01*
X0060875Y0155901D02*
X0052325Y0155901D01*
X0052325Y0157100D02*
X0060875Y0157100D01*
X0060875Y0158298D02*
X0052325Y0158298D01*
X0052100Y0159497D02*
X0061100Y0159497D01*
X0061596Y0160695D02*
X0051604Y0160695D01*
X0050618Y0161894D02*
X0062582Y0161894D01*
X0064380Y0163092D02*
X0048820Y0163092D01*
X0044380Y0163092D02*
X0003381Y0163092D01*
X0003381Y0161894D02*
X0042582Y0161894D01*
X0041596Y0160695D02*
X0003381Y0160695D01*
X0003381Y0159497D02*
X0041100Y0159497D01*
X0040875Y0158298D02*
X0003381Y0158298D01*
X0003381Y0157100D02*
X0040875Y0157100D01*
X0040875Y0155901D02*
X0003381Y0155901D01*
X0003381Y0154703D02*
X0040875Y0154703D01*
X0055060Y0143916D02*
X0058140Y0143916D01*
X0058140Y0142718D02*
X0055060Y0142718D01*
X0055060Y0141519D02*
X0058140Y0141519D01*
X0058140Y0140321D02*
X0055060Y0140321D01*
X0055060Y0139122D02*
X0058140Y0139122D01*
X0058140Y0137924D02*
X0055060Y0137924D01*
X0055060Y0136725D02*
X0058140Y0136725D01*
X0058140Y0135527D02*
X0055060Y0135527D01*
X0055060Y0134328D02*
X0058140Y0134328D01*
X0057202Y0133130D02*
X0055998Y0133130D01*
X0050660Y0134328D02*
X0003381Y0134328D01*
X0003381Y0133130D02*
X0049721Y0133130D01*
X0049094Y0131931D02*
X0003381Y0131931D01*
X0003381Y0130732D02*
X0049094Y0130732D01*
X0049094Y0129534D02*
X0003381Y0129534D01*
X0003381Y0128335D02*
X0049094Y0128335D01*
X0049094Y0127137D02*
X0003381Y0127137D01*
X0003381Y0125938D02*
X0049094Y0125938D01*
X0049232Y0124740D02*
X0003381Y0124740D01*
X0003381Y0123541D02*
X0051900Y0123541D01*
X0051900Y0122343D02*
X0003381Y0122343D01*
X0003381Y0121144D02*
X0051900Y0121144D01*
X0051900Y0119946D02*
X0003381Y0119946D01*
X0003381Y0118747D02*
X0046319Y0118747D01*
X0046319Y0117549D02*
X0003381Y0117549D01*
X0003381Y0116350D02*
X0042483Y0116350D01*
X0041376Y0115152D02*
X0003381Y0115152D01*
X0003381Y0113953D02*
X0041024Y0113953D01*
X0041158Y0112755D02*
X0003381Y0112755D01*
X0003381Y0111556D02*
X0041883Y0111556D01*
X0044100Y0113690D02*
X0048864Y0113690D01*
X0049100Y0113927D01*
X0046319Y0116350D02*
X0045717Y0116350D01*
X0046319Y0110358D02*
X0003381Y0110358D01*
X0003381Y0109159D02*
X0046319Y0109159D01*
X0050645Y0105564D02*
X0003381Y0105564D01*
X0003381Y0106762D02*
X0059727Y0106762D01*
X0059738Y0106767D02*
X0058607Y0106298D01*
X0057999Y0105690D01*
X0050772Y0105690D01*
X0049600Y0104519D01*
X0047100Y0102019D01*
X0047100Y0099229D01*
X0046319Y0098448D01*
X0046319Y0088461D01*
X0047256Y0087523D01*
X0050944Y0087523D01*
X0051300Y0087880D01*
X0051300Y0087290D01*
X0047134Y0087290D01*
X0045811Y0086742D01*
X0044798Y0085730D01*
X0044250Y0084406D01*
X0044250Y0082974D01*
X0044798Y0081651D01*
X0045811Y0080638D01*
X0047134Y0080090D01*
X0053970Y0080090D01*
X0054046Y0080122D01*
X0056082Y0080122D01*
X0056750Y0080790D01*
X0056929Y0080612D01*
X0057246Y0080429D01*
X0057598Y0080334D01*
X0059562Y0080334D01*
X0059562Y0083306D01*
X0060331Y0083306D01*
X0060331Y0084075D01*
X0059562Y0084075D01*
X0059562Y0087046D01*
X0057598Y0087046D01*
X0057246Y0086952D01*
X0056929Y0086769D01*
X0056900Y0086740D01*
X0056900Y0088180D01*
X0057067Y0088013D01*
X0057383Y0087830D01*
X0057736Y0087736D01*
X0059100Y0087736D01*
X0060464Y0087736D01*
X0060817Y0087830D01*
X0061133Y0088013D01*
X0061391Y0088271D01*
X0061434Y0088345D01*
X0062256Y0087523D01*
X0065944Y0087523D01*
X0066881Y0088461D01*
X0066881Y0098448D01*
X0065944Y0099385D01*
X0062256Y0099385D01*
X0061434Y0098563D01*
X0061391Y0098637D01*
X0061133Y0098895D01*
X0060817Y0099078D01*
X0060464Y0099172D01*
X0059100Y0099172D01*
X0059100Y0093454D01*
X0059100Y0087736D01*
X0059100Y0093454D01*
X0059100Y0093454D01*
X0059100Y0093454D01*
X0059100Y0099172D01*
X0057736Y0099172D01*
X0057383Y0099078D01*
X0057067Y0098895D01*
X0056809Y0098637D01*
X0056766Y0098563D01*
X0055944Y0099385D01*
X0052256Y0099385D01*
X0051600Y0098729D01*
X0051100Y0099229D01*
X0051100Y0100362D01*
X0052428Y0101690D01*
X0057999Y0101690D01*
X0058607Y0101082D01*
X0059738Y0100614D01*
X0060962Y0100614D01*
X0062093Y0101082D01*
X0062958Y0101948D01*
X0063426Y0103078D01*
X0063426Y0104302D01*
X0062958Y0105433D01*
X0062093Y0106298D01*
X0060962Y0106767D01*
X0059738Y0106767D01*
X0060973Y0106762D02*
X0088477Y0106762D01*
X0088488Y0106767D02*
X0087357Y0106298D01*
X0086492Y0105433D01*
X0086024Y0104302D01*
X0086024Y0103078D01*
X0086492Y0101948D01*
X0087357Y0101082D01*
X0088488Y0100614D01*
X0089348Y0100614D01*
X0102274Y0087688D01*
X0102274Y0086828D01*
X0102742Y0085698D01*
X0103607Y0084832D01*
X0104738Y0084364D01*
X0105962Y0084364D01*
X0107093Y0084832D01*
X0107958Y0085698D01*
X0108426Y0086828D01*
X0108426Y0088052D01*
X0107958Y0089183D01*
X0107093Y0090048D01*
X0105962Y0090517D01*
X0105102Y0090517D01*
X0092176Y0103442D01*
X0092176Y0104302D01*
X0091708Y0105433D01*
X0090843Y0106298D01*
X0089712Y0106767D01*
X0088488Y0106767D01*
X0089723Y0106762D02*
X0274819Y0106762D01*
X0274819Y0105564D02*
X0258805Y0105564D01*
X0258678Y0105690D02*
X0215772Y0105690D01*
X0212100Y0102019D01*
X0212100Y0099229D01*
X0211319Y0098448D01*
X0211319Y0095690D01*
X0151451Y0095690D01*
X0150843Y0096298D01*
X0149712Y0096767D01*
X0148488Y0096767D01*
X0147357Y0096298D01*
X0146492Y0095433D01*
X0146024Y0094302D01*
X0146024Y0093078D01*
X0146492Y0091948D01*
X0147357Y0091082D01*
X0148488Y0090614D01*
X0149712Y0090614D01*
X0150843Y0091082D01*
X0151451Y0091690D01*
X0211319Y0091690D01*
X0211319Y0088461D01*
X0212256Y0087523D01*
X0215944Y0087523D01*
X0216300Y0087880D01*
X0216300Y0087290D01*
X0212134Y0087290D01*
X0210811Y0086742D01*
X0209798Y0085730D01*
X0209250Y0084406D01*
X0209250Y0082974D01*
X0209798Y0081651D01*
X0210811Y0080638D01*
X0212134Y0080090D01*
X0218970Y0080090D01*
X0219046Y0080122D01*
X0221082Y0080122D01*
X0221750Y0080790D01*
X0221929Y0080612D01*
X0222246Y0080429D01*
X0222598Y0080334D01*
X0224562Y0080334D01*
X0224562Y0083306D01*
X0225331Y0083306D01*
X0225331Y0084075D01*
X0224562Y0084075D01*
X0224562Y0087046D01*
X0222598Y0087046D01*
X0222246Y0086952D01*
X0221929Y0086769D01*
X0221900Y0086740D01*
X0221900Y0088180D01*
X0222067Y0088013D01*
X0222383Y0087830D01*
X0222736Y0087736D01*
X0224100Y0087736D01*
X0225464Y0087736D01*
X0225817Y0087830D01*
X0226133Y0088013D01*
X0226391Y0088271D01*
X0226434Y0088345D01*
X0227256Y0087523D01*
X0230944Y0087523D01*
X0231881Y0088461D01*
X0231881Y0098448D01*
X0230944Y0099385D01*
X0227256Y0099385D01*
X0226434Y0098563D01*
X0226391Y0098637D01*
X0226133Y0098895D01*
X0225817Y0099078D01*
X0225464Y0099172D01*
X0224100Y0099172D01*
X0224100Y0093454D01*
X0224100Y0087736D01*
X0224100Y0093454D01*
X0224100Y0093454D01*
X0224100Y0093454D01*
X0224100Y0099172D01*
X0222736Y0099172D01*
X0222383Y0099078D01*
X0222067Y0098895D01*
X0221809Y0098637D01*
X0221766Y0098563D01*
X0220944Y0099385D01*
X0217256Y0099385D01*
X0216600Y0098729D01*
X0216100Y0099229D01*
X0216100Y0100362D01*
X0217428Y0101690D01*
X0257022Y0101690D01*
X0265850Y0092862D01*
X0265850Y0053269D01*
X0235772Y0023190D01*
X0211451Y0023190D01*
X0210843Y0023798D01*
X0209712Y0024267D01*
X0208488Y0024267D01*
X0207357Y0023798D01*
X0206492Y0022933D01*
X0206024Y0021802D01*
X0206024Y0020578D01*
X0206492Y0019448D01*
X0207357Y0018582D01*
X0208488Y0018114D01*
X0209712Y0018114D01*
X0210843Y0018582D01*
X0211451Y0019190D01*
X0237428Y0019190D01*
X0238600Y0020362D01*
X0269850Y0051612D01*
X0269850Y0094519D01*
X0268678Y0095690D01*
X0258678Y0105690D01*
X0260003Y0104365D02*
X0274819Y0104365D01*
X0274819Y0103167D02*
X0261202Y0103167D01*
X0262400Y0101968D02*
X0274819Y0101968D01*
X0274819Y0100770D02*
X0263599Y0100770D01*
X0264798Y0099571D02*
X0274819Y0099571D01*
X0274819Y0098373D02*
X0265996Y0098373D01*
X0267195Y0097174D02*
X0274819Y0097174D01*
X0274819Y0095976D02*
X0268393Y0095976D01*
X0268678Y0095690D02*
X0268678Y0095690D01*
X0269592Y0094777D02*
X0274819Y0094777D01*
X0274819Y0093579D02*
X0269850Y0093579D01*
X0269850Y0092380D02*
X0274819Y0092380D01*
X0274819Y0091182D02*
X0269850Y0091182D01*
X0269850Y0089983D02*
X0274819Y0089983D01*
X0274819Y0088785D02*
X0269850Y0088785D01*
X0269850Y0087586D02*
X0274819Y0087586D01*
X0274819Y0086388D02*
X0269850Y0086388D01*
X0269850Y0085189D02*
X0274819Y0085189D01*
X0274819Y0083991D02*
X0269850Y0083991D01*
X0269850Y0082792D02*
X0274819Y0082792D01*
X0274819Y0081594D02*
X0269850Y0081594D01*
X0269850Y0080395D02*
X0274819Y0080395D01*
X0274819Y0079196D02*
X0269850Y0079196D01*
X0269850Y0077998D02*
X0274819Y0077998D01*
X0274819Y0076799D02*
X0269850Y0076799D01*
X0269850Y0075601D02*
X0274819Y0075601D01*
X0274819Y0074402D02*
X0269850Y0074402D01*
X0269850Y0073204D02*
X0274819Y0073204D01*
X0274819Y0072005D02*
X0269850Y0072005D01*
X0269850Y0070807D02*
X0274819Y0070807D01*
X0274819Y0069608D02*
X0269850Y0069608D01*
X0269850Y0068410D02*
X0274819Y0068410D01*
X0274819Y0067211D02*
X0269850Y0067211D01*
X0269850Y0066013D02*
X0274819Y0066013D01*
X0274819Y0064814D02*
X0269850Y0064814D01*
X0269850Y0063616D02*
X0274819Y0063616D01*
X0274819Y0062417D02*
X0269850Y0062417D01*
X0269850Y0061219D02*
X0274819Y0061219D01*
X0274819Y0060020D02*
X0269850Y0060020D01*
X0269850Y0058822D02*
X0274819Y0058822D01*
X0274819Y0057623D02*
X0269850Y0057623D01*
X0269850Y0056425D02*
X0274819Y0056425D01*
X0274819Y0055226D02*
X0269850Y0055226D01*
X0269850Y0054028D02*
X0274819Y0054028D01*
X0274819Y0052829D02*
X0269850Y0052829D01*
X0269850Y0051631D02*
X0274819Y0051631D01*
X0274819Y0050432D02*
X0268670Y0050432D01*
X0267472Y0049234D02*
X0274819Y0049234D01*
X0274819Y0048035D02*
X0266273Y0048035D01*
X0265075Y0046837D02*
X0274819Y0046837D01*
X0274819Y0045638D02*
X0263876Y0045638D01*
X0262678Y0044440D02*
X0274819Y0044440D01*
X0274819Y0043241D02*
X0261479Y0043241D01*
X0260281Y0042043D02*
X0274819Y0042043D01*
X0274819Y0040844D02*
X0259082Y0040844D01*
X0257884Y0039646D02*
X0274819Y0039646D01*
X0274819Y0038447D02*
X0256685Y0038447D01*
X0255487Y0037249D02*
X0274819Y0037249D01*
X0274819Y0036050D02*
X0254288Y0036050D01*
X0253090Y0034852D02*
X0274819Y0034852D01*
X0274819Y0033653D02*
X0251891Y0033653D01*
X0250693Y0032455D02*
X0256198Y0032455D01*
X0253846Y0031256D02*
X0249494Y0031256D01*
X0248296Y0030058D02*
X0252155Y0030058D01*
X0250956Y0028859D02*
X0247097Y0028859D01*
X0245899Y0027661D02*
X0249758Y0027661D01*
X0249043Y0026462D02*
X0244700Y0026462D01*
X0243502Y0025263D02*
X0248432Y0025263D01*
X0247822Y0024065D02*
X0242303Y0024065D01*
X0241105Y0022866D02*
X0247361Y0022866D01*
X0247172Y0021668D02*
X0239906Y0021668D01*
X0238708Y0020469D02*
X0246982Y0020469D01*
X0246792Y0019271D02*
X0237509Y0019271D01*
X0236646Y0024065D02*
X0210199Y0024065D01*
X0208001Y0024065D02*
X0203600Y0024065D01*
X0203600Y0024519D02*
X0202428Y0025690D01*
X0188426Y0039692D01*
X0188426Y0040552D01*
X0187958Y0041683D01*
X0187093Y0042548D01*
X0185962Y0043017D01*
X0184738Y0043017D01*
X0183607Y0042548D01*
X0182742Y0041683D01*
X0182274Y0040552D01*
X0182274Y0039328D01*
X0182742Y0038198D01*
X0183607Y0037332D01*
X0184738Y0036864D01*
X0185598Y0036864D01*
X0199600Y0022862D01*
X0199600Y0018541D01*
X0198992Y0017933D01*
X0198524Y0016802D01*
X0198524Y0015578D01*
X0198992Y0014448D01*
X0199857Y0013582D01*
X0200988Y0013114D01*
X0202212Y0013114D01*
X0203343Y0013582D01*
X0204208Y0014448D01*
X0204676Y0015578D01*
X0204676Y0016802D01*
X0204208Y0017933D01*
X0203600Y0018541D01*
X0203600Y0024519D01*
X0202855Y0025263D02*
X0237845Y0025263D01*
X0239043Y0026462D02*
X0201657Y0026462D01*
X0200458Y0027661D02*
X0240242Y0027661D01*
X0241440Y0028859D02*
X0199260Y0028859D01*
X0198061Y0030058D02*
X0242639Y0030058D01*
X0243837Y0031256D02*
X0196863Y0031256D01*
X0195664Y0032455D02*
X0245036Y0032455D01*
X0246234Y0033653D02*
X0194466Y0033653D01*
X0193267Y0034852D02*
X0247433Y0034852D01*
X0248631Y0036050D02*
X0192069Y0036050D01*
X0190870Y0037249D02*
X0206850Y0037249D01*
X0206850Y0038447D02*
X0189672Y0038447D01*
X0188473Y0039646D02*
X0206850Y0039646D01*
X0206850Y0040844D02*
X0188305Y0040844D01*
X0187598Y0042043D02*
X0206396Y0042043D01*
X0205198Y0043241D02*
X0173600Y0043241D01*
X0173600Y0042043D02*
X0183102Y0042043D01*
X0182395Y0040844D02*
X0173600Y0040844D01*
X0173600Y0039646D02*
X0182274Y0039646D01*
X0182639Y0038447D02*
X0173600Y0038447D01*
X0173600Y0037249D02*
X0183809Y0037249D01*
X0186412Y0036050D02*
X0178443Y0036050D01*
X0178405Y0036194D02*
X0178222Y0036511D01*
X0177964Y0036769D01*
X0177647Y0036952D01*
X0177294Y0037046D01*
X0175331Y0037046D01*
X0175331Y0034075D01*
X0178499Y0034075D01*
X0178499Y0035841D01*
X0178405Y0036194D01*
X0178499Y0034852D02*
X0187610Y0034852D01*
X0188809Y0033653D02*
X0175331Y0033653D01*
X0175331Y0033306D02*
X0178499Y0033306D01*
X0178499Y0031539D01*
X0178405Y0031186D01*
X0178222Y0030870D01*
X0177964Y0030612D01*
X0177647Y0030429D01*
X0177294Y0030334D01*
X0175331Y0030334D01*
X0175331Y0033306D01*
X0175331Y0032455D02*
X0174562Y0032455D01*
X0174562Y0031256D02*
X0175331Y0031256D01*
X0173600Y0030058D02*
X0192404Y0030058D01*
X0191206Y0031256D02*
X0178423Y0031256D01*
X0178499Y0032455D02*
X0190007Y0032455D01*
X0188878Y0027661D02*
X0187226Y0027661D01*
X0187269Y0027586D02*
X0187060Y0027949D01*
X0186764Y0028244D01*
X0186401Y0028454D01*
X0185997Y0028562D01*
X0182899Y0028562D01*
X0179801Y0028562D01*
X0179397Y0028454D01*
X0179035Y0028244D01*
X0178739Y0027949D01*
X0178530Y0027586D01*
X0178421Y0027182D01*
X0178421Y0026367D01*
X0182899Y0026367D01*
X0182899Y0026367D01*
X0182899Y0026367D01*
X0182899Y0026368D02*
X0182899Y0028562D01*
X0182899Y0026368D01*
X0182899Y0026368D01*
X0182899Y0026367D02*
X0187377Y0026367D01*
X0187377Y0027182D01*
X0187269Y0027586D01*
X0187377Y0026462D02*
X0187650Y0026462D01*
X0191822Y0027661D02*
X0194801Y0027661D01*
X0193603Y0028859D02*
X0173600Y0028859D01*
X0173399Y0027661D02*
X0178572Y0027661D01*
X0178421Y0026462D02*
X0172200Y0026462D01*
X0171002Y0025263D02*
X0178312Y0025263D01*
X0178209Y0024065D02*
X0170304Y0024065D01*
X0171178Y0023190D02*
X0171178Y0023190D01*
X0171502Y0022866D02*
X0178209Y0022866D01*
X0178209Y0021668D02*
X0172350Y0021668D01*
X0172350Y0020469D02*
X0173051Y0020469D01*
X0182899Y0026462D02*
X0182899Y0026462D01*
X0182899Y0027661D02*
X0182899Y0027661D01*
X0175331Y0034852D02*
X0174562Y0034852D01*
X0174562Y0036050D02*
X0175331Y0036050D01*
X0169600Y0038447D02*
X0158600Y0038447D01*
X0158600Y0037249D02*
X0162033Y0037249D01*
X0160119Y0036050D02*
X0158600Y0036050D01*
X0158600Y0034852D02*
X0159434Y0034852D01*
X0159250Y0033653D02*
X0158600Y0033653D01*
X0158600Y0032455D02*
X0159465Y0032455D01*
X0159385Y0031256D02*
X0160193Y0031256D01*
X0159676Y0030058D02*
X0169600Y0030058D01*
X0168940Y0028859D02*
X0159482Y0028859D01*
X0158600Y0039646D02*
X0169600Y0039646D01*
X0169600Y0040844D02*
X0158600Y0040844D01*
X0158600Y0042043D02*
X0169600Y0042043D01*
X0169600Y0043241D02*
X0158600Y0043241D01*
X0158600Y0044440D02*
X0169600Y0044440D01*
X0169600Y0045638D02*
X0158600Y0045638D01*
X0158600Y0046837D02*
X0164279Y0046837D01*
X0163244Y0048035D02*
X0158600Y0048035D01*
X0157635Y0049234D02*
X0163244Y0049234D01*
X0163244Y0051631D02*
X0155238Y0051631D01*
X0156436Y0050432D02*
X0166216Y0050432D01*
X0166984Y0050432D02*
X0170646Y0050432D01*
X0170646Y0051190D02*
X0176364Y0051190D01*
X0176364Y0051190D01*
X0182082Y0051190D01*
X0182082Y0049827D01*
X0181987Y0049474D01*
X0181805Y0049157D01*
X0181546Y0048899D01*
X0181472Y0048856D01*
X0182080Y0048249D01*
X0187100Y0053269D01*
X0187100Y0057340D01*
X0187093Y0057332D01*
X0185962Y0056864D01*
X0184738Y0056864D01*
X0183607Y0057332D01*
X0182742Y0058198D01*
X0182331Y0059190D01*
X0182138Y0059190D01*
X0181638Y0058690D01*
X0182294Y0058034D01*
X0182294Y0054346D01*
X0181472Y0053524D01*
X0181546Y0053482D01*
X0181805Y0053223D01*
X0181987Y0052907D01*
X0182082Y0052554D01*
X0182082Y0051190D01*
X0176364Y0051190D01*
X0176364Y0051190D01*
X0170646Y0051190D01*
X0170646Y0051631D02*
X0169956Y0051631D01*
X0169919Y0052829D02*
X0170719Y0052829D01*
X0170879Y0049234D02*
X0169956Y0049234D01*
X0169956Y0048035D02*
X0170434Y0048035D01*
X0170433Y0046837D02*
X0168921Y0046837D01*
X0166984Y0046837D02*
X0166216Y0046837D01*
X0166216Y0048035D02*
X0166984Y0048035D01*
X0166984Y0049234D02*
X0166216Y0049234D01*
X0163281Y0052829D02*
X0150504Y0052829D01*
X0147964Y0055612D02*
X0148222Y0055870D01*
X0148405Y0056186D01*
X0148499Y0056539D01*
X0148499Y0058306D01*
X0145331Y0058306D01*
X0145331Y0055334D01*
X0147294Y0055334D01*
X0147647Y0055429D01*
X0147964Y0055612D01*
X0148469Y0056425D02*
X0158124Y0056425D01*
X0158000Y0057623D02*
X0148499Y0057623D01*
X0148499Y0059075D02*
X0145331Y0059075D01*
X0145331Y0062046D01*
X0147294Y0062046D01*
X0147647Y0061952D01*
X0147964Y0061769D01*
X0148222Y0061511D01*
X0148405Y0061194D01*
X0148499Y0060841D01*
X0148499Y0059075D01*
X0148499Y0060020D02*
X0159089Y0060020D01*
X0158276Y0058822D02*
X0145331Y0058822D01*
X0145331Y0060020D02*
X0144562Y0060020D01*
X0144562Y0061219D02*
X0145331Y0061219D01*
X0148390Y0061219D02*
X0170433Y0061219D01*
X0170433Y0062417D02*
X0168428Y0062417D01*
X0168343Y0062332D02*
X0169208Y0063198D01*
X0169676Y0064328D01*
X0169676Y0065552D01*
X0169208Y0066683D01*
X0168683Y0067208D01*
X0169418Y0067208D01*
X0170523Y0068313D01*
X0170523Y0071587D01*
X0170096Y0072014D01*
X0170196Y0072188D01*
X0170310Y0072614D01*
X0170310Y0073690D01*
X0166541Y0073690D01*
X0166541Y0073690D01*
X0170310Y0073690D01*
X0170310Y0074767D01*
X0170196Y0075192D01*
X0170096Y0075366D01*
X0170523Y0075793D01*
X0170523Y0079068D01*
X0169418Y0080172D01*
X0164316Y0080172D01*
X0164249Y0080334D01*
X0164562Y0080334D01*
X0164562Y0083306D01*
X0165331Y0083306D01*
X0165331Y0084075D01*
X0164562Y0084075D01*
X0164562Y0087046D01*
X0162598Y0087046D01*
X0162246Y0086952D01*
X0161929Y0086769D01*
X0161750Y0086590D01*
X0161082Y0087259D01*
X0159046Y0087259D01*
X0158970Y0087290D01*
X0150884Y0087290D01*
X0149561Y0086742D01*
X0148548Y0085730D01*
X0148000Y0084406D01*
X0148000Y0082974D01*
X0148548Y0081651D01*
X0149561Y0080638D01*
X0150884Y0080090D01*
X0153700Y0080090D01*
X0152677Y0079068D01*
X0152677Y0076490D01*
X0147879Y0076490D01*
X0147212Y0076767D01*
X0145988Y0076767D01*
X0144857Y0076298D01*
X0143992Y0075433D01*
X0143524Y0074302D01*
X0143524Y0073078D01*
X0143992Y0071948D01*
X0144857Y0071082D01*
X0145988Y0070614D01*
X0147212Y0070614D01*
X0147317Y0070658D01*
X0147274Y0070552D01*
X0147274Y0069328D01*
X0147742Y0068198D01*
X0148607Y0067332D01*
X0149738Y0066864D01*
X0150962Y0066864D01*
X0152093Y0067332D01*
X0152701Y0067940D01*
X0153050Y0067940D01*
X0153782Y0067208D01*
X0158692Y0067208D01*
X0158524Y0066802D01*
X0158524Y0065578D01*
X0158992Y0064448D01*
X0159857Y0063582D01*
X0160988Y0063114D01*
X0162212Y0063114D01*
X0163343Y0063582D01*
X0163689Y0063929D01*
X0163992Y0063198D01*
X0164857Y0062332D01*
X0165988Y0061864D01*
X0167212Y0061864D01*
X0168343Y0062332D01*
X0169381Y0063616D02*
X0171015Y0063616D01*
X0169676Y0064814D02*
X0185147Y0064814D01*
X0183949Y0066013D02*
X0169486Y0066013D01*
X0169421Y0067211D02*
X0182750Y0067211D01*
X0181552Y0068410D02*
X0170523Y0068410D01*
X0170523Y0069608D02*
X0180353Y0069608D01*
X0179155Y0070807D02*
X0170523Y0070807D01*
X0170105Y0072005D02*
X0177956Y0072005D01*
X0176758Y0073204D02*
X0170310Y0073204D01*
X0170310Y0074402D02*
X0175559Y0074402D01*
X0174361Y0075601D02*
X0170331Y0075601D01*
X0170523Y0076799D02*
X0171640Y0076799D01*
X0171057Y0077998D02*
X0170523Y0077998D01*
X0170394Y0079196D02*
X0171024Y0079196D01*
X0171476Y0080395D02*
X0167521Y0080395D01*
X0167647Y0080429D02*
X0167964Y0080612D01*
X0168222Y0080870D01*
X0168405Y0081186D01*
X0168499Y0081539D01*
X0168499Y0083306D01*
X0165331Y0083306D01*
X0165331Y0080334D01*
X0167294Y0080334D01*
X0167647Y0080429D01*
X0168499Y0081594D02*
X0173070Y0081594D01*
X0175130Y0081594D02*
X0179412Y0081594D01*
X0178410Y0080395D02*
X0176724Y0080395D01*
X0177176Y0079196D02*
X0178000Y0079196D01*
X0178000Y0077998D02*
X0177621Y0077998D01*
X0181216Y0074402D02*
X0184373Y0074402D01*
X0182415Y0073204D02*
X0208647Y0073204D01*
X0207420Y0072005D02*
X0183613Y0072005D01*
X0184812Y0070807D02*
X0206740Y0070807D01*
X0206300Y0069608D02*
X0186010Y0069608D01*
X0187209Y0068410D02*
X0194469Y0068410D01*
X0193693Y0067211D02*
X0188407Y0067211D01*
X0189606Y0066013D02*
X0193524Y0066013D01*
X0193840Y0064814D02*
X0190804Y0064814D01*
X0191100Y0063616D02*
X0191487Y0063616D01*
X0186346Y0063616D02*
X0181713Y0063616D01*
X0181770Y0058822D02*
X0182483Y0058822D01*
X0182294Y0057623D02*
X0183316Y0057623D01*
X0182294Y0056425D02*
X0187100Y0056425D01*
X0187100Y0055226D02*
X0182294Y0055226D01*
X0181976Y0054028D02*
X0187100Y0054028D01*
X0186661Y0052829D02*
X0182008Y0052829D01*
X0182082Y0051631D02*
X0185462Y0051631D01*
X0184264Y0050432D02*
X0182082Y0050432D01*
X0181849Y0049234D02*
X0183065Y0049234D01*
X0186325Y0046837D02*
X0190906Y0046837D01*
X0190907Y0048035D02*
X0187523Y0048035D01*
X0188722Y0049234D02*
X0191018Y0049234D01*
X0190906Y0050432D02*
X0189920Y0050432D01*
X0190906Y0045638D02*
X0185126Y0045638D01*
X0184850Y0045362D02*
X0184850Y0045362D01*
X0183928Y0044440D02*
X0190906Y0044440D01*
X0196836Y0051190D02*
X0201600Y0051190D01*
X0204100Y0048690D01*
X0204100Y0047450D01*
X0211600Y0039950D01*
X0215340Y0043690D01*
X0236600Y0043690D01*
X0244476Y0048035D02*
X0260616Y0048035D01*
X0259418Y0046837D02*
X0245618Y0046837D01*
X0246115Y0045638D02*
X0258219Y0045638D01*
X0257021Y0044440D02*
X0246450Y0044440D01*
X0246450Y0043241D02*
X0255822Y0043241D01*
X0254624Y0042043D02*
X0246239Y0042043D01*
X0245743Y0040844D02*
X0253425Y0040844D01*
X0252227Y0039646D02*
X0244777Y0039646D01*
X0243027Y0038447D02*
X0251028Y0038447D01*
X0249830Y0037249D02*
X0216350Y0037249D01*
X0216350Y0038447D02*
X0230173Y0038447D01*
X0228423Y0039646D02*
X0216350Y0039646D01*
X0216350Y0040844D02*
X0227457Y0040844D01*
X0227582Y0046837D02*
X0216350Y0046837D01*
X0216350Y0048035D02*
X0228724Y0048035D01*
X0230898Y0049234D02*
X0216350Y0049234D01*
X0216176Y0050432D02*
X0263014Y0050432D01*
X0264212Y0051631D02*
X0213800Y0051631D01*
X0213800Y0052829D02*
X0265411Y0052829D01*
X0265850Y0054028D02*
X0214193Y0054028D01*
X0215631Y0055226D02*
X0265850Y0055226D01*
X0265850Y0056425D02*
X0216398Y0056425D01*
X0216895Y0057623D02*
X0265850Y0057623D01*
X0265850Y0058822D02*
X0243932Y0058822D01*
X0245151Y0060020D02*
X0265850Y0060020D01*
X0265850Y0061219D02*
X0245898Y0061219D01*
X0246394Y0062417D02*
X0265850Y0062417D01*
X0265850Y0063616D02*
X0246450Y0063616D01*
X0246450Y0064814D02*
X0265850Y0064814D01*
X0265850Y0066013D02*
X0245960Y0066013D01*
X0245300Y0067211D02*
X0265850Y0067211D01*
X0265850Y0068410D02*
X0244102Y0068410D01*
X0236600Y0063690D02*
X0216600Y0063690D01*
X0211600Y0068690D01*
X0204100Y0061190D01*
X0204100Y0058690D01*
X0201600Y0056190D01*
X0196836Y0056190D01*
X0196836Y0061190D02*
X0196600Y0061427D01*
X0196600Y0066190D01*
X0199507Y0067211D02*
X0206476Y0067211D01*
X0206300Y0068410D02*
X0198731Y0068410D01*
X0199676Y0066013D02*
X0205811Y0066013D01*
X0204613Y0064814D02*
X0199360Y0064814D01*
X0202185Y0063616D02*
X0203414Y0063616D01*
X0203189Y0063390D02*
X0203189Y0063390D01*
X0211600Y0058690D02*
X0211600Y0047430D01*
X0203999Y0044440D02*
X0202767Y0044440D01*
X0202767Y0045638D02*
X0202801Y0045638D01*
X0216900Y0058822D02*
X0229268Y0058822D01*
X0228049Y0060020D02*
X0216786Y0060020D01*
X0216289Y0061219D02*
X0227302Y0061219D01*
X0227240Y0066013D02*
X0217389Y0066013D01*
X0216724Y0067211D02*
X0227900Y0067211D01*
X0229098Y0068410D02*
X0216900Y0068410D01*
X0216900Y0069608D02*
X0265850Y0069608D01*
X0265850Y0070807D02*
X0216460Y0070807D01*
X0215780Y0072005D02*
X0265850Y0072005D01*
X0265850Y0073204D02*
X0214553Y0073204D01*
X0211398Y0080395D02*
X0199090Y0080395D01*
X0199090Y0081594D02*
X0209856Y0081594D01*
X0209325Y0082792D02*
X0198712Y0082792D01*
X0198813Y0082692D02*
X0198554Y0082950D01*
X0198238Y0083133D01*
X0197885Y0083227D01*
X0196020Y0083227D01*
X0196020Y0079173D01*
X0199090Y0079173D01*
X0199090Y0082023D01*
X0198995Y0082375D01*
X0198813Y0082692D01*
X0196020Y0082792D02*
X0195054Y0082792D01*
X0195054Y0083227D02*
X0193189Y0083227D01*
X0192836Y0083133D01*
X0192520Y0082950D01*
X0192261Y0082692D01*
X0192079Y0082375D01*
X0191984Y0082023D01*
X0191984Y0079173D01*
X0195054Y0079173D01*
X0195054Y0078208D01*
X0191984Y0078208D01*
X0191984Y0075358D01*
X0192079Y0075005D01*
X0192261Y0074689D01*
X0192520Y0074430D01*
X0192836Y0074248D01*
X0193189Y0074153D01*
X0195054Y0074153D01*
X0195054Y0078208D01*
X0196020Y0078208D01*
X0196020Y0079173D01*
X0195054Y0079173D01*
X0195054Y0083227D01*
X0195054Y0081594D02*
X0196020Y0081594D01*
X0196020Y0080395D02*
X0195054Y0080395D01*
X0195054Y0079196D02*
X0196020Y0079196D01*
X0196020Y0078208D02*
X0199090Y0078208D01*
X0199090Y0075358D01*
X0198995Y0075005D01*
X0198813Y0074689D01*
X0198554Y0074430D01*
X0198238Y0074248D01*
X0197885Y0074153D01*
X0196020Y0074153D01*
X0196020Y0078208D01*
X0196020Y0077998D02*
X0195054Y0077998D01*
X0195054Y0076799D02*
X0196020Y0076799D01*
X0196020Y0075601D02*
X0195054Y0075601D01*
X0195054Y0074402D02*
X0196020Y0074402D01*
X0198506Y0074402D02*
X0265850Y0074402D01*
X0265850Y0075601D02*
X0199090Y0075601D01*
X0199090Y0076799D02*
X0265850Y0076799D01*
X0265850Y0077998D02*
X0199090Y0077998D01*
X0199090Y0079196D02*
X0265850Y0079196D01*
X0265850Y0080395D02*
X0227521Y0080395D01*
X0227647Y0080429D02*
X0227964Y0080612D01*
X0228222Y0080870D01*
X0228405Y0081186D01*
X0228499Y0081539D01*
X0228499Y0083306D01*
X0225331Y0083306D01*
X0225331Y0080334D01*
X0227294Y0080334D01*
X0227647Y0080429D01*
X0228499Y0081594D02*
X0265850Y0081594D01*
X0265850Y0082792D02*
X0228499Y0082792D01*
X0228499Y0084075D02*
X0228499Y0085841D01*
X0228405Y0086194D01*
X0228222Y0086511D01*
X0227964Y0086769D01*
X0227647Y0086952D01*
X0227294Y0087046D01*
X0225331Y0087046D01*
X0225331Y0084075D01*
X0228499Y0084075D01*
X0228499Y0085189D02*
X0265850Y0085189D01*
X0265850Y0083991D02*
X0225331Y0083991D01*
X0225331Y0085189D02*
X0224562Y0085189D01*
X0224562Y0086388D02*
X0225331Y0086388D01*
X0227193Y0087586D02*
X0221900Y0087586D01*
X0224100Y0088785D02*
X0224100Y0088785D01*
X0224100Y0089983D02*
X0224100Y0089983D01*
X0224100Y0091182D02*
X0224100Y0091182D01*
X0224100Y0092380D02*
X0224100Y0092380D01*
X0224100Y0093579D02*
X0224100Y0093579D01*
X0224100Y0094777D02*
X0224100Y0094777D01*
X0224100Y0095976D02*
X0224100Y0095976D01*
X0224100Y0097174D02*
X0224100Y0097174D01*
X0224100Y0098373D02*
X0224100Y0098373D01*
X0231881Y0098373D02*
X0260339Y0098373D01*
X0259141Y0099571D02*
X0216100Y0099571D01*
X0216508Y0100770D02*
X0257942Y0100770D01*
X0261538Y0097174D02*
X0231881Y0097174D01*
X0231881Y0095976D02*
X0262736Y0095976D01*
X0263935Y0094777D02*
X0231881Y0094777D01*
X0231881Y0093579D02*
X0265133Y0093579D01*
X0265850Y0092380D02*
X0231881Y0092380D01*
X0231881Y0091182D02*
X0265850Y0091182D01*
X0265850Y0089983D02*
X0231881Y0089983D01*
X0231881Y0088785D02*
X0265850Y0088785D01*
X0265850Y0087586D02*
X0231007Y0087586D01*
X0228293Y0086388D02*
X0265850Y0086388D01*
X0274819Y0107961D02*
X0003381Y0107961D01*
X0003381Y0104365D02*
X0049447Y0104365D01*
X0048248Y0103167D02*
X0003381Y0103167D01*
X0003381Y0101968D02*
X0047100Y0101968D01*
X0047100Y0100770D02*
X0003381Y0100770D01*
X0003381Y0099571D02*
X0047100Y0099571D01*
X0046319Y0098373D02*
X0003381Y0098373D01*
X0003381Y0097174D02*
X0046319Y0097174D01*
X0046319Y0095976D02*
X0003381Y0095976D01*
X0003381Y0094777D02*
X0046319Y0094777D01*
X0046319Y0093579D02*
X0003381Y0093579D01*
X0003381Y0092380D02*
X0046319Y0092380D01*
X0046319Y0091182D02*
X0003381Y0091182D01*
X0003381Y0089983D02*
X0046319Y0089983D01*
X0046319Y0088785D02*
X0003381Y0088785D01*
X0003381Y0087586D02*
X0047193Y0087586D01*
X0045456Y0086388D02*
X0003381Y0086388D01*
X0003381Y0085189D02*
X0044574Y0085189D01*
X0044250Y0083991D02*
X0003381Y0083991D01*
X0003381Y0082792D02*
X0044325Y0082792D01*
X0044856Y0081594D02*
X0003381Y0081594D01*
X0003381Y0080395D02*
X0046398Y0080395D01*
X0051007Y0087586D02*
X0051300Y0087586D01*
X0056900Y0087586D02*
X0062193Y0087586D01*
X0062294Y0087046D02*
X0060331Y0087046D01*
X0060331Y0084075D01*
X0063499Y0084075D01*
X0063499Y0085841D01*
X0063405Y0086194D01*
X0063222Y0086511D01*
X0062964Y0086769D01*
X0062647Y0086952D01*
X0062294Y0087046D01*
X0063293Y0086388D02*
X0102456Y0086388D01*
X0102274Y0087586D02*
X0066007Y0087586D01*
X0066881Y0088785D02*
X0101177Y0088785D01*
X0099979Y0089983D02*
X0066881Y0089983D01*
X0066881Y0091182D02*
X0098780Y0091182D01*
X0097582Y0092380D02*
X0066881Y0092380D01*
X0066881Y0093579D02*
X0096383Y0093579D01*
X0095185Y0094777D02*
X0066881Y0094777D01*
X0066881Y0095976D02*
X0093986Y0095976D01*
X0092788Y0097174D02*
X0066881Y0097174D01*
X0066881Y0098373D02*
X0091589Y0098373D01*
X0090391Y0099571D02*
X0051100Y0099571D01*
X0051508Y0100770D02*
X0059362Y0100770D01*
X0061338Y0100770D02*
X0088112Y0100770D01*
X0086483Y0101968D02*
X0062967Y0101968D01*
X0063426Y0103167D02*
X0086024Y0103167D01*
X0086050Y0104365D02*
X0063400Y0104365D01*
X0062827Y0105564D02*
X0086623Y0105564D01*
X0091577Y0105564D02*
X0215645Y0105564D01*
X0214447Y0104365D02*
X0092150Y0104365D01*
X0092452Y0103167D02*
X0213248Y0103167D01*
X0212100Y0101968D02*
X0093650Y0101968D01*
X0094849Y0100770D02*
X0212100Y0100770D01*
X0212100Y0099571D02*
X0096048Y0099571D01*
X0097246Y0098373D02*
X0211319Y0098373D01*
X0211319Y0097174D02*
X0098445Y0097174D01*
X0099643Y0095976D02*
X0147035Y0095976D01*
X0146220Y0094777D02*
X0100842Y0094777D01*
X0102040Y0093579D02*
X0146024Y0093579D01*
X0146313Y0092380D02*
X0123511Y0092380D01*
X0124416Y0091182D02*
X0147258Y0091182D01*
X0150942Y0091182D02*
X0211319Y0091182D01*
X0211319Y0089983D02*
X0124676Y0089983D01*
X0124451Y0088785D02*
X0211319Y0088785D01*
X0212193Y0087586D02*
X0123600Y0087586D01*
X0124562Y0086388D02*
X0125331Y0086388D01*
X0125331Y0087046D02*
X0125331Y0084075D01*
X0128499Y0084075D01*
X0128499Y0085841D01*
X0128405Y0086194D01*
X0128222Y0086511D01*
X0127964Y0086769D01*
X0127647Y0086952D01*
X0127294Y0087046D01*
X0125331Y0087046D01*
X0125331Y0085189D02*
X0124562Y0085189D01*
X0125331Y0083991D02*
X0148000Y0083991D01*
X0148075Y0082792D02*
X0128499Y0082792D01*
X0128499Y0083306D02*
X0125331Y0083306D01*
X0125331Y0080334D01*
X0127294Y0080334D01*
X0127647Y0080429D01*
X0127964Y0080612D01*
X0128222Y0080870D01*
X0128405Y0081186D01*
X0128499Y0081539D01*
X0128499Y0083306D01*
X0128499Y0081594D02*
X0148606Y0081594D01*
X0150148Y0080395D02*
X0127521Y0080395D01*
X0125331Y0080395D02*
X0124562Y0080395D01*
X0124562Y0081594D02*
X0125331Y0081594D01*
X0125331Y0082792D02*
X0124562Y0082792D01*
X0128499Y0085189D02*
X0148324Y0085189D01*
X0149206Y0086388D02*
X0128293Y0086388D01*
X0119689Y0092380D02*
X0103239Y0092380D01*
X0104437Y0091182D02*
X0118784Y0091182D01*
X0118524Y0089983D02*
X0107158Y0089983D01*
X0108123Y0088785D02*
X0118749Y0088785D01*
X0119600Y0087586D02*
X0108426Y0087586D01*
X0108244Y0086388D02*
X0109206Y0086388D01*
X0108324Y0085189D02*
X0107449Y0085189D01*
X0108000Y0083991D02*
X0060331Y0083991D01*
X0060331Y0083306D02*
X0063499Y0083306D01*
X0063499Y0081539D01*
X0063405Y0081186D01*
X0063222Y0080870D01*
X0062964Y0080612D01*
X0062647Y0080429D01*
X0062294Y0080334D01*
X0060331Y0080334D01*
X0060331Y0083306D01*
X0060331Y0082792D02*
X0059562Y0082792D01*
X0059562Y0081594D02*
X0060331Y0081594D01*
X0060331Y0080395D02*
X0059562Y0080395D01*
X0057372Y0080395D02*
X0056355Y0080395D01*
X0059562Y0085189D02*
X0060331Y0085189D01*
X0060331Y0086388D02*
X0059562Y0086388D01*
X0059100Y0088785D02*
X0059100Y0088785D01*
X0059100Y0089983D02*
X0059100Y0089983D01*
X0059100Y0091182D02*
X0059100Y0091182D01*
X0059100Y0092380D02*
X0059100Y0092380D01*
X0059100Y0093579D02*
X0059100Y0093579D01*
X0059100Y0094777D02*
X0059100Y0094777D01*
X0059100Y0095976D02*
X0059100Y0095976D01*
X0059100Y0097174D02*
X0059100Y0097174D01*
X0059100Y0098373D02*
X0059100Y0098373D01*
X0066881Y0109159D02*
X0211319Y0109159D01*
X0211319Y0110358D02*
X0187962Y0110358D01*
X0187316Y0110090D02*
X0188639Y0110638D01*
X0189652Y0111651D01*
X0190200Y0112974D01*
X0190200Y0115988D01*
X0190412Y0115988D01*
X0191350Y0116925D01*
X0191350Y0122581D01*
X0190412Y0123519D01*
X0182788Y0123519D01*
X0181850Y0122581D01*
X0181850Y0116925D01*
X0182788Y0115988D01*
X0183000Y0115988D01*
X0183000Y0112974D01*
X0183548Y0111651D01*
X0184561Y0110638D01*
X0185884Y0110090D01*
X0187316Y0110090D01*
X0185238Y0110358D02*
X0066881Y0110358D01*
X0066881Y0111556D02*
X0183643Y0111556D01*
X0183091Y0112755D02*
X0066881Y0112755D01*
X0066881Y0113953D02*
X0183000Y0113953D01*
X0183000Y0115152D02*
X0066881Y0115152D01*
X0066881Y0116350D02*
X0142425Y0116350D01*
X0150775Y0116350D02*
X0155748Y0116350D01*
X0155748Y0123541D02*
X0131153Y0123541D01*
X0131153Y0124740D02*
X0141910Y0124740D01*
X0141850Y0124799D02*
X0142788Y0123862D01*
X0150412Y0123862D01*
X0151350Y0124799D01*
X0151350Y0130455D01*
X0150412Y0131393D01*
X0150200Y0131393D01*
X0150200Y0134406D01*
X0149652Y0135730D01*
X0148639Y0136742D01*
X0147316Y0137290D01*
X0145884Y0137290D01*
X0144561Y0136742D01*
X0143548Y0135730D01*
X0143000Y0134406D01*
X0143000Y0131393D01*
X0142788Y0131393D01*
X0141850Y0130455D01*
X0141850Y0124799D01*
X0141850Y0125938D02*
X0131153Y0125938D01*
X0141850Y0127137D02*
X0120200Y0127137D01*
X0120200Y0128335D02*
X0141850Y0128335D01*
X0141850Y0129534D02*
X0120200Y0129534D01*
X0120200Y0130732D02*
X0142127Y0130732D01*
X0143000Y0131931D02*
X0120200Y0131931D01*
X0120200Y0133130D02*
X0143000Y0133130D01*
X0143000Y0134328D02*
X0120200Y0134328D01*
X0120200Y0135527D02*
X0143464Y0135527D01*
X0144544Y0136725D02*
X0119835Y0136725D01*
X0118895Y0137924D02*
X0183800Y0137924D01*
X0183800Y0136725D02*
X0148656Y0136725D01*
X0149736Y0135527D02*
X0183800Y0135527D01*
X0183800Y0134328D02*
X0150200Y0134328D01*
X0150200Y0133130D02*
X0183800Y0133130D01*
X0183800Y0131931D02*
X0176764Y0131931D01*
X0177452Y0130732D02*
X0182127Y0130732D01*
X0181910Y0124740D02*
X0177452Y0124740D01*
X0177452Y0123541D02*
X0216900Y0123541D01*
X0216900Y0122343D02*
X0191350Y0122343D01*
X0191350Y0121144D02*
X0216900Y0121144D01*
X0216900Y0119946D02*
X0191350Y0119946D01*
X0191350Y0118747D02*
X0211319Y0118747D01*
X0211319Y0117549D02*
X0191350Y0117549D01*
X0190775Y0116350D02*
X0207483Y0116350D01*
X0206376Y0115152D02*
X0190200Y0115152D01*
X0190200Y0113953D02*
X0206024Y0113953D01*
X0206158Y0112755D02*
X0190109Y0112755D01*
X0189557Y0111556D02*
X0206883Y0111556D01*
X0209100Y0113690D02*
X0213864Y0113690D01*
X0214100Y0113927D01*
X0211319Y0116350D02*
X0210717Y0116350D01*
X0219100Y0113927D02*
X0219100Y0127450D01*
X0217860Y0128690D01*
X0217860Y0147430D01*
X0211600Y0153690D01*
X0217325Y0153504D02*
X0225875Y0153504D01*
X0225875Y0152306D02*
X0217325Y0152306D01*
X0217325Y0151107D02*
X0225875Y0151107D01*
X0224707Y0149909D02*
X0218493Y0149909D01*
X0219691Y0148710D02*
X0223509Y0148710D01*
X0223140Y0147512D02*
X0220060Y0147512D01*
X0220060Y0146313D02*
X0223140Y0146313D01*
X0223140Y0145115D02*
X0220060Y0145115D01*
X0220060Y0143916D02*
X0223140Y0143916D01*
X0223140Y0142718D02*
X0220060Y0142718D01*
X0220060Y0141519D02*
X0223140Y0141519D01*
X0223140Y0140321D02*
X0220060Y0140321D01*
X0220060Y0139122D02*
X0223140Y0139122D01*
X0223140Y0137924D02*
X0220060Y0137924D01*
X0220060Y0136725D02*
X0223140Y0136725D01*
X0223140Y0135527D02*
X0220060Y0135527D01*
X0220060Y0134328D02*
X0223140Y0134328D01*
X0222202Y0133130D02*
X0220998Y0133130D01*
X0215660Y0134328D02*
X0189400Y0134328D01*
X0189400Y0133130D02*
X0214721Y0133130D01*
X0214094Y0131931D02*
X0189400Y0131931D01*
X0191072Y0130732D02*
X0214094Y0130732D01*
X0214094Y0129534D02*
X0191350Y0129534D01*
X0191350Y0128335D02*
X0214094Y0128335D01*
X0214094Y0127137D02*
X0191350Y0127137D01*
X0191350Y0125938D02*
X0214094Y0125938D01*
X0214232Y0124740D02*
X0191290Y0124740D01*
X0181850Y0122343D02*
X0177452Y0122343D01*
X0177452Y0121144D02*
X0181850Y0121144D01*
X0181850Y0119946D02*
X0177452Y0119946D01*
X0177452Y0118747D02*
X0181850Y0118747D01*
X0181850Y0117549D02*
X0177452Y0117549D01*
X0177452Y0116350D02*
X0182425Y0116350D01*
X0167066Y0131931D02*
X0166134Y0131931D01*
X0156436Y0131931D02*
X0150200Y0131931D01*
X0151072Y0130732D02*
X0155748Y0130732D01*
X0155748Y0129534D02*
X0151350Y0129534D01*
X0151350Y0128335D02*
X0155748Y0128335D01*
X0155748Y0127137D02*
X0151350Y0127137D01*
X0151350Y0125938D02*
X0155748Y0125938D01*
X0155748Y0124740D02*
X0151290Y0124740D01*
X0127640Y0117549D02*
X0066881Y0117549D01*
X0066881Y0118747D02*
X0104500Y0118747D01*
X0104325Y0118837D02*
X0104934Y0118526D01*
X0105584Y0118315D01*
X0106216Y0118215D01*
X0106216Y0122164D01*
X0106984Y0122164D01*
X0106984Y0118215D01*
X0107616Y0118315D01*
X0108266Y0118526D01*
X0108875Y0118837D01*
X0109427Y0119238D01*
X0109910Y0119721D01*
X0110312Y0120274D01*
X0110622Y0120882D01*
X0110833Y0121532D01*
X0110933Y0122164D01*
X0106984Y0122164D01*
X0106984Y0122933D01*
X0106216Y0122933D01*
X0106216Y0126882D01*
X0105584Y0126782D01*
X0104934Y0126571D01*
X0104325Y0126261D01*
X0103773Y0125859D01*
X0103290Y0125376D01*
X0102888Y0124823D01*
X0102578Y0124215D01*
X0102367Y0123565D01*
X0102267Y0122933D01*
X0106216Y0122933D01*
X0106216Y0122164D01*
X0102267Y0122164D01*
X0102367Y0121532D01*
X0102578Y0120882D01*
X0102888Y0120274D01*
X0103290Y0119721D01*
X0103773Y0119238D01*
X0104325Y0118837D01*
X0103126Y0119946D02*
X0061300Y0119946D01*
X0061300Y0121144D02*
X0102493Y0121144D01*
X0102363Y0123541D02*
X0061300Y0123541D01*
X0061300Y0122343D02*
X0106216Y0122343D01*
X0106984Y0122343D02*
X0112047Y0122343D01*
X0112083Y0123541D02*
X0110837Y0123541D01*
X0110833Y0123565D02*
X0110622Y0124215D01*
X0110312Y0124823D01*
X0109910Y0125376D01*
X0109427Y0125859D01*
X0108875Y0126261D01*
X0108266Y0126571D01*
X0107616Y0126782D01*
X0106984Y0126882D01*
X0106984Y0122933D01*
X0110933Y0122933D01*
X0110833Y0123565D01*
X0110355Y0124740D02*
X0112580Y0124740D01*
X0113000Y0125938D02*
X0109318Y0125938D01*
X0106984Y0125938D02*
X0106216Y0125938D01*
X0106216Y0124740D02*
X0106984Y0124740D01*
X0106984Y0123541D02*
X0106216Y0123541D01*
X0106216Y0121144D02*
X0106984Y0121144D01*
X0106984Y0119946D02*
X0106216Y0119946D01*
X0106216Y0118747D02*
X0106984Y0118747D01*
X0108700Y0118747D02*
X0113963Y0118747D01*
X0112764Y0119946D02*
X0110074Y0119946D01*
X0110707Y0121144D02*
X0112254Y0121144D01*
X0119237Y0118747D02*
X0122233Y0118747D01*
X0122047Y0119946D02*
X0120436Y0119946D01*
X0120946Y0121144D02*
X0122047Y0121144D01*
X0122047Y0122343D02*
X0121153Y0122343D01*
X0121117Y0123541D02*
X0122047Y0123541D01*
X0122047Y0124740D02*
X0120620Y0124740D01*
X0120200Y0125938D02*
X0122047Y0125938D01*
X0113000Y0127137D02*
X0064105Y0127137D01*
X0064105Y0128335D02*
X0113000Y0128335D01*
X0113000Y0129534D02*
X0064105Y0129534D01*
X0064105Y0130732D02*
X0113000Y0130732D01*
X0113000Y0131931D02*
X0064105Y0131931D01*
X0063479Y0133130D02*
X0113000Y0133130D01*
X0109822Y0134328D02*
X0108003Y0134328D01*
X0107864Y0134248D02*
X0108180Y0134430D01*
X0108439Y0134689D01*
X0108621Y0135005D01*
X0108716Y0135358D01*
X0108716Y0138208D01*
X0105646Y0138208D01*
X0105646Y0139173D01*
X0108716Y0139173D01*
X0108716Y0142023D01*
X0108621Y0142375D01*
X0108439Y0142692D01*
X0108180Y0142950D01*
X0107864Y0143133D01*
X0107511Y0143227D01*
X0105646Y0143227D01*
X0105646Y0139173D01*
X0104680Y0139173D01*
X0104680Y0138208D01*
X0101610Y0138208D01*
X0101610Y0135358D01*
X0101705Y0135005D01*
X0101887Y0134689D01*
X0102146Y0134430D01*
X0102462Y0134248D01*
X0102815Y0134153D01*
X0104680Y0134153D01*
X0104680Y0138208D01*
X0105646Y0138208D01*
X0105646Y0134153D01*
X0107511Y0134153D01*
X0107864Y0134248D01*
X0108716Y0135527D02*
X0109272Y0135527D01*
X0109272Y0136725D02*
X0108716Y0136725D01*
X0108716Y0137924D02*
X0109272Y0137924D01*
X0109272Y0139122D02*
X0105646Y0139122D01*
X0104680Y0139122D02*
X0062540Y0139122D01*
X0062540Y0137924D02*
X0101610Y0137924D01*
X0101610Y0136725D02*
X0062540Y0136725D01*
X0062540Y0135527D02*
X0101610Y0135527D01*
X0102323Y0134328D02*
X0062540Y0134328D01*
X0062540Y0140321D02*
X0101610Y0140321D01*
X0101610Y0139173D02*
X0104680Y0139173D01*
X0104680Y0143227D01*
X0102815Y0143227D01*
X0102462Y0143133D01*
X0102146Y0142950D01*
X0101887Y0142692D01*
X0101705Y0142375D01*
X0101610Y0142023D01*
X0101610Y0139173D01*
X0101610Y0141519D02*
X0062540Y0141519D01*
X0062540Y0142718D02*
X0101913Y0142718D01*
X0104680Y0142718D02*
X0105646Y0142718D01*
X0105646Y0141519D02*
X0104680Y0141519D01*
X0104680Y0140321D02*
X0105646Y0140321D01*
X0105646Y0137924D02*
X0104680Y0137924D01*
X0104680Y0136725D02*
X0105646Y0136725D01*
X0105646Y0135527D02*
X0104680Y0135527D01*
X0104680Y0134328D02*
X0105646Y0134328D01*
X0108716Y0140321D02*
X0109272Y0140321D01*
X0109272Y0141519D02*
X0108716Y0141519D01*
X0108413Y0142718D02*
X0109487Y0142718D01*
X0116802Y0140321D02*
X0178169Y0140321D01*
X0178492Y0139122D02*
X0117696Y0139122D01*
X0123375Y0152306D02*
X0099658Y0152306D01*
X0099956Y0153504D02*
X0123375Y0153504D01*
X0103882Y0125938D02*
X0064105Y0125938D01*
X0063967Y0124740D02*
X0102845Y0124740D01*
X0065278Y0143916D02*
X0062540Y0143916D01*
X0062540Y0145115D02*
X0062954Y0145115D01*
X0050660Y0141519D02*
X0003381Y0141519D01*
X0003381Y0140321D02*
X0050660Y0140321D01*
X0050660Y0139122D02*
X0003381Y0139122D01*
X0003381Y0137924D02*
X0050660Y0137924D01*
X0050660Y0136725D02*
X0003381Y0136725D01*
X0003381Y0135527D02*
X0050660Y0135527D01*
X0016600Y0163790D02*
X0016600Y0163790D01*
X0013440Y0164291D02*
X0003381Y0164291D01*
X0003381Y0165489D02*
X0010092Y0165489D01*
X0007790Y0166688D02*
X0003381Y0166688D01*
X0003381Y0167886D02*
X0006592Y0167886D01*
X0005393Y0169085D02*
X0003381Y0169085D01*
X0003381Y0170283D02*
X0004367Y0170283D01*
X0004546Y0169932D02*
X0004546Y0169932D01*
X0003756Y0171482D02*
X0003381Y0171482D01*
X0025358Y0166636D02*
X0025358Y0166636D01*
X0063499Y0085189D02*
X0103251Y0085189D01*
X0108075Y0082792D02*
X0094013Y0082792D01*
X0094302Y0082503D02*
X0093365Y0083440D01*
X0087709Y0083440D01*
X0086772Y0082503D01*
X0086772Y0074878D01*
X0087709Y0073941D01*
X0093365Y0073941D01*
X0094302Y0074878D01*
X0094302Y0075090D01*
X0096066Y0075090D01*
X0097389Y0075638D01*
X0098402Y0076651D01*
X0098950Y0077974D01*
X0098950Y0079406D01*
X0098402Y0080730D01*
X0097389Y0081742D01*
X0096066Y0082290D01*
X0094302Y0082290D01*
X0094302Y0082503D01*
X0097538Y0081594D02*
X0108606Y0081594D01*
X0110148Y0080395D02*
X0103756Y0080395D01*
X0101944Y0080395D02*
X0098540Y0080395D01*
X0098950Y0079196D02*
X0100256Y0079196D01*
X0099774Y0077998D02*
X0098950Y0077998D01*
X0098463Y0076799D02*
X0099786Y0076799D01*
X0100339Y0075601D02*
X0097299Y0075601D01*
X0093827Y0074402D02*
X0102145Y0074402D01*
X0103555Y0074402D02*
X0107315Y0074402D01*
X0107274Y0073204D02*
X0003381Y0073204D01*
X0003381Y0074402D02*
X0079694Y0074402D01*
X0079646Y0074430D02*
X0079962Y0074248D01*
X0080315Y0074153D01*
X0082180Y0074153D01*
X0082180Y0078208D01*
X0079110Y0078208D01*
X0079110Y0075358D01*
X0079205Y0075005D01*
X0079387Y0074689D01*
X0079646Y0074430D01*
X0079110Y0075601D02*
X0003381Y0075601D01*
X0003381Y0076799D02*
X0079110Y0076799D01*
X0079110Y0077998D02*
X0003381Y0077998D01*
X0003381Y0079196D02*
X0079110Y0079196D01*
X0079110Y0079173D02*
X0082180Y0079173D01*
X0082180Y0078208D01*
X0083146Y0078208D01*
X0083146Y0079173D01*
X0086216Y0079173D01*
X0086216Y0082023D01*
X0086121Y0082375D01*
X0085939Y0082692D01*
X0085680Y0082950D01*
X0085364Y0083133D01*
X0085011Y0083227D01*
X0083146Y0083227D01*
X0083146Y0079173D01*
X0082180Y0079173D01*
X0082180Y0083227D01*
X0080315Y0083227D01*
X0079962Y0083133D01*
X0079646Y0082950D01*
X0079387Y0082692D01*
X0079205Y0082375D01*
X0079110Y0082023D01*
X0079110Y0079173D01*
X0079110Y0080395D02*
X0062521Y0080395D01*
X0063499Y0081594D02*
X0079110Y0081594D01*
X0079488Y0082792D02*
X0063499Y0082792D01*
X0062399Y0070807D02*
X0003381Y0070807D01*
X0003381Y0072005D02*
X0103064Y0072005D01*
X0102379Y0070807D02*
X0096334Y0070807D01*
X0097050Y0069608D02*
X0102274Y0069608D01*
X0102654Y0068410D02*
X0097176Y0068410D01*
X0096817Y0067211D02*
X0103899Y0067211D01*
X0106801Y0067211D02*
X0113779Y0067211D01*
X0114600Y0066013D02*
X0095675Y0066013D01*
X0096487Y0063616D02*
X0091854Y0063616D01*
X0091100Y0062417D02*
X0094374Y0062417D01*
X0091653Y0061219D02*
X0091100Y0061219D01*
X0087100Y0063616D02*
X0086713Y0063616D01*
X0087396Y0064814D02*
X0072327Y0064814D01*
X0071350Y0066013D02*
X0088594Y0066013D01*
X0089793Y0067211D02*
X0071350Y0067211D01*
X0071350Y0068410D02*
X0090991Y0068410D01*
X0091150Y0069608D02*
X0071350Y0069608D01*
X0070801Y0070807D02*
X0091866Y0070807D01*
X0087247Y0074402D02*
X0085632Y0074402D01*
X0085680Y0074430D02*
X0085939Y0074689D01*
X0086121Y0075005D01*
X0086216Y0075358D01*
X0086216Y0078208D01*
X0083146Y0078208D01*
X0083146Y0074153D01*
X0085011Y0074153D01*
X0085364Y0074248D01*
X0085680Y0074430D01*
X0086216Y0075601D02*
X0086772Y0075601D01*
X0086772Y0076799D02*
X0086216Y0076799D01*
X0086216Y0077998D02*
X0086772Y0077998D01*
X0086772Y0079196D02*
X0086216Y0079196D01*
X0086216Y0080395D02*
X0086772Y0080395D01*
X0086772Y0081594D02*
X0086216Y0081594D01*
X0085838Y0082792D02*
X0087061Y0082792D01*
X0083146Y0082792D02*
X0082180Y0082792D01*
X0082180Y0081594D02*
X0083146Y0081594D01*
X0083146Y0080395D02*
X0082180Y0080395D01*
X0082180Y0079196D02*
X0083146Y0079196D01*
X0083146Y0077998D02*
X0082180Y0077998D01*
X0082180Y0076799D02*
X0083146Y0076799D01*
X0083146Y0075601D02*
X0082180Y0075601D01*
X0082180Y0074402D02*
X0083146Y0074402D01*
X0093052Y0064814D02*
X0114600Y0064814D01*
X0114600Y0063616D02*
X0107185Y0063616D01*
X0107767Y0062417D02*
X0114600Y0062417D01*
X0114993Y0061219D02*
X0107767Y0061219D01*
X0107767Y0060020D02*
X0108502Y0060020D01*
X0108244Y0058822D02*
X0107242Y0058822D01*
X0107536Y0057623D02*
X0108244Y0057623D01*
X0108244Y0056425D02*
X0107554Y0056425D01*
X0107554Y0055226D02*
X0108244Y0055226D01*
X0108517Y0054028D02*
X0107148Y0054028D01*
X0111216Y0057623D02*
X0111984Y0057623D01*
X0111984Y0057421D02*
X0111984Y0060589D01*
X0113751Y0060589D01*
X0114104Y0060495D01*
X0114420Y0060312D01*
X0114679Y0060054D01*
X0114861Y0059738D01*
X0114956Y0059385D01*
X0114956Y0057421D01*
X0111984Y0057421D01*
X0111984Y0058822D02*
X0111216Y0058822D01*
X0111216Y0060020D02*
X0111984Y0060020D01*
X0114698Y0060020D02*
X0116192Y0060020D01*
X0115772Y0060440D02*
X0115772Y0060440D01*
X0114956Y0058822D02*
X0117390Y0058822D01*
X0118589Y0057623D02*
X0114956Y0057623D01*
X0114956Y0056425D02*
X0119787Y0056425D01*
X0120986Y0055226D02*
X0114956Y0055226D01*
X0114683Y0054028D02*
X0122184Y0054028D01*
X0123383Y0052829D02*
X0118802Y0052829D01*
X0119796Y0051631D02*
X0124581Y0051631D01*
X0125780Y0050432D02*
X0120200Y0050432D01*
X0120200Y0049234D02*
X0120909Y0049234D01*
X0122291Y0049234D02*
X0126978Y0049234D01*
X0128177Y0048035D02*
X0124106Y0048035D01*
X0124662Y0046837D02*
X0126646Y0046837D01*
X0126059Y0045638D02*
X0124676Y0045638D01*
X0124200Y0044440D02*
X0126024Y0044440D01*
X0126474Y0043241D02*
X0122519Y0043241D01*
X0123102Y0042043D02*
X0120281Y0042043D01*
X0119082Y0040844D02*
X0122395Y0040844D01*
X0122274Y0039646D02*
X0110384Y0039646D01*
X0109185Y0038447D02*
X0122639Y0038447D01*
X0123809Y0037249D02*
X0108600Y0037249D01*
X0109562Y0036050D02*
X0110331Y0036050D01*
X0110331Y0037046D02*
X0110331Y0034075D01*
X0113499Y0034075D01*
X0113499Y0035841D01*
X0113405Y0036194D01*
X0113222Y0036511D01*
X0112964Y0036769D01*
X0112647Y0036952D01*
X0112294Y0037046D01*
X0110331Y0037046D01*
X0110331Y0034852D02*
X0109562Y0034852D01*
X0110331Y0033653D02*
X0125744Y0033653D01*
X0125744Y0032455D02*
X0113499Y0032455D01*
X0113499Y0033306D02*
X0113499Y0031539D01*
X0113405Y0031186D01*
X0113222Y0030870D01*
X0112964Y0030612D01*
X0112647Y0030429D01*
X0112294Y0030334D01*
X0110331Y0030334D01*
X0110331Y0033306D01*
X0113499Y0033306D01*
X0113499Y0034852D02*
X0125904Y0034852D01*
X0128716Y0034852D02*
X0129484Y0034852D01*
X0129484Y0033653D02*
X0128716Y0033653D01*
X0128716Y0032455D02*
X0129484Y0032455D01*
X0125744Y0031256D02*
X0113423Y0031256D01*
X0110331Y0031256D02*
X0109562Y0031256D01*
X0109562Y0032455D02*
X0110331Y0032455D01*
X0108600Y0030058D02*
X0125744Y0030058D01*
X0126182Y0028859D02*
X0117474Y0028859D01*
X0117653Y0027661D02*
X0125531Y0027661D01*
X0121543Y0026462D02*
X0117718Y0026462D01*
X0117653Y0027529D02*
X0114080Y0027529D01*
X0117653Y0027529D01*
X0114080Y0027529D02*
X0114080Y0027529D01*
X0114080Y0027661D02*
X0114080Y0027661D01*
X0114080Y0028859D02*
X0114080Y0028859D01*
X0110828Y0029104D02*
X0110828Y0029104D01*
X0110828Y0029104D01*
X0110687Y0028859D02*
X0108600Y0028859D01*
X0108399Y0027661D02*
X0110508Y0027661D01*
X0109043Y0026462D02*
X0107200Y0026462D01*
X0108380Y0025798D02*
X0108380Y0025798D01*
X0107845Y0025263D02*
X0102996Y0025263D01*
X0104054Y0024065D02*
X0107100Y0024065D01*
X0107100Y0022866D02*
X0105252Y0022866D01*
X0106451Y0021668D02*
X0107100Y0021668D01*
X0103191Y0019271D02*
X0102938Y0019271D01*
X0102572Y0018072D02*
X0103350Y0018072D01*
X0103350Y0016874D02*
X0100395Y0016874D01*
X0099196Y0015675D02*
X0103350Y0015675D01*
X0103350Y0014477D02*
X0098426Y0014477D01*
X0097991Y0013278D02*
X0103350Y0013278D01*
X0103350Y0012080D02*
X0096483Y0012080D01*
X0094217Y0012080D02*
X0076100Y0012080D01*
X0076100Y0013278D02*
X0090151Y0013278D01*
X0088952Y0014477D02*
X0076100Y0014477D01*
X0076100Y0015675D02*
X0079872Y0015675D01*
X0079488Y0016874D02*
X0076100Y0016874D01*
X0076100Y0018072D02*
X0079488Y0018072D01*
X0079488Y0019271D02*
X0076100Y0019271D01*
X0076100Y0020469D02*
X0079488Y0020469D01*
X0079835Y0021668D02*
X0076100Y0021668D01*
X0076100Y0022866D02*
X0080531Y0022866D01*
X0080531Y0024065D02*
X0076100Y0024065D01*
X0076100Y0025263D02*
X0080531Y0025263D01*
X0080531Y0026462D02*
X0076100Y0026462D01*
X0076100Y0027661D02*
X0080531Y0027661D01*
X0081182Y0028859D02*
X0076100Y0028859D01*
X0076100Y0030058D02*
X0080744Y0030058D01*
X0080744Y0031256D02*
X0076939Y0031256D01*
X0077176Y0032455D02*
X0080744Y0032455D01*
X0080744Y0033653D02*
X0076927Y0033653D01*
X0076039Y0034852D02*
X0080904Y0034852D01*
X0083716Y0034852D02*
X0084484Y0034852D01*
X0084484Y0035589D02*
X0084484Y0032421D01*
X0087456Y0032421D01*
X0087456Y0034385D01*
X0087361Y0034738D01*
X0087179Y0035054D01*
X0086920Y0035312D01*
X0086604Y0035495D01*
X0086251Y0035589D01*
X0084484Y0035589D01*
X0084484Y0033653D02*
X0083716Y0033653D01*
X0083716Y0032455D02*
X0084484Y0032455D01*
X0087456Y0032455D02*
X0094465Y0032455D01*
X0094250Y0033653D02*
X0087456Y0033653D01*
X0087296Y0034852D02*
X0094434Y0034852D01*
X0095119Y0036050D02*
X0071243Y0036050D01*
X0071739Y0037249D02*
X0097033Y0037249D01*
X0095193Y0031256D02*
X0087456Y0031256D01*
X0087456Y0030058D02*
X0104600Y0030058D01*
X0113443Y0036050D02*
X0131412Y0036050D01*
X0130213Y0037249D02*
X0126891Y0037249D01*
X0127598Y0042043D02*
X0128057Y0042043D01*
X0129100Y0044940D02*
X0129897Y0045738D01*
X0136069Y0045738D01*
X0142738Y0051631D02*
X0143539Y0051631D01*
X0143539Y0051643D02*
X0144179Y0051643D01*
X0144179Y0051643D01*
X0143539Y0051643D01*
X0143759Y0052829D02*
X0139803Y0052829D01*
X0141186Y0055226D02*
X0158723Y0055226D01*
X0160431Y0054028D02*
X0132841Y0054028D01*
X0130655Y0062417D02*
X0164772Y0062417D01*
X0163819Y0063616D02*
X0163376Y0063616D01*
X0159824Y0063616D02*
X0133376Y0063616D01*
X0134360Y0064814D02*
X0158840Y0064814D01*
X0158524Y0066013D02*
X0134676Y0066013D01*
X0134507Y0067211D02*
X0148899Y0067211D01*
X0147654Y0068410D02*
X0133731Y0068410D01*
X0130523Y0069608D02*
X0147274Y0069608D01*
X0145522Y0070807D02*
X0130523Y0070807D01*
X0130105Y0072005D02*
X0143968Y0072005D01*
X0143524Y0073204D02*
X0130310Y0073204D01*
X0130310Y0074402D02*
X0143565Y0074402D01*
X0144160Y0075601D02*
X0130331Y0075601D01*
X0130523Y0076799D02*
X0152677Y0076799D01*
X0152677Y0077998D02*
X0130523Y0077998D01*
X0130394Y0079196D02*
X0152806Y0079196D01*
X0164562Y0080395D02*
X0165331Y0080395D01*
X0165331Y0081594D02*
X0164562Y0081594D01*
X0164562Y0082792D02*
X0165331Y0082792D01*
X0165331Y0083991D02*
X0209250Y0083991D01*
X0209574Y0085189D02*
X0168499Y0085189D01*
X0168499Y0085841D02*
X0168405Y0086194D01*
X0168222Y0086511D01*
X0167964Y0086769D01*
X0167647Y0086952D01*
X0167294Y0087046D01*
X0165331Y0087046D01*
X0165331Y0084075D01*
X0168499Y0084075D01*
X0168499Y0085841D01*
X0168293Y0086388D02*
X0210456Y0086388D01*
X0216007Y0087586D02*
X0216300Y0087586D01*
X0221355Y0080395D02*
X0222372Y0080395D01*
X0224562Y0080395D02*
X0225331Y0080395D01*
X0225331Y0081594D02*
X0224562Y0081594D01*
X0224562Y0082792D02*
X0225331Y0082792D01*
X0211319Y0095976D02*
X0151165Y0095976D01*
X0164562Y0086388D02*
X0165331Y0086388D01*
X0165331Y0085189D02*
X0164562Y0085189D01*
X0168499Y0082792D02*
X0184187Y0082792D01*
X0191139Y0082792D02*
X0192362Y0082792D01*
X0191984Y0081594D02*
X0191428Y0081594D01*
X0191428Y0080395D02*
X0191984Y0080395D01*
X0191984Y0079196D02*
X0191428Y0079196D01*
X0191428Y0077998D02*
X0191984Y0077998D01*
X0191984Y0076799D02*
X0191428Y0076799D01*
X0191428Y0075601D02*
X0191984Y0075601D01*
X0192568Y0074402D02*
X0190953Y0074402D01*
X0170433Y0060020D02*
X0170013Y0060020D01*
X0153779Y0067211D02*
X0151801Y0067211D01*
X0145331Y0057623D02*
X0144562Y0057623D01*
X0144562Y0056425D02*
X0145331Y0056425D01*
X0147131Y0052829D02*
X0147132Y0052829D01*
X0118538Y0046837D02*
X0118515Y0046837D01*
X0118219Y0045638D02*
X0107767Y0045638D01*
X0107767Y0044440D02*
X0109521Y0044440D01*
X0108322Y0043241D02*
X0084598Y0043241D01*
X0084676Y0042043D02*
X0107124Y0042043D01*
X0105925Y0040844D02*
X0084269Y0040844D01*
X0082892Y0039646D02*
X0104727Y0039646D01*
X0104600Y0038447D02*
X0071900Y0038447D01*
X0071900Y0039646D02*
X0080308Y0039646D01*
X0078931Y0040844D02*
X0071865Y0040844D01*
X0073064Y0042043D02*
X0078524Y0042043D01*
X0078602Y0043241D02*
X0074262Y0043241D01*
X0074100Y0046190D02*
X0066600Y0038690D01*
X0061600Y0043690D01*
X0041600Y0043690D01*
X0033724Y0048035D02*
X0003381Y0048035D01*
X0003381Y0046837D02*
X0032582Y0046837D01*
X0032085Y0045638D02*
X0003381Y0045638D01*
X0003381Y0044440D02*
X0031750Y0044440D01*
X0031750Y0043241D02*
X0003381Y0043241D01*
X0003381Y0042043D02*
X0031961Y0042043D01*
X0032457Y0040844D02*
X0003381Y0040844D01*
X0003381Y0039646D02*
X0033423Y0039646D01*
X0035173Y0038447D02*
X0003381Y0038447D01*
X0003381Y0037249D02*
X0061460Y0037249D01*
X0061300Y0038447D02*
X0048027Y0038447D01*
X0049777Y0039646D02*
X0061300Y0039646D01*
X0061335Y0040844D02*
X0050743Y0040844D01*
X0050618Y0046837D02*
X0061631Y0046837D01*
X0061300Y0048035D02*
X0049476Y0048035D01*
X0047302Y0049234D02*
X0061300Y0049234D01*
X0061585Y0050432D02*
X0003381Y0050432D01*
X0003381Y0049234D02*
X0035898Y0049234D01*
X0034268Y0058822D02*
X0003381Y0058822D01*
X0003381Y0060020D02*
X0033049Y0060020D01*
X0032302Y0061219D02*
X0003381Y0061219D01*
X0003381Y0062417D02*
X0031806Y0062417D01*
X0031750Y0063616D02*
X0003381Y0063616D01*
X0003381Y0064814D02*
X0031750Y0064814D01*
X0032240Y0066013D02*
X0003381Y0066013D01*
X0003381Y0067211D02*
X0032900Y0067211D01*
X0034098Y0068410D02*
X0003381Y0068410D01*
X0003381Y0069608D02*
X0061850Y0069608D01*
X0061850Y0068410D02*
X0049102Y0068410D01*
X0050300Y0067211D02*
X0061850Y0067211D01*
X0061850Y0066013D02*
X0050960Y0066013D01*
X0050898Y0061219D02*
X0061850Y0061219D01*
X0061850Y0060020D02*
X0050151Y0060020D01*
X0048932Y0058822D02*
X0061850Y0058822D01*
X0061850Y0057623D02*
X0003381Y0057623D01*
X0003381Y0056425D02*
X0062548Y0056425D01*
X0064400Y0055226D02*
X0003381Y0055226D01*
X0003381Y0054028D02*
X0064400Y0054028D01*
X0063244Y0052829D02*
X0003381Y0052829D01*
X0003381Y0051631D02*
X0062081Y0051631D01*
X0066600Y0048690D02*
X0066600Y0059950D01*
X0062860Y0063690D02*
X0066600Y0067430D01*
X0074100Y0059930D01*
X0074100Y0058690D01*
X0076600Y0056190D01*
X0081364Y0056190D01*
X0081364Y0051190D02*
X0076600Y0051190D01*
X0074100Y0048690D01*
X0074100Y0046190D01*
X0081364Y0046190D02*
X0081600Y0045954D01*
X0081600Y0042440D01*
X0087294Y0044440D02*
X0089272Y0044440D01*
X0088074Y0045638D02*
X0087294Y0045638D01*
X0091100Y0049234D02*
X0096018Y0049234D01*
X0095906Y0050432D02*
X0091100Y0050432D01*
X0091100Y0051631D02*
X0095906Y0051631D01*
X0095906Y0052829D02*
X0091100Y0052829D01*
X0091100Y0054028D02*
X0096525Y0054028D01*
X0096118Y0055226D02*
X0091100Y0055226D01*
X0091100Y0056425D02*
X0091390Y0056425D01*
X0095560Y0056425D02*
X0096118Y0056425D01*
X0107766Y0048035D02*
X0108031Y0048035D01*
X0107767Y0046837D02*
X0108711Y0046837D01*
X0093940Y0028859D02*
X0087018Y0028859D01*
X0099120Y0019852D02*
X0099120Y0018710D01*
X0095350Y0014940D01*
X0091600Y0014940D01*
X0090350Y0016190D01*
X0090350Y0018287D01*
X0089946Y0018690D01*
X0095350Y0014940D02*
X0095498Y0015088D01*
X0104080Y0010881D02*
X0076100Y0010881D01*
X0077186Y0009683D02*
X0105279Y0009683D01*
X0104522Y0010440D02*
X0104522Y0010440D01*
X0106478Y0008484D02*
X0078384Y0008484D01*
X0075125Y0006087D02*
X0024281Y0006087D01*
X0025358Y0006636D02*
X0025358Y0006636D01*
X0026008Y0007286D02*
X0073926Y0007286D01*
X0072728Y0008484D02*
X0027206Y0008484D01*
X0028405Y0009683D02*
X0072100Y0009683D01*
X0072100Y0010881D02*
X0029138Y0010881D01*
X0029749Y0012080D02*
X0072100Y0012080D01*
X0072100Y0013278D02*
X0030359Y0013278D01*
X0030771Y0014086D02*
X0030771Y0014086D01*
X0030833Y0014477D02*
X0072100Y0014477D01*
X0072100Y0015675D02*
X0031022Y0015675D01*
X0031212Y0016874D02*
X0072100Y0016874D01*
X0072100Y0018072D02*
X0031402Y0018072D01*
X0031408Y0019271D02*
X0072100Y0019271D01*
X0072100Y0020469D02*
X0031218Y0020469D01*
X0031028Y0021668D02*
X0072100Y0021668D01*
X0072100Y0022866D02*
X0030839Y0022866D01*
X0030771Y0023295D02*
X0030771Y0023295D01*
X0030378Y0024065D02*
X0072100Y0024065D01*
X0072100Y0025263D02*
X0029768Y0025263D01*
X0029157Y0026462D02*
X0072100Y0026462D01*
X0072100Y0027661D02*
X0028442Y0027661D01*
X0027244Y0028859D02*
X0072100Y0028859D01*
X0072100Y0030058D02*
X0026045Y0030058D01*
X0025358Y0030745D02*
X0025358Y0030745D01*
X0024354Y0031256D02*
X0071261Y0031256D01*
X0071024Y0032455D02*
X0022002Y0032455D01*
X0021204Y0032861D02*
X0021204Y0032861D01*
X0016600Y0033590D02*
X0016600Y0033590D01*
X0011198Y0032455D02*
X0003381Y0032455D01*
X0003381Y0033653D02*
X0064911Y0033653D01*
X0062943Y0034852D02*
X0003381Y0034852D01*
X0003381Y0036050D02*
X0061957Y0036050D01*
X0068289Y0033653D02*
X0071273Y0033653D01*
X0072161Y0034852D02*
X0070257Y0034852D01*
X0074724Y0062417D02*
X0075433Y0062417D01*
X0076015Y0063616D02*
X0073526Y0063616D01*
X0062860Y0063690D02*
X0041600Y0063690D01*
X0008846Y0031256D02*
X0003381Y0031256D01*
X0003381Y0030058D02*
X0007155Y0030058D01*
X0007842Y0030745D02*
X0007842Y0030745D01*
X0005956Y0028859D02*
X0003381Y0028859D01*
X0003381Y0027661D02*
X0004758Y0027661D01*
X0004546Y0027448D02*
X0004546Y0027448D01*
X0004043Y0026462D02*
X0003381Y0026462D01*
X0003381Y0025263D02*
X0003432Y0025263D01*
X0107635Y0072005D02*
X0107718Y0072005D01*
X0117956Y0025263D02*
X0120345Y0025263D01*
X0123254Y0018690D02*
X0122850Y0018287D01*
X0122850Y0014315D01*
X0193050Y0026462D02*
X0196000Y0026462D01*
X0197198Y0025263D02*
X0193426Y0025263D01*
X0194054Y0024065D02*
X0198397Y0024065D01*
X0199595Y0022866D02*
X0195252Y0022866D01*
X0196451Y0021668D02*
X0199600Y0021668D01*
X0199600Y0020469D02*
X0197350Y0020469D01*
X0197350Y0019271D02*
X0199600Y0019271D01*
X0199131Y0018072D02*
X0197350Y0018072D01*
X0197350Y0016874D02*
X0198553Y0016874D01*
X0198524Y0015675D02*
X0197350Y0015675D01*
X0197350Y0014477D02*
X0198980Y0014477D01*
X0200591Y0013278D02*
X0197350Y0013278D01*
X0197350Y0012080D02*
X0248451Y0012080D01*
X0247841Y0013278D02*
X0202609Y0013278D01*
X0204220Y0014477D02*
X0247367Y0014477D01*
X0247177Y0015675D02*
X0204676Y0015675D01*
X0204647Y0016874D02*
X0246988Y0016874D01*
X0246798Y0018072D02*
X0204069Y0018072D01*
X0203600Y0019271D02*
X0206669Y0019271D01*
X0206069Y0020469D02*
X0203600Y0020469D01*
X0203600Y0021668D02*
X0206024Y0021668D01*
X0206464Y0022866D02*
X0203600Y0022866D01*
X0197350Y0010881D02*
X0249062Y0010881D01*
X0249546Y0009932D02*
X0249546Y0009932D01*
X0249795Y0009683D02*
X0197350Y0009683D01*
X0197350Y0008484D02*
X0250994Y0008484D01*
X0252192Y0007286D02*
X0196774Y0007286D01*
X0195575Y0006087D02*
X0253919Y0006087D01*
X0252842Y0006636D02*
X0252842Y0006636D01*
X0274768Y0025263D02*
X0274819Y0025263D01*
X0274819Y0026462D02*
X0274157Y0026462D01*
X0274819Y0027661D02*
X0273442Y0027661D01*
X0272244Y0028859D02*
X0274819Y0028859D01*
X0274819Y0030058D02*
X0271045Y0030058D01*
X0270358Y0030745D02*
X0270358Y0030745D01*
X0269354Y0031256D02*
X0274819Y0031256D01*
X0274819Y0032455D02*
X0267002Y0032455D01*
X0266204Y0032861D02*
X0266204Y0032861D01*
X0261600Y0033590D02*
X0261600Y0033590D01*
X0261815Y0049234D02*
X0242302Y0049234D01*
X0231881Y0109159D02*
X0274819Y0109159D01*
X0274819Y0110358D02*
X0231881Y0110358D01*
X0231881Y0111556D02*
X0274819Y0111556D01*
X0274819Y0112755D02*
X0231881Y0112755D01*
X0231881Y0113953D02*
X0274819Y0113953D01*
X0274819Y0115152D02*
X0231881Y0115152D01*
X0231881Y0116350D02*
X0274819Y0116350D01*
X0274819Y0117549D02*
X0231881Y0117549D01*
X0231881Y0118747D02*
X0274819Y0118747D01*
X0274819Y0119946D02*
X0226300Y0119946D01*
X0226300Y0121144D02*
X0274819Y0121144D01*
X0274819Y0122343D02*
X0226300Y0122343D01*
X0226300Y0123541D02*
X0274819Y0123541D01*
X0274819Y0124740D02*
X0228967Y0124740D01*
X0229105Y0125938D02*
X0274819Y0125938D01*
X0274819Y0127137D02*
X0229105Y0127137D01*
X0229105Y0128335D02*
X0274819Y0128335D01*
X0274819Y0129534D02*
X0229105Y0129534D01*
X0229105Y0130732D02*
X0274819Y0130732D01*
X0274819Y0131931D02*
X0229105Y0131931D01*
X0228479Y0133130D02*
X0274819Y0133130D01*
X0274819Y0134328D02*
X0227540Y0134328D01*
X0227540Y0135527D02*
X0274819Y0135527D01*
X0274819Y0136725D02*
X0227540Y0136725D01*
X0227540Y0137924D02*
X0274819Y0137924D01*
X0274819Y0139122D02*
X0227540Y0139122D01*
X0227540Y0140321D02*
X0274819Y0140321D01*
X0274819Y0141519D02*
X0227540Y0141519D01*
X0227540Y0142718D02*
X0274819Y0142718D01*
X0274819Y0143916D02*
X0232922Y0143916D01*
X0235246Y0145115D02*
X0274819Y0145115D01*
X0274819Y0146313D02*
X0236444Y0146313D01*
X0236946Y0147512D02*
X0274819Y0147512D01*
X0274819Y0148710D02*
X0237325Y0148710D01*
X0237325Y0149909D02*
X0274819Y0149909D01*
X0274819Y0151107D02*
X0237325Y0151107D01*
X0237325Y0152306D02*
X0274819Y0152306D01*
X0274819Y0153504D02*
X0237325Y0153504D01*
X0237325Y0154703D02*
X0274819Y0154703D01*
X0274819Y0155901D02*
X0237325Y0155901D01*
X0237325Y0157100D02*
X0274819Y0157100D01*
X0274819Y0158298D02*
X0237325Y0158298D01*
X0237100Y0159497D02*
X0274819Y0159497D01*
X0274819Y0160695D02*
X0236604Y0160695D01*
X0235618Y0161894D02*
X0274819Y0161894D01*
X0274819Y0163092D02*
X0233820Y0163092D01*
X0229380Y0163092D02*
X0213820Y0163092D01*
X0215618Y0161894D02*
X0227582Y0161894D01*
X0226596Y0160695D02*
X0216604Y0160695D01*
X0217100Y0159497D02*
X0226100Y0159497D01*
X0225875Y0158298D02*
X0217325Y0158298D01*
X0217325Y0157100D02*
X0225875Y0157100D01*
X0225875Y0155901D02*
X0217325Y0155901D01*
X0217325Y0154703D02*
X0225875Y0154703D01*
X0231600Y0153690D02*
X0225340Y0147430D01*
X0225340Y0128690D01*
X0224100Y0127450D01*
X0224100Y0113927D01*
X0215660Y0135527D02*
X0189400Y0135527D01*
X0189400Y0136725D02*
X0215660Y0136725D01*
X0215660Y0137924D02*
X0189400Y0137924D01*
X0189708Y0139122D02*
X0215660Y0139122D01*
X0215660Y0140321D02*
X0190031Y0140321D01*
X0190031Y0141519D02*
X0215660Y0141519D01*
X0215660Y0142718D02*
X0190031Y0142718D01*
X0190031Y0143916D02*
X0210278Y0143916D01*
X0207954Y0145115D02*
X0190031Y0145115D01*
X0190031Y0146313D02*
X0206756Y0146313D01*
X0206254Y0147512D02*
X0190031Y0147512D01*
X0189177Y0148710D02*
X0205875Y0148710D01*
X0212922Y0143916D02*
X0215660Y0143916D01*
X0215660Y0145115D02*
X0215246Y0145115D01*
X0227540Y0145115D02*
X0227954Y0145115D01*
X0227540Y0143916D02*
X0230278Y0143916D01*
X0252842Y0166636D02*
X0252842Y0166636D01*
X0261600Y0163790D02*
X0261600Y0163790D01*
X0264760Y0164291D02*
X0274819Y0164291D01*
X0274819Y0165489D02*
X0268108Y0165489D01*
X0266204Y0164520D02*
X0266204Y0164520D01*
X0270358Y0166636D02*
X0270358Y0166636D01*
X0270410Y0166688D02*
X0274819Y0166688D01*
X0274819Y0167886D02*
X0271608Y0167886D01*
X0272807Y0169085D02*
X0274819Y0169085D01*
X0274819Y0170283D02*
X0273833Y0170283D01*
X0274444Y0171482D02*
X0274819Y0171482D01*
D33*
X0186600Y0141151D02*
X0186600Y0127627D01*
X0175852Y0127627D01*
X0171915Y0123690D01*
X0161285Y0123690D02*
X0157348Y0119753D01*
X0146600Y0119753D01*
X0129395Y0119753D01*
X0126600Y0122549D01*
X0169100Y0146604D02*
X0172053Y0143651D01*
X0184100Y0143651D01*
X0186600Y0141151D01*
X0169100Y0160777D02*
X0156187Y0160777D01*
X0149100Y0153690D01*
X0219100Y0093454D02*
X0219100Y0084537D01*
X0218254Y0083690D01*
X0176364Y0056190D02*
X0167446Y0056190D01*
X0166600Y0057037D01*
X0156659Y0073690D02*
X0146600Y0073690D01*
X0116659Y0073690D02*
X0110350Y0073690D01*
X0110754Y0051190D02*
X0101836Y0051190D01*
X0110754Y0051190D02*
X0111600Y0050344D01*
X0054100Y0084537D02*
X0053254Y0083690D01*
X0054100Y0084537D02*
X0054100Y0093454D01*
D34*
X0151600Y0011190D02*
X0151777Y0011013D01*
X0160301Y0011013D01*
D35*
X0160301Y0013572D02*
X0163982Y0013572D01*
X0165350Y0014940D01*
X0166600Y0014940D01*
X0170350Y0018690D01*
X0170350Y0021190D01*
X0167732Y0023808D01*
X0160301Y0023808D01*
X0160301Y0026367D02*
X0169277Y0026367D01*
X0171600Y0028690D01*
X0171600Y0044940D01*
X0172850Y0046190D01*
X0176364Y0046190D01*
X0182850Y0046190D01*
X0189100Y0052440D01*
X0189100Y0063690D01*
X0174100Y0078690D01*
X0166541Y0077430D02*
X0164090Y0077430D01*
X0161600Y0074940D01*
X0161600Y0066190D01*
X0166600Y0064940D02*
X0166600Y0069891D01*
X0166541Y0069950D01*
X0156659Y0069950D02*
X0156649Y0069940D01*
X0150350Y0069940D01*
X0156659Y0077430D02*
X0160340Y0077430D01*
X0161600Y0078690D01*
X0149100Y0093690D02*
X0213864Y0093690D01*
X0214100Y0093454D01*
X0214100Y0101190D01*
X0216600Y0103690D01*
X0257850Y0103690D01*
X0267850Y0093690D01*
X0267850Y0052440D01*
X0236600Y0021190D01*
X0209100Y0021190D01*
X0201600Y0023690D02*
X0201600Y0016190D01*
X0195350Y0019940D02*
X0195350Y0008690D01*
X0192850Y0006190D01*
X0077850Y0006190D01*
X0074100Y0009940D01*
X0074100Y0032440D01*
X0083254Y0024497D02*
X0084100Y0025344D01*
X0084946Y0026190D01*
X0094100Y0026190D01*
X0095439Y0027529D01*
X0099120Y0027529D01*
X0105439Y0027529D01*
X0106600Y0028690D01*
X0106600Y0038690D01*
X0110350Y0042440D01*
X0117850Y0042440D01*
X0121600Y0046190D01*
X0125350Y0039940D02*
X0130350Y0039940D01*
X0134100Y0036190D01*
X0134100Y0027440D01*
X0132004Y0025344D01*
X0129100Y0025344D01*
X0123254Y0025344D01*
X0120320Y0022411D01*
X0119100Y0022411D01*
X0119100Y0019940D01*
X0119011Y0019852D01*
X0114080Y0019852D01*
X0114080Y0022411D02*
X0119100Y0022411D01*
X0114080Y0024970D02*
X0110380Y0024970D01*
X0109100Y0023690D01*
X0109100Y0013690D01*
X0111600Y0011190D01*
X0126600Y0011190D01*
X0134100Y0011190D01*
X0135350Y0012440D01*
X0137850Y0008690D02*
X0147850Y0018690D01*
X0160301Y0018690D01*
X0160242Y0016190D02*
X0160301Y0016131D01*
X0160242Y0016190D02*
X0155350Y0016190D01*
X0154100Y0014940D01*
X0151600Y0014940D01*
X0145350Y0011190D02*
X0148475Y0008065D01*
X0167225Y0008065D01*
X0175291Y0016131D01*
X0182899Y0016131D01*
X0182899Y0018690D02*
X0174100Y0018690D01*
X0166600Y0011190D01*
X0176600Y0011190D02*
X0178982Y0013572D01*
X0182899Y0013572D01*
X0183076Y0011190D02*
X0182899Y0011013D01*
X0183076Y0011190D02*
X0190350Y0011190D01*
X0192850Y0013690D01*
X0192850Y0018690D01*
X0190291Y0021249D01*
X0182899Y0021249D01*
X0182899Y0018690D02*
X0187850Y0018690D01*
X0189100Y0017440D01*
X0189100Y0016190D01*
X0195350Y0019940D02*
X0190350Y0024940D01*
X0189218Y0023808D01*
X0182899Y0023808D01*
X0166600Y0019940D02*
X0165350Y0021190D01*
X0160360Y0021190D01*
X0160301Y0021249D01*
X0160242Y0021190D01*
X0154100Y0021190D01*
X0147131Y0028159D01*
X0147131Y0045738D01*
X0147131Y0047706D02*
X0151334Y0047706D01*
X0152850Y0046190D01*
X0154366Y0049675D02*
X0147131Y0049675D01*
X0142850Y0048690D02*
X0142850Y0029940D01*
X0139100Y0027440D02*
X0139100Y0032440D01*
X0140350Y0033690D01*
X0140350Y0046190D01*
X0138834Y0047706D01*
X0136069Y0047706D01*
X0136069Y0049675D02*
X0141866Y0049675D01*
X0142850Y0048690D01*
X0136069Y0049675D02*
X0129366Y0049675D01*
X0116600Y0062440D01*
X0116600Y0069891D01*
X0116659Y0069950D01*
X0116649Y0069940D01*
X0105350Y0069940D01*
X0102850Y0077440D02*
X0116649Y0077440D01*
X0116659Y0077430D01*
X0120340Y0077430D01*
X0121600Y0078690D01*
X0121600Y0089940D01*
X0105350Y0087440D02*
X0089100Y0103690D01*
X0060350Y0103690D02*
X0051600Y0103690D01*
X0049100Y0101190D01*
X0049100Y0093454D01*
X0089100Y0063690D02*
X0094100Y0068690D01*
X0089100Y0063690D02*
X0089100Y0047440D01*
X0090350Y0046190D01*
X0101836Y0046190D01*
X0093475Y0058690D02*
X0095975Y0061190D01*
X0101836Y0061190D01*
X0121600Y0074940D02*
X0121600Y0076190D01*
X0122850Y0077440D01*
X0126531Y0077440D01*
X0126541Y0077430D01*
X0126541Y0069950D02*
X0126541Y0066131D01*
X0125350Y0064940D01*
X0127850Y0062440D02*
X0131600Y0066190D01*
X0127850Y0062440D02*
X0127850Y0056190D01*
X0132397Y0051643D01*
X0136069Y0051643D01*
X0154366Y0049675D02*
X0156600Y0047440D01*
X0156600Y0029940D01*
X0145350Y0021190D02*
X0139100Y0027440D01*
X0129946Y0024497D02*
X0129100Y0025344D01*
X0129946Y0024497D02*
X0129946Y0018690D01*
X0137850Y0008690D02*
X0109100Y0008690D01*
X0105350Y0012440D01*
X0105350Y0019940D01*
X0102880Y0022411D01*
X0099120Y0022411D01*
X0099120Y0024970D02*
X0095320Y0024970D01*
X0094100Y0026190D01*
X0083254Y0024497D02*
X0083254Y0018690D01*
X0176364Y0061190D02*
X0184100Y0061190D01*
X0185350Y0059940D01*
X0185350Y0039940D02*
X0201600Y0023690D01*
M02*
