%
M48
M72
T01C0.01969
T02C0.03937
T03C0.04000
T04C0.05500
T05C0.12598
%
T01
X96600Y186190
X146600Y133690
X186600Y113690
X209100Y113690
X212850Y83690
X196600Y66190
X185350Y59940
X166600Y64940
X161600Y66190
X161600Y57440
X152850Y46190
X162850Y33690
X156600Y29940
X142850Y29940
X145350Y21190
X151600Y14940
X151600Y11190
X145350Y11190
X135350Y12440
X122850Y14315
X95350Y14940
X74100Y32440
X81600Y42440
X97850Y33690
X116600Y49940
X121600Y46190
X125350Y39940
X129100Y44940
X131600Y58690
X131600Y66190
X125350Y64940
X121600Y74940
X110350Y73690
X105350Y69940
X102850Y77440
X95350Y78690
X105350Y87440
X111600Y83690
X121600Y89940
X146600Y73690
X150350Y69940
X161600Y78690
X151600Y83690
X149100Y93690
X174100Y78690
X181600Y78690
X185350Y39940
X190350Y24940
X189100Y16190
X176600Y11190
X166600Y11190
X166600Y19940
X201600Y16190
X209100Y21190
X93475Y58690
X94100Y68690
X47850Y83690
X60350Y103690
X44100Y113690
X89100Y103690
X184100Y171190
T02
X106600Y122549
X116600Y122549
X126600Y122549
T03
X66600Y38690
X66600Y48690
X211600Y58690
X211600Y68690
T04
X46600Y153690
X66600Y153690
X129100Y153690
X149100Y153690
X211600Y153690
X231600Y153690
X236600Y63690
X236600Y43690
X41600Y43690
X41600Y63690
T05
X16600Y18690
X16600Y178690
X261600Y178690
X261600Y18690
M30
