G75*
%MOIN*%
%OFA0B0*%
%FSLAX25Y25*%
%IPPOS*%
%LPD*%
%AMOC8*
5,1,8,0,0,1.08239X$1,22.5*
%
%ADD10C,0.00000*%
%ADD11C,0.08250*%
%ADD12C,0.07400*%
%ADD13R,0.05906X0.05906*%
%ADD14C,0.05906*%
%ADD15C,0.01000*%
%ADD16C,0.02953*%
%ADD17C,0.00800*%
D10*
X0001600Y0003690D02*
X0001600Y0193690D01*
X0276600Y0193690D01*
X0276600Y0003690D01*
X0001600Y0003690D01*
X0010301Y0018690D02*
X0010303Y0018848D01*
X0010309Y0019006D01*
X0010319Y0019164D01*
X0010333Y0019322D01*
X0010351Y0019479D01*
X0010372Y0019636D01*
X0010398Y0019792D01*
X0010428Y0019948D01*
X0010461Y0020103D01*
X0010499Y0020256D01*
X0010540Y0020409D01*
X0010585Y0020561D01*
X0010634Y0020712D01*
X0010687Y0020861D01*
X0010743Y0021009D01*
X0010803Y0021155D01*
X0010867Y0021300D01*
X0010935Y0021443D01*
X0011006Y0021585D01*
X0011080Y0021725D01*
X0011158Y0021862D01*
X0011240Y0021998D01*
X0011324Y0022132D01*
X0011413Y0022263D01*
X0011504Y0022392D01*
X0011599Y0022519D01*
X0011696Y0022644D01*
X0011797Y0022766D01*
X0011901Y0022885D01*
X0012008Y0023002D01*
X0012118Y0023116D01*
X0012231Y0023227D01*
X0012346Y0023336D01*
X0012464Y0023441D01*
X0012585Y0023543D01*
X0012708Y0023643D01*
X0012834Y0023739D01*
X0012962Y0023832D01*
X0013092Y0023922D01*
X0013225Y0024008D01*
X0013360Y0024092D01*
X0013496Y0024171D01*
X0013635Y0024248D01*
X0013776Y0024320D01*
X0013918Y0024390D01*
X0014062Y0024455D01*
X0014208Y0024517D01*
X0014355Y0024575D01*
X0014504Y0024630D01*
X0014654Y0024681D01*
X0014805Y0024728D01*
X0014957Y0024771D01*
X0015110Y0024810D01*
X0015265Y0024846D01*
X0015420Y0024877D01*
X0015576Y0024905D01*
X0015732Y0024929D01*
X0015889Y0024949D01*
X0016047Y0024965D01*
X0016204Y0024977D01*
X0016363Y0024985D01*
X0016521Y0024989D01*
X0016679Y0024989D01*
X0016837Y0024985D01*
X0016996Y0024977D01*
X0017153Y0024965D01*
X0017311Y0024949D01*
X0017468Y0024929D01*
X0017624Y0024905D01*
X0017780Y0024877D01*
X0017935Y0024846D01*
X0018090Y0024810D01*
X0018243Y0024771D01*
X0018395Y0024728D01*
X0018546Y0024681D01*
X0018696Y0024630D01*
X0018845Y0024575D01*
X0018992Y0024517D01*
X0019138Y0024455D01*
X0019282Y0024390D01*
X0019424Y0024320D01*
X0019565Y0024248D01*
X0019704Y0024171D01*
X0019840Y0024092D01*
X0019975Y0024008D01*
X0020108Y0023922D01*
X0020238Y0023832D01*
X0020366Y0023739D01*
X0020492Y0023643D01*
X0020615Y0023543D01*
X0020736Y0023441D01*
X0020854Y0023336D01*
X0020969Y0023227D01*
X0021082Y0023116D01*
X0021192Y0023002D01*
X0021299Y0022885D01*
X0021403Y0022766D01*
X0021504Y0022644D01*
X0021601Y0022519D01*
X0021696Y0022392D01*
X0021787Y0022263D01*
X0021876Y0022132D01*
X0021960Y0021998D01*
X0022042Y0021862D01*
X0022120Y0021725D01*
X0022194Y0021585D01*
X0022265Y0021443D01*
X0022333Y0021300D01*
X0022397Y0021155D01*
X0022457Y0021009D01*
X0022513Y0020861D01*
X0022566Y0020712D01*
X0022615Y0020561D01*
X0022660Y0020409D01*
X0022701Y0020256D01*
X0022739Y0020103D01*
X0022772Y0019948D01*
X0022802Y0019792D01*
X0022828Y0019636D01*
X0022849Y0019479D01*
X0022867Y0019322D01*
X0022881Y0019164D01*
X0022891Y0019006D01*
X0022897Y0018848D01*
X0022899Y0018690D01*
X0022897Y0018532D01*
X0022891Y0018374D01*
X0022881Y0018216D01*
X0022867Y0018058D01*
X0022849Y0017901D01*
X0022828Y0017744D01*
X0022802Y0017588D01*
X0022772Y0017432D01*
X0022739Y0017277D01*
X0022701Y0017124D01*
X0022660Y0016971D01*
X0022615Y0016819D01*
X0022566Y0016668D01*
X0022513Y0016519D01*
X0022457Y0016371D01*
X0022397Y0016225D01*
X0022333Y0016080D01*
X0022265Y0015937D01*
X0022194Y0015795D01*
X0022120Y0015655D01*
X0022042Y0015518D01*
X0021960Y0015382D01*
X0021876Y0015248D01*
X0021787Y0015117D01*
X0021696Y0014988D01*
X0021601Y0014861D01*
X0021504Y0014736D01*
X0021403Y0014614D01*
X0021299Y0014495D01*
X0021192Y0014378D01*
X0021082Y0014264D01*
X0020969Y0014153D01*
X0020854Y0014044D01*
X0020736Y0013939D01*
X0020615Y0013837D01*
X0020492Y0013737D01*
X0020366Y0013641D01*
X0020238Y0013548D01*
X0020108Y0013458D01*
X0019975Y0013372D01*
X0019840Y0013288D01*
X0019704Y0013209D01*
X0019565Y0013132D01*
X0019424Y0013060D01*
X0019282Y0012990D01*
X0019138Y0012925D01*
X0018992Y0012863D01*
X0018845Y0012805D01*
X0018696Y0012750D01*
X0018546Y0012699D01*
X0018395Y0012652D01*
X0018243Y0012609D01*
X0018090Y0012570D01*
X0017935Y0012534D01*
X0017780Y0012503D01*
X0017624Y0012475D01*
X0017468Y0012451D01*
X0017311Y0012431D01*
X0017153Y0012415D01*
X0016996Y0012403D01*
X0016837Y0012395D01*
X0016679Y0012391D01*
X0016521Y0012391D01*
X0016363Y0012395D01*
X0016204Y0012403D01*
X0016047Y0012415D01*
X0015889Y0012431D01*
X0015732Y0012451D01*
X0015576Y0012475D01*
X0015420Y0012503D01*
X0015265Y0012534D01*
X0015110Y0012570D01*
X0014957Y0012609D01*
X0014805Y0012652D01*
X0014654Y0012699D01*
X0014504Y0012750D01*
X0014355Y0012805D01*
X0014208Y0012863D01*
X0014062Y0012925D01*
X0013918Y0012990D01*
X0013776Y0013060D01*
X0013635Y0013132D01*
X0013496Y0013209D01*
X0013360Y0013288D01*
X0013225Y0013372D01*
X0013092Y0013458D01*
X0012962Y0013548D01*
X0012834Y0013641D01*
X0012708Y0013737D01*
X0012585Y0013837D01*
X0012464Y0013939D01*
X0012346Y0014044D01*
X0012231Y0014153D01*
X0012118Y0014264D01*
X0012008Y0014378D01*
X0011901Y0014495D01*
X0011797Y0014614D01*
X0011696Y0014736D01*
X0011599Y0014861D01*
X0011504Y0014988D01*
X0011413Y0015117D01*
X0011324Y0015248D01*
X0011240Y0015382D01*
X0011158Y0015518D01*
X0011080Y0015655D01*
X0011006Y0015795D01*
X0010935Y0015937D01*
X0010867Y0016080D01*
X0010803Y0016225D01*
X0010743Y0016371D01*
X0010687Y0016519D01*
X0010634Y0016668D01*
X0010585Y0016819D01*
X0010540Y0016971D01*
X0010499Y0017124D01*
X0010461Y0017277D01*
X0010428Y0017432D01*
X0010398Y0017588D01*
X0010372Y0017744D01*
X0010351Y0017901D01*
X0010333Y0018058D01*
X0010319Y0018216D01*
X0010309Y0018374D01*
X0010303Y0018532D01*
X0010301Y0018690D01*
X0010301Y0178690D02*
X0010303Y0178848D01*
X0010309Y0179006D01*
X0010319Y0179164D01*
X0010333Y0179322D01*
X0010351Y0179479D01*
X0010372Y0179636D01*
X0010398Y0179792D01*
X0010428Y0179948D01*
X0010461Y0180103D01*
X0010499Y0180256D01*
X0010540Y0180409D01*
X0010585Y0180561D01*
X0010634Y0180712D01*
X0010687Y0180861D01*
X0010743Y0181009D01*
X0010803Y0181155D01*
X0010867Y0181300D01*
X0010935Y0181443D01*
X0011006Y0181585D01*
X0011080Y0181725D01*
X0011158Y0181862D01*
X0011240Y0181998D01*
X0011324Y0182132D01*
X0011413Y0182263D01*
X0011504Y0182392D01*
X0011599Y0182519D01*
X0011696Y0182644D01*
X0011797Y0182766D01*
X0011901Y0182885D01*
X0012008Y0183002D01*
X0012118Y0183116D01*
X0012231Y0183227D01*
X0012346Y0183336D01*
X0012464Y0183441D01*
X0012585Y0183543D01*
X0012708Y0183643D01*
X0012834Y0183739D01*
X0012962Y0183832D01*
X0013092Y0183922D01*
X0013225Y0184008D01*
X0013360Y0184092D01*
X0013496Y0184171D01*
X0013635Y0184248D01*
X0013776Y0184320D01*
X0013918Y0184390D01*
X0014062Y0184455D01*
X0014208Y0184517D01*
X0014355Y0184575D01*
X0014504Y0184630D01*
X0014654Y0184681D01*
X0014805Y0184728D01*
X0014957Y0184771D01*
X0015110Y0184810D01*
X0015265Y0184846D01*
X0015420Y0184877D01*
X0015576Y0184905D01*
X0015732Y0184929D01*
X0015889Y0184949D01*
X0016047Y0184965D01*
X0016204Y0184977D01*
X0016363Y0184985D01*
X0016521Y0184989D01*
X0016679Y0184989D01*
X0016837Y0184985D01*
X0016996Y0184977D01*
X0017153Y0184965D01*
X0017311Y0184949D01*
X0017468Y0184929D01*
X0017624Y0184905D01*
X0017780Y0184877D01*
X0017935Y0184846D01*
X0018090Y0184810D01*
X0018243Y0184771D01*
X0018395Y0184728D01*
X0018546Y0184681D01*
X0018696Y0184630D01*
X0018845Y0184575D01*
X0018992Y0184517D01*
X0019138Y0184455D01*
X0019282Y0184390D01*
X0019424Y0184320D01*
X0019565Y0184248D01*
X0019704Y0184171D01*
X0019840Y0184092D01*
X0019975Y0184008D01*
X0020108Y0183922D01*
X0020238Y0183832D01*
X0020366Y0183739D01*
X0020492Y0183643D01*
X0020615Y0183543D01*
X0020736Y0183441D01*
X0020854Y0183336D01*
X0020969Y0183227D01*
X0021082Y0183116D01*
X0021192Y0183002D01*
X0021299Y0182885D01*
X0021403Y0182766D01*
X0021504Y0182644D01*
X0021601Y0182519D01*
X0021696Y0182392D01*
X0021787Y0182263D01*
X0021876Y0182132D01*
X0021960Y0181998D01*
X0022042Y0181862D01*
X0022120Y0181725D01*
X0022194Y0181585D01*
X0022265Y0181443D01*
X0022333Y0181300D01*
X0022397Y0181155D01*
X0022457Y0181009D01*
X0022513Y0180861D01*
X0022566Y0180712D01*
X0022615Y0180561D01*
X0022660Y0180409D01*
X0022701Y0180256D01*
X0022739Y0180103D01*
X0022772Y0179948D01*
X0022802Y0179792D01*
X0022828Y0179636D01*
X0022849Y0179479D01*
X0022867Y0179322D01*
X0022881Y0179164D01*
X0022891Y0179006D01*
X0022897Y0178848D01*
X0022899Y0178690D01*
X0022897Y0178532D01*
X0022891Y0178374D01*
X0022881Y0178216D01*
X0022867Y0178058D01*
X0022849Y0177901D01*
X0022828Y0177744D01*
X0022802Y0177588D01*
X0022772Y0177432D01*
X0022739Y0177277D01*
X0022701Y0177124D01*
X0022660Y0176971D01*
X0022615Y0176819D01*
X0022566Y0176668D01*
X0022513Y0176519D01*
X0022457Y0176371D01*
X0022397Y0176225D01*
X0022333Y0176080D01*
X0022265Y0175937D01*
X0022194Y0175795D01*
X0022120Y0175655D01*
X0022042Y0175518D01*
X0021960Y0175382D01*
X0021876Y0175248D01*
X0021787Y0175117D01*
X0021696Y0174988D01*
X0021601Y0174861D01*
X0021504Y0174736D01*
X0021403Y0174614D01*
X0021299Y0174495D01*
X0021192Y0174378D01*
X0021082Y0174264D01*
X0020969Y0174153D01*
X0020854Y0174044D01*
X0020736Y0173939D01*
X0020615Y0173837D01*
X0020492Y0173737D01*
X0020366Y0173641D01*
X0020238Y0173548D01*
X0020108Y0173458D01*
X0019975Y0173372D01*
X0019840Y0173288D01*
X0019704Y0173209D01*
X0019565Y0173132D01*
X0019424Y0173060D01*
X0019282Y0172990D01*
X0019138Y0172925D01*
X0018992Y0172863D01*
X0018845Y0172805D01*
X0018696Y0172750D01*
X0018546Y0172699D01*
X0018395Y0172652D01*
X0018243Y0172609D01*
X0018090Y0172570D01*
X0017935Y0172534D01*
X0017780Y0172503D01*
X0017624Y0172475D01*
X0017468Y0172451D01*
X0017311Y0172431D01*
X0017153Y0172415D01*
X0016996Y0172403D01*
X0016837Y0172395D01*
X0016679Y0172391D01*
X0016521Y0172391D01*
X0016363Y0172395D01*
X0016204Y0172403D01*
X0016047Y0172415D01*
X0015889Y0172431D01*
X0015732Y0172451D01*
X0015576Y0172475D01*
X0015420Y0172503D01*
X0015265Y0172534D01*
X0015110Y0172570D01*
X0014957Y0172609D01*
X0014805Y0172652D01*
X0014654Y0172699D01*
X0014504Y0172750D01*
X0014355Y0172805D01*
X0014208Y0172863D01*
X0014062Y0172925D01*
X0013918Y0172990D01*
X0013776Y0173060D01*
X0013635Y0173132D01*
X0013496Y0173209D01*
X0013360Y0173288D01*
X0013225Y0173372D01*
X0013092Y0173458D01*
X0012962Y0173548D01*
X0012834Y0173641D01*
X0012708Y0173737D01*
X0012585Y0173837D01*
X0012464Y0173939D01*
X0012346Y0174044D01*
X0012231Y0174153D01*
X0012118Y0174264D01*
X0012008Y0174378D01*
X0011901Y0174495D01*
X0011797Y0174614D01*
X0011696Y0174736D01*
X0011599Y0174861D01*
X0011504Y0174988D01*
X0011413Y0175117D01*
X0011324Y0175248D01*
X0011240Y0175382D01*
X0011158Y0175518D01*
X0011080Y0175655D01*
X0011006Y0175795D01*
X0010935Y0175937D01*
X0010867Y0176080D01*
X0010803Y0176225D01*
X0010743Y0176371D01*
X0010687Y0176519D01*
X0010634Y0176668D01*
X0010585Y0176819D01*
X0010540Y0176971D01*
X0010499Y0177124D01*
X0010461Y0177277D01*
X0010428Y0177432D01*
X0010398Y0177588D01*
X0010372Y0177744D01*
X0010351Y0177901D01*
X0010333Y0178058D01*
X0010319Y0178216D01*
X0010309Y0178374D01*
X0010303Y0178532D01*
X0010301Y0178690D01*
X0255301Y0178690D02*
X0255303Y0178848D01*
X0255309Y0179006D01*
X0255319Y0179164D01*
X0255333Y0179322D01*
X0255351Y0179479D01*
X0255372Y0179636D01*
X0255398Y0179792D01*
X0255428Y0179948D01*
X0255461Y0180103D01*
X0255499Y0180256D01*
X0255540Y0180409D01*
X0255585Y0180561D01*
X0255634Y0180712D01*
X0255687Y0180861D01*
X0255743Y0181009D01*
X0255803Y0181155D01*
X0255867Y0181300D01*
X0255935Y0181443D01*
X0256006Y0181585D01*
X0256080Y0181725D01*
X0256158Y0181862D01*
X0256240Y0181998D01*
X0256324Y0182132D01*
X0256413Y0182263D01*
X0256504Y0182392D01*
X0256599Y0182519D01*
X0256696Y0182644D01*
X0256797Y0182766D01*
X0256901Y0182885D01*
X0257008Y0183002D01*
X0257118Y0183116D01*
X0257231Y0183227D01*
X0257346Y0183336D01*
X0257464Y0183441D01*
X0257585Y0183543D01*
X0257708Y0183643D01*
X0257834Y0183739D01*
X0257962Y0183832D01*
X0258092Y0183922D01*
X0258225Y0184008D01*
X0258360Y0184092D01*
X0258496Y0184171D01*
X0258635Y0184248D01*
X0258776Y0184320D01*
X0258918Y0184390D01*
X0259062Y0184455D01*
X0259208Y0184517D01*
X0259355Y0184575D01*
X0259504Y0184630D01*
X0259654Y0184681D01*
X0259805Y0184728D01*
X0259957Y0184771D01*
X0260110Y0184810D01*
X0260265Y0184846D01*
X0260420Y0184877D01*
X0260576Y0184905D01*
X0260732Y0184929D01*
X0260889Y0184949D01*
X0261047Y0184965D01*
X0261204Y0184977D01*
X0261363Y0184985D01*
X0261521Y0184989D01*
X0261679Y0184989D01*
X0261837Y0184985D01*
X0261996Y0184977D01*
X0262153Y0184965D01*
X0262311Y0184949D01*
X0262468Y0184929D01*
X0262624Y0184905D01*
X0262780Y0184877D01*
X0262935Y0184846D01*
X0263090Y0184810D01*
X0263243Y0184771D01*
X0263395Y0184728D01*
X0263546Y0184681D01*
X0263696Y0184630D01*
X0263845Y0184575D01*
X0263992Y0184517D01*
X0264138Y0184455D01*
X0264282Y0184390D01*
X0264424Y0184320D01*
X0264565Y0184248D01*
X0264704Y0184171D01*
X0264840Y0184092D01*
X0264975Y0184008D01*
X0265108Y0183922D01*
X0265238Y0183832D01*
X0265366Y0183739D01*
X0265492Y0183643D01*
X0265615Y0183543D01*
X0265736Y0183441D01*
X0265854Y0183336D01*
X0265969Y0183227D01*
X0266082Y0183116D01*
X0266192Y0183002D01*
X0266299Y0182885D01*
X0266403Y0182766D01*
X0266504Y0182644D01*
X0266601Y0182519D01*
X0266696Y0182392D01*
X0266787Y0182263D01*
X0266876Y0182132D01*
X0266960Y0181998D01*
X0267042Y0181862D01*
X0267120Y0181725D01*
X0267194Y0181585D01*
X0267265Y0181443D01*
X0267333Y0181300D01*
X0267397Y0181155D01*
X0267457Y0181009D01*
X0267513Y0180861D01*
X0267566Y0180712D01*
X0267615Y0180561D01*
X0267660Y0180409D01*
X0267701Y0180256D01*
X0267739Y0180103D01*
X0267772Y0179948D01*
X0267802Y0179792D01*
X0267828Y0179636D01*
X0267849Y0179479D01*
X0267867Y0179322D01*
X0267881Y0179164D01*
X0267891Y0179006D01*
X0267897Y0178848D01*
X0267899Y0178690D01*
X0267897Y0178532D01*
X0267891Y0178374D01*
X0267881Y0178216D01*
X0267867Y0178058D01*
X0267849Y0177901D01*
X0267828Y0177744D01*
X0267802Y0177588D01*
X0267772Y0177432D01*
X0267739Y0177277D01*
X0267701Y0177124D01*
X0267660Y0176971D01*
X0267615Y0176819D01*
X0267566Y0176668D01*
X0267513Y0176519D01*
X0267457Y0176371D01*
X0267397Y0176225D01*
X0267333Y0176080D01*
X0267265Y0175937D01*
X0267194Y0175795D01*
X0267120Y0175655D01*
X0267042Y0175518D01*
X0266960Y0175382D01*
X0266876Y0175248D01*
X0266787Y0175117D01*
X0266696Y0174988D01*
X0266601Y0174861D01*
X0266504Y0174736D01*
X0266403Y0174614D01*
X0266299Y0174495D01*
X0266192Y0174378D01*
X0266082Y0174264D01*
X0265969Y0174153D01*
X0265854Y0174044D01*
X0265736Y0173939D01*
X0265615Y0173837D01*
X0265492Y0173737D01*
X0265366Y0173641D01*
X0265238Y0173548D01*
X0265108Y0173458D01*
X0264975Y0173372D01*
X0264840Y0173288D01*
X0264704Y0173209D01*
X0264565Y0173132D01*
X0264424Y0173060D01*
X0264282Y0172990D01*
X0264138Y0172925D01*
X0263992Y0172863D01*
X0263845Y0172805D01*
X0263696Y0172750D01*
X0263546Y0172699D01*
X0263395Y0172652D01*
X0263243Y0172609D01*
X0263090Y0172570D01*
X0262935Y0172534D01*
X0262780Y0172503D01*
X0262624Y0172475D01*
X0262468Y0172451D01*
X0262311Y0172431D01*
X0262153Y0172415D01*
X0261996Y0172403D01*
X0261837Y0172395D01*
X0261679Y0172391D01*
X0261521Y0172391D01*
X0261363Y0172395D01*
X0261204Y0172403D01*
X0261047Y0172415D01*
X0260889Y0172431D01*
X0260732Y0172451D01*
X0260576Y0172475D01*
X0260420Y0172503D01*
X0260265Y0172534D01*
X0260110Y0172570D01*
X0259957Y0172609D01*
X0259805Y0172652D01*
X0259654Y0172699D01*
X0259504Y0172750D01*
X0259355Y0172805D01*
X0259208Y0172863D01*
X0259062Y0172925D01*
X0258918Y0172990D01*
X0258776Y0173060D01*
X0258635Y0173132D01*
X0258496Y0173209D01*
X0258360Y0173288D01*
X0258225Y0173372D01*
X0258092Y0173458D01*
X0257962Y0173548D01*
X0257834Y0173641D01*
X0257708Y0173737D01*
X0257585Y0173837D01*
X0257464Y0173939D01*
X0257346Y0174044D01*
X0257231Y0174153D01*
X0257118Y0174264D01*
X0257008Y0174378D01*
X0256901Y0174495D01*
X0256797Y0174614D01*
X0256696Y0174736D01*
X0256599Y0174861D01*
X0256504Y0174988D01*
X0256413Y0175117D01*
X0256324Y0175248D01*
X0256240Y0175382D01*
X0256158Y0175518D01*
X0256080Y0175655D01*
X0256006Y0175795D01*
X0255935Y0175937D01*
X0255867Y0176080D01*
X0255803Y0176225D01*
X0255743Y0176371D01*
X0255687Y0176519D01*
X0255634Y0176668D01*
X0255585Y0176819D01*
X0255540Y0176971D01*
X0255499Y0177124D01*
X0255461Y0177277D01*
X0255428Y0177432D01*
X0255398Y0177588D01*
X0255372Y0177744D01*
X0255351Y0177901D01*
X0255333Y0178058D01*
X0255319Y0178216D01*
X0255309Y0178374D01*
X0255303Y0178532D01*
X0255301Y0178690D01*
X0255301Y0018690D02*
X0255303Y0018848D01*
X0255309Y0019006D01*
X0255319Y0019164D01*
X0255333Y0019322D01*
X0255351Y0019479D01*
X0255372Y0019636D01*
X0255398Y0019792D01*
X0255428Y0019948D01*
X0255461Y0020103D01*
X0255499Y0020256D01*
X0255540Y0020409D01*
X0255585Y0020561D01*
X0255634Y0020712D01*
X0255687Y0020861D01*
X0255743Y0021009D01*
X0255803Y0021155D01*
X0255867Y0021300D01*
X0255935Y0021443D01*
X0256006Y0021585D01*
X0256080Y0021725D01*
X0256158Y0021862D01*
X0256240Y0021998D01*
X0256324Y0022132D01*
X0256413Y0022263D01*
X0256504Y0022392D01*
X0256599Y0022519D01*
X0256696Y0022644D01*
X0256797Y0022766D01*
X0256901Y0022885D01*
X0257008Y0023002D01*
X0257118Y0023116D01*
X0257231Y0023227D01*
X0257346Y0023336D01*
X0257464Y0023441D01*
X0257585Y0023543D01*
X0257708Y0023643D01*
X0257834Y0023739D01*
X0257962Y0023832D01*
X0258092Y0023922D01*
X0258225Y0024008D01*
X0258360Y0024092D01*
X0258496Y0024171D01*
X0258635Y0024248D01*
X0258776Y0024320D01*
X0258918Y0024390D01*
X0259062Y0024455D01*
X0259208Y0024517D01*
X0259355Y0024575D01*
X0259504Y0024630D01*
X0259654Y0024681D01*
X0259805Y0024728D01*
X0259957Y0024771D01*
X0260110Y0024810D01*
X0260265Y0024846D01*
X0260420Y0024877D01*
X0260576Y0024905D01*
X0260732Y0024929D01*
X0260889Y0024949D01*
X0261047Y0024965D01*
X0261204Y0024977D01*
X0261363Y0024985D01*
X0261521Y0024989D01*
X0261679Y0024989D01*
X0261837Y0024985D01*
X0261996Y0024977D01*
X0262153Y0024965D01*
X0262311Y0024949D01*
X0262468Y0024929D01*
X0262624Y0024905D01*
X0262780Y0024877D01*
X0262935Y0024846D01*
X0263090Y0024810D01*
X0263243Y0024771D01*
X0263395Y0024728D01*
X0263546Y0024681D01*
X0263696Y0024630D01*
X0263845Y0024575D01*
X0263992Y0024517D01*
X0264138Y0024455D01*
X0264282Y0024390D01*
X0264424Y0024320D01*
X0264565Y0024248D01*
X0264704Y0024171D01*
X0264840Y0024092D01*
X0264975Y0024008D01*
X0265108Y0023922D01*
X0265238Y0023832D01*
X0265366Y0023739D01*
X0265492Y0023643D01*
X0265615Y0023543D01*
X0265736Y0023441D01*
X0265854Y0023336D01*
X0265969Y0023227D01*
X0266082Y0023116D01*
X0266192Y0023002D01*
X0266299Y0022885D01*
X0266403Y0022766D01*
X0266504Y0022644D01*
X0266601Y0022519D01*
X0266696Y0022392D01*
X0266787Y0022263D01*
X0266876Y0022132D01*
X0266960Y0021998D01*
X0267042Y0021862D01*
X0267120Y0021725D01*
X0267194Y0021585D01*
X0267265Y0021443D01*
X0267333Y0021300D01*
X0267397Y0021155D01*
X0267457Y0021009D01*
X0267513Y0020861D01*
X0267566Y0020712D01*
X0267615Y0020561D01*
X0267660Y0020409D01*
X0267701Y0020256D01*
X0267739Y0020103D01*
X0267772Y0019948D01*
X0267802Y0019792D01*
X0267828Y0019636D01*
X0267849Y0019479D01*
X0267867Y0019322D01*
X0267881Y0019164D01*
X0267891Y0019006D01*
X0267897Y0018848D01*
X0267899Y0018690D01*
X0267897Y0018532D01*
X0267891Y0018374D01*
X0267881Y0018216D01*
X0267867Y0018058D01*
X0267849Y0017901D01*
X0267828Y0017744D01*
X0267802Y0017588D01*
X0267772Y0017432D01*
X0267739Y0017277D01*
X0267701Y0017124D01*
X0267660Y0016971D01*
X0267615Y0016819D01*
X0267566Y0016668D01*
X0267513Y0016519D01*
X0267457Y0016371D01*
X0267397Y0016225D01*
X0267333Y0016080D01*
X0267265Y0015937D01*
X0267194Y0015795D01*
X0267120Y0015655D01*
X0267042Y0015518D01*
X0266960Y0015382D01*
X0266876Y0015248D01*
X0266787Y0015117D01*
X0266696Y0014988D01*
X0266601Y0014861D01*
X0266504Y0014736D01*
X0266403Y0014614D01*
X0266299Y0014495D01*
X0266192Y0014378D01*
X0266082Y0014264D01*
X0265969Y0014153D01*
X0265854Y0014044D01*
X0265736Y0013939D01*
X0265615Y0013837D01*
X0265492Y0013737D01*
X0265366Y0013641D01*
X0265238Y0013548D01*
X0265108Y0013458D01*
X0264975Y0013372D01*
X0264840Y0013288D01*
X0264704Y0013209D01*
X0264565Y0013132D01*
X0264424Y0013060D01*
X0264282Y0012990D01*
X0264138Y0012925D01*
X0263992Y0012863D01*
X0263845Y0012805D01*
X0263696Y0012750D01*
X0263546Y0012699D01*
X0263395Y0012652D01*
X0263243Y0012609D01*
X0263090Y0012570D01*
X0262935Y0012534D01*
X0262780Y0012503D01*
X0262624Y0012475D01*
X0262468Y0012451D01*
X0262311Y0012431D01*
X0262153Y0012415D01*
X0261996Y0012403D01*
X0261837Y0012395D01*
X0261679Y0012391D01*
X0261521Y0012391D01*
X0261363Y0012395D01*
X0261204Y0012403D01*
X0261047Y0012415D01*
X0260889Y0012431D01*
X0260732Y0012451D01*
X0260576Y0012475D01*
X0260420Y0012503D01*
X0260265Y0012534D01*
X0260110Y0012570D01*
X0259957Y0012609D01*
X0259805Y0012652D01*
X0259654Y0012699D01*
X0259504Y0012750D01*
X0259355Y0012805D01*
X0259208Y0012863D01*
X0259062Y0012925D01*
X0258918Y0012990D01*
X0258776Y0013060D01*
X0258635Y0013132D01*
X0258496Y0013209D01*
X0258360Y0013288D01*
X0258225Y0013372D01*
X0258092Y0013458D01*
X0257962Y0013548D01*
X0257834Y0013641D01*
X0257708Y0013737D01*
X0257585Y0013837D01*
X0257464Y0013939D01*
X0257346Y0014044D01*
X0257231Y0014153D01*
X0257118Y0014264D01*
X0257008Y0014378D01*
X0256901Y0014495D01*
X0256797Y0014614D01*
X0256696Y0014736D01*
X0256599Y0014861D01*
X0256504Y0014988D01*
X0256413Y0015117D01*
X0256324Y0015248D01*
X0256240Y0015382D01*
X0256158Y0015518D01*
X0256080Y0015655D01*
X0256006Y0015795D01*
X0255935Y0015937D01*
X0255867Y0016080D01*
X0255803Y0016225D01*
X0255743Y0016371D01*
X0255687Y0016519D01*
X0255634Y0016668D01*
X0255585Y0016819D01*
X0255540Y0016971D01*
X0255499Y0017124D01*
X0255461Y0017277D01*
X0255428Y0017432D01*
X0255398Y0017588D01*
X0255372Y0017744D01*
X0255351Y0017901D01*
X0255333Y0018058D01*
X0255319Y0018216D01*
X0255309Y0018374D01*
X0255303Y0018532D01*
X0255301Y0018690D01*
D11*
X0240725Y0043690D02*
X0232475Y0043690D01*
X0232475Y0063690D02*
X0240725Y0063690D01*
X0231600Y0149565D02*
X0231600Y0157815D01*
X0211600Y0157815D02*
X0211600Y0149565D01*
X0149100Y0149565D02*
X0149100Y0157815D01*
X0129100Y0157815D02*
X0129100Y0149565D01*
X0066600Y0149565D02*
X0066600Y0157815D01*
X0046600Y0157815D02*
X0046600Y0149565D01*
X0045725Y0063690D02*
X0037475Y0063690D01*
X0037475Y0043690D02*
X0045725Y0043690D01*
D12*
X0066600Y0038690D03*
X0066600Y0048690D03*
X0211600Y0058690D03*
X0211600Y0068690D03*
D13*
X0126600Y0122549D03*
D14*
X0116600Y0122549D03*
X0106600Y0122549D03*
D15*
X0111053Y0122513D02*
X0116116Y0122513D01*
X0116116Y0122064D02*
X0112384Y0122064D01*
X0112464Y0121556D01*
X0112670Y0120921D01*
X0112973Y0120326D01*
X0113366Y0119786D01*
X0113838Y0119314D01*
X0114378Y0118922D01*
X0114972Y0118619D01*
X0115607Y0118413D01*
X0116116Y0118332D01*
X0116116Y0122064D01*
X0117084Y0122064D01*
X0117084Y0118332D01*
X0117593Y0118413D01*
X0118228Y0118619D01*
X0118822Y0118922D01*
X0119362Y0119314D01*
X0119834Y0119786D01*
X0120227Y0120326D01*
X0120529Y0120921D01*
X0120736Y0121556D01*
X0120816Y0122064D01*
X0117084Y0122064D01*
X0117084Y0123033D01*
X0116116Y0123033D01*
X0116116Y0126765D01*
X0115607Y0126684D01*
X0114972Y0126478D01*
X0114378Y0126175D01*
X0113838Y0125783D01*
X0113366Y0125311D01*
X0112973Y0124771D01*
X0112670Y0124176D01*
X0112464Y0123541D01*
X0112384Y0123033D01*
X0116116Y0123033D01*
X0116116Y0122064D01*
X0116116Y0121515D02*
X0117084Y0121515D01*
X0117084Y0122513D02*
X0122147Y0122513D01*
X0122147Y0121515D02*
X0120722Y0121515D01*
X0120323Y0120516D02*
X0122147Y0120516D01*
X0122147Y0119518D02*
X0119566Y0119518D01*
X0117920Y0118519D02*
X0122603Y0118519D01*
X0123026Y0118096D02*
X0130174Y0118096D01*
X0131053Y0118974D01*
X0131053Y0126123D01*
X0130174Y0127001D01*
X0123026Y0127001D01*
X0122147Y0126123D01*
X0122147Y0118974D01*
X0123026Y0118096D01*
X0117084Y0118519D02*
X0116116Y0118519D01*
X0115280Y0118519D02*
X0108508Y0118519D01*
X0109122Y0118774D02*
X0110375Y0120026D01*
X0111053Y0121663D01*
X0111053Y0123434D01*
X0110375Y0125071D01*
X0109122Y0126323D01*
X0107486Y0127001D01*
X0105714Y0127001D01*
X0104078Y0126323D01*
X0102825Y0125071D01*
X0102147Y0123434D01*
X0102147Y0121663D01*
X0102825Y0120026D01*
X0104078Y0118774D01*
X0105714Y0118096D01*
X0107486Y0118096D01*
X0109122Y0118774D01*
X0109866Y0119518D02*
X0113634Y0119518D01*
X0112877Y0120516D02*
X0110578Y0120516D01*
X0110991Y0121515D02*
X0112478Y0121515D01*
X0112460Y0123512D02*
X0111021Y0123512D01*
X0110607Y0124510D02*
X0112841Y0124510D01*
X0113564Y0125509D02*
X0109937Y0125509D01*
X0108679Y0126507D02*
X0115062Y0126507D01*
X0116116Y0126507D02*
X0117084Y0126507D01*
X0117084Y0126765D02*
X0117593Y0126684D01*
X0118228Y0126478D01*
X0118822Y0126175D01*
X0119362Y0125783D01*
X0119834Y0125311D01*
X0120227Y0124771D01*
X0120529Y0124176D01*
X0120736Y0123541D01*
X0120816Y0123033D01*
X0117084Y0123033D01*
X0117084Y0126765D01*
X0118138Y0126507D02*
X0122532Y0126507D01*
X0122147Y0125509D02*
X0119636Y0125509D01*
X0120359Y0124510D02*
X0122147Y0124510D01*
X0122147Y0123512D02*
X0120740Y0123512D01*
X0117084Y0123512D02*
X0116116Y0123512D01*
X0116116Y0124510D02*
X0117084Y0124510D01*
X0117084Y0125509D02*
X0116116Y0125509D01*
X0116116Y0120516D02*
X0117084Y0120516D01*
X0117084Y0119518D02*
X0116116Y0119518D01*
X0104692Y0118519D02*
X0003281Y0118519D01*
X0003281Y0117521D02*
X0274919Y0117521D01*
X0274919Y0118519D02*
X0130597Y0118519D01*
X0131053Y0119518D02*
X0274919Y0119518D01*
X0274919Y0120516D02*
X0131053Y0120516D01*
X0131053Y0121515D02*
X0274919Y0121515D01*
X0274919Y0122513D02*
X0131053Y0122513D01*
X0131053Y0123512D02*
X0274919Y0123512D01*
X0274919Y0124510D02*
X0131053Y0124510D01*
X0131053Y0125509D02*
X0274919Y0125509D01*
X0274919Y0126507D02*
X0130668Y0126507D01*
X0129600Y0144165D02*
X0130367Y0144286D01*
X0131178Y0144549D01*
X0131937Y0144936D01*
X0132626Y0145437D01*
X0133228Y0146039D01*
X0133729Y0146729D01*
X0134116Y0147488D01*
X0134379Y0148298D01*
X0134512Y0149139D01*
X0134512Y0153190D01*
X0129600Y0153190D01*
X0129600Y0144165D01*
X0129600Y0144480D02*
X0128600Y0144480D01*
X0128600Y0144165D02*
X0128600Y0153190D01*
X0129600Y0153190D01*
X0129600Y0154190D01*
X0134512Y0154190D01*
X0134512Y0158241D01*
X0134379Y0159083D01*
X0134116Y0159893D01*
X0133729Y0160652D01*
X0133228Y0161341D01*
X0132626Y0161944D01*
X0131937Y0162444D01*
X0131178Y0162831D01*
X0130367Y0163094D01*
X0129600Y0163216D01*
X0129600Y0154190D01*
X0128600Y0154190D01*
X0128600Y0153190D01*
X0123688Y0153190D01*
X0123688Y0149139D01*
X0123821Y0148298D01*
X0124084Y0147488D01*
X0124471Y0146729D01*
X0124972Y0146039D01*
X0125574Y0145437D01*
X0126263Y0144936D01*
X0127022Y0144549D01*
X0127833Y0144286D01*
X0128600Y0144165D01*
X0128600Y0145479D02*
X0129600Y0145479D01*
X0129600Y0146477D02*
X0128600Y0146477D01*
X0128600Y0147476D02*
X0129600Y0147476D01*
X0129600Y0148474D02*
X0128600Y0148474D01*
X0128600Y0149473D02*
X0129600Y0149473D01*
X0129600Y0150471D02*
X0128600Y0150471D01*
X0128600Y0151470D02*
X0129600Y0151470D01*
X0129600Y0152468D02*
X0128600Y0152468D01*
X0128600Y0153467D02*
X0072225Y0153467D01*
X0072225Y0154465D02*
X0123688Y0154465D01*
X0123688Y0154190D02*
X0128600Y0154190D01*
X0128600Y0163216D01*
X0127833Y0163094D01*
X0127022Y0162831D01*
X0126263Y0162444D01*
X0125574Y0161944D01*
X0124972Y0161341D01*
X0124471Y0160652D01*
X0124084Y0159893D01*
X0123821Y0159083D01*
X0123688Y0158241D01*
X0123688Y0154190D01*
X0123688Y0155464D02*
X0072225Y0155464D01*
X0072225Y0156463D02*
X0123688Y0156463D01*
X0123688Y0157461D02*
X0072225Y0157461D01*
X0072225Y0158460D02*
X0123722Y0158460D01*
X0123943Y0159458D02*
X0072008Y0159458D01*
X0072225Y0158934D02*
X0071369Y0161002D01*
X0069786Y0162584D01*
X0067719Y0163440D01*
X0065481Y0163440D01*
X0063414Y0162584D01*
X0061831Y0161002D01*
X0060975Y0158934D01*
X0060975Y0148446D01*
X0061831Y0146379D01*
X0063414Y0144797D01*
X0065481Y0143940D01*
X0067719Y0143940D01*
X0069786Y0144797D01*
X0071369Y0146379D01*
X0072225Y0148446D01*
X0072225Y0158934D01*
X0071594Y0160457D02*
X0124371Y0160457D01*
X0125086Y0161455D02*
X0070915Y0161455D01*
X0069917Y0162454D02*
X0126281Y0162454D01*
X0128600Y0162454D02*
X0129600Y0162454D01*
X0129600Y0161455D02*
X0128600Y0161455D01*
X0128600Y0160457D02*
X0129600Y0160457D01*
X0129600Y0159458D02*
X0128600Y0159458D01*
X0128600Y0158460D02*
X0129600Y0158460D01*
X0129600Y0157461D02*
X0128600Y0157461D01*
X0128600Y0156463D02*
X0129600Y0156463D01*
X0129600Y0155464D02*
X0128600Y0155464D01*
X0128600Y0154465D02*
X0129600Y0154465D01*
X0129600Y0153467D02*
X0143475Y0153467D01*
X0143475Y0154465D02*
X0134512Y0154465D01*
X0134512Y0155464D02*
X0143475Y0155464D01*
X0143475Y0156463D02*
X0134512Y0156463D01*
X0134512Y0157461D02*
X0143475Y0157461D01*
X0143475Y0158460D02*
X0134478Y0158460D01*
X0134257Y0159458D02*
X0143692Y0159458D01*
X0143475Y0158934D02*
X0143475Y0148446D01*
X0144331Y0146379D01*
X0145914Y0144797D01*
X0147981Y0143940D01*
X0150219Y0143940D01*
X0152286Y0144797D01*
X0153869Y0146379D01*
X0154725Y0148446D01*
X0154725Y0158934D01*
X0153869Y0161002D01*
X0152286Y0162584D01*
X0150219Y0163440D01*
X0147981Y0163440D01*
X0145914Y0162584D01*
X0144331Y0161002D01*
X0143475Y0158934D01*
X0144106Y0160457D02*
X0133829Y0160457D01*
X0133114Y0161455D02*
X0144785Y0161455D01*
X0145783Y0162454D02*
X0131919Y0162454D01*
X0134512Y0152468D02*
X0143475Y0152468D01*
X0143475Y0151470D02*
X0134512Y0151470D01*
X0134512Y0150471D02*
X0143475Y0150471D01*
X0143475Y0149473D02*
X0134512Y0149473D01*
X0134407Y0148474D02*
X0143475Y0148474D01*
X0143877Y0147476D02*
X0134110Y0147476D01*
X0133547Y0146477D02*
X0144291Y0146477D01*
X0145231Y0145479D02*
X0132668Y0145479D01*
X0130965Y0144480D02*
X0146677Y0144480D01*
X0151523Y0144480D02*
X0209177Y0144480D01*
X0208414Y0144797D02*
X0210481Y0143940D01*
X0212719Y0143940D01*
X0214786Y0144797D01*
X0216369Y0146379D01*
X0217225Y0148446D01*
X0217225Y0158934D01*
X0216369Y0161002D01*
X0214786Y0162584D01*
X0212719Y0163440D01*
X0210481Y0163440D01*
X0208414Y0162584D01*
X0206831Y0161002D01*
X0205975Y0158934D01*
X0205975Y0148446D01*
X0206831Y0146379D01*
X0208414Y0144797D01*
X0207731Y0145479D02*
X0152969Y0145479D01*
X0153909Y0146477D02*
X0206791Y0146477D01*
X0206377Y0147476D02*
X0154323Y0147476D01*
X0154725Y0148474D02*
X0205975Y0148474D01*
X0205975Y0149473D02*
X0154725Y0149473D01*
X0154725Y0150471D02*
X0205975Y0150471D01*
X0205975Y0151470D02*
X0154725Y0151470D01*
X0154725Y0152468D02*
X0205975Y0152468D01*
X0205975Y0153467D02*
X0154725Y0153467D01*
X0154725Y0154465D02*
X0205975Y0154465D01*
X0205975Y0155464D02*
X0154725Y0155464D01*
X0154725Y0156463D02*
X0205975Y0156463D01*
X0205975Y0157461D02*
X0154725Y0157461D01*
X0154725Y0158460D02*
X0205975Y0158460D01*
X0206192Y0159458D02*
X0154508Y0159458D01*
X0154094Y0160457D02*
X0206606Y0160457D01*
X0207285Y0161455D02*
X0153415Y0161455D01*
X0152417Y0162454D02*
X0208283Y0162454D01*
X0214917Y0162454D02*
X0228283Y0162454D01*
X0228414Y0162584D02*
X0226831Y0161002D01*
X0225975Y0158934D01*
X0225975Y0148446D01*
X0226831Y0146379D01*
X0228414Y0144797D01*
X0230481Y0143940D01*
X0232719Y0143940D01*
X0234786Y0144797D01*
X0236369Y0146379D01*
X0237225Y0148446D01*
X0237225Y0158934D01*
X0236369Y0161002D01*
X0234786Y0162584D01*
X0232719Y0163440D01*
X0230481Y0163440D01*
X0228414Y0162584D01*
X0227285Y0161455D02*
X0215915Y0161455D01*
X0216594Y0160457D02*
X0226606Y0160457D01*
X0226192Y0159458D02*
X0217008Y0159458D01*
X0217225Y0158460D02*
X0225975Y0158460D01*
X0225975Y0157461D02*
X0217225Y0157461D01*
X0217225Y0156463D02*
X0225975Y0156463D01*
X0225975Y0155464D02*
X0217225Y0155464D01*
X0217225Y0154465D02*
X0225975Y0154465D01*
X0225975Y0153467D02*
X0217225Y0153467D01*
X0217225Y0152468D02*
X0225975Y0152468D01*
X0225975Y0151470D02*
X0217225Y0151470D01*
X0217225Y0150471D02*
X0225975Y0150471D01*
X0225975Y0149473D02*
X0217225Y0149473D01*
X0217225Y0148474D02*
X0225975Y0148474D01*
X0226377Y0147476D02*
X0216823Y0147476D01*
X0216409Y0146477D02*
X0226791Y0146477D01*
X0227731Y0145479D02*
X0215469Y0145479D01*
X0214023Y0144480D02*
X0229177Y0144480D01*
X0234023Y0144480D02*
X0274919Y0144480D01*
X0274919Y0143482D02*
X0003281Y0143482D01*
X0003281Y0144480D02*
X0044177Y0144480D01*
X0043414Y0144797D02*
X0045481Y0143940D01*
X0047719Y0143940D01*
X0049786Y0144797D01*
X0051369Y0146379D01*
X0052225Y0148446D01*
X0052225Y0158934D01*
X0051369Y0161002D01*
X0049786Y0162584D01*
X0047719Y0163440D01*
X0045481Y0163440D01*
X0043414Y0162584D01*
X0041831Y0161002D01*
X0040975Y0158934D01*
X0040975Y0148446D01*
X0041831Y0146379D01*
X0043414Y0144797D01*
X0042731Y0145479D02*
X0003281Y0145479D01*
X0003281Y0146477D02*
X0041791Y0146477D01*
X0041377Y0147476D02*
X0003281Y0147476D01*
X0003281Y0148474D02*
X0040975Y0148474D01*
X0040975Y0149473D02*
X0003281Y0149473D01*
X0003281Y0150471D02*
X0040975Y0150471D01*
X0040975Y0151470D02*
X0003281Y0151470D01*
X0003281Y0152468D02*
X0040975Y0152468D01*
X0040975Y0153467D02*
X0003281Y0153467D01*
X0003281Y0154465D02*
X0040975Y0154465D01*
X0040975Y0155464D02*
X0003281Y0155464D01*
X0003281Y0156463D02*
X0040975Y0156463D01*
X0040975Y0157461D02*
X0003281Y0157461D01*
X0003281Y0158460D02*
X0040975Y0158460D01*
X0041192Y0159458D02*
X0003281Y0159458D01*
X0003281Y0160457D02*
X0041606Y0160457D01*
X0042285Y0161455D02*
X0003281Y0161455D01*
X0003281Y0162454D02*
X0043283Y0162454D01*
X0049917Y0162454D02*
X0063283Y0162454D01*
X0062285Y0161455D02*
X0050915Y0161455D01*
X0051594Y0160457D02*
X0061606Y0160457D01*
X0061192Y0159458D02*
X0052008Y0159458D01*
X0052225Y0158460D02*
X0060975Y0158460D01*
X0060975Y0157461D02*
X0052225Y0157461D01*
X0052225Y0156463D02*
X0060975Y0156463D01*
X0060975Y0155464D02*
X0052225Y0155464D01*
X0052225Y0154465D02*
X0060975Y0154465D01*
X0060975Y0153467D02*
X0052225Y0153467D01*
X0052225Y0152468D02*
X0060975Y0152468D01*
X0060975Y0151470D02*
X0052225Y0151470D01*
X0052225Y0150471D02*
X0060975Y0150471D01*
X0060975Y0149473D02*
X0052225Y0149473D01*
X0052225Y0148474D02*
X0060975Y0148474D01*
X0061377Y0147476D02*
X0051823Y0147476D01*
X0051409Y0146477D02*
X0061791Y0146477D01*
X0062731Y0145479D02*
X0050469Y0145479D01*
X0049023Y0144480D02*
X0064177Y0144480D01*
X0069023Y0144480D02*
X0127235Y0144480D01*
X0125532Y0145479D02*
X0070469Y0145479D01*
X0071409Y0146477D02*
X0124653Y0146477D01*
X0124090Y0147476D02*
X0071823Y0147476D01*
X0072225Y0148474D02*
X0123793Y0148474D01*
X0123688Y0149473D02*
X0072225Y0149473D01*
X0072225Y0150471D02*
X0123688Y0150471D01*
X0123688Y0151470D02*
X0072225Y0151470D01*
X0072225Y0152468D02*
X0123688Y0152468D01*
X0104521Y0126507D02*
X0003281Y0126507D01*
X0003281Y0125509D02*
X0103263Y0125509D01*
X0102593Y0124510D02*
X0003281Y0124510D01*
X0003281Y0123512D02*
X0102179Y0123512D01*
X0102147Y0122513D02*
X0003281Y0122513D01*
X0003281Y0121515D02*
X0102209Y0121515D01*
X0102622Y0120516D02*
X0003281Y0120516D01*
X0003281Y0119518D02*
X0103334Y0119518D01*
X0090786Y0106214D02*
X0089692Y0106667D01*
X0088508Y0106667D01*
X0087414Y0106214D01*
X0086791Y0105590D01*
X0062659Y0105590D01*
X0062036Y0106214D01*
X0060942Y0106667D01*
X0059758Y0106667D01*
X0058664Y0106214D01*
X0057827Y0105376D01*
X0057374Y0104282D01*
X0057374Y0103098D01*
X0057827Y0102004D01*
X0058664Y0101167D01*
X0059758Y0100714D01*
X0060942Y0100714D01*
X0062036Y0101167D01*
X0062659Y0101790D01*
X0086791Y0101790D01*
X0087414Y0101167D01*
X0088508Y0100714D01*
X0089692Y0100714D01*
X0090786Y0101167D01*
X0091623Y0102004D01*
X0092076Y0103098D01*
X0092076Y0104282D01*
X0091623Y0105376D01*
X0090786Y0106214D01*
X0090005Y0106537D02*
X0274919Y0106537D01*
X0274919Y0107535D02*
X0003281Y0107535D01*
X0003281Y0106537D02*
X0059445Y0106537D01*
X0057989Y0105538D02*
X0003281Y0105538D01*
X0003281Y0104540D02*
X0057480Y0104540D01*
X0057374Y0103541D02*
X0003281Y0103541D01*
X0003281Y0102543D02*
X0057604Y0102543D01*
X0058287Y0101544D02*
X0003281Y0101544D01*
X0003281Y0100546D02*
X0274919Y0100546D01*
X0274919Y0101544D02*
X0091163Y0101544D01*
X0091846Y0102543D02*
X0274919Y0102543D01*
X0274919Y0103541D02*
X0092076Y0103541D01*
X0091970Y0104540D02*
X0274919Y0104540D01*
X0274919Y0105538D02*
X0091461Y0105538D01*
X0088195Y0106537D02*
X0061255Y0106537D01*
X0062413Y0101544D02*
X0087037Y0101544D01*
X0102827Y0089126D02*
X0102374Y0088032D01*
X0102374Y0086848D01*
X0102827Y0085754D01*
X0103450Y0085131D01*
X0103450Y0080413D01*
X0103442Y0080417D01*
X0102258Y0080417D01*
X0101164Y0079964D01*
X0100327Y0079126D01*
X0099874Y0078032D01*
X0099874Y0077151D01*
X0094389Y0071667D01*
X0093508Y0071667D01*
X0092414Y0071214D01*
X0091577Y0070376D01*
X0091124Y0069282D01*
X0091124Y0068098D01*
X0091577Y0067004D01*
X0092414Y0066167D01*
X0093508Y0065714D01*
X0094692Y0065714D01*
X0095786Y0066167D01*
X0096623Y0067004D01*
X0097076Y0068098D01*
X0097076Y0068980D01*
X0102561Y0074464D01*
X0103442Y0074464D01*
X0103450Y0074467D01*
X0103450Y0072250D01*
X0102827Y0071626D01*
X0102374Y0070532D01*
X0102374Y0069348D01*
X0102827Y0068254D01*
X0103664Y0067417D01*
X0104758Y0066964D01*
X0105942Y0066964D01*
X0107036Y0067417D01*
X0107873Y0068254D01*
X0108326Y0069348D01*
X0108326Y0070532D01*
X0107873Y0071626D01*
X0107250Y0072250D01*
X0107250Y0085131D01*
X0107873Y0085754D01*
X0108326Y0086848D01*
X0108326Y0088032D01*
X0107873Y0089126D01*
X0107036Y0089964D01*
X0105942Y0090417D01*
X0104758Y0090417D01*
X0103664Y0089964D01*
X0102827Y0089126D01*
X0102594Y0088564D02*
X0003281Y0088564D01*
X0003281Y0089562D02*
X0103263Y0089562D01*
X0102374Y0087565D02*
X0003281Y0087565D01*
X0003281Y0086567D02*
X0102490Y0086567D01*
X0103013Y0085568D02*
X0003281Y0085568D01*
X0003281Y0084570D02*
X0103450Y0084570D01*
X0103450Y0083571D02*
X0003281Y0083571D01*
X0003281Y0082573D02*
X0103450Y0082573D01*
X0103450Y0081574D02*
X0003281Y0081574D01*
X0003281Y0080576D02*
X0103450Y0080576D01*
X0100778Y0079577D02*
X0003281Y0079577D01*
X0003281Y0078579D02*
X0100100Y0078579D01*
X0099874Y0077580D02*
X0003281Y0077580D01*
X0003281Y0076582D02*
X0099304Y0076582D01*
X0098306Y0075583D02*
X0003281Y0075583D01*
X0003281Y0074585D02*
X0097307Y0074585D01*
X0096309Y0073586D02*
X0003281Y0073586D01*
X0003281Y0072588D02*
X0095310Y0072588D01*
X0093321Y0071589D02*
X0003281Y0071589D01*
X0003281Y0070591D02*
X0091791Y0070591D01*
X0091252Y0069592D02*
X0003281Y0069592D01*
X0003281Y0068594D02*
X0034614Y0068594D01*
X0034289Y0068459D02*
X0032706Y0066877D01*
X0031850Y0064809D01*
X0031850Y0062571D01*
X0032706Y0060504D01*
X0034289Y0058922D01*
X0036356Y0058065D01*
X0046844Y0058065D01*
X0048911Y0058922D01*
X0050494Y0060504D01*
X0051350Y0062571D01*
X0051350Y0064809D01*
X0050494Y0066877D01*
X0048911Y0068459D01*
X0046844Y0069315D01*
X0036356Y0069315D01*
X0034289Y0068459D01*
X0033425Y0067595D02*
X0003281Y0067595D01*
X0003281Y0066596D02*
X0032590Y0066596D01*
X0032177Y0065598D02*
X0003281Y0065598D01*
X0003281Y0064599D02*
X0031850Y0064599D01*
X0031850Y0063601D02*
X0003281Y0063601D01*
X0003281Y0062602D02*
X0031850Y0062602D01*
X0032251Y0061604D02*
X0003281Y0061604D01*
X0003281Y0060605D02*
X0032664Y0060605D01*
X0033603Y0059607D02*
X0003281Y0059607D01*
X0003281Y0058608D02*
X0035045Y0058608D01*
X0036356Y0049315D02*
X0034289Y0048459D01*
X0032706Y0046877D01*
X0031850Y0044809D01*
X0031850Y0042571D01*
X0032706Y0040504D01*
X0034289Y0038922D01*
X0036356Y0038065D01*
X0046844Y0038065D01*
X0048911Y0038922D01*
X0050494Y0040504D01*
X0051350Y0042571D01*
X0051350Y0044809D01*
X0050494Y0046877D01*
X0048911Y0048459D01*
X0046844Y0049315D01*
X0036356Y0049315D01*
X0034686Y0048623D02*
X0003281Y0048623D01*
X0003281Y0047625D02*
X0033455Y0047625D01*
X0032603Y0046626D02*
X0003281Y0046626D01*
X0003281Y0045628D02*
X0032189Y0045628D01*
X0031850Y0044629D02*
X0003281Y0044629D01*
X0003281Y0043631D02*
X0031850Y0043631D01*
X0031850Y0042632D02*
X0003281Y0042632D01*
X0003281Y0041634D02*
X0032238Y0041634D01*
X0032652Y0040635D02*
X0003281Y0040635D01*
X0003281Y0039637D02*
X0033574Y0039637D01*
X0034973Y0038638D02*
X0003281Y0038638D01*
X0003281Y0037640D02*
X0061407Y0037640D01*
X0061400Y0037656D02*
X0062192Y0035745D01*
X0063654Y0034282D01*
X0065566Y0033490D01*
X0067634Y0033490D01*
X0069546Y0034282D01*
X0071008Y0035745D01*
X0071800Y0037656D01*
X0071800Y0039725D01*
X0071008Y0041636D01*
X0069546Y0043099D01*
X0068117Y0043690D01*
X0069546Y0044282D01*
X0071008Y0045745D01*
X0071800Y0047656D01*
X0071800Y0049725D01*
X0071008Y0051636D01*
X0069546Y0053099D01*
X0067634Y0053890D01*
X0065566Y0053890D01*
X0063654Y0053099D01*
X0062192Y0051636D01*
X0061400Y0049725D01*
X0061400Y0047656D01*
X0062192Y0045745D01*
X0063654Y0044282D01*
X0065083Y0043690D01*
X0063654Y0043099D01*
X0062192Y0041636D01*
X0061400Y0039725D01*
X0061400Y0037656D01*
X0061400Y0038638D02*
X0048227Y0038638D01*
X0049626Y0039637D02*
X0061400Y0039637D01*
X0061777Y0040635D02*
X0050548Y0040635D01*
X0050962Y0041634D02*
X0062191Y0041634D01*
X0063188Y0042632D02*
X0051350Y0042632D01*
X0051350Y0043631D02*
X0064939Y0043631D01*
X0063307Y0044629D02*
X0051350Y0044629D01*
X0051011Y0045628D02*
X0062309Y0045628D01*
X0061826Y0046626D02*
X0050597Y0046626D01*
X0049745Y0047625D02*
X0061413Y0047625D01*
X0061400Y0048623D02*
X0048514Y0048623D01*
X0061400Y0049622D02*
X0003281Y0049622D01*
X0003281Y0050620D02*
X0061771Y0050620D01*
X0062185Y0051619D02*
X0003281Y0051619D01*
X0003281Y0052617D02*
X0063173Y0052617D01*
X0064903Y0053616D02*
X0003281Y0053616D01*
X0003281Y0054614D02*
X0091575Y0054614D01*
X0091575Y0053616D02*
X0068297Y0053616D01*
X0070027Y0052617D02*
X0091575Y0052617D01*
X0091575Y0051619D02*
X0071015Y0051619D01*
X0071429Y0050620D02*
X0091575Y0050620D01*
X0091575Y0049622D02*
X0071800Y0049622D01*
X0071800Y0048623D02*
X0091575Y0048623D01*
X0091575Y0047625D02*
X0071787Y0047625D01*
X0071373Y0046626D02*
X0090599Y0046626D01*
X0091575Y0047602D02*
X0084563Y0040590D01*
X0079563Y0040590D01*
X0074389Y0035417D01*
X0073508Y0035417D01*
X0072414Y0034964D01*
X0071577Y0034126D01*
X0071124Y0033032D01*
X0071124Y0031848D01*
X0071577Y0030754D01*
X0072414Y0029917D01*
X0073508Y0029464D01*
X0074692Y0029464D01*
X0075786Y0029917D01*
X0076623Y0030754D01*
X0077076Y0031848D01*
X0077076Y0032730D01*
X0081137Y0036790D01*
X0086137Y0036790D01*
X0087250Y0037903D01*
X0095375Y0046028D01*
X0095375Y0056381D01*
X0095998Y0057004D01*
X0096451Y0058098D01*
X0096451Y0059282D01*
X0095998Y0060376D01*
X0095161Y0061214D01*
X0094067Y0061667D01*
X0092883Y0061667D01*
X0091789Y0061214D01*
X0090952Y0060376D01*
X0090499Y0059282D01*
X0090499Y0058098D01*
X0090952Y0057004D01*
X0091575Y0056381D01*
X0091575Y0047602D01*
X0089600Y0045628D02*
X0070891Y0045628D01*
X0069893Y0044629D02*
X0088602Y0044629D01*
X0087603Y0043631D02*
X0068261Y0043631D01*
X0070012Y0042632D02*
X0086605Y0042632D01*
X0085606Y0041634D02*
X0071009Y0041634D01*
X0071423Y0040635D02*
X0084608Y0040635D01*
X0086986Y0037640D02*
X0123441Y0037640D01*
X0123664Y0037417D02*
X0124758Y0036964D01*
X0125942Y0036964D01*
X0127036Y0037417D01*
X0127873Y0038254D01*
X0128326Y0039348D01*
X0128326Y0040532D01*
X0127873Y0041626D01*
X0127250Y0042250D01*
X0127250Y0062631D01*
X0127873Y0063254D01*
X0128326Y0064348D01*
X0128326Y0065532D01*
X0127873Y0066626D01*
X0127036Y0067464D01*
X0125942Y0067917D01*
X0124758Y0067917D01*
X0123664Y0067464D01*
X0123500Y0067299D01*
X0123500Y0072631D01*
X0124123Y0073254D01*
X0124576Y0074348D01*
X0124576Y0075532D01*
X0124123Y0076626D01*
X0123286Y0077464D01*
X0122192Y0077917D01*
X0121008Y0077917D01*
X0119914Y0077464D01*
X0119077Y0076626D01*
X0118624Y0075532D01*
X0118624Y0074348D01*
X0119077Y0073254D01*
X0119700Y0072631D01*
X0119700Y0048500D01*
X0119077Y0047876D01*
X0118624Y0046782D01*
X0118624Y0045598D01*
X0119077Y0044504D01*
X0119914Y0043667D01*
X0121008Y0043214D01*
X0122192Y0043214D01*
X0123286Y0043667D01*
X0123450Y0043831D01*
X0123450Y0042250D01*
X0122827Y0041626D01*
X0122374Y0040532D01*
X0122374Y0039348D01*
X0122827Y0038254D01*
X0123664Y0037417D01*
X0122668Y0038638D02*
X0087985Y0038638D01*
X0088983Y0039637D02*
X0122374Y0039637D01*
X0122416Y0040635D02*
X0089982Y0040635D01*
X0090980Y0041634D02*
X0122834Y0041634D01*
X0123450Y0042632D02*
X0091979Y0042632D01*
X0092977Y0043631D02*
X0120002Y0043631D01*
X0119025Y0044629D02*
X0093976Y0044629D01*
X0094974Y0045628D02*
X0118624Y0045628D01*
X0118624Y0046626D02*
X0095375Y0046626D01*
X0095375Y0047625D02*
X0118973Y0047625D01*
X0119700Y0048623D02*
X0095375Y0048623D01*
X0095375Y0049622D02*
X0119700Y0049622D01*
X0119700Y0050620D02*
X0095375Y0050620D01*
X0095375Y0051619D02*
X0119700Y0051619D01*
X0119700Y0052617D02*
X0095375Y0052617D01*
X0095375Y0053616D02*
X0119700Y0053616D01*
X0119700Y0054614D02*
X0095375Y0054614D01*
X0095375Y0055613D02*
X0119700Y0055613D01*
X0119700Y0056611D02*
X0095605Y0056611D01*
X0096249Y0057610D02*
X0119700Y0057610D01*
X0119700Y0058608D02*
X0096451Y0058608D01*
X0096317Y0059607D02*
X0119700Y0059607D01*
X0119700Y0060605D02*
X0095769Y0060605D01*
X0094218Y0061604D02*
X0119700Y0061604D01*
X0119700Y0062602D02*
X0051350Y0062602D01*
X0051350Y0063601D02*
X0119700Y0063601D01*
X0119700Y0064599D02*
X0051350Y0064599D01*
X0051023Y0065598D02*
X0119700Y0065598D01*
X0119700Y0066596D02*
X0096215Y0066596D01*
X0096868Y0067595D02*
X0103486Y0067595D01*
X0102686Y0068594D02*
X0097076Y0068594D01*
X0097689Y0069592D02*
X0102374Y0069592D01*
X0102398Y0070591D02*
X0098687Y0070591D01*
X0099686Y0071589D02*
X0102811Y0071589D01*
X0103450Y0072588D02*
X0100684Y0072588D01*
X0101683Y0073586D02*
X0103450Y0073586D01*
X0107250Y0073586D02*
X0118939Y0073586D01*
X0118624Y0074585D02*
X0107250Y0074585D01*
X0107250Y0075583D02*
X0118645Y0075583D01*
X0119058Y0076582D02*
X0107250Y0076582D01*
X0107250Y0077580D02*
X0120196Y0077580D01*
X0123004Y0077580D02*
X0158838Y0077580D01*
X0158624Y0078098D02*
X0159077Y0077004D01*
X0159914Y0076167D01*
X0161008Y0075714D01*
X0162192Y0075714D01*
X0163286Y0076167D01*
X0163909Y0076790D01*
X0171791Y0076790D01*
X0172414Y0076167D01*
X0173508Y0075714D01*
X0174692Y0075714D01*
X0175786Y0076167D01*
X0176623Y0077004D01*
X0177076Y0078098D01*
X0177076Y0079282D01*
X0176623Y0080376D01*
X0175786Y0081214D01*
X0174692Y0081667D01*
X0173508Y0081667D01*
X0172414Y0081214D01*
X0171791Y0080590D01*
X0163909Y0080590D01*
X0163286Y0081214D01*
X0162192Y0081667D01*
X0161008Y0081667D01*
X0159914Y0081214D01*
X0159077Y0080376D01*
X0158624Y0079282D01*
X0158624Y0078098D01*
X0158624Y0078579D02*
X0107250Y0078579D01*
X0107250Y0079577D02*
X0158746Y0079577D01*
X0159276Y0080576D02*
X0107250Y0080576D01*
X0107250Y0081574D02*
X0160785Y0081574D01*
X0162415Y0081574D02*
X0173285Y0081574D01*
X0174915Y0081574D02*
X0274919Y0081574D01*
X0274919Y0080576D02*
X0176424Y0080576D01*
X0176954Y0079577D02*
X0274919Y0079577D01*
X0274919Y0078579D02*
X0177076Y0078579D01*
X0176862Y0077580D02*
X0274919Y0077580D01*
X0274919Y0076582D02*
X0176201Y0076582D01*
X0171999Y0076582D02*
X0163701Y0076582D01*
X0159499Y0076582D02*
X0124142Y0076582D01*
X0124555Y0075583D02*
X0274919Y0075583D01*
X0274919Y0074585D02*
X0124576Y0074585D01*
X0124261Y0073586D02*
X0209831Y0073586D01*
X0210566Y0073890D02*
X0208654Y0073099D01*
X0207192Y0071636D01*
X0206400Y0069725D01*
X0206400Y0067656D01*
X0207192Y0065745D01*
X0208654Y0064282D01*
X0210083Y0063690D01*
X0208654Y0063099D01*
X0207192Y0061636D01*
X0206400Y0059725D01*
X0206400Y0057656D01*
X0207192Y0055745D01*
X0208654Y0054282D01*
X0210566Y0053490D01*
X0212634Y0053490D01*
X0214546Y0054282D01*
X0216008Y0055745D01*
X0216800Y0057656D01*
X0216800Y0059725D01*
X0216008Y0061636D01*
X0214546Y0063099D01*
X0213117Y0063690D01*
X0214546Y0064282D01*
X0216008Y0065745D01*
X0216800Y0067656D01*
X0216800Y0069725D01*
X0216008Y0071636D01*
X0214546Y0073099D01*
X0212634Y0073890D01*
X0210566Y0073890D01*
X0208143Y0072588D02*
X0151737Y0072588D01*
X0152036Y0072464D02*
X0150942Y0072917D01*
X0149758Y0072917D01*
X0148664Y0072464D01*
X0147827Y0071626D01*
X0147374Y0070532D01*
X0147374Y0069348D01*
X0147827Y0068254D01*
X0147991Y0068090D01*
X0133909Y0068090D01*
X0133286Y0068714D01*
X0132192Y0069167D01*
X0131008Y0069167D01*
X0129914Y0068714D01*
X0129077Y0067876D01*
X0128624Y0066782D01*
X0128624Y0065598D01*
X0128299Y0065598D01*
X0128624Y0065598D02*
X0129077Y0064504D01*
X0129914Y0063667D01*
X0131008Y0063214D01*
X0132192Y0063214D01*
X0133286Y0063667D01*
X0133909Y0064290D01*
X0157013Y0064290D01*
X0155950Y0063227D01*
X0152063Y0059340D01*
X0150950Y0058227D01*
X0150950Y0048500D01*
X0150327Y0047876D01*
X0149874Y0046782D01*
X0149874Y0045598D01*
X0150327Y0044504D01*
X0151164Y0043667D01*
X0152258Y0043214D01*
X0153442Y0043214D01*
X0154536Y0043667D01*
X0155373Y0044504D01*
X0155826Y0045598D01*
X0155826Y0046782D01*
X0155373Y0047876D01*
X0154750Y0048500D01*
X0154750Y0056653D01*
X0158637Y0060540D01*
X0164887Y0060540D01*
X0166311Y0061964D01*
X0167192Y0061964D01*
X0168286Y0062417D01*
X0169123Y0063254D01*
X0169576Y0064348D01*
X0169576Y0065532D01*
X0169123Y0066626D01*
X0168286Y0067464D01*
X0167192Y0067917D01*
X0166008Y0067917D01*
X0164914Y0067464D01*
X0164476Y0067025D01*
X0164123Y0067876D01*
X0163959Y0068040D01*
X0170813Y0068040D01*
X0172200Y0066653D01*
X0172200Y0040403D01*
X0173313Y0039290D01*
X0187374Y0025230D01*
X0187374Y0024348D01*
X0187827Y0023254D01*
X0187991Y0023090D01*
X0167063Y0023090D01*
X0166889Y0022917D01*
X0166008Y0022917D01*
X0164914Y0022464D01*
X0164077Y0021626D01*
X0163624Y0020532D01*
X0163624Y0019354D01*
X0158500Y0024477D01*
X0158500Y0027631D01*
X0159123Y0028254D01*
X0159576Y0029348D01*
X0159576Y0030532D01*
X0159123Y0031626D01*
X0158286Y0032464D01*
X0157192Y0032917D01*
X0156008Y0032917D01*
X0154914Y0032464D01*
X0154077Y0031626D01*
X0153624Y0030532D01*
X0153624Y0029348D01*
X0154077Y0028254D01*
X0154700Y0027631D01*
X0154700Y0022903D01*
X0163313Y0014290D01*
X0168313Y0014290D01*
X0173313Y0009290D01*
X0174291Y0009290D01*
X0174914Y0008667D01*
X0176008Y0008214D01*
X0177192Y0008214D01*
X0178286Y0008667D01*
X0179123Y0009504D01*
X0179576Y0010598D01*
X0179576Y0011782D01*
X0179123Y0012876D01*
X0178286Y0013714D01*
X0177192Y0014167D01*
X0176008Y0014167D01*
X0174914Y0013714D01*
X0174589Y0013388D01*
X0171000Y0016977D01*
X0169887Y0018090D01*
X0168959Y0018090D01*
X0169123Y0018254D01*
X0169552Y0019290D01*
X0206791Y0019290D01*
X0207414Y0018667D01*
X0208508Y0018214D01*
X0209692Y0018214D01*
X0210786Y0018667D01*
X0211623Y0019504D01*
X0212076Y0020598D01*
X0212076Y0021782D01*
X0211623Y0022876D01*
X0210786Y0023714D01*
X0209692Y0024167D01*
X0208508Y0024167D01*
X0207414Y0023714D01*
X0206791Y0023090D01*
X0192709Y0023090D01*
X0192873Y0023254D01*
X0193326Y0024348D01*
X0193326Y0025532D01*
X0192873Y0026626D01*
X0192036Y0027464D01*
X0190942Y0027917D01*
X0190061Y0027917D01*
X0176000Y0041977D01*
X0176000Y0068227D01*
X0173500Y0070727D01*
X0172387Y0071840D01*
X0152659Y0071840D01*
X0152036Y0072464D01*
X0148963Y0072588D02*
X0123500Y0072588D01*
X0123500Y0071589D02*
X0147811Y0071589D01*
X0147398Y0070591D02*
X0123500Y0070591D01*
X0123500Y0069592D02*
X0147374Y0069592D01*
X0147686Y0068594D02*
X0133406Y0068594D01*
X0129794Y0068594D02*
X0123500Y0068594D01*
X0123500Y0067595D02*
X0123981Y0067595D01*
X0126719Y0067595D02*
X0128960Y0067595D01*
X0128624Y0066596D02*
X0127886Y0066596D01*
X0128326Y0064599D02*
X0129037Y0064599D01*
X0128017Y0063601D02*
X0130074Y0063601D01*
X0127250Y0062602D02*
X0155325Y0062602D01*
X0155950Y0063227D02*
X0155950Y0063227D01*
X0156324Y0063601D02*
X0133126Y0063601D01*
X0127250Y0061604D02*
X0154327Y0061604D01*
X0153328Y0060605D02*
X0127250Y0060605D01*
X0127250Y0059607D02*
X0152330Y0059607D01*
X0152063Y0059340D02*
X0152063Y0059340D01*
X0151331Y0058608D02*
X0127250Y0058608D01*
X0127250Y0057610D02*
X0150950Y0057610D01*
X0150950Y0056611D02*
X0127250Y0056611D01*
X0127250Y0055613D02*
X0150950Y0055613D01*
X0150950Y0054614D02*
X0127250Y0054614D01*
X0127250Y0053616D02*
X0150950Y0053616D01*
X0150950Y0052617D02*
X0127250Y0052617D01*
X0127250Y0051619D02*
X0150950Y0051619D01*
X0150950Y0050620D02*
X0127250Y0050620D01*
X0127250Y0049622D02*
X0150950Y0049622D01*
X0150950Y0048623D02*
X0127250Y0048623D01*
X0127250Y0047625D02*
X0150223Y0047625D01*
X0149874Y0046626D02*
X0127250Y0046626D01*
X0127250Y0045628D02*
X0149874Y0045628D01*
X0150275Y0044629D02*
X0127250Y0044629D01*
X0127250Y0043631D02*
X0151252Y0043631D01*
X0154448Y0043631D02*
X0172200Y0043631D01*
X0172200Y0044629D02*
X0155425Y0044629D01*
X0155826Y0045628D02*
X0172200Y0045628D01*
X0172200Y0046626D02*
X0155826Y0046626D01*
X0155477Y0047625D02*
X0172200Y0047625D01*
X0172200Y0048623D02*
X0154750Y0048623D01*
X0154750Y0049622D02*
X0172200Y0049622D01*
X0172200Y0050620D02*
X0154750Y0050620D01*
X0154750Y0051619D02*
X0172200Y0051619D01*
X0172200Y0052617D02*
X0154750Y0052617D01*
X0154750Y0053616D02*
X0172200Y0053616D01*
X0172200Y0054614D02*
X0154750Y0054614D01*
X0154750Y0055613D02*
X0172200Y0055613D01*
X0172200Y0056611D02*
X0154750Y0056611D01*
X0155707Y0057610D02*
X0172200Y0057610D01*
X0172200Y0058608D02*
X0156705Y0058608D01*
X0157704Y0059607D02*
X0172200Y0059607D01*
X0172200Y0060605D02*
X0164952Y0060605D01*
X0165951Y0061604D02*
X0172200Y0061604D01*
X0172200Y0062602D02*
X0168471Y0062602D01*
X0169267Y0063601D02*
X0172200Y0063601D01*
X0172200Y0064599D02*
X0169576Y0064599D01*
X0169549Y0065598D02*
X0172200Y0065598D01*
X0172200Y0066596D02*
X0169136Y0066596D01*
X0167969Y0067595D02*
X0171258Y0067595D01*
X0174635Y0069592D02*
X0206400Y0069592D01*
X0206400Y0068594D02*
X0175634Y0068594D01*
X0176000Y0067595D02*
X0206425Y0067595D01*
X0206839Y0066596D02*
X0176000Y0066596D01*
X0176000Y0065598D02*
X0207338Y0065598D01*
X0208337Y0064599D02*
X0176000Y0064599D01*
X0176000Y0063601D02*
X0209867Y0063601D01*
X0208158Y0062602D02*
X0186701Y0062602D01*
X0187036Y0062464D02*
X0185942Y0062917D01*
X0184758Y0062917D01*
X0183664Y0062464D01*
X0182827Y0061626D01*
X0182374Y0060532D01*
X0182374Y0059348D01*
X0182827Y0058254D01*
X0183450Y0057631D01*
X0183450Y0042250D01*
X0182827Y0041626D01*
X0182374Y0040532D01*
X0182374Y0039348D01*
X0182827Y0038254D01*
X0183664Y0037417D01*
X0184758Y0036964D01*
X0185942Y0036964D01*
X0187036Y0037417D01*
X0187873Y0038254D01*
X0188326Y0039348D01*
X0188326Y0040532D01*
X0187873Y0041626D01*
X0187250Y0042250D01*
X0187250Y0057631D01*
X0187873Y0058254D01*
X0188326Y0059348D01*
X0188326Y0060532D01*
X0187873Y0061626D01*
X0187036Y0062464D01*
X0187882Y0061604D02*
X0207178Y0061604D01*
X0206765Y0060605D02*
X0188296Y0060605D01*
X0188326Y0059607D02*
X0206400Y0059607D01*
X0206400Y0058608D02*
X0188020Y0058608D01*
X0187250Y0057610D02*
X0206419Y0057610D01*
X0206833Y0056611D02*
X0187250Y0056611D01*
X0187250Y0055613D02*
X0207323Y0055613D01*
X0208322Y0054614D02*
X0187250Y0054614D01*
X0187250Y0053616D02*
X0210262Y0053616D01*
X0212937Y0053616D02*
X0274919Y0053616D01*
X0274919Y0054614D02*
X0214878Y0054614D01*
X0215877Y0055613D02*
X0274919Y0055613D01*
X0274919Y0056611D02*
X0216367Y0056611D01*
X0216781Y0057610D02*
X0274919Y0057610D01*
X0274919Y0058608D02*
X0243155Y0058608D01*
X0243911Y0058922D02*
X0245494Y0060504D01*
X0246350Y0062571D01*
X0246350Y0064809D01*
X0245494Y0066877D01*
X0243911Y0068459D01*
X0241844Y0069315D01*
X0231356Y0069315D01*
X0229289Y0068459D01*
X0227706Y0066877D01*
X0226850Y0064809D01*
X0226850Y0062571D01*
X0227706Y0060504D01*
X0229289Y0058922D01*
X0231356Y0058065D01*
X0241844Y0058065D01*
X0243911Y0058922D01*
X0244597Y0059607D02*
X0274919Y0059607D01*
X0274919Y0060605D02*
X0245536Y0060605D01*
X0245949Y0061604D02*
X0274919Y0061604D01*
X0274919Y0062602D02*
X0246350Y0062602D01*
X0246350Y0063601D02*
X0274919Y0063601D01*
X0274919Y0064599D02*
X0246350Y0064599D01*
X0246023Y0065598D02*
X0274919Y0065598D01*
X0274919Y0066596D02*
X0245610Y0066596D01*
X0244775Y0067595D02*
X0274919Y0067595D01*
X0274919Y0068594D02*
X0243586Y0068594D01*
X0229614Y0068594D02*
X0216800Y0068594D01*
X0216800Y0069592D02*
X0274919Y0069592D01*
X0274919Y0070591D02*
X0216441Y0070591D01*
X0216028Y0071589D02*
X0274919Y0071589D01*
X0274919Y0072588D02*
X0215057Y0072588D01*
X0213369Y0073586D02*
X0274919Y0073586D01*
X0274919Y0082573D02*
X0107250Y0082573D01*
X0107250Y0083571D02*
X0274919Y0083571D01*
X0274919Y0084570D02*
X0107250Y0084570D01*
X0107687Y0085568D02*
X0274919Y0085568D01*
X0274919Y0086567D02*
X0108210Y0086567D01*
X0108326Y0087565D02*
X0119766Y0087565D01*
X0119914Y0087417D02*
X0121008Y0086964D01*
X0122192Y0086964D01*
X0123286Y0087417D01*
X0123909Y0088040D01*
X0138637Y0088040D01*
X0142387Y0091790D01*
X0146791Y0091790D01*
X0147414Y0091167D01*
X0148508Y0090714D01*
X0149692Y0090714D01*
X0150786Y0091167D01*
X0151623Y0092004D01*
X0152076Y0093098D01*
X0152076Y0094282D01*
X0151623Y0095376D01*
X0150786Y0096214D01*
X0149692Y0096667D01*
X0148508Y0096667D01*
X0147414Y0096214D01*
X0146791Y0095590D01*
X0140813Y0095590D01*
X0139700Y0094477D01*
X0137063Y0091840D01*
X0123909Y0091840D01*
X0123286Y0092464D01*
X0122192Y0092917D01*
X0121008Y0092917D01*
X0119914Y0092464D01*
X0119077Y0091626D01*
X0118624Y0090532D01*
X0118624Y0089348D01*
X0119077Y0088254D01*
X0119914Y0087417D01*
X0118949Y0088564D02*
X0108106Y0088564D01*
X0107437Y0089562D02*
X0118624Y0089562D01*
X0118635Y0090561D02*
X0003281Y0090561D01*
X0003281Y0091559D02*
X0119049Y0091559D01*
X0120142Y0092558D02*
X0003281Y0092558D01*
X0003281Y0093556D02*
X0138779Y0093556D01*
X0137781Y0092558D02*
X0123058Y0092558D01*
X0123434Y0087565D02*
X0274919Y0087565D01*
X0274919Y0088564D02*
X0139160Y0088564D01*
X0140159Y0089562D02*
X0274919Y0089562D01*
X0274919Y0090561D02*
X0141157Y0090561D01*
X0142156Y0091559D02*
X0147022Y0091559D01*
X0151178Y0091559D02*
X0274919Y0091559D01*
X0274919Y0092558D02*
X0151852Y0092558D01*
X0152076Y0093556D02*
X0274919Y0093556D01*
X0274919Y0094555D02*
X0151963Y0094555D01*
X0151446Y0095553D02*
X0274919Y0095553D01*
X0274919Y0096552D02*
X0149969Y0096552D01*
X0148231Y0096552D02*
X0003281Y0096552D01*
X0003281Y0097550D02*
X0274919Y0097550D01*
X0274919Y0098549D02*
X0003281Y0098549D01*
X0003281Y0099547D02*
X0274919Y0099547D01*
X0274919Y0108534D02*
X0003281Y0108534D01*
X0003281Y0109532D02*
X0274919Y0109532D01*
X0274919Y0110531D02*
X0003281Y0110531D01*
X0003281Y0111530D02*
X0274919Y0111530D01*
X0274919Y0112528D02*
X0003281Y0112528D01*
X0003281Y0113527D02*
X0274919Y0113527D01*
X0274919Y0114525D02*
X0003281Y0114525D01*
X0003281Y0115524D02*
X0274919Y0115524D01*
X0274919Y0116522D02*
X0003281Y0116522D01*
X0003281Y0127506D02*
X0274919Y0127506D01*
X0274919Y0128504D02*
X0003281Y0128504D01*
X0003281Y0129503D02*
X0274919Y0129503D01*
X0274919Y0130501D02*
X0003281Y0130501D01*
X0003281Y0131500D02*
X0274919Y0131500D01*
X0274919Y0132498D02*
X0003281Y0132498D01*
X0003281Y0133497D02*
X0274919Y0133497D01*
X0274919Y0134495D02*
X0003281Y0134495D01*
X0003281Y0135494D02*
X0274919Y0135494D01*
X0274919Y0136492D02*
X0003281Y0136492D01*
X0003281Y0137491D02*
X0274919Y0137491D01*
X0274919Y0138489D02*
X0003281Y0138489D01*
X0003281Y0139488D02*
X0274919Y0139488D01*
X0274919Y0140486D02*
X0003281Y0140486D01*
X0003281Y0141485D02*
X0274919Y0141485D01*
X0274919Y0142483D02*
X0003281Y0142483D01*
X0003281Y0163452D02*
X0274919Y0163452D01*
X0274919Y0162454D02*
X0234917Y0162454D01*
X0235915Y0161455D02*
X0274919Y0161455D01*
X0274919Y0160457D02*
X0236594Y0160457D01*
X0237008Y0159458D02*
X0274919Y0159458D01*
X0274919Y0158460D02*
X0237225Y0158460D01*
X0237225Y0157461D02*
X0274919Y0157461D01*
X0274919Y0156463D02*
X0237225Y0156463D01*
X0237225Y0155464D02*
X0274919Y0155464D01*
X0274919Y0154465D02*
X0237225Y0154465D01*
X0237225Y0153467D02*
X0274919Y0153467D01*
X0274919Y0152468D02*
X0237225Y0152468D01*
X0237225Y0151470D02*
X0274919Y0151470D01*
X0274919Y0150471D02*
X0237225Y0150471D01*
X0237225Y0149473D02*
X0274919Y0149473D01*
X0274919Y0148474D02*
X0237225Y0148474D01*
X0236823Y0147476D02*
X0274919Y0147476D01*
X0274919Y0146477D02*
X0236409Y0146477D01*
X0235469Y0145479D02*
X0274919Y0145479D01*
X0266173Y0164615D02*
X0261600Y0163890D01*
X0261600Y0163890D01*
X0257027Y0164615D01*
X0257027Y0164615D01*
X0252901Y0166717D01*
X0252901Y0166717D01*
X0249627Y0169991D01*
X0249627Y0169991D01*
X0247524Y0174117D01*
X0247524Y0174117D01*
X0246800Y0178690D01*
X0246800Y0178690D01*
X0247524Y0183264D01*
X0247524Y0183264D01*
X0249627Y0187389D01*
X0249627Y0187389D01*
X0252901Y0190664D01*
X0252901Y0190664D01*
X0255541Y0192009D01*
X0022659Y0192009D01*
X0025299Y0190664D01*
X0025299Y0190664D01*
X0028573Y0187389D01*
X0028573Y0187389D01*
X0030676Y0183264D01*
X0030676Y0183264D01*
X0031400Y0178690D01*
X0030676Y0174117D01*
X0030676Y0174117D01*
X0028573Y0169991D01*
X0028573Y0169991D01*
X0025299Y0166717D01*
X0025299Y0166717D01*
X0021173Y0164615D01*
X0021173Y0164615D01*
X0016600Y0163890D01*
X0016600Y0163890D01*
X0012027Y0164615D01*
X0007901Y0166717D01*
X0004627Y0169991D01*
X0004627Y0169991D01*
X0003281Y0172632D01*
X0003281Y0024749D01*
X0004627Y0027389D01*
X0004627Y0027389D01*
X0007901Y0030664D01*
X0007901Y0030664D01*
X0012027Y0032766D01*
X0012027Y0032766D01*
X0016600Y0033490D01*
X0016600Y0033490D01*
X0021173Y0032766D01*
X0021173Y0032766D01*
X0025299Y0030664D01*
X0025299Y0030664D01*
X0028573Y0027389D01*
X0028573Y0027389D01*
X0030676Y0023264D01*
X0030676Y0023264D01*
X0031400Y0018690D01*
X0030676Y0014117D01*
X0028573Y0009991D01*
X0028573Y0009991D01*
X0025299Y0006717D01*
X0025299Y0006717D01*
X0022659Y0005371D01*
X0255541Y0005371D01*
X0252901Y0006717D01*
X0252901Y0006717D01*
X0249627Y0009991D01*
X0249627Y0009991D01*
X0247524Y0014117D01*
X0246800Y0018690D01*
X0247524Y0023264D01*
X0249627Y0027389D01*
X0252901Y0030664D01*
X0252901Y0030664D01*
X0257027Y0032766D01*
X0257027Y0032766D01*
X0261600Y0033490D01*
X0261600Y0033490D01*
X0266173Y0032766D01*
X0266173Y0032766D01*
X0270299Y0030664D01*
X0270299Y0030664D01*
X0273573Y0027389D01*
X0273573Y0027389D01*
X0274919Y0024749D01*
X0274919Y0172632D01*
X0273573Y0169991D01*
X0273573Y0169991D01*
X0270299Y0166717D01*
X0270299Y0166717D01*
X0266173Y0164615D01*
X0266173Y0164615D01*
X0265138Y0164451D02*
X0274919Y0164451D01*
X0274919Y0165449D02*
X0267811Y0165449D01*
X0269771Y0166448D02*
X0274919Y0166448D01*
X0274919Y0167446D02*
X0271029Y0167446D01*
X0272027Y0168445D02*
X0274919Y0168445D01*
X0274919Y0169443D02*
X0273026Y0169443D01*
X0273803Y0170442D02*
X0274919Y0170442D01*
X0274919Y0171440D02*
X0274312Y0171440D01*
X0274821Y0172439D02*
X0274919Y0172439D01*
X0258062Y0164451D02*
X0020138Y0164451D01*
X0022811Y0165449D02*
X0255389Y0165449D01*
X0253429Y0166448D02*
X0024771Y0166448D01*
X0026029Y0167446D02*
X0252171Y0167446D01*
X0251173Y0168445D02*
X0027027Y0168445D01*
X0028026Y0169443D02*
X0250174Y0169443D01*
X0249397Y0170442D02*
X0028803Y0170442D01*
X0029312Y0171440D02*
X0248888Y0171440D01*
X0248379Y0172439D02*
X0029821Y0172439D01*
X0030329Y0173437D02*
X0247871Y0173437D01*
X0247474Y0174436D02*
X0030726Y0174436D01*
X0030884Y0175434D02*
X0247316Y0175434D01*
X0247158Y0176433D02*
X0031042Y0176433D01*
X0031201Y0177431D02*
X0246999Y0177431D01*
X0246841Y0178430D02*
X0031359Y0178430D01*
X0031283Y0179428D02*
X0246917Y0179428D01*
X0247075Y0180427D02*
X0031125Y0180427D01*
X0030967Y0181425D02*
X0247233Y0181425D01*
X0247391Y0182424D02*
X0030809Y0182424D01*
X0030595Y0183422D02*
X0247605Y0183422D01*
X0248114Y0184421D02*
X0030086Y0184421D01*
X0029577Y0185419D02*
X0248623Y0185419D01*
X0249131Y0186418D02*
X0029069Y0186418D01*
X0028547Y0187416D02*
X0249653Y0187416D01*
X0250652Y0188415D02*
X0027548Y0188415D01*
X0026550Y0189413D02*
X0251650Y0189413D01*
X0252649Y0190412D02*
X0025551Y0190412D01*
X0023834Y0191410D02*
X0254366Y0191410D01*
X0140776Y0095553D02*
X0003281Y0095553D01*
X0003281Y0094555D02*
X0139778Y0094555D01*
X0119700Y0072588D02*
X0107250Y0072588D01*
X0107889Y0071589D02*
X0119700Y0071589D01*
X0119700Y0070591D02*
X0108302Y0070591D01*
X0108326Y0069592D02*
X0119700Y0069592D01*
X0119700Y0068594D02*
X0108014Y0068594D01*
X0107214Y0067595D02*
X0119700Y0067595D01*
X0092732Y0061604D02*
X0050949Y0061604D01*
X0050536Y0060605D02*
X0091181Y0060605D01*
X0090633Y0059607D02*
X0049597Y0059607D01*
X0048155Y0058608D02*
X0090499Y0058608D01*
X0090701Y0057610D02*
X0003281Y0057610D01*
X0003281Y0056611D02*
X0091345Y0056611D01*
X0091575Y0055613D02*
X0003281Y0055613D01*
X0003281Y0036641D02*
X0061820Y0036641D01*
X0062294Y0035643D02*
X0003281Y0035643D01*
X0003281Y0034644D02*
X0063292Y0034644D01*
X0065191Y0033646D02*
X0003281Y0033646D01*
X0003281Y0032647D02*
X0011793Y0032647D01*
X0009834Y0031649D02*
X0003281Y0031649D01*
X0003281Y0030650D02*
X0007887Y0030650D01*
X0006889Y0029652D02*
X0003281Y0029652D01*
X0003281Y0028653D02*
X0005890Y0028653D01*
X0004892Y0027655D02*
X0003281Y0027655D01*
X0003281Y0026656D02*
X0004253Y0026656D01*
X0003744Y0025658D02*
X0003281Y0025658D01*
X0021407Y0032647D02*
X0071124Y0032647D01*
X0071206Y0031649D02*
X0023366Y0031649D01*
X0025313Y0030650D02*
X0071681Y0030650D01*
X0073055Y0029652D02*
X0026311Y0029652D01*
X0027310Y0028653D02*
X0140162Y0028653D01*
X0140327Y0028254D02*
X0141164Y0027417D01*
X0142258Y0026964D01*
X0143139Y0026964D01*
X0145937Y0024167D01*
X0144758Y0024167D01*
X0143664Y0023714D01*
X0142827Y0022876D01*
X0142374Y0021782D01*
X0142374Y0020598D01*
X0142827Y0019504D01*
X0143664Y0018667D01*
X0144758Y0018214D01*
X0145639Y0018214D01*
X0148624Y0015230D01*
X0148624Y0014348D01*
X0149077Y0013254D01*
X0149914Y0012417D01*
X0151008Y0011964D01*
X0152192Y0011964D01*
X0153286Y0012417D01*
X0154123Y0013254D01*
X0154576Y0014348D01*
X0154576Y0015527D01*
X0160813Y0009290D01*
X0164291Y0009290D01*
X0164914Y0008667D01*
X0166008Y0008214D01*
X0167192Y0008214D01*
X0168286Y0008667D01*
X0169123Y0009504D01*
X0169576Y0010598D01*
X0169576Y0011782D01*
X0169123Y0012876D01*
X0168286Y0013714D01*
X0167192Y0014167D01*
X0166008Y0014167D01*
X0164914Y0013714D01*
X0164291Y0013090D01*
X0162387Y0013090D01*
X0145826Y0029651D01*
X0145826Y0030532D01*
X0145373Y0031626D01*
X0144536Y0032464D01*
X0143442Y0032917D01*
X0142258Y0032917D01*
X0141164Y0032464D01*
X0140327Y0031626D01*
X0139874Y0030532D01*
X0139874Y0029348D01*
X0140327Y0028254D01*
X0140926Y0027655D02*
X0028308Y0027655D01*
X0028947Y0026656D02*
X0143447Y0026656D01*
X0144446Y0025658D02*
X0029456Y0025658D01*
X0029965Y0024659D02*
X0145444Y0024659D01*
X0143611Y0023661D02*
X0030473Y0023661D01*
X0030771Y0022662D02*
X0142738Y0022662D01*
X0142374Y0021663D02*
X0030929Y0021663D01*
X0031087Y0020665D02*
X0142374Y0020665D01*
X0142760Y0019666D02*
X0031245Y0019666D01*
X0031396Y0018668D02*
X0143663Y0018668D01*
X0146184Y0017669D02*
X0031238Y0017669D01*
X0031080Y0016671D02*
X0147182Y0016671D01*
X0148181Y0015672D02*
X0030922Y0015672D01*
X0030764Y0014674D02*
X0133374Y0014674D01*
X0133664Y0014964D02*
X0132827Y0014126D01*
X0132374Y0013032D01*
X0132374Y0011848D01*
X0132827Y0010754D01*
X0133664Y0009917D01*
X0134758Y0009464D01*
X0135942Y0009464D01*
X0137036Y0009917D01*
X0137659Y0010540D01*
X0142398Y0010540D01*
X0142827Y0009504D01*
X0143664Y0008667D01*
X0144758Y0008214D01*
X0145942Y0008214D01*
X0147036Y0008667D01*
X0147873Y0009504D01*
X0148326Y0010598D01*
X0148326Y0011782D01*
X0147873Y0012876D01*
X0147036Y0013714D01*
X0145942Y0014167D01*
X0145061Y0014167D01*
X0144887Y0014340D01*
X0137659Y0014340D01*
X0137036Y0014964D01*
X0135942Y0015417D01*
X0134758Y0015417D01*
X0133664Y0014964D01*
X0132640Y0013675D02*
X0030451Y0013675D01*
X0030676Y0014117D02*
X0030676Y0014117D01*
X0029942Y0012677D02*
X0132374Y0012677D01*
X0132444Y0011678D02*
X0029433Y0011678D01*
X0028924Y0010680D02*
X0132901Y0010680D01*
X0134233Y0009681D02*
X0028264Y0009681D01*
X0027265Y0008683D02*
X0143648Y0008683D01*
X0142753Y0009681D02*
X0136467Y0009681D01*
X0137326Y0014674D02*
X0148624Y0014674D01*
X0148902Y0013675D02*
X0147074Y0013675D01*
X0147956Y0012677D02*
X0149654Y0012677D01*
X0148326Y0011678D02*
X0158425Y0011678D01*
X0159423Y0010680D02*
X0148326Y0010680D01*
X0147947Y0009681D02*
X0160422Y0009681D01*
X0157426Y0012677D02*
X0153546Y0012677D01*
X0154298Y0013675D02*
X0156428Y0013675D01*
X0155429Y0014674D02*
X0154576Y0014674D01*
X0157808Y0017669D02*
X0159934Y0017669D01*
X0160932Y0016671D02*
X0158806Y0016671D01*
X0159805Y0015672D02*
X0161931Y0015672D01*
X0162929Y0014674D02*
X0160803Y0014674D01*
X0161802Y0013675D02*
X0164876Y0013675D01*
X0168324Y0013675D02*
X0168928Y0013675D01*
X0169206Y0012677D02*
X0169926Y0012677D01*
X0169576Y0011678D02*
X0170925Y0011678D01*
X0171923Y0010680D02*
X0169576Y0010680D01*
X0169197Y0009681D02*
X0172922Y0009681D01*
X0174898Y0008683D02*
X0168302Y0008683D01*
X0164898Y0008683D02*
X0147052Y0008683D01*
X0156809Y0018668D02*
X0158935Y0018668D01*
X0157937Y0019666D02*
X0155811Y0019666D01*
X0154812Y0020665D02*
X0156938Y0020665D01*
X0155940Y0021663D02*
X0153814Y0021663D01*
X0152815Y0022662D02*
X0154941Y0022662D01*
X0154700Y0023661D02*
X0151817Y0023661D01*
X0150818Y0024659D02*
X0154700Y0024659D01*
X0154700Y0025658D02*
X0149820Y0025658D01*
X0148821Y0026656D02*
X0154700Y0026656D01*
X0154676Y0027655D02*
X0147823Y0027655D01*
X0146824Y0028653D02*
X0153912Y0028653D01*
X0153624Y0029652D02*
X0145826Y0029652D01*
X0145778Y0030650D02*
X0153672Y0030650D01*
X0154099Y0031649D02*
X0145351Y0031649D01*
X0144093Y0032647D02*
X0155357Y0032647D01*
X0157843Y0032647D02*
X0179956Y0032647D01*
X0178958Y0033646D02*
X0077992Y0033646D01*
X0077076Y0032647D02*
X0141607Y0032647D01*
X0140349Y0031649D02*
X0076994Y0031649D01*
X0076519Y0030650D02*
X0139922Y0030650D01*
X0139874Y0029652D02*
X0075145Y0029652D01*
X0071378Y0033646D02*
X0068009Y0033646D01*
X0069908Y0034644D02*
X0072095Y0034644D01*
X0070906Y0035643D02*
X0074615Y0035643D01*
X0075614Y0036641D02*
X0071380Y0036641D01*
X0071793Y0037640D02*
X0076612Y0037640D01*
X0077611Y0038638D02*
X0071800Y0038638D01*
X0071800Y0039637D02*
X0078609Y0039637D01*
X0080988Y0036641D02*
X0175962Y0036641D01*
X0176961Y0035643D02*
X0079989Y0035643D01*
X0078991Y0034644D02*
X0177959Y0034644D01*
X0180338Y0037640D02*
X0183441Y0037640D01*
X0182668Y0038638D02*
X0179339Y0038638D01*
X0178341Y0039637D02*
X0182374Y0039637D01*
X0182416Y0040635D02*
X0177342Y0040635D01*
X0176344Y0041634D02*
X0182834Y0041634D01*
X0183450Y0042632D02*
X0176000Y0042632D01*
X0176000Y0043631D02*
X0183450Y0043631D01*
X0183450Y0044629D02*
X0176000Y0044629D01*
X0176000Y0045628D02*
X0183450Y0045628D01*
X0183450Y0046626D02*
X0176000Y0046626D01*
X0176000Y0047625D02*
X0183450Y0047625D01*
X0183450Y0048623D02*
X0176000Y0048623D01*
X0176000Y0049622D02*
X0183450Y0049622D01*
X0183450Y0050620D02*
X0176000Y0050620D01*
X0176000Y0051619D02*
X0183450Y0051619D01*
X0183450Y0052617D02*
X0176000Y0052617D01*
X0176000Y0053616D02*
X0183450Y0053616D01*
X0183450Y0054614D02*
X0176000Y0054614D01*
X0176000Y0055613D02*
X0183450Y0055613D01*
X0183450Y0056611D02*
X0176000Y0056611D01*
X0176000Y0057610D02*
X0183450Y0057610D01*
X0182680Y0058608D02*
X0176000Y0058608D01*
X0176000Y0059607D02*
X0182374Y0059607D01*
X0182404Y0060605D02*
X0176000Y0060605D01*
X0176000Y0061604D02*
X0182818Y0061604D01*
X0183999Y0062602D02*
X0176000Y0062602D01*
X0173637Y0070591D02*
X0206759Y0070591D01*
X0207172Y0071589D02*
X0172638Y0071589D01*
X0165231Y0067595D02*
X0164240Y0067595D01*
X0187250Y0052617D02*
X0274919Y0052617D01*
X0274919Y0051619D02*
X0187250Y0051619D01*
X0187250Y0050620D02*
X0274919Y0050620D01*
X0274919Y0049622D02*
X0187250Y0049622D01*
X0187250Y0048623D02*
X0229686Y0048623D01*
X0229289Y0048459D02*
X0227706Y0046877D01*
X0226850Y0044809D01*
X0226850Y0042571D01*
X0227706Y0040504D01*
X0229289Y0038922D01*
X0231356Y0038065D01*
X0241844Y0038065D01*
X0243911Y0038922D01*
X0245494Y0040504D01*
X0246350Y0042571D01*
X0246350Y0044809D01*
X0245494Y0046877D01*
X0243911Y0048459D01*
X0241844Y0049315D01*
X0231356Y0049315D01*
X0229289Y0048459D01*
X0228455Y0047625D02*
X0187250Y0047625D01*
X0187250Y0046626D02*
X0227603Y0046626D01*
X0227189Y0045628D02*
X0187250Y0045628D01*
X0187250Y0044629D02*
X0226850Y0044629D01*
X0226850Y0043631D02*
X0187250Y0043631D01*
X0187250Y0042632D02*
X0226850Y0042632D01*
X0227238Y0041634D02*
X0187866Y0041634D01*
X0188284Y0040635D02*
X0227652Y0040635D01*
X0228574Y0039637D02*
X0188326Y0039637D01*
X0188032Y0038638D02*
X0229973Y0038638D01*
X0243227Y0038638D02*
X0274919Y0038638D01*
X0274919Y0037640D02*
X0187259Y0037640D01*
X0183333Y0034644D02*
X0274919Y0034644D01*
X0274919Y0033646D02*
X0184332Y0033646D01*
X0185330Y0032647D02*
X0256793Y0032647D01*
X0254834Y0031649D02*
X0186329Y0031649D01*
X0187327Y0030650D02*
X0252887Y0030650D01*
X0252901Y0030664D02*
X0252901Y0030664D01*
X0251889Y0029652D02*
X0188326Y0029652D01*
X0189324Y0028653D02*
X0250890Y0028653D01*
X0249892Y0027655D02*
X0191575Y0027655D01*
X0192843Y0026656D02*
X0249253Y0026656D01*
X0248744Y0025658D02*
X0193275Y0025658D01*
X0193326Y0024659D02*
X0248235Y0024659D01*
X0247727Y0023661D02*
X0210839Y0023661D01*
X0211712Y0022662D02*
X0247429Y0022662D01*
X0247271Y0021663D02*
X0212076Y0021663D01*
X0212076Y0020665D02*
X0247113Y0020665D01*
X0246955Y0019666D02*
X0211690Y0019666D01*
X0210787Y0018668D02*
X0246804Y0018668D01*
X0246962Y0017669D02*
X0204209Y0017669D01*
X0204123Y0017876D02*
X0203286Y0018714D01*
X0202192Y0019167D01*
X0201008Y0019167D01*
X0199914Y0018714D01*
X0199291Y0018090D01*
X0191409Y0018090D01*
X0190786Y0018714D01*
X0189692Y0019167D01*
X0188508Y0019167D01*
X0187414Y0018714D01*
X0186577Y0017876D01*
X0186124Y0016782D01*
X0186124Y0015598D01*
X0186577Y0014504D01*
X0187414Y0013667D01*
X0188508Y0013214D01*
X0189692Y0013214D01*
X0190786Y0013667D01*
X0191409Y0014290D01*
X0199291Y0014290D01*
X0199914Y0013667D01*
X0201008Y0013214D01*
X0202192Y0013214D01*
X0203286Y0013667D01*
X0204123Y0014504D01*
X0204576Y0015598D01*
X0204576Y0016782D01*
X0204123Y0017876D01*
X0203332Y0018668D02*
X0207413Y0018668D01*
X0204576Y0016671D02*
X0247120Y0016671D01*
X0247278Y0015672D02*
X0204576Y0015672D01*
X0204193Y0014674D02*
X0247436Y0014674D01*
X0247749Y0013675D02*
X0203294Y0013675D01*
X0199906Y0013675D02*
X0190794Y0013675D01*
X0187406Y0013675D02*
X0178324Y0013675D01*
X0179206Y0012677D02*
X0248258Y0012677D01*
X0248767Y0011678D02*
X0179576Y0011678D01*
X0179576Y0010680D02*
X0249276Y0010680D01*
X0249936Y0009681D02*
X0179197Y0009681D01*
X0178302Y0008683D02*
X0250935Y0008683D01*
X0251933Y0007684D02*
X0026267Y0007684D01*
X0025238Y0006686D02*
X0252962Y0006686D01*
X0254921Y0005687D02*
X0023279Y0005687D01*
X0050610Y0066596D02*
X0091985Y0066596D01*
X0091332Y0067595D02*
X0049775Y0067595D01*
X0048586Y0068594D02*
X0091124Y0068594D01*
X0123198Y0043631D02*
X0123450Y0043631D01*
X0127250Y0042632D02*
X0172200Y0042632D01*
X0172200Y0041634D02*
X0127866Y0041634D01*
X0128284Y0040635D02*
X0172200Y0040635D01*
X0172967Y0039637D02*
X0128326Y0039637D01*
X0128032Y0038638D02*
X0173965Y0038638D01*
X0174964Y0037640D02*
X0127259Y0037640D01*
X0158523Y0027655D02*
X0184949Y0027655D01*
X0183950Y0028653D02*
X0159288Y0028653D01*
X0159576Y0029652D02*
X0182952Y0029652D01*
X0181953Y0030650D02*
X0159528Y0030650D01*
X0159101Y0031649D02*
X0180955Y0031649D01*
X0182335Y0035643D02*
X0274919Y0035643D01*
X0274919Y0036641D02*
X0181336Y0036641D01*
X0185947Y0026656D02*
X0158500Y0026656D01*
X0158500Y0025658D02*
X0186946Y0025658D01*
X0187374Y0024659D02*
X0158500Y0024659D01*
X0159317Y0023661D02*
X0187658Y0023661D01*
X0193041Y0023661D02*
X0207361Y0023661D01*
X0199868Y0018668D02*
X0190832Y0018668D01*
X0187368Y0018668D02*
X0169295Y0018668D01*
X0170308Y0017669D02*
X0186491Y0017669D01*
X0186124Y0016671D02*
X0171306Y0016671D01*
X0172305Y0015672D02*
X0186124Y0015672D01*
X0186506Y0014674D02*
X0173303Y0014674D01*
X0174302Y0013675D02*
X0174876Y0013675D01*
X0163624Y0019666D02*
X0163311Y0019666D01*
X0163679Y0020665D02*
X0162312Y0020665D01*
X0161314Y0021663D02*
X0164114Y0021663D01*
X0165393Y0022662D02*
X0160315Y0022662D01*
X0216800Y0058608D02*
X0230045Y0058608D01*
X0228603Y0059607D02*
X0216800Y0059607D01*
X0216435Y0060605D02*
X0227664Y0060605D01*
X0227251Y0061604D02*
X0216022Y0061604D01*
X0215042Y0062602D02*
X0226850Y0062602D01*
X0226850Y0063601D02*
X0213333Y0063601D01*
X0214863Y0064599D02*
X0226850Y0064599D01*
X0227177Y0065598D02*
X0215862Y0065598D01*
X0216361Y0066596D02*
X0227590Y0066596D01*
X0228425Y0067595D02*
X0216775Y0067595D01*
X0243514Y0048623D02*
X0274919Y0048623D01*
X0274919Y0047625D02*
X0244745Y0047625D01*
X0245597Y0046626D02*
X0274919Y0046626D01*
X0274919Y0045628D02*
X0246011Y0045628D01*
X0246350Y0044629D02*
X0274919Y0044629D01*
X0274919Y0043631D02*
X0246350Y0043631D01*
X0246350Y0042632D02*
X0274919Y0042632D01*
X0274919Y0041634D02*
X0245962Y0041634D01*
X0245548Y0040635D02*
X0274919Y0040635D01*
X0274919Y0039637D02*
X0244626Y0039637D01*
X0266407Y0032647D02*
X0274919Y0032647D01*
X0274919Y0031649D02*
X0268366Y0031649D01*
X0270313Y0030650D02*
X0274919Y0030650D01*
X0274919Y0029652D02*
X0271311Y0029652D01*
X0272310Y0028653D02*
X0274919Y0028653D01*
X0274919Y0027655D02*
X0273308Y0027655D01*
X0273947Y0026656D02*
X0274919Y0026656D01*
X0274919Y0025658D02*
X0274456Y0025658D01*
X0013062Y0164451D02*
X0003281Y0164451D01*
X0003281Y0165449D02*
X0010389Y0165449D01*
X0008429Y0166448D02*
X0003281Y0166448D01*
X0003281Y0167446D02*
X0007171Y0167446D01*
X0006173Y0168445D02*
X0003281Y0168445D01*
X0003281Y0169443D02*
X0005174Y0169443D01*
X0004397Y0170442D02*
X0003281Y0170442D01*
X0003281Y0171440D02*
X0003888Y0171440D01*
X0003379Y0172439D02*
X0003281Y0172439D01*
D16*
X0044100Y0113690D03*
X0060350Y0103690D03*
X0047850Y0083690D03*
X0089100Y0103690D03*
X0105350Y0087440D03*
X0111600Y0083690D03*
X0102850Y0077440D03*
X0095350Y0078690D03*
X0094100Y0068690D03*
X0105350Y0069940D03*
X0110350Y0073690D03*
X0121600Y0074940D03*
X0125350Y0064940D03*
X0131600Y0066190D03*
X0131600Y0058690D03*
X0116600Y0049940D03*
X0121600Y0046190D03*
X0125350Y0039940D03*
X0129100Y0044940D03*
X0142850Y0029940D03*
X0145350Y0021190D03*
X0151600Y0014940D03*
X0151600Y0011190D03*
X0145350Y0011190D03*
X0135350Y0012440D03*
X0122850Y0014315D03*
X0095350Y0014940D03*
X0074100Y0032440D03*
X0081600Y0042440D03*
X0097850Y0033690D03*
X0093475Y0058690D03*
X0121600Y0089940D03*
X0146600Y0073690D03*
X0150350Y0069940D03*
X0161600Y0066190D03*
X0166600Y0064940D03*
X0161600Y0057440D03*
X0152850Y0046190D03*
X0162850Y0033690D03*
X0156600Y0029940D03*
X0166600Y0019940D03*
X0166600Y0011190D03*
X0176600Y0011190D03*
X0189100Y0016190D03*
X0190350Y0024940D03*
X0201600Y0016190D03*
X0209100Y0021190D03*
X0185350Y0039940D03*
X0185350Y0059940D03*
X0196600Y0066190D03*
X0181600Y0078690D03*
X0174100Y0078690D03*
X0161600Y0078690D03*
X0151600Y0083690D03*
X0149100Y0093690D03*
X0186600Y0113690D03*
X0209100Y0113690D03*
X0212850Y0083690D03*
X0146600Y0133690D03*
X0184100Y0171190D03*
X0096600Y0186190D03*
D17*
X0089100Y0103690D02*
X0060350Y0103690D01*
X0094100Y0068690D02*
X0102850Y0077440D01*
X0105350Y0069940D02*
X0105350Y0087440D01*
X0121600Y0089940D02*
X0137850Y0089940D01*
X0141600Y0093690D01*
X0149100Y0093690D01*
X0161600Y0078690D02*
X0174100Y0078690D01*
X0171600Y0069940D02*
X0150350Y0069940D01*
X0157850Y0062440D02*
X0164100Y0062440D01*
X0166600Y0064940D01*
X0161600Y0066190D02*
X0131600Y0066190D01*
X0125350Y0064940D02*
X0125350Y0039940D01*
X0121600Y0046190D02*
X0121600Y0074940D01*
X0093475Y0058690D02*
X0093475Y0046815D01*
X0085350Y0038690D01*
X0080350Y0038690D01*
X0074100Y0032440D01*
X0135350Y0012440D02*
X0144100Y0012440D01*
X0145350Y0011190D01*
X0151600Y0014940D02*
X0145350Y0021190D01*
X0156600Y0023690D02*
X0164100Y0016190D01*
X0169100Y0016190D01*
X0174100Y0011190D01*
X0176600Y0011190D01*
X0166600Y0011190D02*
X0161600Y0011190D01*
X0142850Y0029940D01*
X0156600Y0029940D02*
X0156600Y0023690D01*
X0166600Y0019940D02*
X0167850Y0021190D01*
X0209100Y0021190D01*
X0201600Y0016190D02*
X0189100Y0016190D01*
X0190350Y0024940D02*
X0174100Y0041190D01*
X0174100Y0067440D01*
X0171600Y0069940D01*
X0157850Y0062440D02*
X0152850Y0057440D01*
X0152850Y0046190D01*
X0185350Y0039940D02*
X0185350Y0059940D01*
M02*
