G75*
%MOIN*%
%OFA0B0*%
%FSLAX25Y25*%
%IPPOS*%
%LPD*%
%AMOC8*
5,1,8,0,0,1.08239X$1,22.5*
%
%ADD10C,0.00000*%
%ADD11C,0.00700*%
%ADD12C,0.00800*%
%ADD13C,0.00600*%
%ADD14C,0.00500*%
%ADD15C,0.02200*%
%ADD16C,0.01000*%
%ADD17R,0.08268X0.01181*%
%ADD18R,0.11024X0.01969*%
%ADD19R,0.11024X0.01575*%
%ADD20R,0.00787X0.00787*%
%ADD21C,0.00787*%
%ADD22R,0.03000X0.01800*%
D10*
X0001600Y0003690D02*
X0001600Y0193690D01*
X0276600Y0193690D01*
X0276600Y0003690D01*
X0001600Y0003690D01*
X0010301Y0018690D02*
X0010303Y0018848D01*
X0010309Y0019006D01*
X0010319Y0019164D01*
X0010333Y0019322D01*
X0010351Y0019479D01*
X0010372Y0019636D01*
X0010398Y0019792D01*
X0010428Y0019948D01*
X0010461Y0020103D01*
X0010499Y0020256D01*
X0010540Y0020409D01*
X0010585Y0020561D01*
X0010634Y0020712D01*
X0010687Y0020861D01*
X0010743Y0021009D01*
X0010803Y0021155D01*
X0010867Y0021300D01*
X0010935Y0021443D01*
X0011006Y0021585D01*
X0011080Y0021725D01*
X0011158Y0021862D01*
X0011240Y0021998D01*
X0011324Y0022132D01*
X0011413Y0022263D01*
X0011504Y0022392D01*
X0011599Y0022519D01*
X0011696Y0022644D01*
X0011797Y0022766D01*
X0011901Y0022885D01*
X0012008Y0023002D01*
X0012118Y0023116D01*
X0012231Y0023227D01*
X0012346Y0023336D01*
X0012464Y0023441D01*
X0012585Y0023543D01*
X0012708Y0023643D01*
X0012834Y0023739D01*
X0012962Y0023832D01*
X0013092Y0023922D01*
X0013225Y0024008D01*
X0013360Y0024092D01*
X0013496Y0024171D01*
X0013635Y0024248D01*
X0013776Y0024320D01*
X0013918Y0024390D01*
X0014062Y0024455D01*
X0014208Y0024517D01*
X0014355Y0024575D01*
X0014504Y0024630D01*
X0014654Y0024681D01*
X0014805Y0024728D01*
X0014957Y0024771D01*
X0015110Y0024810D01*
X0015265Y0024846D01*
X0015420Y0024877D01*
X0015576Y0024905D01*
X0015732Y0024929D01*
X0015889Y0024949D01*
X0016047Y0024965D01*
X0016204Y0024977D01*
X0016363Y0024985D01*
X0016521Y0024989D01*
X0016679Y0024989D01*
X0016837Y0024985D01*
X0016996Y0024977D01*
X0017153Y0024965D01*
X0017311Y0024949D01*
X0017468Y0024929D01*
X0017624Y0024905D01*
X0017780Y0024877D01*
X0017935Y0024846D01*
X0018090Y0024810D01*
X0018243Y0024771D01*
X0018395Y0024728D01*
X0018546Y0024681D01*
X0018696Y0024630D01*
X0018845Y0024575D01*
X0018992Y0024517D01*
X0019138Y0024455D01*
X0019282Y0024390D01*
X0019424Y0024320D01*
X0019565Y0024248D01*
X0019704Y0024171D01*
X0019840Y0024092D01*
X0019975Y0024008D01*
X0020108Y0023922D01*
X0020238Y0023832D01*
X0020366Y0023739D01*
X0020492Y0023643D01*
X0020615Y0023543D01*
X0020736Y0023441D01*
X0020854Y0023336D01*
X0020969Y0023227D01*
X0021082Y0023116D01*
X0021192Y0023002D01*
X0021299Y0022885D01*
X0021403Y0022766D01*
X0021504Y0022644D01*
X0021601Y0022519D01*
X0021696Y0022392D01*
X0021787Y0022263D01*
X0021876Y0022132D01*
X0021960Y0021998D01*
X0022042Y0021862D01*
X0022120Y0021725D01*
X0022194Y0021585D01*
X0022265Y0021443D01*
X0022333Y0021300D01*
X0022397Y0021155D01*
X0022457Y0021009D01*
X0022513Y0020861D01*
X0022566Y0020712D01*
X0022615Y0020561D01*
X0022660Y0020409D01*
X0022701Y0020256D01*
X0022739Y0020103D01*
X0022772Y0019948D01*
X0022802Y0019792D01*
X0022828Y0019636D01*
X0022849Y0019479D01*
X0022867Y0019322D01*
X0022881Y0019164D01*
X0022891Y0019006D01*
X0022897Y0018848D01*
X0022899Y0018690D01*
X0022897Y0018532D01*
X0022891Y0018374D01*
X0022881Y0018216D01*
X0022867Y0018058D01*
X0022849Y0017901D01*
X0022828Y0017744D01*
X0022802Y0017588D01*
X0022772Y0017432D01*
X0022739Y0017277D01*
X0022701Y0017124D01*
X0022660Y0016971D01*
X0022615Y0016819D01*
X0022566Y0016668D01*
X0022513Y0016519D01*
X0022457Y0016371D01*
X0022397Y0016225D01*
X0022333Y0016080D01*
X0022265Y0015937D01*
X0022194Y0015795D01*
X0022120Y0015655D01*
X0022042Y0015518D01*
X0021960Y0015382D01*
X0021876Y0015248D01*
X0021787Y0015117D01*
X0021696Y0014988D01*
X0021601Y0014861D01*
X0021504Y0014736D01*
X0021403Y0014614D01*
X0021299Y0014495D01*
X0021192Y0014378D01*
X0021082Y0014264D01*
X0020969Y0014153D01*
X0020854Y0014044D01*
X0020736Y0013939D01*
X0020615Y0013837D01*
X0020492Y0013737D01*
X0020366Y0013641D01*
X0020238Y0013548D01*
X0020108Y0013458D01*
X0019975Y0013372D01*
X0019840Y0013288D01*
X0019704Y0013209D01*
X0019565Y0013132D01*
X0019424Y0013060D01*
X0019282Y0012990D01*
X0019138Y0012925D01*
X0018992Y0012863D01*
X0018845Y0012805D01*
X0018696Y0012750D01*
X0018546Y0012699D01*
X0018395Y0012652D01*
X0018243Y0012609D01*
X0018090Y0012570D01*
X0017935Y0012534D01*
X0017780Y0012503D01*
X0017624Y0012475D01*
X0017468Y0012451D01*
X0017311Y0012431D01*
X0017153Y0012415D01*
X0016996Y0012403D01*
X0016837Y0012395D01*
X0016679Y0012391D01*
X0016521Y0012391D01*
X0016363Y0012395D01*
X0016204Y0012403D01*
X0016047Y0012415D01*
X0015889Y0012431D01*
X0015732Y0012451D01*
X0015576Y0012475D01*
X0015420Y0012503D01*
X0015265Y0012534D01*
X0015110Y0012570D01*
X0014957Y0012609D01*
X0014805Y0012652D01*
X0014654Y0012699D01*
X0014504Y0012750D01*
X0014355Y0012805D01*
X0014208Y0012863D01*
X0014062Y0012925D01*
X0013918Y0012990D01*
X0013776Y0013060D01*
X0013635Y0013132D01*
X0013496Y0013209D01*
X0013360Y0013288D01*
X0013225Y0013372D01*
X0013092Y0013458D01*
X0012962Y0013548D01*
X0012834Y0013641D01*
X0012708Y0013737D01*
X0012585Y0013837D01*
X0012464Y0013939D01*
X0012346Y0014044D01*
X0012231Y0014153D01*
X0012118Y0014264D01*
X0012008Y0014378D01*
X0011901Y0014495D01*
X0011797Y0014614D01*
X0011696Y0014736D01*
X0011599Y0014861D01*
X0011504Y0014988D01*
X0011413Y0015117D01*
X0011324Y0015248D01*
X0011240Y0015382D01*
X0011158Y0015518D01*
X0011080Y0015655D01*
X0011006Y0015795D01*
X0010935Y0015937D01*
X0010867Y0016080D01*
X0010803Y0016225D01*
X0010743Y0016371D01*
X0010687Y0016519D01*
X0010634Y0016668D01*
X0010585Y0016819D01*
X0010540Y0016971D01*
X0010499Y0017124D01*
X0010461Y0017277D01*
X0010428Y0017432D01*
X0010398Y0017588D01*
X0010372Y0017744D01*
X0010351Y0017901D01*
X0010333Y0018058D01*
X0010319Y0018216D01*
X0010309Y0018374D01*
X0010303Y0018532D01*
X0010301Y0018690D01*
X0010301Y0178690D02*
X0010303Y0178848D01*
X0010309Y0179006D01*
X0010319Y0179164D01*
X0010333Y0179322D01*
X0010351Y0179479D01*
X0010372Y0179636D01*
X0010398Y0179792D01*
X0010428Y0179948D01*
X0010461Y0180103D01*
X0010499Y0180256D01*
X0010540Y0180409D01*
X0010585Y0180561D01*
X0010634Y0180712D01*
X0010687Y0180861D01*
X0010743Y0181009D01*
X0010803Y0181155D01*
X0010867Y0181300D01*
X0010935Y0181443D01*
X0011006Y0181585D01*
X0011080Y0181725D01*
X0011158Y0181862D01*
X0011240Y0181998D01*
X0011324Y0182132D01*
X0011413Y0182263D01*
X0011504Y0182392D01*
X0011599Y0182519D01*
X0011696Y0182644D01*
X0011797Y0182766D01*
X0011901Y0182885D01*
X0012008Y0183002D01*
X0012118Y0183116D01*
X0012231Y0183227D01*
X0012346Y0183336D01*
X0012464Y0183441D01*
X0012585Y0183543D01*
X0012708Y0183643D01*
X0012834Y0183739D01*
X0012962Y0183832D01*
X0013092Y0183922D01*
X0013225Y0184008D01*
X0013360Y0184092D01*
X0013496Y0184171D01*
X0013635Y0184248D01*
X0013776Y0184320D01*
X0013918Y0184390D01*
X0014062Y0184455D01*
X0014208Y0184517D01*
X0014355Y0184575D01*
X0014504Y0184630D01*
X0014654Y0184681D01*
X0014805Y0184728D01*
X0014957Y0184771D01*
X0015110Y0184810D01*
X0015265Y0184846D01*
X0015420Y0184877D01*
X0015576Y0184905D01*
X0015732Y0184929D01*
X0015889Y0184949D01*
X0016047Y0184965D01*
X0016204Y0184977D01*
X0016363Y0184985D01*
X0016521Y0184989D01*
X0016679Y0184989D01*
X0016837Y0184985D01*
X0016996Y0184977D01*
X0017153Y0184965D01*
X0017311Y0184949D01*
X0017468Y0184929D01*
X0017624Y0184905D01*
X0017780Y0184877D01*
X0017935Y0184846D01*
X0018090Y0184810D01*
X0018243Y0184771D01*
X0018395Y0184728D01*
X0018546Y0184681D01*
X0018696Y0184630D01*
X0018845Y0184575D01*
X0018992Y0184517D01*
X0019138Y0184455D01*
X0019282Y0184390D01*
X0019424Y0184320D01*
X0019565Y0184248D01*
X0019704Y0184171D01*
X0019840Y0184092D01*
X0019975Y0184008D01*
X0020108Y0183922D01*
X0020238Y0183832D01*
X0020366Y0183739D01*
X0020492Y0183643D01*
X0020615Y0183543D01*
X0020736Y0183441D01*
X0020854Y0183336D01*
X0020969Y0183227D01*
X0021082Y0183116D01*
X0021192Y0183002D01*
X0021299Y0182885D01*
X0021403Y0182766D01*
X0021504Y0182644D01*
X0021601Y0182519D01*
X0021696Y0182392D01*
X0021787Y0182263D01*
X0021876Y0182132D01*
X0021960Y0181998D01*
X0022042Y0181862D01*
X0022120Y0181725D01*
X0022194Y0181585D01*
X0022265Y0181443D01*
X0022333Y0181300D01*
X0022397Y0181155D01*
X0022457Y0181009D01*
X0022513Y0180861D01*
X0022566Y0180712D01*
X0022615Y0180561D01*
X0022660Y0180409D01*
X0022701Y0180256D01*
X0022739Y0180103D01*
X0022772Y0179948D01*
X0022802Y0179792D01*
X0022828Y0179636D01*
X0022849Y0179479D01*
X0022867Y0179322D01*
X0022881Y0179164D01*
X0022891Y0179006D01*
X0022897Y0178848D01*
X0022899Y0178690D01*
X0022897Y0178532D01*
X0022891Y0178374D01*
X0022881Y0178216D01*
X0022867Y0178058D01*
X0022849Y0177901D01*
X0022828Y0177744D01*
X0022802Y0177588D01*
X0022772Y0177432D01*
X0022739Y0177277D01*
X0022701Y0177124D01*
X0022660Y0176971D01*
X0022615Y0176819D01*
X0022566Y0176668D01*
X0022513Y0176519D01*
X0022457Y0176371D01*
X0022397Y0176225D01*
X0022333Y0176080D01*
X0022265Y0175937D01*
X0022194Y0175795D01*
X0022120Y0175655D01*
X0022042Y0175518D01*
X0021960Y0175382D01*
X0021876Y0175248D01*
X0021787Y0175117D01*
X0021696Y0174988D01*
X0021601Y0174861D01*
X0021504Y0174736D01*
X0021403Y0174614D01*
X0021299Y0174495D01*
X0021192Y0174378D01*
X0021082Y0174264D01*
X0020969Y0174153D01*
X0020854Y0174044D01*
X0020736Y0173939D01*
X0020615Y0173837D01*
X0020492Y0173737D01*
X0020366Y0173641D01*
X0020238Y0173548D01*
X0020108Y0173458D01*
X0019975Y0173372D01*
X0019840Y0173288D01*
X0019704Y0173209D01*
X0019565Y0173132D01*
X0019424Y0173060D01*
X0019282Y0172990D01*
X0019138Y0172925D01*
X0018992Y0172863D01*
X0018845Y0172805D01*
X0018696Y0172750D01*
X0018546Y0172699D01*
X0018395Y0172652D01*
X0018243Y0172609D01*
X0018090Y0172570D01*
X0017935Y0172534D01*
X0017780Y0172503D01*
X0017624Y0172475D01*
X0017468Y0172451D01*
X0017311Y0172431D01*
X0017153Y0172415D01*
X0016996Y0172403D01*
X0016837Y0172395D01*
X0016679Y0172391D01*
X0016521Y0172391D01*
X0016363Y0172395D01*
X0016204Y0172403D01*
X0016047Y0172415D01*
X0015889Y0172431D01*
X0015732Y0172451D01*
X0015576Y0172475D01*
X0015420Y0172503D01*
X0015265Y0172534D01*
X0015110Y0172570D01*
X0014957Y0172609D01*
X0014805Y0172652D01*
X0014654Y0172699D01*
X0014504Y0172750D01*
X0014355Y0172805D01*
X0014208Y0172863D01*
X0014062Y0172925D01*
X0013918Y0172990D01*
X0013776Y0173060D01*
X0013635Y0173132D01*
X0013496Y0173209D01*
X0013360Y0173288D01*
X0013225Y0173372D01*
X0013092Y0173458D01*
X0012962Y0173548D01*
X0012834Y0173641D01*
X0012708Y0173737D01*
X0012585Y0173837D01*
X0012464Y0173939D01*
X0012346Y0174044D01*
X0012231Y0174153D01*
X0012118Y0174264D01*
X0012008Y0174378D01*
X0011901Y0174495D01*
X0011797Y0174614D01*
X0011696Y0174736D01*
X0011599Y0174861D01*
X0011504Y0174988D01*
X0011413Y0175117D01*
X0011324Y0175248D01*
X0011240Y0175382D01*
X0011158Y0175518D01*
X0011080Y0175655D01*
X0011006Y0175795D01*
X0010935Y0175937D01*
X0010867Y0176080D01*
X0010803Y0176225D01*
X0010743Y0176371D01*
X0010687Y0176519D01*
X0010634Y0176668D01*
X0010585Y0176819D01*
X0010540Y0176971D01*
X0010499Y0177124D01*
X0010461Y0177277D01*
X0010428Y0177432D01*
X0010398Y0177588D01*
X0010372Y0177744D01*
X0010351Y0177901D01*
X0010333Y0178058D01*
X0010319Y0178216D01*
X0010309Y0178374D01*
X0010303Y0178532D01*
X0010301Y0178690D01*
X0255301Y0178690D02*
X0255303Y0178848D01*
X0255309Y0179006D01*
X0255319Y0179164D01*
X0255333Y0179322D01*
X0255351Y0179479D01*
X0255372Y0179636D01*
X0255398Y0179792D01*
X0255428Y0179948D01*
X0255461Y0180103D01*
X0255499Y0180256D01*
X0255540Y0180409D01*
X0255585Y0180561D01*
X0255634Y0180712D01*
X0255687Y0180861D01*
X0255743Y0181009D01*
X0255803Y0181155D01*
X0255867Y0181300D01*
X0255935Y0181443D01*
X0256006Y0181585D01*
X0256080Y0181725D01*
X0256158Y0181862D01*
X0256240Y0181998D01*
X0256324Y0182132D01*
X0256413Y0182263D01*
X0256504Y0182392D01*
X0256599Y0182519D01*
X0256696Y0182644D01*
X0256797Y0182766D01*
X0256901Y0182885D01*
X0257008Y0183002D01*
X0257118Y0183116D01*
X0257231Y0183227D01*
X0257346Y0183336D01*
X0257464Y0183441D01*
X0257585Y0183543D01*
X0257708Y0183643D01*
X0257834Y0183739D01*
X0257962Y0183832D01*
X0258092Y0183922D01*
X0258225Y0184008D01*
X0258360Y0184092D01*
X0258496Y0184171D01*
X0258635Y0184248D01*
X0258776Y0184320D01*
X0258918Y0184390D01*
X0259062Y0184455D01*
X0259208Y0184517D01*
X0259355Y0184575D01*
X0259504Y0184630D01*
X0259654Y0184681D01*
X0259805Y0184728D01*
X0259957Y0184771D01*
X0260110Y0184810D01*
X0260265Y0184846D01*
X0260420Y0184877D01*
X0260576Y0184905D01*
X0260732Y0184929D01*
X0260889Y0184949D01*
X0261047Y0184965D01*
X0261204Y0184977D01*
X0261363Y0184985D01*
X0261521Y0184989D01*
X0261679Y0184989D01*
X0261837Y0184985D01*
X0261996Y0184977D01*
X0262153Y0184965D01*
X0262311Y0184949D01*
X0262468Y0184929D01*
X0262624Y0184905D01*
X0262780Y0184877D01*
X0262935Y0184846D01*
X0263090Y0184810D01*
X0263243Y0184771D01*
X0263395Y0184728D01*
X0263546Y0184681D01*
X0263696Y0184630D01*
X0263845Y0184575D01*
X0263992Y0184517D01*
X0264138Y0184455D01*
X0264282Y0184390D01*
X0264424Y0184320D01*
X0264565Y0184248D01*
X0264704Y0184171D01*
X0264840Y0184092D01*
X0264975Y0184008D01*
X0265108Y0183922D01*
X0265238Y0183832D01*
X0265366Y0183739D01*
X0265492Y0183643D01*
X0265615Y0183543D01*
X0265736Y0183441D01*
X0265854Y0183336D01*
X0265969Y0183227D01*
X0266082Y0183116D01*
X0266192Y0183002D01*
X0266299Y0182885D01*
X0266403Y0182766D01*
X0266504Y0182644D01*
X0266601Y0182519D01*
X0266696Y0182392D01*
X0266787Y0182263D01*
X0266876Y0182132D01*
X0266960Y0181998D01*
X0267042Y0181862D01*
X0267120Y0181725D01*
X0267194Y0181585D01*
X0267265Y0181443D01*
X0267333Y0181300D01*
X0267397Y0181155D01*
X0267457Y0181009D01*
X0267513Y0180861D01*
X0267566Y0180712D01*
X0267615Y0180561D01*
X0267660Y0180409D01*
X0267701Y0180256D01*
X0267739Y0180103D01*
X0267772Y0179948D01*
X0267802Y0179792D01*
X0267828Y0179636D01*
X0267849Y0179479D01*
X0267867Y0179322D01*
X0267881Y0179164D01*
X0267891Y0179006D01*
X0267897Y0178848D01*
X0267899Y0178690D01*
X0267897Y0178532D01*
X0267891Y0178374D01*
X0267881Y0178216D01*
X0267867Y0178058D01*
X0267849Y0177901D01*
X0267828Y0177744D01*
X0267802Y0177588D01*
X0267772Y0177432D01*
X0267739Y0177277D01*
X0267701Y0177124D01*
X0267660Y0176971D01*
X0267615Y0176819D01*
X0267566Y0176668D01*
X0267513Y0176519D01*
X0267457Y0176371D01*
X0267397Y0176225D01*
X0267333Y0176080D01*
X0267265Y0175937D01*
X0267194Y0175795D01*
X0267120Y0175655D01*
X0267042Y0175518D01*
X0266960Y0175382D01*
X0266876Y0175248D01*
X0266787Y0175117D01*
X0266696Y0174988D01*
X0266601Y0174861D01*
X0266504Y0174736D01*
X0266403Y0174614D01*
X0266299Y0174495D01*
X0266192Y0174378D01*
X0266082Y0174264D01*
X0265969Y0174153D01*
X0265854Y0174044D01*
X0265736Y0173939D01*
X0265615Y0173837D01*
X0265492Y0173737D01*
X0265366Y0173641D01*
X0265238Y0173548D01*
X0265108Y0173458D01*
X0264975Y0173372D01*
X0264840Y0173288D01*
X0264704Y0173209D01*
X0264565Y0173132D01*
X0264424Y0173060D01*
X0264282Y0172990D01*
X0264138Y0172925D01*
X0263992Y0172863D01*
X0263845Y0172805D01*
X0263696Y0172750D01*
X0263546Y0172699D01*
X0263395Y0172652D01*
X0263243Y0172609D01*
X0263090Y0172570D01*
X0262935Y0172534D01*
X0262780Y0172503D01*
X0262624Y0172475D01*
X0262468Y0172451D01*
X0262311Y0172431D01*
X0262153Y0172415D01*
X0261996Y0172403D01*
X0261837Y0172395D01*
X0261679Y0172391D01*
X0261521Y0172391D01*
X0261363Y0172395D01*
X0261204Y0172403D01*
X0261047Y0172415D01*
X0260889Y0172431D01*
X0260732Y0172451D01*
X0260576Y0172475D01*
X0260420Y0172503D01*
X0260265Y0172534D01*
X0260110Y0172570D01*
X0259957Y0172609D01*
X0259805Y0172652D01*
X0259654Y0172699D01*
X0259504Y0172750D01*
X0259355Y0172805D01*
X0259208Y0172863D01*
X0259062Y0172925D01*
X0258918Y0172990D01*
X0258776Y0173060D01*
X0258635Y0173132D01*
X0258496Y0173209D01*
X0258360Y0173288D01*
X0258225Y0173372D01*
X0258092Y0173458D01*
X0257962Y0173548D01*
X0257834Y0173641D01*
X0257708Y0173737D01*
X0257585Y0173837D01*
X0257464Y0173939D01*
X0257346Y0174044D01*
X0257231Y0174153D01*
X0257118Y0174264D01*
X0257008Y0174378D01*
X0256901Y0174495D01*
X0256797Y0174614D01*
X0256696Y0174736D01*
X0256599Y0174861D01*
X0256504Y0174988D01*
X0256413Y0175117D01*
X0256324Y0175248D01*
X0256240Y0175382D01*
X0256158Y0175518D01*
X0256080Y0175655D01*
X0256006Y0175795D01*
X0255935Y0175937D01*
X0255867Y0176080D01*
X0255803Y0176225D01*
X0255743Y0176371D01*
X0255687Y0176519D01*
X0255634Y0176668D01*
X0255585Y0176819D01*
X0255540Y0176971D01*
X0255499Y0177124D01*
X0255461Y0177277D01*
X0255428Y0177432D01*
X0255398Y0177588D01*
X0255372Y0177744D01*
X0255351Y0177901D01*
X0255333Y0178058D01*
X0255319Y0178216D01*
X0255309Y0178374D01*
X0255303Y0178532D01*
X0255301Y0178690D01*
X0255301Y0018690D02*
X0255303Y0018848D01*
X0255309Y0019006D01*
X0255319Y0019164D01*
X0255333Y0019322D01*
X0255351Y0019479D01*
X0255372Y0019636D01*
X0255398Y0019792D01*
X0255428Y0019948D01*
X0255461Y0020103D01*
X0255499Y0020256D01*
X0255540Y0020409D01*
X0255585Y0020561D01*
X0255634Y0020712D01*
X0255687Y0020861D01*
X0255743Y0021009D01*
X0255803Y0021155D01*
X0255867Y0021300D01*
X0255935Y0021443D01*
X0256006Y0021585D01*
X0256080Y0021725D01*
X0256158Y0021862D01*
X0256240Y0021998D01*
X0256324Y0022132D01*
X0256413Y0022263D01*
X0256504Y0022392D01*
X0256599Y0022519D01*
X0256696Y0022644D01*
X0256797Y0022766D01*
X0256901Y0022885D01*
X0257008Y0023002D01*
X0257118Y0023116D01*
X0257231Y0023227D01*
X0257346Y0023336D01*
X0257464Y0023441D01*
X0257585Y0023543D01*
X0257708Y0023643D01*
X0257834Y0023739D01*
X0257962Y0023832D01*
X0258092Y0023922D01*
X0258225Y0024008D01*
X0258360Y0024092D01*
X0258496Y0024171D01*
X0258635Y0024248D01*
X0258776Y0024320D01*
X0258918Y0024390D01*
X0259062Y0024455D01*
X0259208Y0024517D01*
X0259355Y0024575D01*
X0259504Y0024630D01*
X0259654Y0024681D01*
X0259805Y0024728D01*
X0259957Y0024771D01*
X0260110Y0024810D01*
X0260265Y0024846D01*
X0260420Y0024877D01*
X0260576Y0024905D01*
X0260732Y0024929D01*
X0260889Y0024949D01*
X0261047Y0024965D01*
X0261204Y0024977D01*
X0261363Y0024985D01*
X0261521Y0024989D01*
X0261679Y0024989D01*
X0261837Y0024985D01*
X0261996Y0024977D01*
X0262153Y0024965D01*
X0262311Y0024949D01*
X0262468Y0024929D01*
X0262624Y0024905D01*
X0262780Y0024877D01*
X0262935Y0024846D01*
X0263090Y0024810D01*
X0263243Y0024771D01*
X0263395Y0024728D01*
X0263546Y0024681D01*
X0263696Y0024630D01*
X0263845Y0024575D01*
X0263992Y0024517D01*
X0264138Y0024455D01*
X0264282Y0024390D01*
X0264424Y0024320D01*
X0264565Y0024248D01*
X0264704Y0024171D01*
X0264840Y0024092D01*
X0264975Y0024008D01*
X0265108Y0023922D01*
X0265238Y0023832D01*
X0265366Y0023739D01*
X0265492Y0023643D01*
X0265615Y0023543D01*
X0265736Y0023441D01*
X0265854Y0023336D01*
X0265969Y0023227D01*
X0266082Y0023116D01*
X0266192Y0023002D01*
X0266299Y0022885D01*
X0266403Y0022766D01*
X0266504Y0022644D01*
X0266601Y0022519D01*
X0266696Y0022392D01*
X0266787Y0022263D01*
X0266876Y0022132D01*
X0266960Y0021998D01*
X0267042Y0021862D01*
X0267120Y0021725D01*
X0267194Y0021585D01*
X0267265Y0021443D01*
X0267333Y0021300D01*
X0267397Y0021155D01*
X0267457Y0021009D01*
X0267513Y0020861D01*
X0267566Y0020712D01*
X0267615Y0020561D01*
X0267660Y0020409D01*
X0267701Y0020256D01*
X0267739Y0020103D01*
X0267772Y0019948D01*
X0267802Y0019792D01*
X0267828Y0019636D01*
X0267849Y0019479D01*
X0267867Y0019322D01*
X0267881Y0019164D01*
X0267891Y0019006D01*
X0267897Y0018848D01*
X0267899Y0018690D01*
X0267897Y0018532D01*
X0267891Y0018374D01*
X0267881Y0018216D01*
X0267867Y0018058D01*
X0267849Y0017901D01*
X0267828Y0017744D01*
X0267802Y0017588D01*
X0267772Y0017432D01*
X0267739Y0017277D01*
X0267701Y0017124D01*
X0267660Y0016971D01*
X0267615Y0016819D01*
X0267566Y0016668D01*
X0267513Y0016519D01*
X0267457Y0016371D01*
X0267397Y0016225D01*
X0267333Y0016080D01*
X0267265Y0015937D01*
X0267194Y0015795D01*
X0267120Y0015655D01*
X0267042Y0015518D01*
X0266960Y0015382D01*
X0266876Y0015248D01*
X0266787Y0015117D01*
X0266696Y0014988D01*
X0266601Y0014861D01*
X0266504Y0014736D01*
X0266403Y0014614D01*
X0266299Y0014495D01*
X0266192Y0014378D01*
X0266082Y0014264D01*
X0265969Y0014153D01*
X0265854Y0014044D01*
X0265736Y0013939D01*
X0265615Y0013837D01*
X0265492Y0013737D01*
X0265366Y0013641D01*
X0265238Y0013548D01*
X0265108Y0013458D01*
X0264975Y0013372D01*
X0264840Y0013288D01*
X0264704Y0013209D01*
X0264565Y0013132D01*
X0264424Y0013060D01*
X0264282Y0012990D01*
X0264138Y0012925D01*
X0263992Y0012863D01*
X0263845Y0012805D01*
X0263696Y0012750D01*
X0263546Y0012699D01*
X0263395Y0012652D01*
X0263243Y0012609D01*
X0263090Y0012570D01*
X0262935Y0012534D01*
X0262780Y0012503D01*
X0262624Y0012475D01*
X0262468Y0012451D01*
X0262311Y0012431D01*
X0262153Y0012415D01*
X0261996Y0012403D01*
X0261837Y0012395D01*
X0261679Y0012391D01*
X0261521Y0012391D01*
X0261363Y0012395D01*
X0261204Y0012403D01*
X0261047Y0012415D01*
X0260889Y0012431D01*
X0260732Y0012451D01*
X0260576Y0012475D01*
X0260420Y0012503D01*
X0260265Y0012534D01*
X0260110Y0012570D01*
X0259957Y0012609D01*
X0259805Y0012652D01*
X0259654Y0012699D01*
X0259504Y0012750D01*
X0259355Y0012805D01*
X0259208Y0012863D01*
X0259062Y0012925D01*
X0258918Y0012990D01*
X0258776Y0013060D01*
X0258635Y0013132D01*
X0258496Y0013209D01*
X0258360Y0013288D01*
X0258225Y0013372D01*
X0258092Y0013458D01*
X0257962Y0013548D01*
X0257834Y0013641D01*
X0257708Y0013737D01*
X0257585Y0013837D01*
X0257464Y0013939D01*
X0257346Y0014044D01*
X0257231Y0014153D01*
X0257118Y0014264D01*
X0257008Y0014378D01*
X0256901Y0014495D01*
X0256797Y0014614D01*
X0256696Y0014736D01*
X0256599Y0014861D01*
X0256504Y0014988D01*
X0256413Y0015117D01*
X0256324Y0015248D01*
X0256240Y0015382D01*
X0256158Y0015518D01*
X0256080Y0015655D01*
X0256006Y0015795D01*
X0255935Y0015937D01*
X0255867Y0016080D01*
X0255803Y0016225D01*
X0255743Y0016371D01*
X0255687Y0016519D01*
X0255634Y0016668D01*
X0255585Y0016819D01*
X0255540Y0016971D01*
X0255499Y0017124D01*
X0255461Y0017277D01*
X0255428Y0017432D01*
X0255398Y0017588D01*
X0255372Y0017744D01*
X0255351Y0017901D01*
X0255333Y0018058D01*
X0255319Y0018216D01*
X0255309Y0018374D01*
X0255303Y0018532D01*
X0255301Y0018690D01*
D11*
X0256346Y0041540D02*
X0261250Y0041540D01*
X0261250Y0044810D01*
X0266346Y0044858D02*
X0267163Y0044040D01*
X0270433Y0044040D01*
X0271250Y0044858D01*
X0271250Y0046492D01*
X0270433Y0047310D01*
X0271250Y0049197D02*
X0267981Y0049197D01*
X0266346Y0050831D01*
X0267981Y0052466D01*
X0271250Y0052466D01*
X0271250Y0054353D02*
X0266346Y0054353D01*
X0271250Y0057623D01*
X0266346Y0057623D01*
X0267163Y0059509D02*
X0266346Y0060327D01*
X0266346Y0061962D01*
X0267163Y0062779D01*
X0267981Y0062779D01*
X0271250Y0059509D01*
X0271250Y0062779D01*
X0261250Y0061540D02*
X0256346Y0061540D01*
X0258798Y0061540D02*
X0258798Y0064810D01*
X0256346Y0064810D02*
X0261250Y0064810D01*
X0268798Y0052466D02*
X0268798Y0049197D01*
X0267163Y0047310D02*
X0266346Y0046492D01*
X0266346Y0044858D01*
X0232719Y0174040D02*
X0229450Y0174040D01*
X0229450Y0178944D01*
X0231001Y0184040D02*
X0231001Y0188944D01*
X0229367Y0187310D01*
X0227732Y0188944D01*
X0227732Y0184040D01*
X0232888Y0184858D02*
X0232888Y0188127D01*
X0233706Y0188944D01*
X0235340Y0188944D01*
X0236158Y0188127D01*
X0236158Y0184858D01*
X0235340Y0184040D01*
X0233706Y0184040D01*
X0232888Y0184858D01*
X0238045Y0184040D02*
X0238045Y0188944D01*
X0241314Y0184040D01*
X0241314Y0188944D01*
X0220689Y0188127D02*
X0220689Y0187310D01*
X0217419Y0184040D01*
X0220689Y0184040D01*
X0220689Y0188127D02*
X0219871Y0188944D01*
X0218237Y0188944D01*
X0217419Y0188127D01*
X0215532Y0188944D02*
X0215532Y0184040D01*
X0212263Y0188944D01*
X0212263Y0184040D01*
X0210376Y0184040D02*
X0210376Y0187310D01*
X0208741Y0188944D01*
X0207106Y0187310D01*
X0207106Y0184040D01*
X0205219Y0184858D02*
X0204402Y0184040D01*
X0202767Y0184040D01*
X0201950Y0184858D01*
X0201950Y0188127D01*
X0202767Y0188944D01*
X0204402Y0188944D01*
X0205219Y0188127D01*
X0207106Y0186492D02*
X0210376Y0186492D01*
X0209450Y0178944D02*
X0209450Y0174040D01*
X0209450Y0176492D02*
X0212719Y0176492D01*
X0212719Y0178944D02*
X0212719Y0174040D01*
X0150845Y0184040D02*
X0149210Y0185675D01*
X0150028Y0185675D02*
X0147576Y0185675D01*
X0147576Y0184040D02*
X0147576Y0188944D01*
X0150028Y0188944D01*
X0150845Y0188127D01*
X0150845Y0186492D01*
X0150028Y0185675D01*
X0145689Y0184040D02*
X0142419Y0184040D01*
X0142419Y0188944D01*
X0145689Y0188944D01*
X0144054Y0186492D02*
X0142419Y0186492D01*
X0140532Y0184040D02*
X0140532Y0188944D01*
X0137263Y0188944D02*
X0137263Y0184040D01*
X0138898Y0185675D01*
X0140532Y0184040D01*
X0135376Y0184858D02*
X0135376Y0188127D01*
X0134558Y0188944D01*
X0132924Y0188944D01*
X0132106Y0188127D01*
X0132106Y0184858D01*
X0132924Y0184040D01*
X0134558Y0184040D01*
X0135376Y0184858D01*
X0130219Y0186492D02*
X0130219Y0188127D01*
X0129402Y0188944D01*
X0126950Y0188944D01*
X0126950Y0184040D01*
X0126950Y0185675D02*
X0129402Y0185675D01*
X0130219Y0186492D01*
X0130219Y0176492D02*
X0126950Y0176492D01*
X0146950Y0176492D02*
X0150219Y0176492D01*
X0148585Y0174858D02*
X0148585Y0178127D01*
X0076314Y0184040D02*
X0076314Y0188944D01*
X0073045Y0188944D02*
X0076314Y0184040D01*
X0073045Y0184040D02*
X0073045Y0188944D01*
X0071158Y0188127D02*
X0070340Y0188944D01*
X0068706Y0188944D01*
X0067888Y0188127D01*
X0067888Y0184858D01*
X0068706Y0184040D01*
X0070340Y0184040D01*
X0071158Y0184858D01*
X0071158Y0188127D01*
X0066001Y0188944D02*
X0066001Y0184040D01*
X0062732Y0184040D02*
X0062732Y0188944D01*
X0064367Y0187310D01*
X0066001Y0188944D01*
X0055689Y0184040D02*
X0052419Y0184040D01*
X0054054Y0184040D02*
X0054054Y0188944D01*
X0052419Y0187310D01*
X0050532Y0188944D02*
X0050532Y0184040D01*
X0047263Y0188944D01*
X0047263Y0184040D01*
X0045376Y0184040D02*
X0045376Y0187310D01*
X0043741Y0188944D01*
X0042106Y0187310D01*
X0042106Y0184040D01*
X0040219Y0184858D02*
X0039402Y0184040D01*
X0037767Y0184040D01*
X0036950Y0184858D01*
X0036950Y0188127D01*
X0037767Y0188944D01*
X0039402Y0188944D01*
X0040219Y0188127D01*
X0042106Y0186492D02*
X0045376Y0186492D01*
X0044450Y0178944D02*
X0044450Y0174040D01*
X0044450Y0176492D02*
X0047719Y0176492D01*
X0047719Y0178944D02*
X0047719Y0174040D01*
X0064450Y0174040D02*
X0067719Y0174040D01*
X0064450Y0174040D02*
X0064450Y0178944D01*
X0021250Y0064810D02*
X0021250Y0061540D01*
X0016346Y0061540D01*
X0011250Y0061144D02*
X0006346Y0061144D01*
X0007981Y0059509D01*
X0006346Y0057623D02*
X0011250Y0057623D01*
X0006346Y0054353D01*
X0011250Y0054353D01*
X0011250Y0052466D02*
X0007981Y0052466D01*
X0006346Y0050831D01*
X0007981Y0049197D01*
X0011250Y0049197D01*
X0010433Y0047310D02*
X0011250Y0046492D01*
X0011250Y0044858D01*
X0010433Y0044040D01*
X0007163Y0044040D01*
X0006346Y0044858D01*
X0006346Y0046492D01*
X0007163Y0047310D01*
X0008798Y0049197D02*
X0008798Y0052466D01*
X0011250Y0059509D02*
X0011250Y0062779D01*
X0016346Y0044810D02*
X0021250Y0044810D01*
X0018798Y0044810D02*
X0018798Y0041540D01*
X0021250Y0041540D02*
X0016346Y0041540D01*
D12*
X0061600Y0041190D02*
X0061600Y0036190D01*
X0064100Y0033690D01*
X0069100Y0033690D01*
X0071600Y0036190D01*
X0071600Y0041190D01*
X0069100Y0043690D01*
X0071600Y0046190D01*
X0071600Y0051190D01*
X0069100Y0053690D01*
X0064100Y0053690D01*
X0061600Y0051190D01*
X0061600Y0046190D01*
X0064100Y0043690D01*
X0061600Y0041190D01*
X0011200Y0085058D02*
X0010233Y0084090D01*
X0006363Y0084090D01*
X0005395Y0085058D01*
X0005395Y0086993D01*
X0006363Y0087960D01*
X0007330Y0090167D02*
X0005395Y0092102D01*
X0007330Y0094037D01*
X0011200Y0094037D01*
X0011200Y0096245D02*
X0005395Y0096245D01*
X0011200Y0100115D01*
X0005395Y0100115D01*
X0008298Y0094037D02*
X0008298Y0090167D01*
X0007330Y0090167D02*
X0011200Y0090167D01*
X0010233Y0087960D02*
X0011200Y0086993D01*
X0011200Y0085058D01*
X0011200Y0108399D02*
X0005395Y0108399D01*
X0007330Y0110334D01*
X0005395Y0112269D01*
X0011200Y0112269D01*
X0011200Y0114476D02*
X0011200Y0116411D01*
X0011200Y0115444D02*
X0005395Y0115444D01*
X0005395Y0116411D02*
X0005395Y0114476D01*
X0005395Y0118528D02*
X0007330Y0120463D01*
X0005395Y0122398D01*
X0011200Y0122398D01*
X0011200Y0118528D02*
X0005395Y0118528D01*
X0005395Y0130682D02*
X0007330Y0132617D01*
X0005395Y0134552D01*
X0011200Y0134552D01*
X0010233Y0136759D02*
X0006363Y0136759D01*
X0005395Y0137727D01*
X0005395Y0139662D01*
X0006363Y0140629D01*
X0010233Y0140629D01*
X0011200Y0139662D01*
X0011200Y0137727D01*
X0010233Y0136759D01*
X0011200Y0142836D02*
X0005395Y0142836D01*
X0011200Y0146706D01*
X0005395Y0146706D01*
X0005395Y0130682D02*
X0011200Y0130682D01*
X0206600Y0071190D02*
X0206600Y0066190D01*
X0209100Y0063690D01*
X0206600Y0061190D01*
X0206600Y0056190D01*
X0209100Y0053690D01*
X0214100Y0053690D01*
X0216600Y0056190D01*
X0216600Y0061190D01*
X0214100Y0063690D01*
X0216600Y0066190D01*
X0216600Y0071190D01*
X0214100Y0073690D01*
X0209100Y0073690D01*
X0206600Y0071190D01*
D13*
X0209447Y0076075D02*
X0209447Y0077209D01*
X0209447Y0076642D02*
X0212283Y0076642D01*
X0212850Y0076075D01*
X0212850Y0075507D01*
X0212283Y0074940D01*
X0212850Y0078623D02*
X0210581Y0080892D01*
X0210014Y0080892D01*
X0209447Y0080325D01*
X0209447Y0079191D01*
X0210014Y0078623D01*
X0212850Y0078623D02*
X0212850Y0080892D01*
X0229351Y0082557D02*
X0229918Y0081990D01*
X0231052Y0081990D01*
X0231619Y0082557D01*
X0233034Y0081990D02*
X0235302Y0081990D01*
X0234168Y0081990D02*
X0234168Y0085393D01*
X0233034Y0084259D01*
X0231619Y0084826D02*
X0231052Y0085393D01*
X0229918Y0085393D01*
X0229351Y0084826D01*
X0229351Y0082557D01*
X0236717Y0082557D02*
X0237284Y0081990D01*
X0238418Y0081990D01*
X0238985Y0082557D01*
X0238985Y0083125D01*
X0238418Y0083692D01*
X0236717Y0083692D01*
X0236717Y0082557D01*
X0236717Y0083692D02*
X0237851Y0084826D01*
X0238985Y0085393D01*
X0209843Y0100807D02*
X0209843Y0101942D01*
X0209276Y0102509D01*
X0206440Y0102509D01*
X0207008Y0103923D02*
X0207575Y0103923D01*
X0208142Y0104491D01*
X0208142Y0106192D01*
X0209276Y0106192D02*
X0207008Y0106192D01*
X0206440Y0105625D01*
X0206440Y0104491D01*
X0207008Y0103923D01*
X0209276Y0103923D02*
X0209843Y0104491D01*
X0209843Y0105625D01*
X0209276Y0106192D01*
X0209843Y0100807D02*
X0209276Y0100240D01*
X0206440Y0100240D01*
X0195456Y0087446D02*
X0193754Y0085745D01*
X0196023Y0085745D01*
X0195456Y0084043D02*
X0195456Y0087446D01*
X0192340Y0084043D02*
X0190071Y0084043D01*
X0191205Y0084043D02*
X0191205Y0087446D01*
X0190071Y0086312D01*
X0188657Y0086879D02*
X0188089Y0087446D01*
X0186955Y0087446D01*
X0186388Y0086879D01*
X0186388Y0084611D01*
X0186955Y0084043D01*
X0188089Y0084043D01*
X0188657Y0084611D01*
X0175235Y0084826D02*
X0175235Y0082557D01*
X0174668Y0081990D01*
X0173534Y0081990D01*
X0172967Y0082557D01*
X0173534Y0083692D02*
X0175235Y0083692D01*
X0175235Y0084826D02*
X0174668Y0085393D01*
X0173534Y0085393D01*
X0172967Y0084826D01*
X0172967Y0084259D01*
X0173534Y0083692D01*
X0171552Y0084826D02*
X0170985Y0085393D01*
X0169851Y0085393D01*
X0169284Y0084826D01*
X0169284Y0082557D01*
X0169851Y0081990D01*
X0170985Y0081990D01*
X0171552Y0082557D01*
X0184400Y0068850D02*
X0184400Y0066014D01*
X0184967Y0065447D01*
X0186101Y0065447D01*
X0186669Y0066014D01*
X0186669Y0068850D01*
X0188083Y0068283D02*
X0188650Y0068850D01*
X0189785Y0068850D01*
X0190352Y0068283D01*
X0190352Y0067716D01*
X0189785Y0067148D01*
X0188650Y0067148D01*
X0188083Y0067716D01*
X0188083Y0068283D01*
X0188650Y0067148D02*
X0188083Y0066581D01*
X0188083Y0066014D01*
X0188650Y0065447D01*
X0189785Y0065447D01*
X0190352Y0066014D01*
X0190352Y0066581D01*
X0189785Y0067148D01*
X0163300Y0053308D02*
X0163300Y0052174D01*
X0162733Y0051607D01*
X0161599Y0051607D02*
X0161031Y0052741D01*
X0161031Y0053308D01*
X0161599Y0053875D01*
X0162733Y0053875D01*
X0163300Y0053308D01*
X0161599Y0051607D02*
X0159897Y0051607D01*
X0159897Y0053875D01*
X0159897Y0049058D02*
X0163300Y0049058D01*
X0163300Y0050192D02*
X0163300Y0047923D01*
X0162733Y0046509D02*
X0163300Y0045942D01*
X0163300Y0044807D01*
X0162733Y0044240D01*
X0160464Y0044240D01*
X0159897Y0044807D01*
X0159897Y0045942D01*
X0160464Y0046509D01*
X0161031Y0047923D02*
X0159897Y0049058D01*
X0143993Y0041482D02*
X0143993Y0040914D01*
X0141725Y0038646D01*
X0143993Y0038646D01*
X0140310Y0039213D02*
X0140310Y0042049D01*
X0141725Y0041482D02*
X0142292Y0042049D01*
X0143426Y0042049D01*
X0143993Y0041482D01*
X0140310Y0039213D02*
X0139743Y0038646D01*
X0138609Y0038646D01*
X0138042Y0039213D01*
X0138042Y0042049D01*
X0135233Y0031442D02*
X0135800Y0030875D01*
X0135800Y0029741D01*
X0135233Y0029173D01*
X0135800Y0027759D02*
X0134666Y0026625D01*
X0134666Y0027192D02*
X0134666Y0025490D01*
X0135800Y0025490D02*
X0132397Y0025490D01*
X0132397Y0027192D01*
X0132964Y0027759D01*
X0134099Y0027759D01*
X0134666Y0027192D01*
X0132964Y0029173D02*
X0132397Y0029741D01*
X0132397Y0030875D01*
X0132964Y0031442D01*
X0133531Y0031442D01*
X0134099Y0030875D01*
X0134666Y0031442D01*
X0135233Y0031442D01*
X0134099Y0030875D02*
X0134099Y0030308D01*
X0134851Y0020393D02*
X0134284Y0019826D01*
X0134284Y0017557D01*
X0134851Y0016990D01*
X0135985Y0016990D01*
X0136552Y0017557D01*
X0137967Y0017557D02*
X0138534Y0016990D01*
X0139668Y0016990D01*
X0140235Y0017557D01*
X0140235Y0018692D01*
X0139668Y0019259D01*
X0139101Y0019259D01*
X0137967Y0018692D01*
X0137967Y0020393D01*
X0140235Y0020393D01*
X0136552Y0019826D02*
X0135985Y0020393D01*
X0134851Y0020393D01*
X0115235Y0037557D02*
X0114668Y0036990D01*
X0113534Y0036990D01*
X0112967Y0037557D01*
X0115235Y0039826D01*
X0115235Y0037557D01*
X0112967Y0037557D02*
X0112967Y0039826D01*
X0113534Y0040393D01*
X0114668Y0040393D01*
X0115235Y0039826D01*
X0111552Y0036990D02*
X0109284Y0036990D01*
X0110418Y0036990D02*
X0110418Y0040393D01*
X0109284Y0039259D01*
X0107869Y0039826D02*
X0107302Y0040393D01*
X0106168Y0040393D01*
X0105601Y0039826D01*
X0105601Y0037557D01*
X0106168Y0036990D01*
X0107302Y0036990D01*
X0107869Y0037557D01*
X0094235Y0039101D02*
X0093668Y0038534D01*
X0092534Y0038534D01*
X0091967Y0039101D01*
X0091967Y0040235D01*
X0093668Y0040235D01*
X0094235Y0039668D01*
X0094235Y0039101D01*
X0093101Y0041369D02*
X0091967Y0040235D01*
X0093101Y0041369D02*
X0094235Y0041936D01*
X0090552Y0041936D02*
X0090552Y0039101D01*
X0089985Y0038534D01*
X0088851Y0038534D01*
X0088284Y0039101D01*
X0088284Y0041936D01*
X0080800Y0031442D02*
X0080800Y0029173D01*
X0078531Y0031442D01*
X0077964Y0031442D01*
X0077397Y0030875D01*
X0077397Y0029741D01*
X0077964Y0029173D01*
X0077964Y0027759D02*
X0079099Y0027759D01*
X0079666Y0027192D01*
X0079666Y0025490D01*
X0080800Y0025490D02*
X0077397Y0025490D01*
X0077397Y0027192D01*
X0077964Y0027759D01*
X0079666Y0026625D02*
X0080800Y0027759D01*
X0078785Y0020393D02*
X0077083Y0018692D01*
X0079352Y0018692D01*
X0078785Y0016990D02*
X0078785Y0020393D01*
X0075669Y0019826D02*
X0075101Y0020393D01*
X0073967Y0020393D01*
X0073400Y0019826D01*
X0073400Y0017557D01*
X0073967Y0016990D01*
X0075101Y0016990D01*
X0075669Y0017557D01*
X0068183Y0025674D02*
X0068750Y0026241D01*
X0068750Y0026808D01*
X0068183Y0027375D01*
X0065347Y0027375D01*
X0065347Y0026808D02*
X0065347Y0027943D01*
X0066481Y0029357D02*
X0065347Y0030491D01*
X0068750Y0030491D01*
X0068750Y0029357D02*
X0068750Y0031626D01*
X0048324Y0029976D02*
X0047757Y0030543D01*
X0046623Y0030543D01*
X0046056Y0029976D01*
X0044641Y0030543D02*
X0044641Y0027140D01*
X0042373Y0030543D01*
X0042373Y0027140D01*
X0040958Y0027707D02*
X0040958Y0029976D01*
X0040391Y0030543D01*
X0039257Y0030543D01*
X0038689Y0029976D01*
X0038689Y0027707D01*
X0039257Y0027140D01*
X0040391Y0027140D01*
X0040958Y0027707D01*
X0037275Y0027707D02*
X0036708Y0027140D01*
X0035573Y0027140D01*
X0035006Y0027707D01*
X0035006Y0029976D01*
X0035573Y0030543D01*
X0036708Y0030543D01*
X0037275Y0029976D01*
X0046056Y0027140D02*
X0048324Y0029408D01*
X0048324Y0029976D01*
X0048324Y0027140D02*
X0046056Y0027140D01*
X0103573Y0016675D02*
X0103573Y0013839D01*
X0104140Y0013272D01*
X0105275Y0013272D01*
X0105842Y0013839D01*
X0105842Y0016675D01*
X0107256Y0016675D02*
X0107256Y0014973D01*
X0108391Y0015540D01*
X0108958Y0015540D01*
X0109525Y0014973D01*
X0109525Y0013839D01*
X0108958Y0013272D01*
X0107824Y0013272D01*
X0107256Y0013839D01*
X0107256Y0016675D02*
X0109525Y0016675D01*
X0109214Y0061441D02*
X0111483Y0061441D01*
X0112050Y0062008D01*
X0112050Y0063142D01*
X0111483Y0063709D01*
X0112050Y0065124D02*
X0112050Y0067393D01*
X0112050Y0066258D02*
X0108647Y0066258D01*
X0109781Y0065124D01*
X0109214Y0063709D02*
X0108647Y0063142D01*
X0108647Y0062008D01*
X0109214Y0061441D01*
X0117126Y0062431D02*
X0117694Y0061864D01*
X0118828Y0061864D01*
X0119395Y0062431D01*
X0119395Y0065267D01*
X0120810Y0064700D02*
X0121377Y0065267D01*
X0122511Y0065267D01*
X0123078Y0064700D01*
X0123078Y0064133D01*
X0122511Y0063566D01*
X0123078Y0062999D01*
X0123078Y0062431D01*
X0122511Y0061864D01*
X0121377Y0061864D01*
X0120810Y0062431D01*
X0121944Y0063566D02*
X0122511Y0063566D01*
X0117126Y0062431D02*
X0117126Y0065267D01*
X0112050Y0068807D02*
X0109781Y0071076D01*
X0109214Y0071076D01*
X0108647Y0070509D01*
X0108647Y0069374D01*
X0109214Y0068807D01*
X0112050Y0068807D02*
X0112050Y0071076D01*
X0129284Y0082557D02*
X0129851Y0081990D01*
X0130985Y0081990D01*
X0131552Y0082557D01*
X0132967Y0082557D02*
X0132967Y0083125D01*
X0133534Y0083692D01*
X0134668Y0083692D01*
X0135235Y0083125D01*
X0135235Y0082557D01*
X0134668Y0081990D01*
X0133534Y0081990D01*
X0132967Y0082557D01*
X0133534Y0083692D02*
X0132967Y0084259D01*
X0132967Y0084826D01*
X0133534Y0085393D01*
X0134668Y0085393D01*
X0135235Y0084826D01*
X0135235Y0084259D01*
X0134668Y0083692D01*
X0131552Y0084826D02*
X0130985Y0085393D01*
X0129851Y0085393D01*
X0129284Y0084826D01*
X0129284Y0082557D01*
X0143376Y0080267D02*
X0143376Y0077431D01*
X0143944Y0076864D01*
X0145078Y0076864D01*
X0145645Y0077431D01*
X0145645Y0080267D01*
X0147060Y0078566D02*
X0149328Y0078566D01*
X0148761Y0076864D02*
X0148761Y0080267D01*
X0147060Y0078566D01*
X0145235Y0065393D02*
X0142967Y0065393D01*
X0141552Y0064826D02*
X0140985Y0065393D01*
X0139851Y0065393D01*
X0139284Y0064826D01*
X0139284Y0062557D01*
X0139851Y0061990D01*
X0140985Y0061990D01*
X0141552Y0062557D01*
X0142967Y0062557D02*
X0142967Y0061990D01*
X0142967Y0062557D02*
X0145235Y0064826D01*
X0145235Y0065393D01*
X0179284Y0034826D02*
X0179851Y0035393D01*
X0180985Y0035393D01*
X0181552Y0034826D01*
X0182967Y0033692D02*
X0184668Y0033692D01*
X0185235Y0033125D01*
X0185235Y0032557D01*
X0184668Y0031990D01*
X0183534Y0031990D01*
X0182967Y0032557D01*
X0182967Y0033692D01*
X0184101Y0034826D01*
X0185235Y0035393D01*
X0181552Y0032557D02*
X0180985Y0031990D01*
X0179851Y0031990D01*
X0179284Y0032557D01*
X0179284Y0034826D01*
X0209360Y0035495D02*
X0209927Y0034361D01*
X0211061Y0033227D01*
X0211061Y0034928D01*
X0211628Y0035495D01*
X0212195Y0035495D01*
X0212763Y0034928D01*
X0212763Y0033794D01*
X0212195Y0033227D01*
X0211061Y0033227D01*
X0211061Y0031812D02*
X0211628Y0031245D01*
X0211628Y0029543D01*
X0212763Y0029543D02*
X0209360Y0029543D01*
X0209360Y0031245D01*
X0209927Y0031812D01*
X0211061Y0031812D01*
X0211628Y0030678D02*
X0212763Y0031812D01*
X0229061Y0030926D02*
X0229061Y0028658D01*
X0229628Y0028091D01*
X0230763Y0028091D01*
X0231330Y0028658D01*
X0232744Y0028658D02*
X0233311Y0028091D01*
X0234446Y0028091D01*
X0235013Y0028658D01*
X0235013Y0030926D01*
X0234446Y0031494D01*
X0233311Y0031494D01*
X0232744Y0030926D01*
X0232744Y0028658D01*
X0231330Y0030926D02*
X0230763Y0031494D01*
X0229628Y0031494D01*
X0229061Y0030926D01*
X0236427Y0031494D02*
X0236427Y0028091D01*
X0238696Y0028091D02*
X0238696Y0031494D01*
X0240111Y0029792D02*
X0242379Y0029792D01*
X0241812Y0028091D02*
X0241812Y0031494D01*
X0240111Y0029792D01*
X0238696Y0028091D02*
X0236427Y0031494D01*
X0193125Y0009667D02*
X0193125Y0006264D01*
X0191991Y0006264D02*
X0194259Y0006264D01*
X0191991Y0008533D02*
X0193125Y0009667D01*
X0190576Y0009667D02*
X0190576Y0006831D01*
X0190009Y0006264D01*
X0188875Y0006264D01*
X0188307Y0006831D01*
X0188307Y0009667D01*
X0092247Y0083687D02*
X0089979Y0083687D01*
X0091113Y0083687D02*
X0091113Y0087090D01*
X0089979Y0085956D01*
X0087430Y0087090D02*
X0087430Y0083687D01*
X0086296Y0083687D02*
X0088564Y0083687D01*
X0084881Y0084254D02*
X0084314Y0083687D01*
X0083180Y0083687D01*
X0082613Y0084254D01*
X0082613Y0086523D01*
X0083180Y0087090D01*
X0084314Y0087090D01*
X0084881Y0086523D01*
X0086296Y0085956D02*
X0087430Y0087090D01*
X0070087Y0077705D02*
X0066684Y0077705D01*
X0068386Y0076004D01*
X0068386Y0078273D01*
X0068386Y0074589D02*
X0068953Y0074022D01*
X0068953Y0072321D01*
X0068953Y0073455D02*
X0070087Y0074589D01*
X0068386Y0074589D02*
X0067252Y0074589D01*
X0066684Y0074022D01*
X0066684Y0072321D01*
X0070087Y0072321D01*
X0061485Y0077557D02*
X0061485Y0078125D01*
X0060918Y0078692D01*
X0060351Y0078692D01*
X0060918Y0078692D02*
X0061485Y0079259D01*
X0061485Y0079826D01*
X0060918Y0080393D01*
X0059784Y0080393D01*
X0059217Y0079826D01*
X0059217Y0077557D02*
X0059784Y0076990D01*
X0060918Y0076990D01*
X0061485Y0077557D01*
X0057802Y0076990D02*
X0055534Y0076990D01*
X0056668Y0076990D02*
X0056668Y0080393D01*
X0055534Y0079259D01*
X0054119Y0079826D02*
X0053552Y0080393D01*
X0052418Y0080393D01*
X0051851Y0079826D01*
X0051851Y0077557D01*
X0052418Y0076990D01*
X0053552Y0076990D01*
X0054119Y0077557D01*
X0031300Y0084724D02*
X0030566Y0083990D01*
X0029098Y0083990D01*
X0028364Y0084724D01*
X0028364Y0086926D01*
X0026896Y0086926D02*
X0031300Y0086926D01*
X0031300Y0084724D01*
X0030566Y0088594D02*
X0029832Y0089328D01*
X0029832Y0091530D01*
X0029098Y0091530D02*
X0031300Y0091530D01*
X0031300Y0089328D01*
X0030566Y0088594D01*
X0028364Y0089328D02*
X0028364Y0090796D01*
X0029098Y0091530D01*
X0028364Y0093198D02*
X0028364Y0095400D01*
X0029098Y0096134D01*
X0031300Y0096134D01*
X0032768Y0097802D02*
X0032768Y0098536D01*
X0032034Y0099270D01*
X0028364Y0099270D01*
X0026896Y0099270D02*
X0026162Y0099270D01*
X0028364Y0100871D02*
X0030566Y0100871D01*
X0031300Y0101605D01*
X0031300Y0103807D01*
X0028364Y0103807D01*
X0026896Y0105475D02*
X0026896Y0106209D01*
X0031300Y0106209D01*
X0031300Y0105475D02*
X0031300Y0106943D01*
X0031300Y0108545D02*
X0031300Y0110012D01*
X0031300Y0109278D02*
X0028364Y0109278D01*
X0028364Y0108545D01*
X0026896Y0109278D02*
X0026162Y0109278D01*
X0029098Y0111614D02*
X0030566Y0111614D01*
X0031300Y0112348D01*
X0031300Y0113816D01*
X0030566Y0114550D01*
X0029098Y0114550D01*
X0028364Y0113816D01*
X0028364Y0112348D01*
X0029098Y0111614D01*
X0029098Y0116218D02*
X0028364Y0116952D01*
X0028364Y0119154D01*
X0026896Y0119154D02*
X0031300Y0119154D01*
X0031300Y0116952D01*
X0030566Y0116218D01*
X0029098Y0116218D01*
X0029098Y0120822D02*
X0028364Y0121556D01*
X0028364Y0123024D01*
X0029098Y0123758D01*
X0029832Y0123758D01*
X0029832Y0120822D01*
X0030566Y0120822D02*
X0029098Y0120822D01*
X0030566Y0120822D02*
X0031300Y0121556D01*
X0031300Y0123024D01*
X0031300Y0125426D02*
X0031300Y0127627D01*
X0030566Y0128361D01*
X0029832Y0127627D01*
X0029832Y0126160D01*
X0029098Y0125426D01*
X0028364Y0126160D01*
X0028364Y0128361D01*
X0028364Y0130030D02*
X0028364Y0130763D01*
X0031300Y0130763D01*
X0031300Y0130030D02*
X0031300Y0131497D01*
X0030566Y0133099D02*
X0031300Y0133833D01*
X0031300Y0136035D01*
X0032034Y0136035D02*
X0028364Y0136035D01*
X0028364Y0133833D01*
X0029098Y0133099D01*
X0030566Y0133099D01*
X0032768Y0134567D02*
X0032768Y0135301D01*
X0032034Y0136035D01*
X0031300Y0137703D02*
X0028364Y0137703D01*
X0028364Y0139905D01*
X0029098Y0140639D01*
X0031300Y0140639D01*
X0031300Y0142307D02*
X0031300Y0144509D01*
X0030566Y0145242D01*
X0029832Y0144509D01*
X0029832Y0143041D01*
X0029098Y0142307D01*
X0028364Y0143041D01*
X0028364Y0145242D01*
X0030566Y0147645D02*
X0031300Y0147645D01*
X0031300Y0148378D01*
X0030566Y0148378D01*
X0030566Y0147645D01*
X0031300Y0148378D02*
X0032768Y0146911D01*
X0031300Y0154584D02*
X0026896Y0154584D01*
X0031300Y0154584D02*
X0031300Y0157520D01*
X0031300Y0159188D02*
X0031300Y0162124D01*
X0030566Y0163792D02*
X0031300Y0164526D01*
X0031300Y0165993D01*
X0030566Y0166727D01*
X0027630Y0166727D02*
X0026896Y0165993D01*
X0026896Y0164526D01*
X0027630Y0163792D01*
X0030566Y0163792D01*
X0031300Y0159188D02*
X0026896Y0159188D01*
X0021300Y0156786D02*
X0021300Y0155318D01*
X0020566Y0154584D01*
X0019098Y0154584D02*
X0018364Y0156052D01*
X0018364Y0156786D01*
X0019098Y0157520D01*
X0020566Y0157520D01*
X0021300Y0156786D01*
X0019098Y0154584D02*
X0016896Y0154584D01*
X0016896Y0157520D01*
X0017630Y0152916D02*
X0016896Y0152182D01*
X0016896Y0150714D01*
X0017630Y0149980D01*
X0017630Y0148312D02*
X0020566Y0145376D01*
X0021300Y0146110D01*
X0021300Y0147578D01*
X0020566Y0148312D01*
X0017630Y0148312D01*
X0016896Y0147578D01*
X0016896Y0146110D01*
X0017630Y0145376D01*
X0020566Y0145376D01*
X0021300Y0143708D02*
X0021300Y0140772D01*
X0018364Y0143708D01*
X0017630Y0143708D01*
X0016896Y0142974D01*
X0016896Y0141506D01*
X0017630Y0140772D01*
X0018364Y0134567D02*
X0016896Y0133099D01*
X0018364Y0134567D02*
X0019832Y0134567D01*
X0021300Y0133099D01*
X0021300Y0131431D02*
X0021300Y0129229D01*
X0020566Y0128495D01*
X0019098Y0128495D01*
X0018364Y0129229D01*
X0018364Y0131431D01*
X0016896Y0126894D02*
X0018364Y0125426D01*
X0019832Y0125426D01*
X0021300Y0126894D01*
X0026162Y0130763D02*
X0026896Y0130763D01*
X0021300Y0149980D02*
X0018364Y0152916D01*
X0017630Y0152916D01*
X0021300Y0152916D02*
X0021300Y0149980D01*
X0065231Y0129856D02*
X0065231Y0126453D01*
X0065231Y0127587D02*
X0066932Y0127587D01*
X0067499Y0128154D01*
X0067499Y0129289D01*
X0066932Y0129856D01*
X0065231Y0129856D01*
X0066365Y0127587D02*
X0067499Y0126453D01*
X0068914Y0127020D02*
X0069481Y0126453D01*
X0070615Y0126453D01*
X0071182Y0127020D01*
X0071182Y0128154D01*
X0070615Y0128721D01*
X0070048Y0128721D01*
X0068914Y0128154D01*
X0068914Y0129856D01*
X0071182Y0129856D01*
X0088147Y0117691D02*
X0091550Y0117691D01*
X0091550Y0116557D02*
X0091550Y0118826D01*
X0089281Y0116557D02*
X0088147Y0117691D01*
X0088714Y0115143D02*
X0088147Y0114575D01*
X0088147Y0113441D01*
X0088714Y0112874D01*
X0089281Y0112874D01*
X0089849Y0113441D01*
X0089849Y0114575D01*
X0090416Y0115143D01*
X0090983Y0115143D01*
X0091550Y0114575D01*
X0091550Y0113441D01*
X0090983Y0112874D01*
X0089849Y0111459D02*
X0090416Y0110892D01*
X0090416Y0109191D01*
X0091550Y0109191D02*
X0088147Y0109191D01*
X0088147Y0110892D01*
X0088714Y0111459D01*
X0089849Y0111459D01*
X0094430Y0137437D02*
X0095564Y0137437D01*
X0096131Y0138004D01*
X0097546Y0138004D02*
X0098113Y0137437D01*
X0099247Y0137437D01*
X0099814Y0138004D01*
X0099814Y0138571D01*
X0099247Y0139139D01*
X0098680Y0139139D01*
X0099247Y0139139D02*
X0099814Y0139706D01*
X0099814Y0140273D01*
X0099247Y0140840D01*
X0098113Y0140840D01*
X0097546Y0140273D01*
X0096131Y0140273D02*
X0095564Y0140840D01*
X0094430Y0140840D01*
X0093863Y0140273D01*
X0093863Y0138004D01*
X0094430Y0137437D01*
X0082200Y0146719D02*
X0081632Y0146151D01*
X0079364Y0146151D01*
X0078797Y0146719D01*
X0078797Y0147853D01*
X0079364Y0148420D01*
X0079364Y0149835D02*
X0081632Y0149835D01*
X0082200Y0150402D01*
X0082200Y0151536D01*
X0081632Y0152103D01*
X0079364Y0152103D01*
X0078797Y0151536D01*
X0078797Y0150402D01*
X0079364Y0149835D01*
X0081632Y0148420D02*
X0082200Y0147853D01*
X0082200Y0146719D01*
X0082200Y0153518D02*
X0078797Y0153518D01*
X0082200Y0155786D01*
X0078797Y0155786D01*
X0079364Y0157201D02*
X0078797Y0157768D01*
X0078797Y0158902D01*
X0079364Y0159469D01*
X0079931Y0159469D01*
X0080498Y0158902D01*
X0081065Y0159469D01*
X0081632Y0159469D01*
X0082200Y0158902D01*
X0082200Y0157768D01*
X0081632Y0157201D01*
X0080498Y0158335D02*
X0080498Y0158902D01*
X0099897Y0158075D02*
X0100464Y0158643D01*
X0101599Y0158643D01*
X0102166Y0158075D01*
X0102166Y0156374D01*
X0103300Y0156374D02*
X0099897Y0156374D01*
X0099897Y0158075D01*
X0101031Y0160057D02*
X0099897Y0161191D01*
X0103300Y0161191D01*
X0103300Y0160057D02*
X0103300Y0162326D01*
X0103300Y0158643D02*
X0102166Y0157508D01*
X0112547Y0158335D02*
X0113681Y0157201D01*
X0112547Y0158335D02*
X0115950Y0158335D01*
X0115950Y0157201D02*
X0115950Y0159469D01*
X0115950Y0155786D02*
X0112547Y0155786D01*
X0112547Y0153518D02*
X0115950Y0155786D01*
X0115950Y0153518D02*
X0112547Y0153518D01*
X0113114Y0152103D02*
X0112547Y0151536D01*
X0112547Y0150402D01*
X0113114Y0149835D01*
X0115382Y0149835D01*
X0115950Y0150402D01*
X0115950Y0151536D01*
X0115382Y0152103D01*
X0113114Y0152103D01*
X0113114Y0148420D02*
X0112547Y0147853D01*
X0112547Y0146719D01*
X0113114Y0146151D01*
X0115382Y0146151D01*
X0115950Y0146719D01*
X0115950Y0147853D01*
X0115382Y0148420D01*
X0103800Y0170240D02*
X0100397Y0170240D01*
X0100397Y0171942D01*
X0100964Y0172509D01*
X0103233Y0172509D01*
X0103800Y0171942D01*
X0103800Y0170240D01*
X0103233Y0173923D02*
X0103800Y0174491D01*
X0103800Y0175625D01*
X0103233Y0176192D01*
X0102666Y0176192D01*
X0102099Y0175625D01*
X0102099Y0175058D01*
X0102099Y0175625D02*
X0101531Y0176192D01*
X0100964Y0176192D01*
X0100397Y0175625D01*
X0100397Y0174491D01*
X0100964Y0173923D01*
X0166919Y0172558D02*
X0170322Y0172558D01*
X0170322Y0173692D02*
X0170322Y0171423D01*
X0169755Y0170009D02*
X0167486Y0170009D01*
X0166919Y0169442D01*
X0166919Y0167740D01*
X0170322Y0167740D01*
X0170322Y0169442D01*
X0169755Y0170009D01*
X0168053Y0171423D02*
X0166919Y0172558D01*
X0190669Y0155625D02*
X0190669Y0154491D01*
X0191236Y0153923D01*
X0191236Y0152509D02*
X0190669Y0151942D01*
X0190669Y0150240D01*
X0194072Y0150240D01*
X0194072Y0151942D01*
X0193505Y0152509D01*
X0191236Y0152509D01*
X0190669Y0155625D02*
X0191236Y0156192D01*
X0191803Y0156192D01*
X0194072Y0153923D01*
X0194072Y0156192D01*
X0230231Y0129856D02*
X0231932Y0129856D01*
X0232499Y0129289D01*
X0232499Y0128154D01*
X0231932Y0127587D01*
X0230231Y0127587D01*
X0231365Y0127587D02*
X0232499Y0126453D01*
X0233914Y0126453D02*
X0233914Y0127020D01*
X0236182Y0129289D01*
X0236182Y0129856D01*
X0233914Y0129856D01*
X0230231Y0129856D02*
X0230231Y0126453D01*
X0244364Y0146151D02*
X0246632Y0146151D01*
X0247200Y0146719D01*
X0247200Y0147853D01*
X0246632Y0148420D01*
X0246632Y0149835D02*
X0247200Y0150402D01*
X0247200Y0151536D01*
X0246632Y0152103D01*
X0244364Y0152103D01*
X0243797Y0151536D01*
X0243797Y0150402D01*
X0244364Y0149835D01*
X0246632Y0149835D01*
X0244364Y0148420D02*
X0243797Y0147853D01*
X0243797Y0146719D01*
X0244364Y0146151D01*
X0243797Y0153518D02*
X0247200Y0155786D01*
X0243797Y0155786D01*
X0243797Y0157201D02*
X0245498Y0157201D01*
X0244931Y0158335D01*
X0244931Y0158902D01*
X0245498Y0159469D01*
X0246632Y0159469D01*
X0247200Y0158902D01*
X0247200Y0157768D01*
X0246632Y0157201D01*
X0243797Y0157201D02*
X0243797Y0159469D01*
X0243797Y0153518D02*
X0247200Y0153518D01*
X0194997Y0126863D02*
X0194997Y0124595D01*
X0194997Y0125729D02*
X0191594Y0125729D01*
X0192728Y0124595D01*
X0192161Y0123180D02*
X0191594Y0122613D01*
X0191594Y0121479D01*
X0192161Y0120911D01*
X0194430Y0120911D01*
X0194997Y0121479D01*
X0194997Y0122613D01*
X0194430Y0123180D01*
X0170125Y0110152D02*
X0167857Y0110152D01*
X0168991Y0110152D02*
X0168991Y0113555D01*
X0167857Y0112420D01*
X0166442Y0110152D02*
X0164174Y0110152D01*
X0164174Y0113555D01*
X0147853Y0113386D02*
X0145585Y0115655D01*
X0145017Y0115655D01*
X0144450Y0115087D01*
X0144450Y0113953D01*
X0145017Y0113386D01*
X0145017Y0111971D02*
X0144450Y0111404D01*
X0144450Y0110270D01*
X0145017Y0109703D01*
X0147286Y0109703D01*
X0147853Y0110270D01*
X0147853Y0111404D01*
X0147286Y0111971D01*
X0147853Y0113386D02*
X0147853Y0115655D01*
X0044843Y0105173D02*
X0044276Y0105173D01*
X0042008Y0107442D01*
X0041440Y0107442D01*
X0041440Y0105173D01*
X0041440Y0103759D02*
X0044276Y0103759D01*
X0044843Y0103192D01*
X0044843Y0102057D01*
X0044276Y0101490D01*
X0041440Y0101490D01*
X0031300Y0093198D02*
X0028364Y0093198D01*
X0021300Y0094666D02*
X0018364Y0096134D01*
X0018364Y0093198D02*
X0021300Y0094666D01*
X0019832Y0091530D02*
X0019098Y0091530D01*
X0018364Y0090796D01*
X0018364Y0089328D01*
X0019098Y0088594D01*
X0020566Y0088594D01*
X0021300Y0089328D01*
X0021300Y0090796D01*
X0019832Y0091530D02*
X0019832Y0088594D01*
X0019098Y0086926D02*
X0019832Y0086192D01*
X0019832Y0083990D01*
X0021300Y0083990D02*
X0016896Y0083990D01*
X0016896Y0086192D01*
X0017630Y0086926D01*
X0019098Y0086926D01*
X0019832Y0085458D02*
X0021300Y0086926D01*
X0021300Y0102406D02*
X0018364Y0105342D01*
X0017630Y0105342D01*
X0016896Y0104608D01*
X0016896Y0103140D01*
X0017630Y0102406D01*
X0021300Y0102406D02*
X0021300Y0105342D01*
D14*
X0043422Y0093454D02*
X0043424Y0093538D01*
X0043430Y0093621D01*
X0043440Y0093705D01*
X0043454Y0093787D01*
X0043472Y0093869D01*
X0043493Y0093950D01*
X0043519Y0094030D01*
X0043548Y0094108D01*
X0043581Y0094186D01*
X0043618Y0094261D01*
X0043658Y0094334D01*
X0043702Y0094406D01*
X0043749Y0094475D01*
X0043799Y0094543D01*
X0043852Y0094607D01*
X0043909Y0094669D01*
X0043968Y0094728D01*
X0044030Y0094785D01*
X0044094Y0094838D01*
X0044162Y0094888D01*
X0044231Y0094935D01*
X0044302Y0094979D01*
X0044376Y0095019D01*
X0044451Y0095056D01*
X0044529Y0095089D01*
X0044607Y0095118D01*
X0044687Y0095144D01*
X0044768Y0095165D01*
X0044850Y0095183D01*
X0044932Y0095197D01*
X0045016Y0095207D01*
X0045099Y0095213D01*
X0045183Y0095215D01*
X0045267Y0095213D01*
X0045350Y0095207D01*
X0045434Y0095197D01*
X0045516Y0095183D01*
X0045598Y0095165D01*
X0045679Y0095144D01*
X0045759Y0095118D01*
X0045837Y0095089D01*
X0045915Y0095056D01*
X0045990Y0095019D01*
X0046063Y0094979D01*
X0046135Y0094935D01*
X0046204Y0094888D01*
X0046272Y0094838D01*
X0046336Y0094785D01*
X0046398Y0094728D01*
X0046457Y0094669D01*
X0046514Y0094607D01*
X0046567Y0094543D01*
X0046617Y0094475D01*
X0046664Y0094406D01*
X0046708Y0094335D01*
X0046748Y0094261D01*
X0046785Y0094186D01*
X0046818Y0094108D01*
X0046847Y0094030D01*
X0046873Y0093950D01*
X0046894Y0093869D01*
X0046912Y0093787D01*
X0046926Y0093705D01*
X0046936Y0093621D01*
X0046942Y0093538D01*
X0046944Y0093454D01*
X0046942Y0093370D01*
X0046936Y0093287D01*
X0046926Y0093203D01*
X0046912Y0093121D01*
X0046894Y0093039D01*
X0046873Y0092958D01*
X0046847Y0092878D01*
X0046818Y0092800D01*
X0046785Y0092722D01*
X0046748Y0092647D01*
X0046708Y0092574D01*
X0046664Y0092502D01*
X0046617Y0092433D01*
X0046567Y0092365D01*
X0046514Y0092301D01*
X0046457Y0092239D01*
X0046398Y0092180D01*
X0046336Y0092123D01*
X0046272Y0092070D01*
X0046204Y0092020D01*
X0046135Y0091973D01*
X0046064Y0091929D01*
X0045990Y0091889D01*
X0045915Y0091852D01*
X0045837Y0091819D01*
X0045759Y0091790D01*
X0045679Y0091764D01*
X0045598Y0091743D01*
X0045516Y0091725D01*
X0045434Y0091711D01*
X0045350Y0091701D01*
X0045267Y0091695D01*
X0045183Y0091693D01*
X0045099Y0091695D01*
X0045016Y0091701D01*
X0044932Y0091711D01*
X0044850Y0091725D01*
X0044768Y0091743D01*
X0044687Y0091764D01*
X0044607Y0091790D01*
X0044529Y0091819D01*
X0044451Y0091852D01*
X0044376Y0091889D01*
X0044303Y0091929D01*
X0044231Y0091973D01*
X0044162Y0092020D01*
X0044094Y0092070D01*
X0044030Y0092123D01*
X0043968Y0092180D01*
X0043909Y0092239D01*
X0043852Y0092301D01*
X0043799Y0092365D01*
X0043749Y0092433D01*
X0043702Y0092502D01*
X0043658Y0092573D01*
X0043618Y0092647D01*
X0043581Y0092722D01*
X0043548Y0092800D01*
X0043519Y0092878D01*
X0043493Y0092958D01*
X0043472Y0093039D01*
X0043454Y0093121D01*
X0043440Y0093203D01*
X0043430Y0093287D01*
X0043424Y0093370D01*
X0043422Y0093454D01*
X0047939Y0099360D02*
X0065261Y0099360D01*
X0065261Y0108415D01*
X0047939Y0108415D01*
X0047939Y0099360D01*
X0079513Y0082627D02*
X0079513Y0074753D01*
X0093687Y0074753D01*
X0093687Y0082627D01*
X0079513Y0082627D01*
X0070537Y0070383D02*
X0062663Y0070383D01*
X0062663Y0056997D01*
X0070537Y0056997D01*
X0070537Y0070383D01*
X0057742Y0073769D02*
X0025458Y0073769D01*
X0025458Y0033218D01*
X0057742Y0033218D01*
X0057742Y0073769D01*
X0031157Y0064146D02*
X0031157Y0061143D01*
X0031157Y0062645D02*
X0026653Y0062645D01*
X0028155Y0061143D01*
X0028155Y0044071D02*
X0027404Y0044071D01*
X0026653Y0043321D01*
X0026653Y0041819D01*
X0027404Y0041069D01*
X0028155Y0044071D02*
X0031157Y0041069D01*
X0031157Y0044071D01*
X0086876Y0045029D02*
X0086876Y0062352D01*
X0095931Y0062352D01*
X0095931Y0045029D01*
X0086876Y0045029D01*
X0100075Y0042273D02*
X0100077Y0042357D01*
X0100083Y0042440D01*
X0100093Y0042524D01*
X0100107Y0042606D01*
X0100125Y0042688D01*
X0100146Y0042769D01*
X0100172Y0042849D01*
X0100201Y0042927D01*
X0100234Y0043005D01*
X0100271Y0043080D01*
X0100311Y0043153D01*
X0100355Y0043225D01*
X0100402Y0043294D01*
X0100452Y0043362D01*
X0100505Y0043426D01*
X0100562Y0043488D01*
X0100621Y0043547D01*
X0100683Y0043604D01*
X0100747Y0043657D01*
X0100815Y0043707D01*
X0100884Y0043754D01*
X0100955Y0043798D01*
X0101029Y0043838D01*
X0101104Y0043875D01*
X0101182Y0043908D01*
X0101260Y0043937D01*
X0101340Y0043963D01*
X0101421Y0043984D01*
X0101503Y0044002D01*
X0101585Y0044016D01*
X0101669Y0044026D01*
X0101752Y0044032D01*
X0101836Y0044034D01*
X0101920Y0044032D01*
X0102003Y0044026D01*
X0102087Y0044016D01*
X0102169Y0044002D01*
X0102251Y0043984D01*
X0102332Y0043963D01*
X0102412Y0043937D01*
X0102490Y0043908D01*
X0102568Y0043875D01*
X0102643Y0043838D01*
X0102716Y0043798D01*
X0102788Y0043754D01*
X0102857Y0043707D01*
X0102925Y0043657D01*
X0102989Y0043604D01*
X0103051Y0043547D01*
X0103110Y0043488D01*
X0103167Y0043426D01*
X0103220Y0043362D01*
X0103270Y0043294D01*
X0103317Y0043225D01*
X0103361Y0043154D01*
X0103401Y0043080D01*
X0103438Y0043005D01*
X0103471Y0042927D01*
X0103500Y0042849D01*
X0103526Y0042769D01*
X0103547Y0042688D01*
X0103565Y0042606D01*
X0103579Y0042524D01*
X0103589Y0042440D01*
X0103595Y0042357D01*
X0103597Y0042273D01*
X0103595Y0042189D01*
X0103589Y0042106D01*
X0103579Y0042022D01*
X0103565Y0041940D01*
X0103547Y0041858D01*
X0103526Y0041777D01*
X0103500Y0041697D01*
X0103471Y0041619D01*
X0103438Y0041541D01*
X0103401Y0041466D01*
X0103361Y0041393D01*
X0103317Y0041321D01*
X0103270Y0041252D01*
X0103220Y0041184D01*
X0103167Y0041120D01*
X0103110Y0041058D01*
X0103051Y0040999D01*
X0102989Y0040942D01*
X0102925Y0040889D01*
X0102857Y0040839D01*
X0102788Y0040792D01*
X0102717Y0040748D01*
X0102643Y0040708D01*
X0102568Y0040671D01*
X0102490Y0040638D01*
X0102412Y0040609D01*
X0102332Y0040583D01*
X0102251Y0040562D01*
X0102169Y0040544D01*
X0102087Y0040530D01*
X0102003Y0040520D01*
X0101920Y0040514D01*
X0101836Y0040512D01*
X0101752Y0040514D01*
X0101669Y0040520D01*
X0101585Y0040530D01*
X0101503Y0040544D01*
X0101421Y0040562D01*
X0101340Y0040583D01*
X0101260Y0040609D01*
X0101182Y0040638D01*
X0101104Y0040671D01*
X0101029Y0040708D01*
X0100956Y0040748D01*
X0100884Y0040792D01*
X0100815Y0040839D01*
X0100747Y0040889D01*
X0100683Y0040942D01*
X0100621Y0040999D01*
X0100562Y0041058D01*
X0100505Y0041120D01*
X0100452Y0041184D01*
X0100402Y0041252D01*
X0100355Y0041321D01*
X0100311Y0041392D01*
X0100271Y0041466D01*
X0100234Y0041541D01*
X0100201Y0041619D01*
X0100172Y0041697D01*
X0100146Y0041777D01*
X0100125Y0041858D01*
X0100107Y0041940D01*
X0100093Y0042022D01*
X0100083Y0042106D01*
X0100077Y0042189D01*
X0100075Y0042273D01*
X0101876Y0029497D02*
X0111324Y0029497D01*
X0111324Y0017883D02*
X0101876Y0017883D01*
X0137072Y0043946D02*
X0146128Y0043946D01*
X0146128Y0053434D02*
X0137072Y0053434D01*
X0124750Y0067549D02*
X0118450Y0067549D01*
X0118450Y0079832D02*
X0124750Y0079832D01*
X0139631Y0096958D02*
X0093962Y0096958D01*
X0093962Y0130423D01*
X0139631Y0130423D01*
X0139631Y0096958D01*
X0158450Y0079832D02*
X0164750Y0079832D01*
X0164750Y0067549D02*
X0158450Y0067549D01*
X0174603Y0065108D02*
X0174605Y0065192D01*
X0174611Y0065275D01*
X0174621Y0065359D01*
X0174635Y0065441D01*
X0174653Y0065523D01*
X0174674Y0065604D01*
X0174700Y0065684D01*
X0174729Y0065762D01*
X0174762Y0065840D01*
X0174799Y0065915D01*
X0174839Y0065988D01*
X0174883Y0066060D01*
X0174930Y0066129D01*
X0174980Y0066197D01*
X0175033Y0066261D01*
X0175090Y0066323D01*
X0175149Y0066382D01*
X0175211Y0066439D01*
X0175275Y0066492D01*
X0175343Y0066542D01*
X0175412Y0066589D01*
X0175483Y0066633D01*
X0175557Y0066673D01*
X0175632Y0066710D01*
X0175710Y0066743D01*
X0175788Y0066772D01*
X0175868Y0066798D01*
X0175949Y0066819D01*
X0176031Y0066837D01*
X0176113Y0066851D01*
X0176197Y0066861D01*
X0176280Y0066867D01*
X0176364Y0066869D01*
X0176448Y0066867D01*
X0176531Y0066861D01*
X0176615Y0066851D01*
X0176697Y0066837D01*
X0176779Y0066819D01*
X0176860Y0066798D01*
X0176940Y0066772D01*
X0177018Y0066743D01*
X0177096Y0066710D01*
X0177171Y0066673D01*
X0177244Y0066633D01*
X0177316Y0066589D01*
X0177385Y0066542D01*
X0177453Y0066492D01*
X0177517Y0066439D01*
X0177579Y0066382D01*
X0177638Y0066323D01*
X0177695Y0066261D01*
X0177748Y0066197D01*
X0177798Y0066129D01*
X0177845Y0066060D01*
X0177889Y0065989D01*
X0177929Y0065915D01*
X0177966Y0065840D01*
X0177999Y0065762D01*
X0178028Y0065684D01*
X0178054Y0065604D01*
X0178075Y0065523D01*
X0178093Y0065441D01*
X0178107Y0065359D01*
X0178117Y0065275D01*
X0178123Y0065192D01*
X0178125Y0065108D01*
X0178123Y0065024D01*
X0178117Y0064941D01*
X0178107Y0064857D01*
X0178093Y0064775D01*
X0178075Y0064693D01*
X0178054Y0064612D01*
X0178028Y0064532D01*
X0177999Y0064454D01*
X0177966Y0064376D01*
X0177929Y0064301D01*
X0177889Y0064228D01*
X0177845Y0064156D01*
X0177798Y0064087D01*
X0177748Y0064019D01*
X0177695Y0063955D01*
X0177638Y0063893D01*
X0177579Y0063834D01*
X0177517Y0063777D01*
X0177453Y0063724D01*
X0177385Y0063674D01*
X0177316Y0063627D01*
X0177245Y0063583D01*
X0177171Y0063543D01*
X0177096Y0063506D01*
X0177018Y0063473D01*
X0176940Y0063444D01*
X0176860Y0063418D01*
X0176779Y0063397D01*
X0176697Y0063379D01*
X0176615Y0063365D01*
X0176531Y0063355D01*
X0176448Y0063349D01*
X0176364Y0063347D01*
X0176280Y0063349D01*
X0176197Y0063355D01*
X0176113Y0063365D01*
X0176031Y0063379D01*
X0175949Y0063397D01*
X0175868Y0063418D01*
X0175788Y0063444D01*
X0175710Y0063473D01*
X0175632Y0063506D01*
X0175557Y0063543D01*
X0175484Y0063583D01*
X0175412Y0063627D01*
X0175343Y0063674D01*
X0175275Y0063724D01*
X0175211Y0063777D01*
X0175149Y0063834D01*
X0175090Y0063893D01*
X0175033Y0063955D01*
X0174980Y0064019D01*
X0174930Y0064087D01*
X0174883Y0064156D01*
X0174839Y0064227D01*
X0174799Y0064301D01*
X0174762Y0064376D01*
X0174729Y0064454D01*
X0174700Y0064532D01*
X0174674Y0064612D01*
X0174653Y0064693D01*
X0174635Y0064775D01*
X0174621Y0064857D01*
X0174611Y0064941D01*
X0174605Y0065024D01*
X0174603Y0065108D01*
X0182269Y0062352D02*
X0182269Y0045029D01*
X0191324Y0045029D01*
X0191324Y0062352D01*
X0182269Y0062352D01*
X0184513Y0074753D02*
X0184513Y0082627D01*
X0198687Y0082627D01*
X0198687Y0074753D01*
X0184513Y0074753D01*
X0208422Y0093454D02*
X0208424Y0093538D01*
X0208430Y0093621D01*
X0208440Y0093705D01*
X0208454Y0093787D01*
X0208472Y0093869D01*
X0208493Y0093950D01*
X0208519Y0094030D01*
X0208548Y0094108D01*
X0208581Y0094186D01*
X0208618Y0094261D01*
X0208658Y0094334D01*
X0208702Y0094406D01*
X0208749Y0094475D01*
X0208799Y0094543D01*
X0208852Y0094607D01*
X0208909Y0094669D01*
X0208968Y0094728D01*
X0209030Y0094785D01*
X0209094Y0094838D01*
X0209162Y0094888D01*
X0209231Y0094935D01*
X0209302Y0094979D01*
X0209376Y0095019D01*
X0209451Y0095056D01*
X0209529Y0095089D01*
X0209607Y0095118D01*
X0209687Y0095144D01*
X0209768Y0095165D01*
X0209850Y0095183D01*
X0209932Y0095197D01*
X0210016Y0095207D01*
X0210099Y0095213D01*
X0210183Y0095215D01*
X0210267Y0095213D01*
X0210350Y0095207D01*
X0210434Y0095197D01*
X0210516Y0095183D01*
X0210598Y0095165D01*
X0210679Y0095144D01*
X0210759Y0095118D01*
X0210837Y0095089D01*
X0210915Y0095056D01*
X0210990Y0095019D01*
X0211063Y0094979D01*
X0211135Y0094935D01*
X0211204Y0094888D01*
X0211272Y0094838D01*
X0211336Y0094785D01*
X0211398Y0094728D01*
X0211457Y0094669D01*
X0211514Y0094607D01*
X0211567Y0094543D01*
X0211617Y0094475D01*
X0211664Y0094406D01*
X0211708Y0094335D01*
X0211748Y0094261D01*
X0211785Y0094186D01*
X0211818Y0094108D01*
X0211847Y0094030D01*
X0211873Y0093950D01*
X0211894Y0093869D01*
X0211912Y0093787D01*
X0211926Y0093705D01*
X0211936Y0093621D01*
X0211942Y0093538D01*
X0211944Y0093454D01*
X0211942Y0093370D01*
X0211936Y0093287D01*
X0211926Y0093203D01*
X0211912Y0093121D01*
X0211894Y0093039D01*
X0211873Y0092958D01*
X0211847Y0092878D01*
X0211818Y0092800D01*
X0211785Y0092722D01*
X0211748Y0092647D01*
X0211708Y0092574D01*
X0211664Y0092502D01*
X0211617Y0092433D01*
X0211567Y0092365D01*
X0211514Y0092301D01*
X0211457Y0092239D01*
X0211398Y0092180D01*
X0211336Y0092123D01*
X0211272Y0092070D01*
X0211204Y0092020D01*
X0211135Y0091973D01*
X0211064Y0091929D01*
X0210990Y0091889D01*
X0210915Y0091852D01*
X0210837Y0091819D01*
X0210759Y0091790D01*
X0210679Y0091764D01*
X0210598Y0091743D01*
X0210516Y0091725D01*
X0210434Y0091711D01*
X0210350Y0091701D01*
X0210267Y0091695D01*
X0210183Y0091693D01*
X0210099Y0091695D01*
X0210016Y0091701D01*
X0209932Y0091711D01*
X0209850Y0091725D01*
X0209768Y0091743D01*
X0209687Y0091764D01*
X0209607Y0091790D01*
X0209529Y0091819D01*
X0209451Y0091852D01*
X0209376Y0091889D01*
X0209303Y0091929D01*
X0209231Y0091973D01*
X0209162Y0092020D01*
X0209094Y0092070D01*
X0209030Y0092123D01*
X0208968Y0092180D01*
X0208909Y0092239D01*
X0208852Y0092301D01*
X0208799Y0092365D01*
X0208749Y0092433D01*
X0208702Y0092502D01*
X0208658Y0092573D01*
X0208618Y0092647D01*
X0208581Y0092722D01*
X0208548Y0092800D01*
X0208519Y0092878D01*
X0208493Y0092958D01*
X0208472Y0093039D01*
X0208454Y0093121D01*
X0208440Y0093203D01*
X0208430Y0093287D01*
X0208424Y0093370D01*
X0208422Y0093454D01*
X0212939Y0099360D02*
X0230261Y0099360D01*
X0230261Y0108415D01*
X0212939Y0108415D01*
X0212939Y0099360D01*
X0190537Y0116604D02*
X0182663Y0116604D01*
X0182663Y0130777D01*
X0190537Y0130777D01*
X0190537Y0116604D01*
X0176836Y0115816D02*
X0156364Y0115816D01*
X0156364Y0131564D01*
X0176836Y0131564D01*
X0176836Y0115816D01*
X0150537Y0116604D02*
X0142663Y0116604D01*
X0142663Y0130777D01*
X0150537Y0130777D01*
X0150537Y0116604D01*
X0159179Y0137549D02*
X0159179Y0169832D01*
X0118628Y0169832D01*
X0118628Y0137549D01*
X0159179Y0137549D01*
X0163588Y0141879D02*
X0174612Y0141879D01*
X0174612Y0165895D01*
X0163588Y0165895D01*
X0163588Y0141879D01*
X0178588Y0139123D02*
X0189612Y0139123D01*
X0189612Y0168257D01*
X0178588Y0168257D01*
X0178588Y0139123D01*
X0201128Y0137549D02*
X0241679Y0137549D01*
X0241679Y0169832D01*
X0201128Y0169832D01*
X0201128Y0137549D01*
X0214907Y0132627D02*
X0228293Y0132627D01*
X0228293Y0124753D01*
X0214907Y0124753D01*
X0214907Y0132627D01*
X0211981Y0164133D02*
X0208978Y0164133D01*
X0211981Y0167136D01*
X0211981Y0167886D01*
X0211230Y0168637D01*
X0209729Y0168637D01*
X0208978Y0167886D01*
X0229053Y0167136D02*
X0230554Y0168637D01*
X0230554Y0164133D01*
X0229053Y0164133D02*
X0232056Y0164133D01*
X0149556Y0164133D02*
X0146553Y0164133D01*
X0148054Y0164133D02*
X0148054Y0168637D01*
X0146553Y0167136D01*
X0129481Y0167136D02*
X0129481Y0167886D01*
X0128730Y0168637D01*
X0127229Y0168637D01*
X0126478Y0167886D01*
X0129481Y0167136D02*
X0126478Y0164133D01*
X0129481Y0164133D01*
X0116187Y0142627D02*
X0102013Y0142627D01*
X0102013Y0134753D01*
X0116187Y0134753D01*
X0116187Y0142627D01*
X0076679Y0137549D02*
X0076679Y0169832D01*
X0036128Y0169832D01*
X0036128Y0137549D01*
X0076679Y0137549D01*
X0063293Y0132627D02*
X0063293Y0124753D01*
X0049907Y0124753D01*
X0049907Y0132627D01*
X0063293Y0132627D01*
X0064053Y0164133D02*
X0067056Y0164133D01*
X0065554Y0164133D02*
X0065554Y0168637D01*
X0064053Y0167136D01*
X0046981Y0167136D02*
X0046981Y0167886D01*
X0046230Y0168637D01*
X0044729Y0168637D01*
X0043978Y0167886D01*
X0046981Y0167136D02*
X0043978Y0164133D01*
X0046981Y0164133D01*
X0094238Y0181564D02*
X0098962Y0181564D01*
X0220458Y0074163D02*
X0220458Y0033612D01*
X0252742Y0033612D01*
X0252742Y0074163D01*
X0220458Y0074163D01*
X0247039Y0064460D02*
X0247039Y0062959D01*
X0247790Y0062208D01*
X0248540Y0065211D02*
X0251543Y0062208D01*
X0251543Y0065211D01*
X0248540Y0065211D02*
X0247790Y0065211D01*
X0247039Y0064460D01*
X0251543Y0045136D02*
X0251543Y0042133D01*
X0251543Y0043634D02*
X0247039Y0043634D01*
X0248540Y0042133D01*
X0215537Y0036997D02*
X0207663Y0036997D01*
X0207663Y0050383D01*
X0215537Y0050383D01*
X0215537Y0036997D01*
X0180261Y0028533D02*
X0162939Y0028533D01*
X0162939Y0008848D02*
X0180261Y0008848D01*
D15*
X0171600Y0033570D02*
X0171600Y0033810D01*
X0166720Y0053690D02*
X0166480Y0053690D01*
X0141600Y0058570D02*
X0141600Y0058810D01*
X0111720Y0053690D02*
X0111480Y0053690D01*
X0106600Y0033810D02*
X0106600Y0033570D01*
X0086600Y0018810D02*
X0086600Y0018570D01*
X0126600Y0018570D02*
X0126600Y0018810D01*
X0121600Y0083570D02*
X0121600Y0083810D01*
X0161600Y0083570D02*
X0161600Y0083810D01*
X0221600Y0083570D02*
X0221600Y0083810D01*
X0056600Y0083570D02*
X0056600Y0083810D01*
D16*
X0166344Y0155856D02*
X0171856Y0155856D01*
X0169100Y0151722D01*
X0166344Y0155856D01*
X0181344Y0153887D02*
X0186856Y0153887D01*
X0184100Y0148966D01*
X0181344Y0153887D01*
D17*
X0184100Y0148769D03*
X0169100Y0151525D03*
D18*
X0169100Y0140895D03*
D19*
X0184100Y0138336D03*
D20*
X0096600Y0174084D03*
D21*
X0141403Y0122549D02*
X0141405Y0122588D01*
X0141411Y0122627D01*
X0141421Y0122665D01*
X0141434Y0122702D01*
X0141451Y0122737D01*
X0141471Y0122771D01*
X0141495Y0122802D01*
X0141522Y0122831D01*
X0141551Y0122857D01*
X0141583Y0122880D01*
X0141617Y0122900D01*
X0141653Y0122916D01*
X0141690Y0122928D01*
X0141729Y0122937D01*
X0141768Y0122942D01*
X0141807Y0122943D01*
X0141846Y0122940D01*
X0141885Y0122933D01*
X0141922Y0122922D01*
X0141959Y0122908D01*
X0141994Y0122890D01*
X0142027Y0122869D01*
X0142058Y0122844D01*
X0142086Y0122817D01*
X0142111Y0122787D01*
X0142133Y0122754D01*
X0142152Y0122720D01*
X0142167Y0122684D01*
X0142179Y0122646D01*
X0142187Y0122608D01*
X0142191Y0122569D01*
X0142191Y0122529D01*
X0142187Y0122490D01*
X0142179Y0122452D01*
X0142167Y0122414D01*
X0142152Y0122378D01*
X0142133Y0122344D01*
X0142111Y0122311D01*
X0142086Y0122281D01*
X0142058Y0122254D01*
X0142027Y0122229D01*
X0141994Y0122208D01*
X0141959Y0122190D01*
X0141922Y0122176D01*
X0141885Y0122165D01*
X0141846Y0122158D01*
X0141807Y0122155D01*
X0141768Y0122156D01*
X0141729Y0122161D01*
X0141690Y0122170D01*
X0141653Y0122182D01*
X0141617Y0122198D01*
X0141583Y0122218D01*
X0141551Y0122241D01*
X0141522Y0122267D01*
X0141495Y0122296D01*
X0141471Y0122327D01*
X0141451Y0122361D01*
X0141434Y0122396D01*
X0141421Y0122433D01*
X0141411Y0122471D01*
X0141405Y0122510D01*
X0141403Y0122549D01*
X0151363Y0077430D02*
X0151365Y0077469D01*
X0151371Y0077508D01*
X0151381Y0077546D01*
X0151394Y0077583D01*
X0151411Y0077618D01*
X0151431Y0077652D01*
X0151455Y0077683D01*
X0151482Y0077712D01*
X0151511Y0077738D01*
X0151543Y0077761D01*
X0151577Y0077781D01*
X0151613Y0077797D01*
X0151650Y0077809D01*
X0151689Y0077818D01*
X0151728Y0077823D01*
X0151767Y0077824D01*
X0151806Y0077821D01*
X0151845Y0077814D01*
X0151882Y0077803D01*
X0151919Y0077789D01*
X0151954Y0077771D01*
X0151987Y0077750D01*
X0152018Y0077725D01*
X0152046Y0077698D01*
X0152071Y0077668D01*
X0152093Y0077635D01*
X0152112Y0077601D01*
X0152127Y0077565D01*
X0152139Y0077527D01*
X0152147Y0077489D01*
X0152151Y0077450D01*
X0152151Y0077410D01*
X0152147Y0077371D01*
X0152139Y0077333D01*
X0152127Y0077295D01*
X0152112Y0077259D01*
X0152093Y0077225D01*
X0152071Y0077192D01*
X0152046Y0077162D01*
X0152018Y0077135D01*
X0151987Y0077110D01*
X0151954Y0077089D01*
X0151919Y0077071D01*
X0151882Y0077057D01*
X0151845Y0077046D01*
X0151806Y0077039D01*
X0151767Y0077036D01*
X0151728Y0077037D01*
X0151689Y0077042D01*
X0151650Y0077051D01*
X0151613Y0077063D01*
X0151577Y0077079D01*
X0151543Y0077099D01*
X0151511Y0077122D01*
X0151482Y0077148D01*
X0151455Y0077177D01*
X0151431Y0077208D01*
X0151411Y0077242D01*
X0151394Y0077277D01*
X0151381Y0077314D01*
X0151371Y0077352D01*
X0151365Y0077391D01*
X0151363Y0077430D01*
X0131265Y0051643D02*
X0131267Y0051682D01*
X0131273Y0051721D01*
X0131283Y0051759D01*
X0131296Y0051796D01*
X0131313Y0051831D01*
X0131333Y0051865D01*
X0131357Y0051896D01*
X0131384Y0051925D01*
X0131413Y0051951D01*
X0131445Y0051974D01*
X0131479Y0051994D01*
X0131515Y0052010D01*
X0131552Y0052022D01*
X0131591Y0052031D01*
X0131630Y0052036D01*
X0131669Y0052037D01*
X0131708Y0052034D01*
X0131747Y0052027D01*
X0131784Y0052016D01*
X0131821Y0052002D01*
X0131856Y0051984D01*
X0131889Y0051963D01*
X0131920Y0051938D01*
X0131948Y0051911D01*
X0131973Y0051881D01*
X0131995Y0051848D01*
X0132014Y0051814D01*
X0132029Y0051778D01*
X0132041Y0051740D01*
X0132049Y0051702D01*
X0132053Y0051663D01*
X0132053Y0051623D01*
X0132049Y0051584D01*
X0132041Y0051546D01*
X0132029Y0051508D01*
X0132014Y0051472D01*
X0131995Y0051438D01*
X0131973Y0051405D01*
X0131948Y0051375D01*
X0131920Y0051348D01*
X0131889Y0051323D01*
X0131856Y0051302D01*
X0131821Y0051284D01*
X0131784Y0051270D01*
X0131747Y0051259D01*
X0131708Y0051252D01*
X0131669Y0051249D01*
X0131630Y0051250D01*
X0131591Y0051255D01*
X0131552Y0051264D01*
X0131515Y0051276D01*
X0131479Y0051292D01*
X0131445Y0051312D01*
X0131413Y0051335D01*
X0131384Y0051361D01*
X0131357Y0051390D01*
X0131333Y0051421D01*
X0131313Y0051455D01*
X0131296Y0051490D01*
X0131283Y0051527D01*
X0131273Y0051565D01*
X0131267Y0051604D01*
X0131265Y0051643D01*
X0154513Y0027588D02*
X0154515Y0027627D01*
X0154521Y0027666D01*
X0154531Y0027704D01*
X0154544Y0027741D01*
X0154561Y0027776D01*
X0154581Y0027810D01*
X0154605Y0027841D01*
X0154632Y0027870D01*
X0154661Y0027896D01*
X0154693Y0027919D01*
X0154727Y0027939D01*
X0154763Y0027955D01*
X0154800Y0027967D01*
X0154839Y0027976D01*
X0154878Y0027981D01*
X0154917Y0027982D01*
X0154956Y0027979D01*
X0154995Y0027972D01*
X0155032Y0027961D01*
X0155069Y0027947D01*
X0155104Y0027929D01*
X0155137Y0027908D01*
X0155168Y0027883D01*
X0155196Y0027856D01*
X0155221Y0027826D01*
X0155243Y0027793D01*
X0155262Y0027759D01*
X0155277Y0027723D01*
X0155289Y0027685D01*
X0155297Y0027647D01*
X0155301Y0027608D01*
X0155301Y0027568D01*
X0155297Y0027529D01*
X0155289Y0027491D01*
X0155277Y0027453D01*
X0155262Y0027417D01*
X0155243Y0027383D01*
X0155221Y0027350D01*
X0155196Y0027320D01*
X0155168Y0027293D01*
X0155137Y0027268D01*
X0155104Y0027247D01*
X0155069Y0027229D01*
X0155032Y0027215D01*
X0154995Y0027204D01*
X0154956Y0027197D01*
X0154917Y0027194D01*
X0154878Y0027195D01*
X0154839Y0027200D01*
X0154800Y0027209D01*
X0154763Y0027221D01*
X0154727Y0027237D01*
X0154693Y0027257D01*
X0154661Y0027280D01*
X0154632Y0027306D01*
X0154605Y0027335D01*
X0154581Y0027366D01*
X0154561Y0027400D01*
X0154544Y0027435D01*
X0154531Y0027472D01*
X0154521Y0027510D01*
X0154515Y0027549D01*
X0154513Y0027588D01*
X0094001Y0027627D02*
X0094003Y0027666D01*
X0094009Y0027705D01*
X0094019Y0027743D01*
X0094032Y0027780D01*
X0094049Y0027815D01*
X0094069Y0027849D01*
X0094093Y0027880D01*
X0094120Y0027909D01*
X0094149Y0027935D01*
X0094181Y0027958D01*
X0094215Y0027978D01*
X0094251Y0027994D01*
X0094288Y0028006D01*
X0094327Y0028015D01*
X0094366Y0028020D01*
X0094405Y0028021D01*
X0094444Y0028018D01*
X0094483Y0028011D01*
X0094520Y0028000D01*
X0094557Y0027986D01*
X0094592Y0027968D01*
X0094625Y0027947D01*
X0094656Y0027922D01*
X0094684Y0027895D01*
X0094709Y0027865D01*
X0094731Y0027832D01*
X0094750Y0027798D01*
X0094765Y0027762D01*
X0094777Y0027724D01*
X0094785Y0027686D01*
X0094789Y0027647D01*
X0094789Y0027607D01*
X0094785Y0027568D01*
X0094777Y0027530D01*
X0094765Y0027492D01*
X0094750Y0027456D01*
X0094731Y0027422D01*
X0094709Y0027389D01*
X0094684Y0027359D01*
X0094656Y0027332D01*
X0094625Y0027307D01*
X0094592Y0027286D01*
X0094557Y0027268D01*
X0094520Y0027254D01*
X0094483Y0027243D01*
X0094444Y0027236D01*
X0094405Y0027233D01*
X0094366Y0027234D01*
X0094327Y0027239D01*
X0094288Y0027248D01*
X0094251Y0027260D01*
X0094215Y0027276D01*
X0094181Y0027296D01*
X0094149Y0027319D01*
X0094120Y0027345D01*
X0094093Y0027374D01*
X0094069Y0027405D01*
X0094049Y0027439D01*
X0094032Y0027474D01*
X0094019Y0027511D01*
X0094009Y0027549D01*
X0094003Y0027588D01*
X0094001Y0027627D01*
X0111363Y0077430D02*
X0111365Y0077469D01*
X0111371Y0077508D01*
X0111381Y0077546D01*
X0111394Y0077583D01*
X0111411Y0077618D01*
X0111431Y0077652D01*
X0111455Y0077683D01*
X0111482Y0077712D01*
X0111511Y0077738D01*
X0111543Y0077761D01*
X0111577Y0077781D01*
X0111613Y0077797D01*
X0111650Y0077809D01*
X0111689Y0077818D01*
X0111728Y0077823D01*
X0111767Y0077824D01*
X0111806Y0077821D01*
X0111845Y0077814D01*
X0111882Y0077803D01*
X0111919Y0077789D01*
X0111954Y0077771D01*
X0111987Y0077750D01*
X0112018Y0077725D01*
X0112046Y0077698D01*
X0112071Y0077668D01*
X0112093Y0077635D01*
X0112112Y0077601D01*
X0112127Y0077565D01*
X0112139Y0077527D01*
X0112147Y0077489D01*
X0112151Y0077450D01*
X0112151Y0077410D01*
X0112147Y0077371D01*
X0112139Y0077333D01*
X0112127Y0077295D01*
X0112112Y0077259D01*
X0112093Y0077225D01*
X0112071Y0077192D01*
X0112046Y0077162D01*
X0112018Y0077135D01*
X0111987Y0077110D01*
X0111954Y0077089D01*
X0111919Y0077071D01*
X0111882Y0077057D01*
X0111845Y0077046D01*
X0111806Y0077039D01*
X0111767Y0077036D01*
X0111728Y0077037D01*
X0111689Y0077042D01*
X0111650Y0077051D01*
X0111613Y0077063D01*
X0111577Y0077079D01*
X0111543Y0077099D01*
X0111511Y0077122D01*
X0111482Y0077148D01*
X0111455Y0077177D01*
X0111431Y0077208D01*
X0111411Y0077242D01*
X0111394Y0077277D01*
X0111381Y0077314D01*
X0111371Y0077352D01*
X0111365Y0077391D01*
X0111363Y0077430D01*
D22*
X0129100Y0028690D03*
X0084100Y0028690D03*
X0096600Y0158690D03*
M02*
