G75*
%MOIN*%
%OFA0B0*%
%FSLAX25Y25*%
%IPPOS*%
%LPD*%
%AMOC8*
5,1,8,0,0,1.08239X$1,22.5*
%
%ADD10C,0.00000*%
%ADD11R,0.06299X0.04331*%
%ADD12R,0.04331X0.03937*%
%ADD13R,0.04331X0.06299*%
%ADD14R,0.03937X0.04331*%
%ADD15R,0.06693X0.06693*%
%ADD16R,0.08661X0.07087*%
%ADD17R,0.04724X0.04724*%
%ADD18R,0.07874X0.13780*%
%ADD19C,0.00404*%
%ADD20C,0.00266*%
%ADD21C,0.00571*%
%ADD22R,0.08661X0.02362*%
%ADD23R,0.02362X0.08661*%
%ADD24C,0.00039*%
D10*
X0001600Y0003690D02*
X0001600Y0193690D01*
X0276600Y0193690D01*
X0276600Y0003690D01*
X0001600Y0003690D01*
X0010301Y0018690D02*
X0010303Y0018848D01*
X0010309Y0019006D01*
X0010319Y0019164D01*
X0010333Y0019322D01*
X0010351Y0019479D01*
X0010372Y0019636D01*
X0010398Y0019792D01*
X0010428Y0019948D01*
X0010461Y0020103D01*
X0010499Y0020256D01*
X0010540Y0020409D01*
X0010585Y0020561D01*
X0010634Y0020712D01*
X0010687Y0020861D01*
X0010743Y0021009D01*
X0010803Y0021155D01*
X0010867Y0021300D01*
X0010935Y0021443D01*
X0011006Y0021585D01*
X0011080Y0021725D01*
X0011158Y0021862D01*
X0011240Y0021998D01*
X0011324Y0022132D01*
X0011413Y0022263D01*
X0011504Y0022392D01*
X0011599Y0022519D01*
X0011696Y0022644D01*
X0011797Y0022766D01*
X0011901Y0022885D01*
X0012008Y0023002D01*
X0012118Y0023116D01*
X0012231Y0023227D01*
X0012346Y0023336D01*
X0012464Y0023441D01*
X0012585Y0023543D01*
X0012708Y0023643D01*
X0012834Y0023739D01*
X0012962Y0023832D01*
X0013092Y0023922D01*
X0013225Y0024008D01*
X0013360Y0024092D01*
X0013496Y0024171D01*
X0013635Y0024248D01*
X0013776Y0024320D01*
X0013918Y0024390D01*
X0014062Y0024455D01*
X0014208Y0024517D01*
X0014355Y0024575D01*
X0014504Y0024630D01*
X0014654Y0024681D01*
X0014805Y0024728D01*
X0014957Y0024771D01*
X0015110Y0024810D01*
X0015265Y0024846D01*
X0015420Y0024877D01*
X0015576Y0024905D01*
X0015732Y0024929D01*
X0015889Y0024949D01*
X0016047Y0024965D01*
X0016204Y0024977D01*
X0016363Y0024985D01*
X0016521Y0024989D01*
X0016679Y0024989D01*
X0016837Y0024985D01*
X0016996Y0024977D01*
X0017153Y0024965D01*
X0017311Y0024949D01*
X0017468Y0024929D01*
X0017624Y0024905D01*
X0017780Y0024877D01*
X0017935Y0024846D01*
X0018090Y0024810D01*
X0018243Y0024771D01*
X0018395Y0024728D01*
X0018546Y0024681D01*
X0018696Y0024630D01*
X0018845Y0024575D01*
X0018992Y0024517D01*
X0019138Y0024455D01*
X0019282Y0024390D01*
X0019424Y0024320D01*
X0019565Y0024248D01*
X0019704Y0024171D01*
X0019840Y0024092D01*
X0019975Y0024008D01*
X0020108Y0023922D01*
X0020238Y0023832D01*
X0020366Y0023739D01*
X0020492Y0023643D01*
X0020615Y0023543D01*
X0020736Y0023441D01*
X0020854Y0023336D01*
X0020969Y0023227D01*
X0021082Y0023116D01*
X0021192Y0023002D01*
X0021299Y0022885D01*
X0021403Y0022766D01*
X0021504Y0022644D01*
X0021601Y0022519D01*
X0021696Y0022392D01*
X0021787Y0022263D01*
X0021876Y0022132D01*
X0021960Y0021998D01*
X0022042Y0021862D01*
X0022120Y0021725D01*
X0022194Y0021585D01*
X0022265Y0021443D01*
X0022333Y0021300D01*
X0022397Y0021155D01*
X0022457Y0021009D01*
X0022513Y0020861D01*
X0022566Y0020712D01*
X0022615Y0020561D01*
X0022660Y0020409D01*
X0022701Y0020256D01*
X0022739Y0020103D01*
X0022772Y0019948D01*
X0022802Y0019792D01*
X0022828Y0019636D01*
X0022849Y0019479D01*
X0022867Y0019322D01*
X0022881Y0019164D01*
X0022891Y0019006D01*
X0022897Y0018848D01*
X0022899Y0018690D01*
X0022897Y0018532D01*
X0022891Y0018374D01*
X0022881Y0018216D01*
X0022867Y0018058D01*
X0022849Y0017901D01*
X0022828Y0017744D01*
X0022802Y0017588D01*
X0022772Y0017432D01*
X0022739Y0017277D01*
X0022701Y0017124D01*
X0022660Y0016971D01*
X0022615Y0016819D01*
X0022566Y0016668D01*
X0022513Y0016519D01*
X0022457Y0016371D01*
X0022397Y0016225D01*
X0022333Y0016080D01*
X0022265Y0015937D01*
X0022194Y0015795D01*
X0022120Y0015655D01*
X0022042Y0015518D01*
X0021960Y0015382D01*
X0021876Y0015248D01*
X0021787Y0015117D01*
X0021696Y0014988D01*
X0021601Y0014861D01*
X0021504Y0014736D01*
X0021403Y0014614D01*
X0021299Y0014495D01*
X0021192Y0014378D01*
X0021082Y0014264D01*
X0020969Y0014153D01*
X0020854Y0014044D01*
X0020736Y0013939D01*
X0020615Y0013837D01*
X0020492Y0013737D01*
X0020366Y0013641D01*
X0020238Y0013548D01*
X0020108Y0013458D01*
X0019975Y0013372D01*
X0019840Y0013288D01*
X0019704Y0013209D01*
X0019565Y0013132D01*
X0019424Y0013060D01*
X0019282Y0012990D01*
X0019138Y0012925D01*
X0018992Y0012863D01*
X0018845Y0012805D01*
X0018696Y0012750D01*
X0018546Y0012699D01*
X0018395Y0012652D01*
X0018243Y0012609D01*
X0018090Y0012570D01*
X0017935Y0012534D01*
X0017780Y0012503D01*
X0017624Y0012475D01*
X0017468Y0012451D01*
X0017311Y0012431D01*
X0017153Y0012415D01*
X0016996Y0012403D01*
X0016837Y0012395D01*
X0016679Y0012391D01*
X0016521Y0012391D01*
X0016363Y0012395D01*
X0016204Y0012403D01*
X0016047Y0012415D01*
X0015889Y0012431D01*
X0015732Y0012451D01*
X0015576Y0012475D01*
X0015420Y0012503D01*
X0015265Y0012534D01*
X0015110Y0012570D01*
X0014957Y0012609D01*
X0014805Y0012652D01*
X0014654Y0012699D01*
X0014504Y0012750D01*
X0014355Y0012805D01*
X0014208Y0012863D01*
X0014062Y0012925D01*
X0013918Y0012990D01*
X0013776Y0013060D01*
X0013635Y0013132D01*
X0013496Y0013209D01*
X0013360Y0013288D01*
X0013225Y0013372D01*
X0013092Y0013458D01*
X0012962Y0013548D01*
X0012834Y0013641D01*
X0012708Y0013737D01*
X0012585Y0013837D01*
X0012464Y0013939D01*
X0012346Y0014044D01*
X0012231Y0014153D01*
X0012118Y0014264D01*
X0012008Y0014378D01*
X0011901Y0014495D01*
X0011797Y0014614D01*
X0011696Y0014736D01*
X0011599Y0014861D01*
X0011504Y0014988D01*
X0011413Y0015117D01*
X0011324Y0015248D01*
X0011240Y0015382D01*
X0011158Y0015518D01*
X0011080Y0015655D01*
X0011006Y0015795D01*
X0010935Y0015937D01*
X0010867Y0016080D01*
X0010803Y0016225D01*
X0010743Y0016371D01*
X0010687Y0016519D01*
X0010634Y0016668D01*
X0010585Y0016819D01*
X0010540Y0016971D01*
X0010499Y0017124D01*
X0010461Y0017277D01*
X0010428Y0017432D01*
X0010398Y0017588D01*
X0010372Y0017744D01*
X0010351Y0017901D01*
X0010333Y0018058D01*
X0010319Y0018216D01*
X0010309Y0018374D01*
X0010303Y0018532D01*
X0010301Y0018690D01*
X0010301Y0178690D02*
X0010303Y0178848D01*
X0010309Y0179006D01*
X0010319Y0179164D01*
X0010333Y0179322D01*
X0010351Y0179479D01*
X0010372Y0179636D01*
X0010398Y0179792D01*
X0010428Y0179948D01*
X0010461Y0180103D01*
X0010499Y0180256D01*
X0010540Y0180409D01*
X0010585Y0180561D01*
X0010634Y0180712D01*
X0010687Y0180861D01*
X0010743Y0181009D01*
X0010803Y0181155D01*
X0010867Y0181300D01*
X0010935Y0181443D01*
X0011006Y0181585D01*
X0011080Y0181725D01*
X0011158Y0181862D01*
X0011240Y0181998D01*
X0011324Y0182132D01*
X0011413Y0182263D01*
X0011504Y0182392D01*
X0011599Y0182519D01*
X0011696Y0182644D01*
X0011797Y0182766D01*
X0011901Y0182885D01*
X0012008Y0183002D01*
X0012118Y0183116D01*
X0012231Y0183227D01*
X0012346Y0183336D01*
X0012464Y0183441D01*
X0012585Y0183543D01*
X0012708Y0183643D01*
X0012834Y0183739D01*
X0012962Y0183832D01*
X0013092Y0183922D01*
X0013225Y0184008D01*
X0013360Y0184092D01*
X0013496Y0184171D01*
X0013635Y0184248D01*
X0013776Y0184320D01*
X0013918Y0184390D01*
X0014062Y0184455D01*
X0014208Y0184517D01*
X0014355Y0184575D01*
X0014504Y0184630D01*
X0014654Y0184681D01*
X0014805Y0184728D01*
X0014957Y0184771D01*
X0015110Y0184810D01*
X0015265Y0184846D01*
X0015420Y0184877D01*
X0015576Y0184905D01*
X0015732Y0184929D01*
X0015889Y0184949D01*
X0016047Y0184965D01*
X0016204Y0184977D01*
X0016363Y0184985D01*
X0016521Y0184989D01*
X0016679Y0184989D01*
X0016837Y0184985D01*
X0016996Y0184977D01*
X0017153Y0184965D01*
X0017311Y0184949D01*
X0017468Y0184929D01*
X0017624Y0184905D01*
X0017780Y0184877D01*
X0017935Y0184846D01*
X0018090Y0184810D01*
X0018243Y0184771D01*
X0018395Y0184728D01*
X0018546Y0184681D01*
X0018696Y0184630D01*
X0018845Y0184575D01*
X0018992Y0184517D01*
X0019138Y0184455D01*
X0019282Y0184390D01*
X0019424Y0184320D01*
X0019565Y0184248D01*
X0019704Y0184171D01*
X0019840Y0184092D01*
X0019975Y0184008D01*
X0020108Y0183922D01*
X0020238Y0183832D01*
X0020366Y0183739D01*
X0020492Y0183643D01*
X0020615Y0183543D01*
X0020736Y0183441D01*
X0020854Y0183336D01*
X0020969Y0183227D01*
X0021082Y0183116D01*
X0021192Y0183002D01*
X0021299Y0182885D01*
X0021403Y0182766D01*
X0021504Y0182644D01*
X0021601Y0182519D01*
X0021696Y0182392D01*
X0021787Y0182263D01*
X0021876Y0182132D01*
X0021960Y0181998D01*
X0022042Y0181862D01*
X0022120Y0181725D01*
X0022194Y0181585D01*
X0022265Y0181443D01*
X0022333Y0181300D01*
X0022397Y0181155D01*
X0022457Y0181009D01*
X0022513Y0180861D01*
X0022566Y0180712D01*
X0022615Y0180561D01*
X0022660Y0180409D01*
X0022701Y0180256D01*
X0022739Y0180103D01*
X0022772Y0179948D01*
X0022802Y0179792D01*
X0022828Y0179636D01*
X0022849Y0179479D01*
X0022867Y0179322D01*
X0022881Y0179164D01*
X0022891Y0179006D01*
X0022897Y0178848D01*
X0022899Y0178690D01*
X0022897Y0178532D01*
X0022891Y0178374D01*
X0022881Y0178216D01*
X0022867Y0178058D01*
X0022849Y0177901D01*
X0022828Y0177744D01*
X0022802Y0177588D01*
X0022772Y0177432D01*
X0022739Y0177277D01*
X0022701Y0177124D01*
X0022660Y0176971D01*
X0022615Y0176819D01*
X0022566Y0176668D01*
X0022513Y0176519D01*
X0022457Y0176371D01*
X0022397Y0176225D01*
X0022333Y0176080D01*
X0022265Y0175937D01*
X0022194Y0175795D01*
X0022120Y0175655D01*
X0022042Y0175518D01*
X0021960Y0175382D01*
X0021876Y0175248D01*
X0021787Y0175117D01*
X0021696Y0174988D01*
X0021601Y0174861D01*
X0021504Y0174736D01*
X0021403Y0174614D01*
X0021299Y0174495D01*
X0021192Y0174378D01*
X0021082Y0174264D01*
X0020969Y0174153D01*
X0020854Y0174044D01*
X0020736Y0173939D01*
X0020615Y0173837D01*
X0020492Y0173737D01*
X0020366Y0173641D01*
X0020238Y0173548D01*
X0020108Y0173458D01*
X0019975Y0173372D01*
X0019840Y0173288D01*
X0019704Y0173209D01*
X0019565Y0173132D01*
X0019424Y0173060D01*
X0019282Y0172990D01*
X0019138Y0172925D01*
X0018992Y0172863D01*
X0018845Y0172805D01*
X0018696Y0172750D01*
X0018546Y0172699D01*
X0018395Y0172652D01*
X0018243Y0172609D01*
X0018090Y0172570D01*
X0017935Y0172534D01*
X0017780Y0172503D01*
X0017624Y0172475D01*
X0017468Y0172451D01*
X0017311Y0172431D01*
X0017153Y0172415D01*
X0016996Y0172403D01*
X0016837Y0172395D01*
X0016679Y0172391D01*
X0016521Y0172391D01*
X0016363Y0172395D01*
X0016204Y0172403D01*
X0016047Y0172415D01*
X0015889Y0172431D01*
X0015732Y0172451D01*
X0015576Y0172475D01*
X0015420Y0172503D01*
X0015265Y0172534D01*
X0015110Y0172570D01*
X0014957Y0172609D01*
X0014805Y0172652D01*
X0014654Y0172699D01*
X0014504Y0172750D01*
X0014355Y0172805D01*
X0014208Y0172863D01*
X0014062Y0172925D01*
X0013918Y0172990D01*
X0013776Y0173060D01*
X0013635Y0173132D01*
X0013496Y0173209D01*
X0013360Y0173288D01*
X0013225Y0173372D01*
X0013092Y0173458D01*
X0012962Y0173548D01*
X0012834Y0173641D01*
X0012708Y0173737D01*
X0012585Y0173837D01*
X0012464Y0173939D01*
X0012346Y0174044D01*
X0012231Y0174153D01*
X0012118Y0174264D01*
X0012008Y0174378D01*
X0011901Y0174495D01*
X0011797Y0174614D01*
X0011696Y0174736D01*
X0011599Y0174861D01*
X0011504Y0174988D01*
X0011413Y0175117D01*
X0011324Y0175248D01*
X0011240Y0175382D01*
X0011158Y0175518D01*
X0011080Y0175655D01*
X0011006Y0175795D01*
X0010935Y0175937D01*
X0010867Y0176080D01*
X0010803Y0176225D01*
X0010743Y0176371D01*
X0010687Y0176519D01*
X0010634Y0176668D01*
X0010585Y0176819D01*
X0010540Y0176971D01*
X0010499Y0177124D01*
X0010461Y0177277D01*
X0010428Y0177432D01*
X0010398Y0177588D01*
X0010372Y0177744D01*
X0010351Y0177901D01*
X0010333Y0178058D01*
X0010319Y0178216D01*
X0010309Y0178374D01*
X0010303Y0178532D01*
X0010301Y0178690D01*
X0255301Y0178690D02*
X0255303Y0178848D01*
X0255309Y0179006D01*
X0255319Y0179164D01*
X0255333Y0179322D01*
X0255351Y0179479D01*
X0255372Y0179636D01*
X0255398Y0179792D01*
X0255428Y0179948D01*
X0255461Y0180103D01*
X0255499Y0180256D01*
X0255540Y0180409D01*
X0255585Y0180561D01*
X0255634Y0180712D01*
X0255687Y0180861D01*
X0255743Y0181009D01*
X0255803Y0181155D01*
X0255867Y0181300D01*
X0255935Y0181443D01*
X0256006Y0181585D01*
X0256080Y0181725D01*
X0256158Y0181862D01*
X0256240Y0181998D01*
X0256324Y0182132D01*
X0256413Y0182263D01*
X0256504Y0182392D01*
X0256599Y0182519D01*
X0256696Y0182644D01*
X0256797Y0182766D01*
X0256901Y0182885D01*
X0257008Y0183002D01*
X0257118Y0183116D01*
X0257231Y0183227D01*
X0257346Y0183336D01*
X0257464Y0183441D01*
X0257585Y0183543D01*
X0257708Y0183643D01*
X0257834Y0183739D01*
X0257962Y0183832D01*
X0258092Y0183922D01*
X0258225Y0184008D01*
X0258360Y0184092D01*
X0258496Y0184171D01*
X0258635Y0184248D01*
X0258776Y0184320D01*
X0258918Y0184390D01*
X0259062Y0184455D01*
X0259208Y0184517D01*
X0259355Y0184575D01*
X0259504Y0184630D01*
X0259654Y0184681D01*
X0259805Y0184728D01*
X0259957Y0184771D01*
X0260110Y0184810D01*
X0260265Y0184846D01*
X0260420Y0184877D01*
X0260576Y0184905D01*
X0260732Y0184929D01*
X0260889Y0184949D01*
X0261047Y0184965D01*
X0261204Y0184977D01*
X0261363Y0184985D01*
X0261521Y0184989D01*
X0261679Y0184989D01*
X0261837Y0184985D01*
X0261996Y0184977D01*
X0262153Y0184965D01*
X0262311Y0184949D01*
X0262468Y0184929D01*
X0262624Y0184905D01*
X0262780Y0184877D01*
X0262935Y0184846D01*
X0263090Y0184810D01*
X0263243Y0184771D01*
X0263395Y0184728D01*
X0263546Y0184681D01*
X0263696Y0184630D01*
X0263845Y0184575D01*
X0263992Y0184517D01*
X0264138Y0184455D01*
X0264282Y0184390D01*
X0264424Y0184320D01*
X0264565Y0184248D01*
X0264704Y0184171D01*
X0264840Y0184092D01*
X0264975Y0184008D01*
X0265108Y0183922D01*
X0265238Y0183832D01*
X0265366Y0183739D01*
X0265492Y0183643D01*
X0265615Y0183543D01*
X0265736Y0183441D01*
X0265854Y0183336D01*
X0265969Y0183227D01*
X0266082Y0183116D01*
X0266192Y0183002D01*
X0266299Y0182885D01*
X0266403Y0182766D01*
X0266504Y0182644D01*
X0266601Y0182519D01*
X0266696Y0182392D01*
X0266787Y0182263D01*
X0266876Y0182132D01*
X0266960Y0181998D01*
X0267042Y0181862D01*
X0267120Y0181725D01*
X0267194Y0181585D01*
X0267265Y0181443D01*
X0267333Y0181300D01*
X0267397Y0181155D01*
X0267457Y0181009D01*
X0267513Y0180861D01*
X0267566Y0180712D01*
X0267615Y0180561D01*
X0267660Y0180409D01*
X0267701Y0180256D01*
X0267739Y0180103D01*
X0267772Y0179948D01*
X0267802Y0179792D01*
X0267828Y0179636D01*
X0267849Y0179479D01*
X0267867Y0179322D01*
X0267881Y0179164D01*
X0267891Y0179006D01*
X0267897Y0178848D01*
X0267899Y0178690D01*
X0267897Y0178532D01*
X0267891Y0178374D01*
X0267881Y0178216D01*
X0267867Y0178058D01*
X0267849Y0177901D01*
X0267828Y0177744D01*
X0267802Y0177588D01*
X0267772Y0177432D01*
X0267739Y0177277D01*
X0267701Y0177124D01*
X0267660Y0176971D01*
X0267615Y0176819D01*
X0267566Y0176668D01*
X0267513Y0176519D01*
X0267457Y0176371D01*
X0267397Y0176225D01*
X0267333Y0176080D01*
X0267265Y0175937D01*
X0267194Y0175795D01*
X0267120Y0175655D01*
X0267042Y0175518D01*
X0266960Y0175382D01*
X0266876Y0175248D01*
X0266787Y0175117D01*
X0266696Y0174988D01*
X0266601Y0174861D01*
X0266504Y0174736D01*
X0266403Y0174614D01*
X0266299Y0174495D01*
X0266192Y0174378D01*
X0266082Y0174264D01*
X0265969Y0174153D01*
X0265854Y0174044D01*
X0265736Y0173939D01*
X0265615Y0173837D01*
X0265492Y0173737D01*
X0265366Y0173641D01*
X0265238Y0173548D01*
X0265108Y0173458D01*
X0264975Y0173372D01*
X0264840Y0173288D01*
X0264704Y0173209D01*
X0264565Y0173132D01*
X0264424Y0173060D01*
X0264282Y0172990D01*
X0264138Y0172925D01*
X0263992Y0172863D01*
X0263845Y0172805D01*
X0263696Y0172750D01*
X0263546Y0172699D01*
X0263395Y0172652D01*
X0263243Y0172609D01*
X0263090Y0172570D01*
X0262935Y0172534D01*
X0262780Y0172503D01*
X0262624Y0172475D01*
X0262468Y0172451D01*
X0262311Y0172431D01*
X0262153Y0172415D01*
X0261996Y0172403D01*
X0261837Y0172395D01*
X0261679Y0172391D01*
X0261521Y0172391D01*
X0261363Y0172395D01*
X0261204Y0172403D01*
X0261047Y0172415D01*
X0260889Y0172431D01*
X0260732Y0172451D01*
X0260576Y0172475D01*
X0260420Y0172503D01*
X0260265Y0172534D01*
X0260110Y0172570D01*
X0259957Y0172609D01*
X0259805Y0172652D01*
X0259654Y0172699D01*
X0259504Y0172750D01*
X0259355Y0172805D01*
X0259208Y0172863D01*
X0259062Y0172925D01*
X0258918Y0172990D01*
X0258776Y0173060D01*
X0258635Y0173132D01*
X0258496Y0173209D01*
X0258360Y0173288D01*
X0258225Y0173372D01*
X0258092Y0173458D01*
X0257962Y0173548D01*
X0257834Y0173641D01*
X0257708Y0173737D01*
X0257585Y0173837D01*
X0257464Y0173939D01*
X0257346Y0174044D01*
X0257231Y0174153D01*
X0257118Y0174264D01*
X0257008Y0174378D01*
X0256901Y0174495D01*
X0256797Y0174614D01*
X0256696Y0174736D01*
X0256599Y0174861D01*
X0256504Y0174988D01*
X0256413Y0175117D01*
X0256324Y0175248D01*
X0256240Y0175382D01*
X0256158Y0175518D01*
X0256080Y0175655D01*
X0256006Y0175795D01*
X0255935Y0175937D01*
X0255867Y0176080D01*
X0255803Y0176225D01*
X0255743Y0176371D01*
X0255687Y0176519D01*
X0255634Y0176668D01*
X0255585Y0176819D01*
X0255540Y0176971D01*
X0255499Y0177124D01*
X0255461Y0177277D01*
X0255428Y0177432D01*
X0255398Y0177588D01*
X0255372Y0177744D01*
X0255351Y0177901D01*
X0255333Y0178058D01*
X0255319Y0178216D01*
X0255309Y0178374D01*
X0255303Y0178532D01*
X0255301Y0178690D01*
X0255301Y0018690D02*
X0255303Y0018848D01*
X0255309Y0019006D01*
X0255319Y0019164D01*
X0255333Y0019322D01*
X0255351Y0019479D01*
X0255372Y0019636D01*
X0255398Y0019792D01*
X0255428Y0019948D01*
X0255461Y0020103D01*
X0255499Y0020256D01*
X0255540Y0020409D01*
X0255585Y0020561D01*
X0255634Y0020712D01*
X0255687Y0020861D01*
X0255743Y0021009D01*
X0255803Y0021155D01*
X0255867Y0021300D01*
X0255935Y0021443D01*
X0256006Y0021585D01*
X0256080Y0021725D01*
X0256158Y0021862D01*
X0256240Y0021998D01*
X0256324Y0022132D01*
X0256413Y0022263D01*
X0256504Y0022392D01*
X0256599Y0022519D01*
X0256696Y0022644D01*
X0256797Y0022766D01*
X0256901Y0022885D01*
X0257008Y0023002D01*
X0257118Y0023116D01*
X0257231Y0023227D01*
X0257346Y0023336D01*
X0257464Y0023441D01*
X0257585Y0023543D01*
X0257708Y0023643D01*
X0257834Y0023739D01*
X0257962Y0023832D01*
X0258092Y0023922D01*
X0258225Y0024008D01*
X0258360Y0024092D01*
X0258496Y0024171D01*
X0258635Y0024248D01*
X0258776Y0024320D01*
X0258918Y0024390D01*
X0259062Y0024455D01*
X0259208Y0024517D01*
X0259355Y0024575D01*
X0259504Y0024630D01*
X0259654Y0024681D01*
X0259805Y0024728D01*
X0259957Y0024771D01*
X0260110Y0024810D01*
X0260265Y0024846D01*
X0260420Y0024877D01*
X0260576Y0024905D01*
X0260732Y0024929D01*
X0260889Y0024949D01*
X0261047Y0024965D01*
X0261204Y0024977D01*
X0261363Y0024985D01*
X0261521Y0024989D01*
X0261679Y0024989D01*
X0261837Y0024985D01*
X0261996Y0024977D01*
X0262153Y0024965D01*
X0262311Y0024949D01*
X0262468Y0024929D01*
X0262624Y0024905D01*
X0262780Y0024877D01*
X0262935Y0024846D01*
X0263090Y0024810D01*
X0263243Y0024771D01*
X0263395Y0024728D01*
X0263546Y0024681D01*
X0263696Y0024630D01*
X0263845Y0024575D01*
X0263992Y0024517D01*
X0264138Y0024455D01*
X0264282Y0024390D01*
X0264424Y0024320D01*
X0264565Y0024248D01*
X0264704Y0024171D01*
X0264840Y0024092D01*
X0264975Y0024008D01*
X0265108Y0023922D01*
X0265238Y0023832D01*
X0265366Y0023739D01*
X0265492Y0023643D01*
X0265615Y0023543D01*
X0265736Y0023441D01*
X0265854Y0023336D01*
X0265969Y0023227D01*
X0266082Y0023116D01*
X0266192Y0023002D01*
X0266299Y0022885D01*
X0266403Y0022766D01*
X0266504Y0022644D01*
X0266601Y0022519D01*
X0266696Y0022392D01*
X0266787Y0022263D01*
X0266876Y0022132D01*
X0266960Y0021998D01*
X0267042Y0021862D01*
X0267120Y0021725D01*
X0267194Y0021585D01*
X0267265Y0021443D01*
X0267333Y0021300D01*
X0267397Y0021155D01*
X0267457Y0021009D01*
X0267513Y0020861D01*
X0267566Y0020712D01*
X0267615Y0020561D01*
X0267660Y0020409D01*
X0267701Y0020256D01*
X0267739Y0020103D01*
X0267772Y0019948D01*
X0267802Y0019792D01*
X0267828Y0019636D01*
X0267849Y0019479D01*
X0267867Y0019322D01*
X0267881Y0019164D01*
X0267891Y0019006D01*
X0267897Y0018848D01*
X0267899Y0018690D01*
X0267897Y0018532D01*
X0267891Y0018374D01*
X0267881Y0018216D01*
X0267867Y0018058D01*
X0267849Y0017901D01*
X0267828Y0017744D01*
X0267802Y0017588D01*
X0267772Y0017432D01*
X0267739Y0017277D01*
X0267701Y0017124D01*
X0267660Y0016971D01*
X0267615Y0016819D01*
X0267566Y0016668D01*
X0267513Y0016519D01*
X0267457Y0016371D01*
X0267397Y0016225D01*
X0267333Y0016080D01*
X0267265Y0015937D01*
X0267194Y0015795D01*
X0267120Y0015655D01*
X0267042Y0015518D01*
X0266960Y0015382D01*
X0266876Y0015248D01*
X0266787Y0015117D01*
X0266696Y0014988D01*
X0266601Y0014861D01*
X0266504Y0014736D01*
X0266403Y0014614D01*
X0266299Y0014495D01*
X0266192Y0014378D01*
X0266082Y0014264D01*
X0265969Y0014153D01*
X0265854Y0014044D01*
X0265736Y0013939D01*
X0265615Y0013837D01*
X0265492Y0013737D01*
X0265366Y0013641D01*
X0265238Y0013548D01*
X0265108Y0013458D01*
X0264975Y0013372D01*
X0264840Y0013288D01*
X0264704Y0013209D01*
X0264565Y0013132D01*
X0264424Y0013060D01*
X0264282Y0012990D01*
X0264138Y0012925D01*
X0263992Y0012863D01*
X0263845Y0012805D01*
X0263696Y0012750D01*
X0263546Y0012699D01*
X0263395Y0012652D01*
X0263243Y0012609D01*
X0263090Y0012570D01*
X0262935Y0012534D01*
X0262780Y0012503D01*
X0262624Y0012475D01*
X0262468Y0012451D01*
X0262311Y0012431D01*
X0262153Y0012415D01*
X0261996Y0012403D01*
X0261837Y0012395D01*
X0261679Y0012391D01*
X0261521Y0012391D01*
X0261363Y0012395D01*
X0261204Y0012403D01*
X0261047Y0012415D01*
X0260889Y0012431D01*
X0260732Y0012451D01*
X0260576Y0012475D01*
X0260420Y0012503D01*
X0260265Y0012534D01*
X0260110Y0012570D01*
X0259957Y0012609D01*
X0259805Y0012652D01*
X0259654Y0012699D01*
X0259504Y0012750D01*
X0259355Y0012805D01*
X0259208Y0012863D01*
X0259062Y0012925D01*
X0258918Y0012990D01*
X0258776Y0013060D01*
X0258635Y0013132D01*
X0258496Y0013209D01*
X0258360Y0013288D01*
X0258225Y0013372D01*
X0258092Y0013458D01*
X0257962Y0013548D01*
X0257834Y0013641D01*
X0257708Y0013737D01*
X0257585Y0013837D01*
X0257464Y0013939D01*
X0257346Y0014044D01*
X0257231Y0014153D01*
X0257118Y0014264D01*
X0257008Y0014378D01*
X0256901Y0014495D01*
X0256797Y0014614D01*
X0256696Y0014736D01*
X0256599Y0014861D01*
X0256504Y0014988D01*
X0256413Y0015117D01*
X0256324Y0015248D01*
X0256240Y0015382D01*
X0256158Y0015518D01*
X0256080Y0015655D01*
X0256006Y0015795D01*
X0255935Y0015937D01*
X0255867Y0016080D01*
X0255803Y0016225D01*
X0255743Y0016371D01*
X0255687Y0016519D01*
X0255634Y0016668D01*
X0255585Y0016819D01*
X0255540Y0016971D01*
X0255499Y0017124D01*
X0255461Y0017277D01*
X0255428Y0017432D01*
X0255398Y0017588D01*
X0255372Y0017744D01*
X0255351Y0017901D01*
X0255333Y0018058D01*
X0255319Y0018216D01*
X0255309Y0018374D01*
X0255303Y0018532D01*
X0255301Y0018690D01*
D11*
X0211600Y0039950D03*
X0211600Y0047430D03*
X0186600Y0119753D03*
X0186600Y0127627D03*
X0146600Y0127627D03*
X0146600Y0119753D03*
X0066600Y0067430D03*
X0066600Y0059950D03*
D12*
X0059946Y0083690D03*
X0053254Y0083690D03*
X0118254Y0083690D03*
X0124946Y0083690D03*
X0138254Y0058690D03*
X0144946Y0058690D03*
X0158254Y0083690D03*
X0164946Y0083690D03*
X0218254Y0083690D03*
X0224946Y0083690D03*
X0174946Y0033690D03*
X0168254Y0033690D03*
X0129946Y0018690D03*
X0123254Y0018690D03*
X0109946Y0033690D03*
X0103254Y0033690D03*
X0089946Y0018690D03*
X0083254Y0018690D03*
D13*
X0082663Y0078690D03*
X0090537Y0078690D03*
X0060340Y0128690D03*
X0052860Y0128690D03*
X0105163Y0138690D03*
X0113037Y0138690D03*
X0187663Y0078690D03*
X0195537Y0078690D03*
X0217860Y0128690D03*
X0225340Y0128690D03*
D14*
X0166600Y0057037D03*
X0166600Y0050344D03*
X0129100Y0032037D03*
X0129100Y0025344D03*
X0111600Y0050344D03*
X0111600Y0057037D03*
X0084100Y0032037D03*
X0084100Y0025344D03*
X0096600Y0155344D03*
X0096600Y0162037D03*
D15*
X0169100Y0160777D03*
X0169100Y0146604D03*
D16*
X0184100Y0143651D03*
X0184100Y0163730D03*
D17*
X0096600Y0169556D03*
X0096600Y0177824D03*
D18*
X0161285Y0123690D03*
X0171915Y0123690D03*
D19*
X0180011Y0025762D02*
X0185787Y0025762D01*
X0180011Y0025762D02*
X0180011Y0026972D01*
X0185787Y0026972D01*
X0185787Y0025762D01*
X0185787Y0026165D02*
X0180011Y0026165D01*
X0180011Y0026568D02*
X0185787Y0026568D01*
X0185787Y0026971D02*
X0180011Y0026971D01*
X0180011Y0023203D02*
X0185787Y0023203D01*
X0180011Y0023203D02*
X0180011Y0024413D01*
X0185787Y0024413D01*
X0185787Y0023203D01*
X0185787Y0023606D02*
X0180011Y0023606D01*
X0180011Y0024009D02*
X0185787Y0024009D01*
X0185787Y0024412D02*
X0180011Y0024412D01*
X0180011Y0020644D02*
X0185787Y0020644D01*
X0180011Y0020644D02*
X0180011Y0021854D01*
X0185787Y0021854D01*
X0185787Y0020644D01*
X0185787Y0021047D02*
X0180011Y0021047D01*
X0180011Y0021450D02*
X0185787Y0021450D01*
X0185787Y0021853D02*
X0180011Y0021853D01*
X0180011Y0018085D02*
X0185787Y0018085D01*
X0180011Y0018085D02*
X0180011Y0019295D01*
X0185787Y0019295D01*
X0185787Y0018085D01*
X0185787Y0018488D02*
X0180011Y0018488D01*
X0180011Y0018891D02*
X0185787Y0018891D01*
X0185787Y0019294D02*
X0180011Y0019294D01*
X0180011Y0015526D02*
X0185787Y0015526D01*
X0180011Y0015526D02*
X0180011Y0016736D01*
X0185787Y0016736D01*
X0185787Y0015526D01*
X0185787Y0015929D02*
X0180011Y0015929D01*
X0180011Y0016332D02*
X0185787Y0016332D01*
X0185787Y0016735D02*
X0180011Y0016735D01*
X0180011Y0012967D02*
X0185787Y0012967D01*
X0180011Y0012967D02*
X0180011Y0014177D01*
X0185787Y0014177D01*
X0185787Y0012967D01*
X0185787Y0013370D02*
X0180011Y0013370D01*
X0180011Y0013773D02*
X0185787Y0013773D01*
X0185787Y0014176D02*
X0180011Y0014176D01*
X0180011Y0010408D02*
X0185787Y0010408D01*
X0180011Y0010408D02*
X0180011Y0011618D01*
X0185787Y0011618D01*
X0185787Y0010408D01*
X0185787Y0010811D02*
X0180011Y0010811D01*
X0180011Y0011214D02*
X0185787Y0011214D01*
X0185787Y0011617D02*
X0180011Y0011617D01*
X0163189Y0010408D02*
X0157413Y0010408D01*
X0157413Y0011618D01*
X0163189Y0011618D01*
X0163189Y0010408D01*
X0163189Y0010811D02*
X0157413Y0010811D01*
X0157413Y0011214D02*
X0163189Y0011214D01*
X0163189Y0011617D02*
X0157413Y0011617D01*
X0157413Y0012967D02*
X0163189Y0012967D01*
X0157413Y0012967D02*
X0157413Y0014177D01*
X0163189Y0014177D01*
X0163189Y0012967D01*
X0163189Y0013370D02*
X0157413Y0013370D01*
X0157413Y0013773D02*
X0163189Y0013773D01*
X0163189Y0014176D02*
X0157413Y0014176D01*
X0157413Y0015526D02*
X0163189Y0015526D01*
X0157413Y0015526D02*
X0157413Y0016736D01*
X0163189Y0016736D01*
X0163189Y0015526D01*
X0163189Y0015929D02*
X0157413Y0015929D01*
X0157413Y0016332D02*
X0163189Y0016332D01*
X0163189Y0016735D02*
X0157413Y0016735D01*
X0157413Y0018085D02*
X0163189Y0018085D01*
X0157413Y0018085D02*
X0157413Y0019295D01*
X0163189Y0019295D01*
X0163189Y0018085D01*
X0163189Y0018488D02*
X0157413Y0018488D01*
X0157413Y0018891D02*
X0163189Y0018891D01*
X0163189Y0019294D02*
X0157413Y0019294D01*
X0157413Y0020644D02*
X0163189Y0020644D01*
X0157413Y0020644D02*
X0157413Y0021854D01*
X0163189Y0021854D01*
X0163189Y0020644D01*
X0163189Y0021047D02*
X0157413Y0021047D01*
X0157413Y0021450D02*
X0163189Y0021450D01*
X0163189Y0021853D02*
X0157413Y0021853D01*
X0157413Y0023203D02*
X0163189Y0023203D01*
X0157413Y0023203D02*
X0157413Y0024413D01*
X0163189Y0024413D01*
X0163189Y0023203D01*
X0163189Y0023606D02*
X0157413Y0023606D01*
X0157413Y0024009D02*
X0163189Y0024009D01*
X0163189Y0024412D02*
X0157413Y0024412D01*
X0157413Y0025762D02*
X0163189Y0025762D01*
X0157413Y0025762D02*
X0157413Y0026972D01*
X0163189Y0026972D01*
X0163189Y0025762D01*
X0163189Y0026165D02*
X0157413Y0026165D01*
X0157413Y0026568D02*
X0163189Y0026568D01*
X0163189Y0026971D02*
X0157413Y0026971D01*
D20*
X0149202Y0045340D02*
X0145060Y0045340D01*
X0145060Y0046136D01*
X0149202Y0046136D01*
X0149202Y0045340D01*
X0149202Y0045605D02*
X0145060Y0045605D01*
X0145060Y0045870D02*
X0149202Y0045870D01*
X0149202Y0046135D02*
X0145060Y0046135D01*
X0145060Y0047308D02*
X0149202Y0047308D01*
X0145060Y0047308D02*
X0145060Y0048104D01*
X0149202Y0048104D01*
X0149202Y0047308D01*
X0149202Y0047573D02*
X0145060Y0047573D01*
X0145060Y0047838D02*
X0149202Y0047838D01*
X0149202Y0048103D02*
X0145060Y0048103D01*
X0145060Y0049277D02*
X0149202Y0049277D01*
X0145060Y0049277D02*
X0145060Y0050073D01*
X0149202Y0050073D01*
X0149202Y0049277D01*
X0149202Y0049542D02*
X0145060Y0049542D01*
X0145060Y0049807D02*
X0149202Y0049807D01*
X0149202Y0050072D02*
X0145060Y0050072D01*
X0145060Y0051245D02*
X0149202Y0051245D01*
X0145060Y0051245D02*
X0145060Y0052041D01*
X0149202Y0052041D01*
X0149202Y0051245D01*
X0149202Y0051510D02*
X0145060Y0051510D01*
X0145060Y0051775D02*
X0149202Y0051775D01*
X0149202Y0052040D02*
X0145060Y0052040D01*
X0138140Y0051245D02*
X0133998Y0051245D01*
X0133998Y0052041D01*
X0138140Y0052041D01*
X0138140Y0051245D01*
X0138140Y0051510D02*
X0133998Y0051510D01*
X0133998Y0051775D02*
X0138140Y0051775D01*
X0138140Y0052040D02*
X0133998Y0052040D01*
X0133998Y0049277D02*
X0138140Y0049277D01*
X0133998Y0049277D02*
X0133998Y0050073D01*
X0138140Y0050073D01*
X0138140Y0049277D01*
X0138140Y0049542D02*
X0133998Y0049542D01*
X0133998Y0049807D02*
X0138140Y0049807D01*
X0138140Y0050072D02*
X0133998Y0050072D01*
X0133998Y0047308D02*
X0138140Y0047308D01*
X0133998Y0047308D02*
X0133998Y0048104D01*
X0138140Y0048104D01*
X0138140Y0047308D01*
X0138140Y0047573D02*
X0133998Y0047573D01*
X0133998Y0047838D02*
X0138140Y0047838D01*
X0138140Y0048103D02*
X0133998Y0048103D01*
X0133998Y0045340D02*
X0138140Y0045340D01*
X0133998Y0045340D02*
X0133998Y0046136D01*
X0138140Y0046136D01*
X0138140Y0045340D01*
X0138140Y0045605D02*
X0133998Y0045605D01*
X0133998Y0045870D02*
X0138140Y0045870D01*
X0138140Y0046135D02*
X0133998Y0046135D01*
D21*
X0128638Y0069094D02*
X0124444Y0069094D01*
X0124444Y0070806D01*
X0128638Y0070806D01*
X0128638Y0069094D01*
X0128638Y0069664D02*
X0124444Y0069664D01*
X0124444Y0070234D02*
X0128638Y0070234D01*
X0128638Y0070804D02*
X0124444Y0070804D01*
X0124444Y0072834D02*
X0128638Y0072834D01*
X0124444Y0072834D02*
X0124444Y0074546D01*
X0128638Y0074546D01*
X0128638Y0072834D01*
X0128638Y0073404D02*
X0124444Y0073404D01*
X0124444Y0073974D02*
X0128638Y0073974D01*
X0128638Y0074544D02*
X0124444Y0074544D01*
X0124444Y0076574D02*
X0128638Y0076574D01*
X0124444Y0076574D02*
X0124444Y0078286D01*
X0128638Y0078286D01*
X0128638Y0076574D01*
X0128638Y0077144D02*
X0124444Y0077144D01*
X0124444Y0077714D02*
X0128638Y0077714D01*
X0128638Y0078284D02*
X0124444Y0078284D01*
X0118756Y0076574D02*
X0114562Y0076574D01*
X0114562Y0078286D01*
X0118756Y0078286D01*
X0118756Y0076574D01*
X0118756Y0077144D02*
X0114562Y0077144D01*
X0114562Y0077714D02*
X0118756Y0077714D01*
X0118756Y0078284D02*
X0114562Y0078284D01*
X0114562Y0072834D02*
X0118756Y0072834D01*
X0114562Y0072834D02*
X0114562Y0074546D01*
X0118756Y0074546D01*
X0118756Y0072834D01*
X0118756Y0073404D02*
X0114562Y0073404D01*
X0114562Y0073974D02*
X0118756Y0073974D01*
X0118756Y0074544D02*
X0114562Y0074544D01*
X0114562Y0069094D02*
X0118756Y0069094D01*
X0114562Y0069094D02*
X0114562Y0070806D01*
X0118756Y0070806D01*
X0118756Y0069094D01*
X0118756Y0069664D02*
X0114562Y0069664D01*
X0114562Y0070234D02*
X0118756Y0070234D01*
X0118756Y0070804D02*
X0114562Y0070804D01*
X0154562Y0069094D02*
X0158756Y0069094D01*
X0154562Y0069094D02*
X0154562Y0070806D01*
X0158756Y0070806D01*
X0158756Y0069094D01*
X0158756Y0069664D02*
X0154562Y0069664D01*
X0154562Y0070234D02*
X0158756Y0070234D01*
X0158756Y0070804D02*
X0154562Y0070804D01*
X0154562Y0072834D02*
X0158756Y0072834D01*
X0154562Y0072834D02*
X0154562Y0074546D01*
X0158756Y0074546D01*
X0158756Y0072834D01*
X0158756Y0073404D02*
X0154562Y0073404D01*
X0154562Y0073974D02*
X0158756Y0073974D01*
X0158756Y0074544D02*
X0154562Y0074544D01*
X0154562Y0076574D02*
X0158756Y0076574D01*
X0154562Y0076574D02*
X0154562Y0078286D01*
X0158756Y0078286D01*
X0158756Y0076574D01*
X0158756Y0077144D02*
X0154562Y0077144D01*
X0154562Y0077714D02*
X0158756Y0077714D01*
X0158756Y0078284D02*
X0154562Y0078284D01*
X0164444Y0076574D02*
X0168638Y0076574D01*
X0164444Y0076574D02*
X0164444Y0078286D01*
X0168638Y0078286D01*
X0168638Y0076574D01*
X0168638Y0077144D02*
X0164444Y0077144D01*
X0164444Y0077714D02*
X0168638Y0077714D01*
X0168638Y0078284D02*
X0164444Y0078284D01*
X0164444Y0072834D02*
X0168638Y0072834D01*
X0164444Y0072834D02*
X0164444Y0074546D01*
X0168638Y0074546D01*
X0168638Y0072834D01*
X0168638Y0073404D02*
X0164444Y0073404D01*
X0164444Y0073974D02*
X0168638Y0073974D01*
X0168638Y0074544D02*
X0164444Y0074544D01*
X0164444Y0069094D02*
X0168638Y0069094D01*
X0164444Y0069094D02*
X0164444Y0070806D01*
X0168638Y0070806D01*
X0168638Y0069094D01*
X0168638Y0069664D02*
X0164444Y0069664D01*
X0164444Y0070234D02*
X0168638Y0070234D01*
X0168638Y0070804D02*
X0164444Y0070804D01*
D22*
X0176364Y0061190D03*
X0176364Y0056190D03*
X0176364Y0051190D03*
X0176364Y0046190D03*
X0196836Y0046190D03*
X0196836Y0051190D03*
X0196836Y0056190D03*
X0196836Y0061190D03*
X0101836Y0061190D03*
X0101836Y0056190D03*
X0101836Y0051190D03*
X0101836Y0046190D03*
X0081364Y0046190D03*
X0081364Y0051190D03*
X0081364Y0056190D03*
X0081364Y0061190D03*
D23*
X0064100Y0093454D03*
X0059100Y0093454D03*
X0054100Y0093454D03*
X0049100Y0093454D03*
X0049100Y0113927D03*
X0054100Y0113927D03*
X0059100Y0113927D03*
X0064100Y0113927D03*
X0214100Y0113927D03*
X0219100Y0113927D03*
X0224100Y0113927D03*
X0229100Y0113927D03*
X0229100Y0093454D03*
X0224100Y0093454D03*
X0219100Y0093454D03*
X0214100Y0093454D03*
D24*
X0116231Y0028195D02*
X0116246Y0028119D01*
X0116246Y0026938D01*
X0116231Y0026863D01*
X0116188Y0026799D01*
X0116124Y0026756D01*
X0116049Y0026741D01*
X0112112Y0026741D01*
X0112036Y0026756D01*
X0111973Y0026799D01*
X0111930Y0026863D01*
X0111915Y0026938D01*
X0111915Y0028119D01*
X0111930Y0028195D01*
X0111973Y0028259D01*
X0112036Y0028301D01*
X0112112Y0028316D01*
X0116049Y0028316D01*
X0116124Y0028301D01*
X0116188Y0028259D01*
X0116231Y0028195D01*
X0116227Y0028200D02*
X0111933Y0028200D01*
X0111923Y0028162D02*
X0116237Y0028162D01*
X0116245Y0028124D02*
X0111916Y0028124D01*
X0111915Y0028086D02*
X0116246Y0028086D01*
X0116246Y0028048D02*
X0111915Y0028048D01*
X0111915Y0028010D02*
X0116246Y0028010D01*
X0116246Y0027972D02*
X0111915Y0027972D01*
X0111915Y0027934D02*
X0116246Y0027934D01*
X0116246Y0027896D02*
X0111915Y0027896D01*
X0111915Y0027859D02*
X0116246Y0027859D01*
X0116246Y0027821D02*
X0111915Y0027821D01*
X0111915Y0027783D02*
X0116246Y0027783D01*
X0116246Y0027745D02*
X0111915Y0027745D01*
X0111915Y0027707D02*
X0116246Y0027707D01*
X0116246Y0027669D02*
X0111915Y0027669D01*
X0111915Y0027631D02*
X0116246Y0027631D01*
X0116246Y0027593D02*
X0111915Y0027593D01*
X0111915Y0027556D02*
X0116246Y0027556D01*
X0116246Y0027518D02*
X0111915Y0027518D01*
X0111915Y0027480D02*
X0116246Y0027480D01*
X0116246Y0027442D02*
X0111915Y0027442D01*
X0111915Y0027404D02*
X0116246Y0027404D01*
X0116246Y0027366D02*
X0111915Y0027366D01*
X0111915Y0027328D02*
X0116246Y0027328D01*
X0116246Y0027290D02*
X0111915Y0027290D01*
X0111915Y0027253D02*
X0116246Y0027253D01*
X0116246Y0027215D02*
X0111915Y0027215D01*
X0111915Y0027177D02*
X0116246Y0027177D01*
X0116246Y0027139D02*
X0111915Y0027139D01*
X0111915Y0027101D02*
X0116246Y0027101D01*
X0116246Y0027063D02*
X0111915Y0027063D01*
X0111915Y0027025D02*
X0116246Y0027025D01*
X0116246Y0026987D02*
X0111915Y0026987D01*
X0111915Y0026949D02*
X0116246Y0026949D01*
X0116240Y0026912D02*
X0111920Y0026912D01*
X0111928Y0026874D02*
X0116233Y0026874D01*
X0116213Y0026836D02*
X0111948Y0026836D01*
X0111974Y0026798D02*
X0116186Y0026798D01*
X0116130Y0026760D02*
X0112031Y0026760D01*
X0112112Y0025757D02*
X0116049Y0025757D01*
X0116124Y0025742D01*
X0116188Y0025700D01*
X0116231Y0025636D01*
X0116246Y0025560D01*
X0116246Y0024379D01*
X0116231Y0024304D01*
X0116188Y0024240D01*
X0116124Y0024197D01*
X0116049Y0024182D01*
X0112112Y0024182D01*
X0112036Y0024197D01*
X0111973Y0024240D01*
X0111930Y0024304D01*
X0111915Y0024379D01*
X0111915Y0025560D01*
X0111930Y0025636D01*
X0111973Y0025700D01*
X0112036Y0025742D01*
X0112112Y0025757D01*
X0112029Y0025737D02*
X0116132Y0025737D01*
X0116188Y0025699D02*
X0111972Y0025699D01*
X0111947Y0025661D02*
X0116213Y0025661D01*
X0116233Y0025624D02*
X0111928Y0025624D01*
X0111920Y0025586D02*
X0116241Y0025586D01*
X0116246Y0025548D02*
X0111915Y0025548D01*
X0111915Y0025510D02*
X0116246Y0025510D01*
X0116246Y0025472D02*
X0111915Y0025472D01*
X0111915Y0025434D02*
X0116246Y0025434D01*
X0116246Y0025396D02*
X0111915Y0025396D01*
X0111915Y0025358D02*
X0116246Y0025358D01*
X0116246Y0025321D02*
X0111915Y0025321D01*
X0111915Y0025283D02*
X0116246Y0025283D01*
X0116246Y0025245D02*
X0111915Y0025245D01*
X0111915Y0025207D02*
X0116246Y0025207D01*
X0116246Y0025169D02*
X0111915Y0025169D01*
X0111915Y0025131D02*
X0116246Y0025131D01*
X0116246Y0025093D02*
X0111915Y0025093D01*
X0111915Y0025055D02*
X0116246Y0025055D01*
X0116246Y0025018D02*
X0111915Y0025018D01*
X0111915Y0024980D02*
X0116246Y0024980D01*
X0116246Y0024942D02*
X0111915Y0024942D01*
X0111915Y0024904D02*
X0116246Y0024904D01*
X0116246Y0024866D02*
X0111915Y0024866D01*
X0111915Y0024828D02*
X0116246Y0024828D01*
X0116246Y0024790D02*
X0111915Y0024790D01*
X0111915Y0024752D02*
X0116246Y0024752D01*
X0116246Y0024714D02*
X0111915Y0024714D01*
X0111915Y0024677D02*
X0116246Y0024677D01*
X0116246Y0024639D02*
X0111915Y0024639D01*
X0111915Y0024601D02*
X0116246Y0024601D01*
X0116246Y0024563D02*
X0111915Y0024563D01*
X0111915Y0024525D02*
X0116246Y0024525D01*
X0116246Y0024487D02*
X0111915Y0024487D01*
X0111915Y0024449D02*
X0116246Y0024449D01*
X0116246Y0024411D02*
X0111915Y0024411D01*
X0111916Y0024374D02*
X0116245Y0024374D01*
X0116237Y0024336D02*
X0111924Y0024336D01*
X0111934Y0024298D02*
X0116227Y0024298D01*
X0116201Y0024260D02*
X0111959Y0024260D01*
X0112000Y0024222D02*
X0116161Y0024222D01*
X0116057Y0024184D02*
X0112103Y0024184D01*
X0112112Y0023198D02*
X0116049Y0023198D01*
X0116124Y0023183D01*
X0116188Y0023141D01*
X0116231Y0023077D01*
X0116246Y0023001D01*
X0116246Y0021820D01*
X0116231Y0021745D01*
X0116188Y0021681D01*
X0116124Y0021638D01*
X0116049Y0021623D01*
X0112112Y0021623D01*
X0112036Y0021638D01*
X0111973Y0021681D01*
X0111930Y0021745D01*
X0111915Y0021820D01*
X0111915Y0023001D01*
X0111930Y0023077D01*
X0111973Y0023141D01*
X0112036Y0023183D01*
X0112112Y0023198D01*
X0112004Y0023161D02*
X0116157Y0023161D01*
X0116199Y0023123D02*
X0111961Y0023123D01*
X0111936Y0023086D02*
X0116225Y0023086D01*
X0116236Y0023048D02*
X0111924Y0023048D01*
X0111917Y0023010D02*
X0116244Y0023010D01*
X0116246Y0022972D02*
X0111915Y0022972D01*
X0111915Y0022934D02*
X0116246Y0022934D01*
X0116246Y0022896D02*
X0111915Y0022896D01*
X0111915Y0022858D02*
X0116246Y0022858D01*
X0116246Y0022820D02*
X0111915Y0022820D01*
X0111915Y0022783D02*
X0116246Y0022783D01*
X0116246Y0022745D02*
X0111915Y0022745D01*
X0111915Y0022707D02*
X0116246Y0022707D01*
X0116246Y0022669D02*
X0111915Y0022669D01*
X0111915Y0022631D02*
X0116246Y0022631D01*
X0116246Y0022593D02*
X0111915Y0022593D01*
X0111915Y0022555D02*
X0116246Y0022555D01*
X0116246Y0022517D02*
X0111915Y0022517D01*
X0111915Y0022479D02*
X0116246Y0022479D01*
X0116246Y0022442D02*
X0111915Y0022442D01*
X0111915Y0022404D02*
X0116246Y0022404D01*
X0116246Y0022366D02*
X0111915Y0022366D01*
X0111915Y0022328D02*
X0116246Y0022328D01*
X0116246Y0022290D02*
X0111915Y0022290D01*
X0111915Y0022252D02*
X0116246Y0022252D01*
X0116246Y0022214D02*
X0111915Y0022214D01*
X0111915Y0022176D02*
X0116246Y0022176D01*
X0116246Y0022139D02*
X0111915Y0022139D01*
X0111915Y0022101D02*
X0116246Y0022101D01*
X0116246Y0022063D02*
X0111915Y0022063D01*
X0111915Y0022025D02*
X0116246Y0022025D01*
X0116246Y0021987D02*
X0111915Y0021987D01*
X0111915Y0021949D02*
X0116246Y0021949D01*
X0116246Y0021911D02*
X0111915Y0021911D01*
X0111915Y0021873D02*
X0116246Y0021873D01*
X0116246Y0021835D02*
X0111915Y0021835D01*
X0111919Y0021798D02*
X0116241Y0021798D01*
X0116234Y0021760D02*
X0111927Y0021760D01*
X0111945Y0021722D02*
X0116215Y0021722D01*
X0116190Y0021684D02*
X0111971Y0021684D01*
X0112025Y0021646D02*
X0116136Y0021646D01*
X0116049Y0020639D02*
X0112112Y0020639D01*
X0112036Y0020624D01*
X0111973Y0020581D01*
X0111930Y0020518D01*
X0111915Y0020442D01*
X0111915Y0019261D01*
X0111930Y0019186D01*
X0111973Y0019122D01*
X0112036Y0019079D01*
X0112112Y0019064D01*
X0116049Y0019064D01*
X0116124Y0019079D01*
X0116188Y0019122D01*
X0116231Y0019186D01*
X0116246Y0019261D01*
X0116246Y0020442D01*
X0116231Y0020518D01*
X0116188Y0020581D01*
X0116124Y0020624D01*
X0116049Y0020639D01*
X0116125Y0020623D02*
X0112035Y0020623D01*
X0111978Y0020585D02*
X0116182Y0020585D01*
X0116211Y0020548D02*
X0111950Y0020548D01*
X0111928Y0020510D02*
X0116232Y0020510D01*
X0116240Y0020472D02*
X0111921Y0020472D01*
X0111915Y0020434D02*
X0116246Y0020434D01*
X0116246Y0020396D02*
X0111915Y0020396D01*
X0111915Y0020358D02*
X0116246Y0020358D01*
X0116246Y0020320D02*
X0111915Y0020320D01*
X0111915Y0020282D02*
X0116246Y0020282D01*
X0116246Y0020244D02*
X0111915Y0020244D01*
X0111915Y0020207D02*
X0116246Y0020207D01*
X0116246Y0020169D02*
X0111915Y0020169D01*
X0111915Y0020131D02*
X0116246Y0020131D01*
X0116246Y0020093D02*
X0111915Y0020093D01*
X0111915Y0020055D02*
X0116246Y0020055D01*
X0116246Y0020017D02*
X0111915Y0020017D01*
X0111915Y0019979D02*
X0116246Y0019979D01*
X0116246Y0019941D02*
X0111915Y0019941D01*
X0111915Y0019904D02*
X0116246Y0019904D01*
X0116246Y0019866D02*
X0111915Y0019866D01*
X0111915Y0019828D02*
X0116246Y0019828D01*
X0116246Y0019790D02*
X0111915Y0019790D01*
X0111915Y0019752D02*
X0116246Y0019752D01*
X0116246Y0019714D02*
X0111915Y0019714D01*
X0111915Y0019676D02*
X0116246Y0019676D01*
X0116246Y0019638D02*
X0111915Y0019638D01*
X0111915Y0019600D02*
X0116246Y0019600D01*
X0116246Y0019563D02*
X0111915Y0019563D01*
X0111915Y0019525D02*
X0116246Y0019525D01*
X0116246Y0019487D02*
X0111915Y0019487D01*
X0111915Y0019449D02*
X0116246Y0019449D01*
X0116246Y0019411D02*
X0111915Y0019411D01*
X0111915Y0019373D02*
X0116246Y0019373D01*
X0116246Y0019335D02*
X0111915Y0019335D01*
X0111915Y0019297D02*
X0116246Y0019297D01*
X0116245Y0019260D02*
X0111915Y0019260D01*
X0111923Y0019222D02*
X0116238Y0019222D01*
X0116229Y0019184D02*
X0111931Y0019184D01*
X0111957Y0019146D02*
X0116204Y0019146D01*
X0116167Y0019108D02*
X0111993Y0019108D01*
X0112083Y0019070D02*
X0116078Y0019070D01*
X0116202Y0028237D02*
X0111958Y0028237D01*
X0111998Y0028275D02*
X0116163Y0028275D01*
X0116064Y0028313D02*
X0112096Y0028313D01*
X0101285Y0028119D02*
X0101285Y0026938D01*
X0101270Y0026863D01*
X0101227Y0026799D01*
X0101164Y0026756D01*
X0101088Y0026741D01*
X0097151Y0026741D01*
X0097076Y0026756D01*
X0097012Y0026799D01*
X0096969Y0026863D01*
X0096954Y0026938D01*
X0096954Y0028119D01*
X0096969Y0028195D01*
X0097012Y0028259D01*
X0097076Y0028301D01*
X0097151Y0028316D01*
X0101088Y0028316D01*
X0101164Y0028301D01*
X0101227Y0028259D01*
X0101270Y0028195D01*
X0101285Y0028119D01*
X0101284Y0028124D02*
X0096955Y0028124D01*
X0096954Y0028086D02*
X0101285Y0028086D01*
X0101285Y0028048D02*
X0096954Y0028048D01*
X0096954Y0028010D02*
X0101285Y0028010D01*
X0101285Y0027972D02*
X0096954Y0027972D01*
X0096954Y0027934D02*
X0101285Y0027934D01*
X0101285Y0027896D02*
X0096954Y0027896D01*
X0096954Y0027859D02*
X0101285Y0027859D01*
X0101285Y0027821D02*
X0096954Y0027821D01*
X0096954Y0027783D02*
X0101285Y0027783D01*
X0101285Y0027745D02*
X0096954Y0027745D01*
X0096954Y0027707D02*
X0101285Y0027707D01*
X0101285Y0027669D02*
X0096954Y0027669D01*
X0096954Y0027631D02*
X0101285Y0027631D01*
X0101285Y0027593D02*
X0096954Y0027593D01*
X0096954Y0027556D02*
X0101285Y0027556D01*
X0101285Y0027518D02*
X0096954Y0027518D01*
X0096954Y0027480D02*
X0101285Y0027480D01*
X0101285Y0027442D02*
X0096954Y0027442D01*
X0096954Y0027404D02*
X0101285Y0027404D01*
X0101285Y0027366D02*
X0096954Y0027366D01*
X0096954Y0027328D02*
X0101285Y0027328D01*
X0101285Y0027290D02*
X0096954Y0027290D01*
X0096954Y0027253D02*
X0101285Y0027253D01*
X0101285Y0027215D02*
X0096954Y0027215D01*
X0096954Y0027177D02*
X0101285Y0027177D01*
X0101285Y0027139D02*
X0096954Y0027139D01*
X0096954Y0027101D02*
X0101285Y0027101D01*
X0101285Y0027063D02*
X0096954Y0027063D01*
X0096954Y0027025D02*
X0101285Y0027025D01*
X0101285Y0026987D02*
X0096954Y0026987D01*
X0096954Y0026949D02*
X0101285Y0026949D01*
X0101280Y0026912D02*
X0096960Y0026912D01*
X0096967Y0026874D02*
X0101272Y0026874D01*
X0101252Y0026836D02*
X0096987Y0026836D01*
X0097014Y0026798D02*
X0101226Y0026798D01*
X0101169Y0026760D02*
X0097070Y0026760D01*
X0097151Y0025757D02*
X0101088Y0025757D01*
X0101164Y0025742D01*
X0101227Y0025700D01*
X0101270Y0025636D01*
X0101285Y0025560D01*
X0101285Y0024379D01*
X0101270Y0024304D01*
X0101227Y0024240D01*
X0101164Y0024197D01*
X0101088Y0024182D01*
X0097151Y0024182D01*
X0097076Y0024197D01*
X0097012Y0024240D01*
X0096969Y0024304D01*
X0096954Y0024379D01*
X0096954Y0025560D01*
X0096969Y0025636D01*
X0097012Y0025700D01*
X0097076Y0025742D01*
X0097151Y0025757D01*
X0097068Y0025737D02*
X0101171Y0025737D01*
X0101228Y0025699D02*
X0097012Y0025699D01*
X0096987Y0025661D02*
X0101253Y0025661D01*
X0101272Y0025624D02*
X0096967Y0025624D01*
X0096959Y0025586D02*
X0101280Y0025586D01*
X0101285Y0025548D02*
X0096954Y0025548D01*
X0096954Y0025510D02*
X0101285Y0025510D01*
X0101285Y0025472D02*
X0096954Y0025472D01*
X0096954Y0025434D02*
X0101285Y0025434D01*
X0101285Y0025396D02*
X0096954Y0025396D01*
X0096954Y0025358D02*
X0101285Y0025358D01*
X0101285Y0025321D02*
X0096954Y0025321D01*
X0096954Y0025283D02*
X0101285Y0025283D01*
X0101285Y0025245D02*
X0096954Y0025245D01*
X0096954Y0025207D02*
X0101285Y0025207D01*
X0101285Y0025169D02*
X0096954Y0025169D01*
X0096954Y0025131D02*
X0101285Y0025131D01*
X0101285Y0025093D02*
X0096954Y0025093D01*
X0096954Y0025055D02*
X0101285Y0025055D01*
X0101285Y0025018D02*
X0096954Y0025018D01*
X0096954Y0024980D02*
X0101285Y0024980D01*
X0101285Y0024942D02*
X0096954Y0024942D01*
X0096954Y0024904D02*
X0101285Y0024904D01*
X0101285Y0024866D02*
X0096954Y0024866D01*
X0096954Y0024828D02*
X0101285Y0024828D01*
X0101285Y0024790D02*
X0096954Y0024790D01*
X0096954Y0024752D02*
X0101285Y0024752D01*
X0101285Y0024714D02*
X0096954Y0024714D01*
X0096954Y0024677D02*
X0101285Y0024677D01*
X0101285Y0024639D02*
X0096954Y0024639D01*
X0096954Y0024601D02*
X0101285Y0024601D01*
X0101285Y0024563D02*
X0096954Y0024563D01*
X0096954Y0024525D02*
X0101285Y0024525D01*
X0101285Y0024487D02*
X0096954Y0024487D01*
X0096954Y0024449D02*
X0101285Y0024449D01*
X0101285Y0024411D02*
X0096954Y0024411D01*
X0096955Y0024374D02*
X0101284Y0024374D01*
X0101276Y0024336D02*
X0096963Y0024336D01*
X0096973Y0024298D02*
X0101266Y0024298D01*
X0101241Y0024260D02*
X0096999Y0024260D01*
X0097039Y0024222D02*
X0101200Y0024222D01*
X0101097Y0024184D02*
X0097143Y0024184D01*
X0097151Y0023198D02*
X0101088Y0023198D01*
X0101164Y0023183D01*
X0101227Y0023141D01*
X0101270Y0023077D01*
X0101285Y0023001D01*
X0101285Y0021820D01*
X0101270Y0021745D01*
X0101227Y0021681D01*
X0101164Y0021638D01*
X0101088Y0021623D01*
X0097151Y0021623D01*
X0097076Y0021638D01*
X0097012Y0021681D01*
X0096969Y0021745D01*
X0096954Y0021820D01*
X0096954Y0023001D01*
X0096969Y0023077D01*
X0097012Y0023141D01*
X0097076Y0023183D01*
X0097151Y0023198D01*
X0097043Y0023161D02*
X0101196Y0023161D01*
X0101239Y0023123D02*
X0097001Y0023123D01*
X0096975Y0023086D02*
X0101264Y0023086D01*
X0101276Y0023048D02*
X0096964Y0023048D01*
X0096956Y0023010D02*
X0101283Y0023010D01*
X0101285Y0022972D02*
X0096954Y0022972D01*
X0096954Y0022934D02*
X0101285Y0022934D01*
X0101285Y0022896D02*
X0096954Y0022896D01*
X0096954Y0022858D02*
X0101285Y0022858D01*
X0101285Y0022820D02*
X0096954Y0022820D01*
X0096954Y0022783D02*
X0101285Y0022783D01*
X0101285Y0022745D02*
X0096954Y0022745D01*
X0096954Y0022707D02*
X0101285Y0022707D01*
X0101285Y0022669D02*
X0096954Y0022669D01*
X0096954Y0022631D02*
X0101285Y0022631D01*
X0101285Y0022593D02*
X0096954Y0022593D01*
X0096954Y0022555D02*
X0101285Y0022555D01*
X0101285Y0022517D02*
X0096954Y0022517D01*
X0096954Y0022479D02*
X0101285Y0022479D01*
X0101285Y0022442D02*
X0096954Y0022442D01*
X0096954Y0022404D02*
X0101285Y0022404D01*
X0101285Y0022366D02*
X0096954Y0022366D01*
X0096954Y0022328D02*
X0101285Y0022328D01*
X0101285Y0022290D02*
X0096954Y0022290D01*
X0096954Y0022252D02*
X0101285Y0022252D01*
X0101285Y0022214D02*
X0096954Y0022214D01*
X0096954Y0022176D02*
X0101285Y0022176D01*
X0101285Y0022139D02*
X0096954Y0022139D01*
X0096954Y0022101D02*
X0101285Y0022101D01*
X0101285Y0022063D02*
X0096954Y0022063D01*
X0096954Y0022025D02*
X0101285Y0022025D01*
X0101285Y0021987D02*
X0096954Y0021987D01*
X0096954Y0021949D02*
X0101285Y0021949D01*
X0101285Y0021911D02*
X0096954Y0021911D01*
X0096954Y0021873D02*
X0101285Y0021873D01*
X0101285Y0021835D02*
X0096954Y0021835D01*
X0096959Y0021798D02*
X0101281Y0021798D01*
X0101273Y0021760D02*
X0096966Y0021760D01*
X0096985Y0021722D02*
X0101255Y0021722D01*
X0101229Y0021684D02*
X0097010Y0021684D01*
X0097064Y0021646D02*
X0101175Y0021646D01*
X0101088Y0020639D02*
X0101164Y0020624D01*
X0101227Y0020581D01*
X0101270Y0020518D01*
X0101285Y0020442D01*
X0101285Y0019261D01*
X0101270Y0019186D01*
X0101227Y0019122D01*
X0101164Y0019079D01*
X0101088Y0019064D01*
X0097151Y0019064D01*
X0097076Y0019079D01*
X0097012Y0019122D01*
X0096969Y0019186D01*
X0096954Y0019261D01*
X0096954Y0020442D01*
X0096969Y0020518D01*
X0097012Y0020581D01*
X0097076Y0020624D01*
X0097151Y0020639D01*
X0101088Y0020639D01*
X0101165Y0020623D02*
X0097075Y0020623D01*
X0097018Y0020585D02*
X0101221Y0020585D01*
X0101250Y0020548D02*
X0096989Y0020548D01*
X0096968Y0020510D02*
X0101272Y0020510D01*
X0101279Y0020472D02*
X0096960Y0020472D01*
X0096954Y0020434D02*
X0101285Y0020434D01*
X0101285Y0020396D02*
X0096954Y0020396D01*
X0096954Y0020358D02*
X0101285Y0020358D01*
X0101285Y0020320D02*
X0096954Y0020320D01*
X0096954Y0020282D02*
X0101285Y0020282D01*
X0101285Y0020244D02*
X0096954Y0020244D01*
X0096954Y0020207D02*
X0101285Y0020207D01*
X0101285Y0020169D02*
X0096954Y0020169D01*
X0096954Y0020131D02*
X0101285Y0020131D01*
X0101285Y0020093D02*
X0096954Y0020093D01*
X0096954Y0020055D02*
X0101285Y0020055D01*
X0101285Y0020017D02*
X0096954Y0020017D01*
X0096954Y0019979D02*
X0101285Y0019979D01*
X0101285Y0019941D02*
X0096954Y0019941D01*
X0096954Y0019904D02*
X0101285Y0019904D01*
X0101285Y0019866D02*
X0096954Y0019866D01*
X0096954Y0019828D02*
X0101285Y0019828D01*
X0101285Y0019790D02*
X0096954Y0019790D01*
X0096954Y0019752D02*
X0101285Y0019752D01*
X0101285Y0019714D02*
X0096954Y0019714D01*
X0096954Y0019676D02*
X0101285Y0019676D01*
X0101285Y0019638D02*
X0096954Y0019638D01*
X0096954Y0019600D02*
X0101285Y0019600D01*
X0101285Y0019563D02*
X0096954Y0019563D01*
X0096954Y0019525D02*
X0101285Y0019525D01*
X0101285Y0019487D02*
X0096954Y0019487D01*
X0096954Y0019449D02*
X0101285Y0019449D01*
X0101285Y0019411D02*
X0096954Y0019411D01*
X0096954Y0019373D02*
X0101285Y0019373D01*
X0101285Y0019335D02*
X0096954Y0019335D01*
X0096954Y0019297D02*
X0101285Y0019297D01*
X0101285Y0019260D02*
X0096955Y0019260D01*
X0096962Y0019222D02*
X0101277Y0019222D01*
X0101269Y0019184D02*
X0096971Y0019184D01*
X0096996Y0019146D02*
X0101243Y0019146D01*
X0101207Y0019108D02*
X0097033Y0019108D01*
X0097122Y0019070D02*
X0101118Y0019070D01*
X0101277Y0028162D02*
X0096963Y0028162D01*
X0096973Y0028200D02*
X0101267Y0028200D01*
X0101242Y0028237D02*
X0096998Y0028237D01*
X0097037Y0028275D02*
X0101202Y0028275D01*
X0101104Y0028313D02*
X0097136Y0028313D01*
M02*
